<svg xmlns="http://www.w3.org/2000/svg" xmlns:xlink="http://www.w3.org/1999/xlink" width="300" zoomAndPan="magnify" viewBox="0 0 224.87999 299.999988" height="400" preserveAspectRatio="xMidYMid meet" version="1.0"><defs><g/><clipPath id="320cdcf3db"><path d="M 0 0.078125 L 224.761719 0.078125 L 224.761719 299.917969 L 0 299.917969 Z M 0 0.078125 " clip-rule="nonzero"/></clipPath><clipPath id="35e4c80539"><path d="M 96 148 L 138 148 L 138 188.980469 L 96 188.980469 Z M 96 148 " clip-rule="nonzero"/></clipPath><clipPath id="2a28ef9767"><path d="M 96 168 L 118 168 L 118 188.980469 L 96 188.980469 Z M 96 168 " clip-rule="nonzero"/></clipPath><clipPath id="bee9f146fc"><path d="M 141 106 L 179.902344 106 L 179.902344 144 L 141 144 Z M 141 106 " clip-rule="nonzero"/></clipPath><clipPath id="ce6e15db85"><path d="M 44.976562 130 L 93 130 L 93 188 L 44.976562 188 Z M 44.976562 130 " clip-rule="nonzero"/></clipPath><clipPath id="bb45fdf74b"><path d="M 83 54.050781 L 88 54.050781 L 88 64 L 83 64 Z M 83 54.050781 " clip-rule="nonzero"/></clipPath></defs><g clip-path="url(#320cdcf3db)"><path fill="#ffffff" d="M 0 0.078125 L 224.878906 0.078125 L 224.878906 299.921875 L 0 299.921875 Z M 0 0.078125 " fill-opacity="1" fill-rule="nonzero"/><path fill="#f3b062" d="M 0 0.078125 L 224.878906 0.078125 L 224.878906 299.921875 L 0 299.921875 Z M 0 0.078125 " fill-opacity="1" fill-rule="nonzero"/></g><path fill="#ffffff" d="M 135.0625 176.582031 C 134.398438 176.582031 133.835938 176.34375 133.371094 175.867188 L 109.792969 152.265625 C 109.570312 152.042969 109.402344 151.785156 109.28125 151.496094 C 109.160156 151.203125 109.101562 150.902344 109.101562 150.585938 C 109.101562 150.273438 109.160156 149.96875 109.28125 149.675781 C 109.402344 149.386719 109.570312 149.128906 109.792969 148.90625 L 143.503906 115.199219 C 143.726562 114.976562 143.984375 114.804688 144.273438 114.683594 C 144.566406 114.566406 144.867188 114.503906 145.183594 114.503906 C 145.496094 114.503906 145.800781 114.566406 146.089844 114.683594 C 146.382812 114.804688 146.640625 114.976562 146.863281 115.199219 L 170.464844 138.796875 C 170.921875 139.261719 171.152344 139.816406 171.15625 140.46875 C 171.160156 141.128906 170.929688 141.691406 170.464844 142.160156 L 136.753906 175.867188 C 136.289062 176.34375 135.726562 176.582031 135.0625 176.582031 Z M 114.847656 150.597656 L 135.0625 170.8125 L 165.410156 140.46875 L 145.097656 120.25 Z M 114.847656 150.597656 " fill-opacity="1" fill-rule="nonzero"/><g clip-path="url(#35e4c80539)"><path fill="#ffffff" d="M 99.257812 188.789062 C 99.066406 188.789062 98.878906 188.765625 98.695312 188.71875 C 98.511719 188.671875 98.335938 188.605469 98.167969 188.519531 C 97.996094 188.433594 97.84375 188.324219 97.699219 188.199219 C 97.554688 188.074219 97.429688 187.9375 97.320312 187.78125 C 97.210938 187.625 97.121094 187.460938 97.050781 187.28125 C 96.980469 187.105469 96.933594 186.925781 96.90625 186.734375 C 96.878906 186.546875 96.875 186.359375 96.894531 186.171875 C 96.914062 185.980469 96.953125 185.796875 97.015625 185.617188 L 109.222656 149.859375 C 109.289062 149.667969 109.378906 149.488281 109.488281 149.320312 C 109.601562 149.15625 109.730469 149.003906 109.882812 148.867188 C 110.03125 148.734375 110.195312 148.621094 110.375 148.527344 C 110.554688 148.433594 110.742188 148.367188 110.9375 148.320312 C 111.132812 148.273438 111.332031 148.253906 111.535156 148.261719 C 111.738281 148.265625 111.933594 148.296875 112.128906 148.351562 C 112.320312 148.40625 112.507812 148.484375 112.679688 148.585938 C 112.855469 148.6875 113.011719 148.8125 113.15625 148.953125 L 136.753906 172.554688 C 137.046875 172.84375 137.25 173.183594 137.363281 173.578125 C 137.476562 173.972656 137.488281 174.371094 137.398438 174.769531 C 137.304688 175.171875 137.121094 175.523438 136.847656 175.828125 C 136.570312 176.136719 136.238281 176.355469 135.851562 176.488281 L 100.089844 188.691406 C 99.820312 188.773438 99.539062 188.804688 99.257812 188.789062 Z M 112.488281 154.984375 L 103.09375 182.566406 L 130.796875 173.175781 Z M 112.488281 154.984375 " fill-opacity="1" fill-rule="nonzero"/></g><g clip-path="url(#2a28ef9767)"><path fill="#ffffff" d="M 99.257812 188.789062 C 99.066406 188.789062 98.878906 188.765625 98.695312 188.71875 C 98.511719 188.671875 98.335938 188.605469 98.167969 188.519531 C 97.996094 188.433594 97.84375 188.324219 97.699219 188.199219 C 97.554688 188.074219 97.429688 187.9375 97.320312 187.78125 C 97.210938 187.625 97.121094 187.460938 97.050781 187.28125 C 96.980469 187.105469 96.933594 186.925781 96.90625 186.734375 C 96.878906 186.546875 96.875 186.359375 96.894531 186.171875 C 96.914062 185.980469 96.953125 185.796875 97.015625 185.617188 L 102.308594 170.027344 C 102.398438 169.765625 102.527344 169.527344 102.699219 169.308594 C 102.871094 169.09375 103.074219 168.914062 103.308594 168.765625 C 103.542969 168.621094 103.796875 168.519531 104.066406 168.460938 C 104.335938 168.402344 104.609375 168.394531 104.882812 168.429688 C 106.449219 168.628906 107.941406 169.078125 109.359375 169.777344 C 110.777344 170.472656 112.042969 171.382812 113.15625 172.507812 C 114.269531 173.625 115.171875 174.894531 115.871094 176.308594 C 116.570312 177.722656 117.023438 179.214844 117.230469 180.777344 C 117.269531 181.050781 117.257812 181.324219 117.199219 181.59375 C 117.140625 181.863281 117.039062 182.117188 116.894531 182.351562 C 116.75 182.585938 116.566406 182.789062 116.351562 182.960938 C 116.136719 183.132812 115.894531 183.265625 115.632812 183.351562 L 100.042969 188.644531 C 99.789062 188.738281 99.527344 188.785156 99.257812 188.789062 Z M 106.148438 173.601562 L 103.09375 182.566406 L 112.058594 179.515625 C 111.582031 178.128906 110.824219 176.914062 109.785156 175.875 C 108.746094 174.839844 107.535156 174.082031 106.148438 173.601562 Z M 106.148438 173.601562 " fill-opacity="1" fill-rule="nonzero"/></g><g clip-path="url(#bee9f146fc)"><path fill="#ffffff" d="M 168.769531 143.851562 L 141.808594 116.867188 L 150.25 108.453125 C 150.585938 108.128906 150.953125 107.84375 151.34375 107.59375 C 151.738281 107.34375 152.148438 107.128906 152.582031 106.957031 C 153.015625 106.785156 153.460938 106.65625 153.917969 106.566406 C 154.375 106.480469 154.835938 106.433594 155.300781 106.433594 C 155.769531 106.433594 156.230469 106.480469 156.6875 106.566406 C 157.144531 106.65625 157.589844 106.785156 158.023438 106.957031 C 158.457031 107.128906 158.867188 107.34375 159.261719 107.59375 C 159.652344 107.84375 160.019531 108.128906 160.355469 108.453125 L 177.210938 125.304688 C 177.542969 125.636719 177.835938 126 178.097656 126.390625 C 178.359375 126.777344 178.578125 127.191406 178.757812 127.625 C 178.9375 128.058594 179.074219 128.503906 179.164062 128.964844 C 179.257812 129.425781 179.300781 129.890625 179.300781 130.359375 C 179.300781 130.828125 179.257812 131.292969 179.164062 131.753906 C 179.074219 132.214844 178.9375 132.660156 178.757812 133.09375 C 178.578125 133.527344 178.359375 133.941406 178.097656 134.328125 C 177.835938 134.71875 177.542969 135.082031 177.210938 135.414062 Z M 148.554688 116.867188 L 168.769531 137.105469 L 173.847656 132.050781 C 174.074219 131.828125 174.25 131.570312 174.371094 131.277344 C 174.492188 130.984375 174.554688 130.675781 174.554688 130.359375 C 174.554688 130.042969 174.492188 129.734375 174.371094 129.441406 C 174.25 129.148438 174.074219 128.890625 173.847656 128.667969 L 157.019531 111.8125 C 156.796875 111.589844 156.539062 111.417969 156.246094 111.300781 C 155.957031 111.179688 155.652344 111.121094 155.339844 111.121094 C 155.023438 111.121094 154.71875 111.179688 154.429688 111.300781 C 154.136719 111.417969 153.878906 111.589844 153.65625 111.8125 Z M 148.554688 116.867188 " fill-opacity="1" fill-rule="nonzero"/></g><path fill="#ffffff" d="M 135.0625 176.582031 C 134.398438 176.582031 133.835938 176.34375 133.371094 175.867188 L 126.648438 169.144531 C 126.421875 168.921875 126.25 168.664062 126.125 168.371094 C 126.003906 168.074219 125.941406 167.769531 125.941406 167.453125 C 125.941406 167.136719 126.003906 166.828125 126.125 166.535156 C 126.25 166.242188 126.421875 165.984375 126.648438 165.761719 L 160.355469 132.050781 C 160.578125 131.828125 160.835938 131.660156 161.128906 131.539062 C 161.417969 131.417969 161.722656 131.359375 162.035156 131.359375 C 162.351562 131.359375 162.65625 131.417969 162.945312 131.539062 C 163.238281 131.660156 163.492188 131.828125 163.71875 132.050781 L 170.464844 138.796875 C 170.921875 139.261719 171.152344 139.816406 171.15625 140.46875 C 171.160156 141.128906 170.929688 141.691406 170.464844 142.160156 L 136.753906 175.867188 C 136.289062 176.34375 135.726562 176.582031 135.0625 176.582031 Z M 131.703125 167.453125 L 135.0625 170.8125 L 165.410156 140.46875 L 162.046875 137.105469 Z M 131.703125 167.453125 " fill-opacity="1" fill-rule="nonzero"/><path fill="#ffffff" d="M 118.210938 159.730469 C 117.542969 159.746094 116.972656 159.523438 116.492188 159.0625 L 109.769531 152.316406 C 109.546875 152.089844 109.378906 151.835938 109.257812 151.542969 C 109.136719 151.253906 109.078125 150.949219 109.078125 150.632812 C 109.078125 150.320312 109.136719 150.015625 109.257812 149.726562 C 109.378906 149.433594 109.546875 149.175781 109.769531 148.953125 L 143.503906 115.199219 C 143.726562 114.976562 143.984375 114.804688 144.273438 114.683594 C 144.566406 114.566406 144.867188 114.503906 145.183594 114.503906 C 145.496094 114.503906 145.800781 114.566406 146.089844 114.683594 C 146.382812 114.804688 146.640625 114.976562 146.863281 115.199219 L 153.609375 121.945312 C 154.066406 122.40625 154.296875 122.960938 154.300781 123.613281 C 154.304688 124.273438 154.074219 124.835938 153.609375 125.304688 L 119.902344 159.0625 C 119.429688 159.515625 118.863281 159.738281 118.210938 159.730469 Z M 114.847656 150.597656 L 118.210938 153.960938 L 148.554688 123.613281 L 145.097656 120.25 Z M 114.847656 150.597656 " fill-opacity="1" fill-rule="nonzero"/><g clip-path="url(#ce6e15db85)"><path fill="#ffffff" d="M 90.269531 187.667969 L 47.359375 187.667969 C 47.042969 187.667969 46.738281 187.609375 46.449219 187.488281 C 46.15625 187.367188 45.898438 187.191406 45.675781 186.96875 C 45.449219 186.746094 45.277344 186.488281 45.15625 186.195312 C 45.035156 185.90625 44.976562 185.601562 44.976562 185.285156 L 44.976562 170.980469 C 44.976562 170.664062 45.035156 170.359375 45.15625 170.070312 C 45.277344 169.777344 45.449219 169.519531 45.675781 169.296875 C 45.898438 169.070312 46.15625 168.898438 46.449219 168.777344 C 46.738281 168.65625 47.042969 168.597656 47.359375 168.597656 L 68.816406 168.597656 L 68.816406 159.0625 L 47.359375 159.0625 C 47.042969 159.0625 46.738281 159 46.449219 158.878906 C 46.15625 158.757812 45.898438 158.585938 45.675781 158.363281 C 45.449219 158.140625 45.277344 157.882812 45.15625 157.589844 C 45.035156 157.296875 44.976562 156.992188 44.976562 156.675781 L 44.976562 142.375 C 44.976562 142.058594 45.035156 141.753906 45.15625 141.460938 C 45.277344 141.167969 45.449219 140.910156 45.675781 140.6875 C 45.898438 140.464844 46.15625 140.292969 46.449219 140.171875 C 46.738281 140.050781 47.042969 139.992188 47.359375 139.992188 L 83.117188 139.992188 L 83.117188 132.839844 C 83.117188 132.523438 83.179688 132.21875 83.300781 131.925781 C 83.421875 131.632812 83.59375 131.375 83.816406 131.152344 C 84.039062 130.929688 84.296875 130.757812 84.589844 130.636719 C 84.882812 130.515625 85.1875 130.453125 85.503906 130.453125 C 85.816406 130.453125 86.121094 130.515625 86.414062 130.636719 C 86.707031 130.757812 86.964844 130.929688 87.1875 131.152344 C 87.410156 131.375 87.582031 131.632812 87.703125 131.925781 C 87.824219 132.21875 87.886719 132.523438 87.886719 132.839844 L 87.886719 142.375 C 87.886719 142.691406 87.824219 142.996094 87.703125 143.285156 C 87.582031 143.578125 87.410156 143.835938 87.1875 144.058594 C 86.964844 144.285156 86.707031 144.457031 86.414062 144.578125 C 86.121094 144.699219 85.816406 144.757812 85.503906 144.757812 L 49.742188 144.757812 L 49.742188 154.292969 L 71.199219 154.292969 C 71.515625 154.292969 71.820312 154.355469 72.109375 154.476562 C 72.402344 154.597656 72.660156 154.769531 72.882812 154.992188 C 73.109375 155.214844 73.28125 155.472656 73.402344 155.765625 C 73.523438 156.058594 73.582031 156.363281 73.582031 156.675781 L 73.582031 170.980469 C 73.582031 171.296875 73.523438 171.601562 73.402344 171.894531 C 73.28125 172.183594 73.109375 172.441406 72.882812 172.667969 C 72.660156 172.890625 72.402344 173.0625 72.109375 173.183594 C 71.820312 173.304688 71.515625 173.363281 71.199219 173.363281 L 49.742188 173.363281 L 49.742188 182.898438 L 90.269531 182.898438 C 90.585938 182.898438 90.890625 182.960938 91.183594 183.082031 C 91.472656 183.203125 91.730469 183.375 91.957031 183.597656 C 92.179688 183.820312 92.351562 184.078125 92.472656 184.371094 C 92.59375 184.664062 92.652344 184.96875 92.652344 185.285156 C 92.652344 185.601562 92.59375 185.90625 92.472656 186.195312 C 92.351562 186.488281 92.179688 186.746094 91.957031 186.96875 C 91.730469 187.191406 91.472656 187.367188 91.183594 187.488281 C 90.890625 187.609375 90.585938 187.667969 90.269531 187.667969 Z M 90.269531 187.667969 " fill-opacity="1" fill-rule="nonzero"/></g><path fill="#ffffff" d="M 95.039062 116.152344 L 75.964844 116.152344 C 75.652344 116.152344 75.347656 116.089844 75.054688 115.96875 C 74.761719 115.847656 74.503906 115.675781 74.28125 115.453125 C 74.058594 115.230469 73.886719 114.972656 73.765625 114.679688 C 73.644531 114.386719 73.582031 114.082031 73.582031 113.765625 L 73.582031 109 C 73.578125 108.621094 73.492188 108.265625 73.320312 107.929688 C 73.148438 107.59375 72.910156 107.316406 72.605469 107.09375 C 72.253906 106.824219 71.914062 106.546875 71.578125 106.257812 C 71.246094 105.96875 70.921875 105.667969 70.605469 105.359375 C 70.292969 105.050781 69.984375 104.730469 69.691406 104.402344 C 69.394531 104.074219 69.109375 103.738281 68.835938 103.394531 C 68.5625 103.046875 68.296875 102.695312 68.046875 102.332031 C 67.792969 101.96875 67.550781 101.601562 67.320312 101.222656 C 67.089844 100.847656 66.875 100.464844 66.667969 100.074219 C 66.460938 99.683594 66.265625 99.289062 66.085938 98.886719 C 65.902344 98.484375 65.734375 98.074219 65.578125 97.664062 C 65.421875 97.25 65.277344 96.832031 65.144531 96.414062 C 65.015625 95.992188 64.898438 95.566406 64.792969 95.136719 C 64.6875 94.707031 64.597656 94.277344 64.519531 93.84375 C 64.441406 93.40625 64.375 92.972656 64.324219 92.53125 C 64.273438 92.09375 64.234375 91.65625 64.210938 91.214844 C 64.1875 90.773438 64.175781 90.332031 64.179688 89.890625 C 64.183594 89.449219 64.199219 89.007812 64.230469 88.570312 C 64.261719 88.128906 64.304688 87.691406 64.363281 87.25 C 64.421875 86.8125 64.492188 86.378906 64.574219 85.945312 C 64.660156 85.511719 64.757812 85.082031 64.867188 84.65625 C 64.980469 84.226562 65.101562 83.804688 65.242188 83.386719 C 65.378906 82.964844 65.527344 82.550781 65.691406 82.140625 C 65.851562 81.730469 66.027344 81.324219 66.214844 80.925781 C 66.402344 80.527344 66.601562 80.132812 66.816406 79.746094 C 67.027344 79.359375 67.25 78.976562 67.484375 78.605469 C 67.722656 78.230469 67.96875 77.867188 68.226562 77.507812 C 68.484375 77.148438 68.753906 76.800781 69.03125 76.457031 C 69.3125 76.117188 69.601562 75.785156 69.902344 75.460938 C 70.203125 75.136719 70.511719 74.824219 70.832031 74.519531 C 71.148438 74.214844 71.480469 73.917969 71.816406 73.636719 C 72.152344 73.351562 72.5 73.078125 72.855469 72.8125 C 73.210938 72.550781 73.570312 72.300781 73.941406 72.058594 C 74.3125 71.820312 74.6875 71.589844 75.074219 71.371094 C 75.457031 71.15625 75.847656 70.949219 76.246094 70.757812 C 76.640625 70.5625 77.042969 70.382812 77.453125 70.214844 C 77.859375 70.046875 78.273438 69.890625 78.691406 69.746094 C 79.105469 69.605469 79.527344 69.476562 79.953125 69.359375 C 80.378906 69.242188 80.808594 69.136719 81.242188 69.046875 C 81.671875 68.957031 82.105469 68.878906 82.542969 68.816406 C 82.980469 68.753906 83.417969 68.703125 83.859375 68.664062 C 84.296875 68.628906 84.738281 68.605469 85.179688 68.597656 C 85.621094 68.585938 86.0625 68.59375 86.503906 68.609375 C 86.945312 68.628906 87.386719 68.660156 87.824219 68.703125 C 88.261719 68.75 88.699219 68.808594 89.136719 68.878906 C 89.570312 68.953125 90.003906 69.039062 90.433594 69.136719 C 90.863281 69.234375 91.292969 69.347656 91.714844 69.472656 C 92.136719 69.597656 92.554688 69.734375 92.972656 69.886719 C 93.386719 70.035156 93.796875 70.199219 94.199219 70.375 C 94.605469 70.550781 95.003906 70.742188 95.398438 70.941406 C 95.789062 71.144531 96.175781 71.355469 96.554688 71.582031 C 96.9375 71.804688 97.308594 72.039062 97.675781 72.289062 C 98.039062 72.535156 98.398438 72.796875 98.746094 73.066406 C 99.09375 73.335938 99.4375 73.613281 99.769531 73.90625 C 100.101562 74.195312 100.421875 74.496094 100.738281 74.808594 C 101.050781 75.117188 101.355469 75.4375 101.648438 75.765625 C 101.941406 76.097656 102.222656 76.433594 102.496094 76.78125 C 102.769531 77.128906 103.03125 77.484375 103.285156 77.847656 C 103.535156 78.210938 103.773438 78.582031 104 78.957031 C 104.230469 79.335938 104.445312 79.71875 104.652344 80.113281 C 104.855469 80.503906 105.046875 80.898438 105.226562 81.304688 C 105.40625 81.707031 105.574219 82.113281 105.730469 82.527344 C 105.882812 82.941406 106.027344 83.359375 106.15625 83.78125 C 106.285156 84.203125 106.398438 84.628906 106.5 85.058594 C 106.605469 85.488281 106.695312 85.917969 106.769531 86.355469 C 106.84375 86.789062 106.90625 87.226562 106.957031 87.664062 C 107.152344 89.507812 107.105469 91.347656 106.824219 93.183594 C 106.539062 95.015625 106.027344 96.78125 105.285156 98.484375 C 104.542969 100.183594 103.597656 101.761719 102.445312 103.214844 C 101.296875 104.671875 99.976562 105.957031 98.496094 107.070312 C 97.859375 107.546875 97.539062 108.179688 97.539062 108.976562 L 97.539062 113.742188 C 97.542969 114.074219 97.484375 114.386719 97.355469 114.691406 C 97.230469 114.996094 97.046875 115.261719 96.808594 115.488281 C 96.574219 115.714844 96.300781 115.886719 95.992188 116.003906 C 95.683594 116.117188 95.367188 116.167969 95.039062 116.152344 Z M 78.351562 111.382812 L 92.652344 111.382812 L 92.652344 109 C 92.65625 107.878906 92.910156 106.816406 93.414062 105.816406 C 93.917969 104.8125 94.617188 103.976562 95.515625 103.300781 C 96.046875 102.902344 96.554688 102.472656 97.035156 102.011719 C 97.515625 101.550781 97.96875 101.0625 98.390625 100.546875 C 98.8125 100.03125 99.203125 99.492188 99.5625 98.929688 C 99.921875 98.371094 100.242188 97.789062 100.53125 97.1875 C 100.820312 96.585938 101.074219 95.972656 101.289062 95.339844 C 101.503906 94.710938 101.679688 94.070312 101.816406 93.417969 C 101.953125 92.765625 102.054688 92.109375 102.113281 91.445312 C 102.171875 90.78125 102.191406 90.117188 102.171875 89.449219 C 102.152344 88.785156 102.089844 88.121094 101.992188 87.464844 C 101.890625 86.804688 101.753906 86.152344 101.574219 85.511719 C 101.398438 84.871094 101.183594 84.238281 100.929688 83.625 C 100.675781 83.007812 100.386719 82.410156 100.0625 81.828125 C 99.738281 81.246094 99.378906 80.683594 98.988281 80.144531 C 98.59375 79.605469 98.171875 79.09375 97.71875 78.605469 C 97.265625 78.117188 96.785156 77.65625 96.277344 77.226562 C 95.769531 76.796875 95.234375 76.398438 94.679688 76.03125 C 93.636719 75.339844 92.53125 74.773438 91.363281 74.332031 C 90.195312 73.890625 88.992188 73.585938 87.753906 73.414062 C 86.515625 73.242188 85.273438 73.210938 84.027344 73.320312 C 82.785156 73.425781 81.566406 73.671875 80.375 74.050781 C 79.597656 74.292969 78.84375 74.589844 78.109375 74.945312 C 77.378906 75.296875 76.675781 75.703125 76 76.160156 C 75.328125 76.617188 74.691406 77.121094 74.089844 77.671875 C 73.492188 78.222656 72.9375 78.816406 72.425781 79.449219 C 71.914062 80.082031 71.449219 80.75 71.039062 81.449219 C 70.625 82.152344 70.265625 82.878906 69.960938 83.632812 C 69.652344 84.386719 69.40625 85.160156 69.210938 85.953125 C 69.019531 86.742188 68.886719 87.542969 68.816406 88.355469 C 68.691406 89.773438 68.746094 91.183594 68.980469 92.585938 C 69.214844 93.992188 69.621094 95.34375 70.199219 96.644531 C 70.777344 97.945312 71.507812 99.152344 72.390625 100.269531 C 73.273438 101.382812 74.285156 102.371094 75.417969 103.230469 C 76.339844 103.902344 77.058594 104.75 77.574219 105.765625 C 78.089844 106.78125 78.347656 107.859375 78.351562 109 Z M 78.351562 111.382812 " fill-opacity="1" fill-rule="nonzero"/><path fill="#ffffff" d="M 90.269531 125.6875 L 80.734375 125.6875 C 80.265625 125.6875 79.800781 125.640625 79.339844 125.550781 C 78.878906 125.457031 78.429688 125.324219 77.996094 125.144531 C 77.5625 124.960938 77.152344 124.742188 76.761719 124.480469 C 76.371094 124.222656 76.007812 123.925781 75.675781 123.59375 C 75.34375 123.261719 75.046875 122.898438 74.789062 122.507812 C 74.527344 122.117188 74.308594 121.707031 74.128906 121.273438 C 73.949219 120.839844 73.8125 120.390625 73.71875 119.929688 C 73.628906 119.46875 73.582031 119.003906 73.582031 118.535156 L 73.582031 113.765625 C 73.582031 113.453125 73.644531 113.148438 73.765625 112.855469 C 73.886719 112.5625 74.058594 112.304688 74.28125 112.082031 C 74.503906 111.859375 74.761719 111.6875 75.054688 111.566406 C 75.347656 111.445312 75.652344 111.382812 75.964844 111.382812 L 95.039062 111.382812 C 95.355469 111.382812 95.65625 111.445312 95.949219 111.566406 C 96.242188 111.6875 96.5 111.859375 96.722656 112.082031 C 96.945312 112.304688 97.117188 112.5625 97.238281 112.855469 C 97.359375 113.148438 97.421875 113.453125 97.421875 113.765625 L 97.421875 118.535156 C 97.421875 119.003906 97.375 119.46875 97.285156 119.929688 C 97.191406 120.390625 97.058594 120.839844 96.878906 121.273438 C 96.699219 121.707031 96.476562 122.117188 96.214844 122.507812 C 95.957031 122.898438 95.660156 123.261719 95.328125 123.59375 C 94.996094 123.925781 94.632812 124.222656 94.242188 124.480469 C 93.851562 124.742188 93.441406 124.960938 93.007812 125.144531 C 92.574219 125.324219 92.125 125.457031 91.664062 125.550781 C 91.203125 125.640625 90.738281 125.6875 90.269531 125.6875 Z M 78.351562 116.152344 L 78.351562 118.535156 C 78.351562 118.851562 78.410156 119.15625 78.53125 119.449219 C 78.652344 119.738281 78.824219 119.996094 79.046875 120.222656 C 79.273438 120.445312 79.53125 120.617188 79.820312 120.738281 C 80.113281 120.859375 80.417969 120.917969 80.734375 120.917969 L 90.269531 120.917969 C 90.585938 120.917969 90.890625 120.859375 91.183594 120.738281 C 91.472656 120.617188 91.730469 120.445312 91.957031 120.222656 C 92.179688 119.996094 92.351562 119.738281 92.472656 119.449219 C 92.59375 119.15625 92.652344 118.851562 92.652344 118.535156 L 92.652344 116.152344 Z M 78.351562 116.152344 " fill-opacity="1" fill-rule="nonzero"/><g clip-path="url(#bb45fdf74b)"><path fill="#ffffff" d="M 85.503906 63.707031 C 85.1875 63.707031 84.882812 63.644531 84.589844 63.523438 C 84.296875 63.402344 84.039062 63.230469 83.816406 63.007812 C 83.59375 62.785156 83.421875 62.527344 83.300781 62.234375 C 83.179688 61.941406 83.117188 61.636719 83.117188 61.320312 L 83.117188 56.554688 C 83.117188 56.238281 83.179688 55.933594 83.300781 55.640625 C 83.421875 55.351562 83.59375 55.09375 83.816406 54.867188 C 84.039062 54.644531 84.296875 54.472656 84.589844 54.351562 C 84.882812 54.230469 85.1875 54.171875 85.503906 54.171875 C 85.816406 54.171875 86.121094 54.230469 86.414062 54.351562 C 86.707031 54.472656 86.964844 54.644531 87.1875 54.867188 C 87.410156 55.09375 87.582031 55.351562 87.703125 55.640625 C 87.824219 55.933594 87.886719 56.238281 87.886719 56.554688 L 87.886719 61.320312 C 87.886719 61.636719 87.824219 61.941406 87.703125 62.234375 C 87.582031 62.527344 87.410156 62.785156 87.1875 63.007812 C 86.964844 63.230469 86.707031 63.402344 86.414062 63.523438 C 86.121094 63.644531 85.816406 63.707031 85.503906 63.707031 Z M 85.503906 63.707031 " fill-opacity="1" fill-rule="nonzero"/></g><path fill="#ffffff" d="M 65.261719 72.074219 C 64.613281 72.070312 64.054688 71.839844 63.59375 71.382812 L 60.210938 68.019531 C 59.984375 67.796875 59.8125 67.539062 59.691406 67.246094 C 59.570312 66.949219 59.507812 66.644531 59.507812 66.328125 C 59.507812 66.011719 59.570312 65.707031 59.691406 65.414062 C 59.8125 65.121094 59.984375 64.859375 60.210938 64.636719 C 60.433594 64.414062 60.695312 64.238281 60.988281 64.117188 C 61.28125 63.996094 61.585938 63.9375 61.902344 63.9375 C 62.21875 63.9375 62.523438 63.996094 62.816406 64.117188 C 63.109375 64.238281 63.371094 64.410156 63.59375 64.636719 L 66.957031 68.019531 C 67.175781 68.242188 67.347656 68.5 67.46875 68.792969 C 67.589844 69.082031 67.648438 69.386719 67.648438 69.703125 C 67.648438 70.015625 67.589844 70.320312 67.46875 70.609375 C 67.347656 70.902344 67.175781 71.160156 66.957031 71.382812 C 66.488281 71.847656 65.921875 72.078125 65.261719 72.074219 Z M 65.261719 72.074219 " fill-opacity="1" fill-rule="nonzero"/><path fill="#ffffff" d="M 56.894531 92.3125 L 52.128906 92.3125 C 51.8125 92.3125 51.507812 92.253906 51.214844 92.132812 C 50.921875 92.011719 50.664062 91.835938 50.441406 91.613281 C 50.21875 91.390625 50.046875 91.132812 49.925781 90.839844 C 49.804688 90.550781 49.742188 90.246094 49.742188 89.929688 C 49.742188 89.613281 49.804688 89.308594 49.925781 89.015625 C 50.046875 88.722656 50.21875 88.464844 50.441406 88.242188 C 50.664062 88.019531 50.921875 87.847656 51.214844 87.726562 C 51.507812 87.605469 51.8125 87.542969 52.128906 87.542969 L 56.894531 87.542969 C 57.210938 87.542969 57.515625 87.605469 57.808594 87.726562 C 58.101562 87.847656 58.359375 88.019531 58.582031 88.242188 C 58.804688 88.464844 58.976562 88.722656 59.097656 89.015625 C 59.21875 89.308594 59.28125 89.613281 59.28125 89.929688 C 59.28125 90.246094 59.21875 90.550781 59.097656 90.839844 C 58.976562 91.132812 58.804688 91.390625 58.582031 91.613281 C 58.359375 91.835938 58.101562 92.011719 57.808594 92.132812 C 57.515625 92.253906 57.210938 92.3125 56.894531 92.3125 Z M 56.894531 92.3125 " fill-opacity="1" fill-rule="nonzero"/><path fill="#ffffff" d="M 61.902344 115.914062 C 61.242188 115.917969 60.675781 115.6875 60.210938 115.222656 C 59.984375 114.996094 59.808594 114.738281 59.6875 114.445312 C 59.566406 114.152344 59.503906 113.847656 59.503906 113.527344 C 59.503906 113.210938 59.566406 112.90625 59.6875 112.613281 C 59.808594 112.320312 59.984375 112.058594 60.210938 111.835938 L 63.59375 108.476562 C 63.808594 108.222656 64.066406 108.023438 64.367188 107.878906 C 64.664062 107.734375 64.980469 107.65625 65.3125 107.644531 C 65.644531 107.632812 65.964844 107.683594 66.273438 107.804688 C 66.582031 107.925781 66.855469 108.105469 67.089844 108.339844 C 67.324219 108.574219 67.503906 108.847656 67.625 109.15625 C 67.746094 109.464844 67.800781 109.785156 67.785156 110.117188 C 67.773438 110.449219 67.695312 110.765625 67.550781 111.0625 C 67.40625 111.363281 67.207031 111.621094 66.957031 111.835938 L 63.59375 115.222656 C 63.125 115.6875 62.5625 115.917969 61.902344 115.914062 Z M 61.902344 115.914062 " fill-opacity="1" fill-rule="nonzero"/><path fill="#ffffff" d="M 109.101562 115.914062 C 108.441406 115.917969 107.878906 115.6875 107.410156 115.222656 L 104.046875 111.835938 C 103.796875 111.621094 103.597656 111.363281 103.453125 111.0625 C 103.308594 110.765625 103.230469 110.449219 103.21875 110.117188 C 103.203125 109.785156 103.257812 109.464844 103.378906 109.15625 C 103.5 108.847656 103.679688 108.574219 103.914062 108.339844 C 104.148438 108.105469 104.421875 107.925781 104.730469 107.804688 C 105.039062 107.683594 105.359375 107.632812 105.691406 107.644531 C 106.023438 107.65625 106.339844 107.734375 106.636719 107.878906 C 106.9375 108.023438 107.195312 108.222656 107.410156 108.476562 L 110.796875 111.835938 C 111.019531 112.058594 111.195312 112.320312 111.316406 112.613281 C 111.4375 112.90625 111.5 113.210938 111.5 113.527344 C 111.5 113.847656 111.4375 114.152344 111.316406 114.445312 C 111.195312 114.738281 111.019531 114.996094 110.796875 115.222656 C 110.328125 115.6875 109.761719 115.917969 109.101562 115.914062 Z M 109.101562 115.914062 " fill-opacity="1" fill-rule="nonzero"/><path fill="#ffffff" d="M 118.875 92.3125 L 114.109375 92.3125 C 113.792969 92.3125 113.488281 92.253906 113.195312 92.132812 C 112.90625 92.011719 112.648438 91.835938 112.421875 91.613281 C 112.199219 91.390625 112.027344 91.132812 111.90625 90.839844 C 111.785156 90.550781 111.726562 90.246094 111.726562 89.929688 C 111.726562 89.613281 111.785156 89.308594 111.90625 89.015625 C 112.027344 88.722656 112.199219 88.464844 112.421875 88.242188 C 112.648438 88.019531 112.90625 87.847656 113.195312 87.726562 C 113.488281 87.605469 113.792969 87.542969 114.109375 87.542969 L 118.875 87.542969 C 119.191406 87.542969 119.496094 87.605469 119.789062 87.726562 C 120.082031 87.847656 120.339844 88.019531 120.5625 88.242188 C 120.785156 88.464844 120.957031 88.722656 121.078125 89.015625 C 121.199219 89.308594 121.261719 89.613281 121.261719 89.929688 C 121.261719 90.246094 121.199219 90.550781 121.078125 90.839844 C 120.957031 91.132812 120.785156 91.390625 120.5625 91.613281 C 120.339844 91.835938 120.082031 92.011719 119.789062 92.132812 C 119.496094 92.253906 119.191406 92.3125 118.875 92.3125 Z M 118.875 92.3125 " fill-opacity="1" fill-rule="nonzero"/><path fill="#ffffff" d="M 105.742188 72.074219 C 105.082031 72.078125 104.515625 71.847656 104.046875 71.382812 C 103.828125 71.160156 103.65625 70.902344 103.535156 70.609375 C 103.414062 70.320312 103.355469 70.015625 103.355469 69.703125 C 103.355469 69.386719 103.414062 69.082031 103.535156 68.792969 C 103.65625 68.5 103.828125 68.242188 104.046875 68.019531 L 107.410156 64.636719 C 107.632812 64.410156 107.894531 64.238281 108.1875 64.117188 C 108.480469 63.996094 108.785156 63.9375 109.101562 63.9375 C 109.417969 63.9375 109.722656 63.996094 110.019531 64.117188 C 110.3125 64.238281 110.570312 64.414062 110.792969 64.636719 C 111.019531 64.859375 111.191406 65.121094 111.3125 65.414062 C 111.433594 65.707031 111.496094 66.011719 111.496094 66.328125 C 111.496094 66.644531 111.433594 66.949219 111.3125 67.246094 C 111.191406 67.539062 111.019531 67.796875 110.796875 68.019531 L 107.410156 71.382812 C 106.949219 71.839844 106.390625 72.070312 105.742188 72.074219 Z M 105.742188 72.074219 " fill-opacity="1" fill-rule="nonzero"/><path fill="#ffffff" d="M 95.039062 92.3125 C 94.722656 92.3125 94.417969 92.253906 94.125 92.132812 C 93.832031 92.011719 93.574219 91.835938 93.351562 91.613281 C 93.128906 91.390625 92.957031 91.132812 92.835938 90.839844 C 92.714844 90.550781 92.652344 90.246094 92.652344 89.929688 C 92.652344 89.460938 92.609375 88.992188 92.515625 88.535156 C 92.425781 88.074219 92.289062 87.625 92.109375 87.191406 C 91.929688 86.757812 91.710938 86.347656 91.449219 85.957031 C 91.1875 85.566406 90.890625 85.203125 90.558594 84.871094 C 90.226562 84.539062 89.867188 84.242188 89.476562 83.980469 C 89.085938 83.722656 88.671875 83.5 88.238281 83.320312 C 87.804688 83.140625 87.359375 83.007812 86.898438 82.914062 C 86.4375 82.824219 85.972656 82.777344 85.503906 82.777344 C 85.1875 82.777344 84.882812 82.714844 84.589844 82.59375 C 84.296875 82.472656 84.039062 82.300781 83.816406 82.078125 C 83.59375 81.855469 83.421875 81.597656 83.300781 81.304688 C 83.179688 81.011719 83.117188 80.710938 83.117188 80.394531 C 83.117188 80.078125 83.179688 79.773438 83.300781 79.480469 C 83.421875 79.1875 83.59375 78.929688 83.816406 78.707031 C 84.039062 78.484375 84.296875 78.3125 84.589844 78.191406 C 84.882812 78.070312 85.1875 78.007812 85.503906 78.007812 C 86.285156 78.007812 87.058594 78.085938 87.828125 78.238281 C 88.59375 78.390625 89.339844 78.617188 90.0625 78.917969 C 90.785156 79.214844 91.472656 79.582031 92.125 80.019531 C 92.773438 80.453125 93.378906 80.945312 93.929688 81.5 C 94.484375 82.054688 94.976562 82.65625 95.414062 83.304688 C 95.847656 83.957031 96.214844 84.644531 96.515625 85.367188 C 96.8125 86.089844 97.039062 86.835938 97.191406 87.601562 C 97.34375 88.371094 97.421875 89.144531 97.421875 89.929688 C 97.421875 90.246094 97.359375 90.550781 97.238281 90.839844 C 97.117188 91.132812 96.945312 91.390625 96.722656 91.613281 C 96.5 91.835938 96.242188 92.011719 95.949219 92.132812 C 95.65625 92.253906 95.355469 92.3125 95.039062 92.3125 Z M 95.039062 92.3125 " fill-opacity="1" fill-rule="nonzero"/><g fill="#ffffff" fill-opacity="1"><g transform="translate(52.471995, 233.955181)"><g><path d="M 2.34375 -21.375 C 2.34375 -21.976562 2.625 -22.28125 3.1875 -22.28125 L 12.90625 -22.28125 C 13.519531 -22.28125 13.828125 -21.988281 13.828125 -21.40625 L 13.828125 -12.203125 C 13.828125 -11.597656 13.53125 -11.296875 12.9375 -11.296875 L 6.0625 -11.296875 C 5.570312 -11.296875 5.328125 -11.0625 5.328125 -10.59375 L 5.328125 3.515625 C 5.328125 4.117188 5.035156 4.421875 4.453125 4.421875 L 3.25 4.421875 C 2.644531 4.421875 2.34375 4.128906 2.34375 3.546875 Z M 15.6875 -21.375 C 15.6875 -21.976562 15.972656 -22.28125 16.546875 -22.28125 L 26.265625 -22.28125 C 26.867188 -22.28125 27.171875 -21.988281 27.171875 -21.40625 L 27.171875 0.5625 C 27.128906 1.414062 26.90625 2.195312 26.5 2.90625 C 25.46875 4.226562 23.9375 4.65625 21.90625 4.1875 C 21.28125 4.09375 20.910156 3.757812 20.796875 3.1875 L 20.4375 1.5 C 20.300781 0.90625 20.523438 0.675781 21.109375 0.8125 C 21.929688 1.03125 22.644531 1.09375 23.25 1 C 23.71875 0.644531 23.960938 0.0976562 23.984375 -0.640625 L 23.984375 -10.578125 C 23.984375 -11.054688 23.75 -11.296875 23.28125 -11.296875 L 16.609375 -11.296875 C 15.992188 -11.296875 15.6875 -11.59375 15.6875 -12.1875 Z M 10.78125 -18.6875 C 10.78125 -19.050781 10.546875 -19.234375 10.078125 -19.234375 L 6.0625 -19.234375 C 5.570312 -19.234375 5.328125 -19.0625 5.328125 -18.71875 C 5.328125 -18.34375 5.5625 -18.15625 6.03125 -18.15625 L 10.046875 -18.15625 C 10.535156 -18.15625 10.78125 -18.332031 10.78125 -18.6875 Z M 23.984375 -18.6875 C 23.984375 -19.050781 23.75 -19.234375 23.28125 -19.234375 L 19.4375 -19.234375 C 18.957031 -19.234375 18.71875 -19.0625 18.71875 -18.71875 C 18.71875 -18.34375 18.945312 -18.15625 19.40625 -18.15625 L 23.25 -18.15625 C 23.738281 -18.15625 23.984375 -18.332031 23.984375 -18.6875 Z M 10.78125 -14.78125 C 10.78125 -15.175781 10.5625 -15.375 10.125 -15.375 L 6.0625 -15.375 C 5.570312 -15.375 5.328125 -15.195312 5.328125 -14.84375 C 5.328125 -14.476562 5.5625 -14.296875 6.03125 -14.296875 L 10.046875 -14.296875 C 10.535156 -14.296875 10.78125 -14.457031 10.78125 -14.78125 Z M 23.984375 -14.78125 C 23.984375 -15.175781 23.769531 -15.375 23.34375 -15.375 L 19.4375 -15.375 C 18.957031 -15.375 18.71875 -15.195312 18.71875 -14.84375 C 18.71875 -14.476562 18.945312 -14.296875 19.40625 -14.296875 L 23.25 -14.296875 C 23.738281 -14.296875 23.984375 -14.457031 23.984375 -14.78125 Z M 7.375 -9.40625 C 7.375 -10.03125 7.660156 -10.34375 8.234375 -10.34375 L 21.109375 -10.34375 C 21.710938 -10.34375 22.015625 -10.046875 22.015625 -9.453125 L 22.015625 -8.234375 C 22.015625 -7.628906 21.722656 -7.328125 21.140625 -7.328125 L 19.875 -7.328125 C 19.394531 -7.328125 19.15625 -7.09375 19.15625 -6.625 L 19.15625 -6.03125 C 19.15625 -5.539062 19.390625 -5.296875 19.859375 -5.296875 L 21.703125 -5.296875 C 22.304688 -5.296875 22.609375 -5.003906 22.609375 -4.421875 L 22.609375 -3.1875 C 22.609375 -2.582031 22.316406 -2.28125 21.734375 -2.28125 L 19.875 -2.28125 C 19.394531 -2.28125 19.15625 -2.046875 19.15625 -1.578125 L 19.15625 2.578125 C 19.15625 3.179688 18.859375 3.484375 18.265625 3.484375 L 16.84375 3.484375 C 16.226562 3.484375 15.921875 3.191406 15.921875 2.609375 L 15.921875 -1.546875 C 15.921875 -2.035156 15.6875 -2.28125 15.21875 -2.28125 L 13.671875 -2.28125 C 13.203125 -2.28125 12.890625 -1.988281 12.734375 -1.40625 C 12.460938 0.269531 11.367188 1.800781 9.453125 3.1875 C 8.867188 3.519531 8.332031 3.414062 7.84375 2.875 L 7.171875 1.984375 C 6.742188 1.460938 6.851562 0.976562 7.5 0.53125 C 8.21875 -0.0390625 8.78125 -0.71875 9.1875 -1.5 C 9.425781 -2.019531 9.332031 -2.28125 8.90625 -2.28125 L 7.546875 -2.28125 C 6.941406 -2.28125 6.640625 -2.570312 6.640625 -3.15625 L 6.640625 -4.390625 C 6.640625 -4.992188 6.9375 -5.296875 7.53125 -5.296875 L 9.3125 -5.296875 C 9.800781 -5.296875 10.046875 -5.539062 10.046875 -6.03125 L 10.078125 -6.59375 C 10.078125 -7.082031 9.84375 -7.328125 9.375 -7.328125 L 8.25 -7.328125 C 7.664062 -7.328125 7.375 -7.617188 7.375 -8.203125 Z M 15.921875 -6.265625 C 15.921875 -6.972656 15.707031 -7.328125 15.28125 -7.328125 L 13.96875 -7.328125 C 13.476562 -7.328125 13.234375 -7.09375 13.234375 -6.625 L 13.234375 -6.03125 C 13.234375 -5.539062 13.46875 -5.296875 13.9375 -5.296875 L 15.203125 -5.296875 C 15.679688 -5.296875 15.921875 -5.617188 15.921875 -6.265625 Z M 15.921875 -6.265625 "/></g></g><g transform="translate(82.455993, 233.955181)"><g><path d="M 18.625 -21.8125 C 18.832031 -22.4375 19.234375 -22.671875 19.828125 -22.515625 C 20.429688 -22.359375 21.035156 -22.175781 21.640625 -21.96875 C 22.242188 -21.789062 22.390625 -21.335938 22.078125 -20.609375 C 21.523438 -19.191406 20.476562 -17.09375 18.9375 -14.3125 C 18.644531 -13.84375 18.8125 -13.640625 19.4375 -13.703125 L 23.15625 -13.96875 C 23.625 -14.039062 23.722656 -14.367188 23.453125 -14.953125 C 23.179688 -15.546875 22.859375 -16.132812 22.484375 -16.71875 C 22.148438 -17.300781 22.273438 -17.722656 22.859375 -17.984375 C 23.253906 -18.191406 23.675781 -18.375 24.125 -18.53125 C 24.789062 -18.820312 25.328125 -18.648438 25.734375 -18.015625 C 26.867188 -16.097656 27.816406 -14.144531 28.578125 -12.15625 C 28.847656 -11.425781 28.671875 -10.9375 28.046875 -10.6875 L 26.53125 -10.046875 C 25.925781 -9.773438 25.535156 -9.878906 25.359375 -10.359375 C 25.179688 -10.890625 24.789062 -11.097656 24.1875 -10.984375 C 20.820312 -10.492188 17.617188 -10.125 14.578125 -9.875 C 13.898438 -9.8125 13.5 -10.101562 13.375 -10.75 L 13.09375 -12.328125 C 12.988281 -12.910156 13.226562 -13.234375 13.8125 -13.296875 C 14.40625 -13.335938 14.859375 -13.640625 15.171875 -14.203125 C 16.472656 -16.617188 17.625 -19.15625 18.625 -21.8125 Z M 5.1875 -21.4375 C 5.300781 -22.15625 5.617188 -22.476562 6.140625 -22.40625 L 7.546875 -22.203125 C 8.253906 -22.078125 8.554688 -21.703125 8.453125 -21.078125 L 8.046875 -18.625 C 7.992188 -18.15625 8.203125 -17.921875 8.671875 -17.921875 L 11.828125 -17.921875 C 12.410156 -17.921875 12.703125 -17.628906 12.703125 -17.046875 C 12.492188 -12.671875 11.859375 -8.6875 10.796875 -5.09375 C 10.640625 -4.582031 10.835938 -4.078125 11.390625 -3.578125 L 12.4375 -2.515625 C 12.988281 -1.953125 12.988281 -1.367188 12.4375 -0.765625 L 11.65625 0.140625 C 11.207031 0.628906 10.738281 0.613281 10.25 0.09375 L 9.8125 -0.40625 C 9.375 -0.875 8.972656 -0.816406 8.609375 -0.234375 C 7.847656 1.035156 6.773438 2.316406 5.390625 3.609375 C 4.660156 4.222656 4.0625 4.226562 3.59375 3.625 L 3.078125 2.921875 C 2.628906 2.316406 2.65625 1.789062 3.15625 1.34375 C 4.507812 0.09375 5.582031 -1.269531 6.375 -2.75 C 6.632812 -3.21875 6.488281 -3.707031 5.9375 -4.21875 C 5.351562 -4.6875 4.992188 -4.707031 4.859375 -4.28125 C 4.703125 -3.8125 4.332031 -3.644531 3.75 -3.78125 L 2.578125 -4.015625 C 1.835938 -4.171875 1.5625 -4.539062 1.75 -5.125 C 2.664062 -8.25 3.398438 -11.242188 3.953125 -14.109375 C 4.023438 -14.578125 3.828125 -14.8125 3.359375 -14.8125 L 2.609375 -14.8125 C 2.003906 -14.8125 1.703125 -15.101562 1.703125 -15.6875 L 1.703125 -17.015625 C 1.703125 -17.617188 1.992188 -17.921875 2.578125 -17.921875 L 3.953125 -17.921875 C 4.421875 -17.921875 4.703125 -18.210938 4.796875 -18.796875 Z M 9.390625 -14.078125 C 9.410156 -14.566406 9.1875 -14.8125 8.71875 -14.8125 L 8.109375 -14.8125 C 7.640625 -14.8125 7.335938 -14.519531 7.203125 -13.9375 L 6.125 -8.984375 C 6.019531 -8.441406 6.15625 -8.015625 6.53125 -7.703125 L 7.3125 -7.09375 C 7.78125 -6.695312 8.125 -6.8125 8.34375 -7.4375 C 8.882812 -9.851562 9.234375 -12.066406 9.390625 -14.078125 Z M 13.671875 -7.375 C 13.671875 -8 13.945312 -8.3125 14.5 -8.3125 L 26.9375 -8.3125 C 27.539062 -8.3125 27.84375 -8.019531 27.84375 -7.4375 L 27.84375 3.515625 C 27.84375 4.117188 27.550781 4.421875 26.96875 4.421875 L 25.328125 4.421875 C 24.722656 4.421875 24.421875 4.21875 24.421875 3.8125 C 24.421875 3.363281 24.1875 3.140625 23.71875 3.140625 L 17.75 3.140625 C 17.257812 3.140625 17.015625 3.34375 17.015625 3.75 C 17.015625 4.195312 16.71875 4.421875 16.125 4.421875 L 14.578125 4.421875 C 13.972656 4.421875 13.671875 4.128906 13.671875 3.546875 Z M 24.421875 -4.328125 C 24.421875 -4.835938 24.195312 -5.09375 23.75 -5.09375 L 17.75 -5.09375 C 17.257812 -5.09375 17.015625 -4.859375 17.015625 -4.390625 L 17.015625 -0.84375 C 17.015625 -0.351562 17.25 -0.109375 17.71875 -0.109375 L 23.6875 -0.109375 C 24.175781 -0.109375 24.421875 -0.34375 24.421875 -0.8125 Z M 24.421875 -4.328125 "/></g></g><g transform="translate(112.43999, 233.955181)"><g><path d="M 14.875 -21.265625 C 14.875 -21.890625 15.15625 -22.203125 15.71875 -22.203125 L 23.78125 -22.203125 C 24.382812 -22.203125 24.6875 -21.90625 24.6875 -21.3125 L 24.6875 -15.84375 C 24.78125 -15.195312 24.859375 -14.851562 24.921875 -14.8125 C 25.660156 -14.476562 26.019531 -14.691406 26 -15.453125 L 26.0625 -16.421875 C 26.101562 -17.109375 26.4375 -17.304688 27.0625 -17.015625 L 28.015625 -16.546875 C 28.742188 -16.171875 29.085938 -15.679688 29.046875 -15.078125 C 29.003906 -14.410156 28.847656 -13.695312 28.578125 -12.9375 C 28.304688 -12.332031 27.769531 -11.960938 26.96875 -11.828125 C 24.71875 -11.554688 23.03125 -11.78125 21.90625 -12.5 C 21.507812 -12.914062 21.273438 -13.59375 21.203125 -14.53125 L 21.203125 -18.1875 C 21.203125 -18.675781 20.96875 -18.921875 20.5 -18.921875 L 18.890625 -18.921875 C 18.398438 -18.921875 18.15625 -18.6875 18.15625 -18.21875 C 18.175781 -16.101562 17.882812 -14.382812 17.28125 -13.0625 C 17.019531 -12.507812 16.578125 -11.921875 15.953125 -11.296875 C 15.453125 -10.816406 14.878906 -10.859375 14.234375 -11.421875 L 13.296875 -12.265625 C 12.710938 -12.796875 12.734375 -13.304688 13.359375 -13.796875 C 14.328125 -14.742188 14.832031 -15.765625 14.875 -16.859375 Z M 3.015625 -21.109375 C 3.015625 -21.710938 3.304688 -22.015625 3.890625 -22.015625 L 10.75 -22.015625 C 11.351562 -22.015625 11.65625 -21.722656 11.65625 -21.140625 L 11.65625 -19.828125 C 11.65625 -19.222656 11.363281 -18.921875 10.78125 -18.921875 L 3.890625 -18.921875 C 3.304688 -18.921875 3.015625 -19.210938 3.015625 -19.796875 Z M 1.5 -17.28125 C 1.5 -17.863281 1.789062 -18.15625 2.375 -18.15625 L 12.15625 -18.15625 C 12.757812 -18.15625 13.0625 -17.863281 13.0625 -17.28125 L 13.0625 -15.84375 C 13.0625 -15.238281 12.769531 -14.9375 12.1875 -14.9375 L 2.40625 -14.9375 C 1.800781 -14.9375 1.5 -15.226562 1.5 -15.8125 Z M 2.90625 -13.03125 C 2.90625 -13.632812 3.195312 -13.9375 3.78125 -13.9375 L 10.859375 -13.9375 C 11.460938 -13.9375 11.765625 -13.644531 11.765625 -13.0625 L 11.765625 -11.71875 C 11.765625 -11.113281 11.472656 -10.8125 10.890625 -10.8125 L 3.78125 -10.8125 C 3.195312 -10.8125 2.90625 -11.101562 2.90625 -11.6875 Z M 13.09375 -9.40625 C 13.09375 -10.03125 13.375 -10.34375 13.9375 -10.34375 L 25.734375 -10.34375 C 26.335938 -10.34375 26.640625 -10.046875 26.640625 -9.453125 C 26.722656 -8.359375 26.644531 -7.617188 26.40625 -7.234375 C 25.800781 -5.515625 24.882812 -3.796875 23.65625 -2.078125 C 23.289062 -1.609375 23.390625 -1.179688 23.953125 -0.796875 C 25.179688 -0.109375 26.453125 0.457031 27.765625 0.90625 C 28.347656 1.082031 28.503906 1.460938 28.234375 2.046875 L 27.40625 3.609375 C 27.070312 4.222656 26.566406 4.40625 25.890625 4.15625 C 24.304688 3.570312 22.769531 2.753906 21.28125 1.703125 C 20.78125 1.328125 20.253906 1.34375 19.703125 1.75 C 18.335938 2.769531 16.707031 3.601562 14.8125 4.25 C 14.226562 4.4375 13.769531 4.222656 13.4375 3.609375 L 12.859375 2.4375 C 12.484375 1.75 12.609375 1.304688 13.234375 1.109375 C 14.710938 0.660156 16.007812 0.0976562 17.125 -0.578125 C 17.726562 -0.992188 17.816406 -1.484375 17.390625 -2.046875 C 16.410156 -3.296875 15.5625 -4.664062 14.84375 -6.15625 C 14.570312 -6.757812 14.210938 -7.0625 13.765625 -7.0625 C 13.316406 -7.0625 13.09375 -7.351562 13.09375 -7.9375 Z M 2.78125 -8.953125 C 2.78125 -9.566406 3.070312 -9.875 3.65625 -9.875 L 10.75 -9.875 C 11.351562 -9.875 11.65625 -9.578125 11.65625 -8.984375 L 11.65625 -7.609375 C 11.65625 -7.003906 11.363281 -6.703125 10.78125 -6.703125 L 3.65625 -6.703125 C 3.070312 -6.703125 2.78125 -6.992188 2.78125 -7.578125 Z M 22.484375 -6.234375 C 22.742188 -6.785156 22.65625 -7.0625 22.21875 -7.0625 L 18.625 -7.0625 C 18.132812 -7.0625 18.054688 -6.757812 18.390625 -6.15625 C 18.742188 -5.507812 19.210938 -4.851562 19.796875 -4.1875 C 20.222656 -3.675781 20.691406 -3.707031 21.203125 -4.28125 C 21.671875 -4.863281 22.097656 -5.515625 22.484375 -6.234375 Z M 2.546875 -4.71875 C 2.546875 -5.320312 2.828125 -5.625 3.390625 -5.625 L 11.15625 -5.625 C 11.757812 -5.625 12.0625 -5.332031 12.0625 -4.75 L 12.0625 2.578125 C 12.0625 3.179688 11.769531 3.484375 11.1875 3.484375 L 6.46875 3.484375 C 5.976562 3.484375 5.734375 3.648438 5.734375 3.984375 C 5.734375 4.347656 5.441406 4.53125 4.859375 4.53125 L 3.453125 4.53125 C 2.847656 4.53125 2.546875 4.238281 2.546875 3.65625 Z M 8.875 -1.84375 C 8.875 -2.351562 8.648438 -2.609375 8.203125 -2.609375 L 6.46875 -2.609375 C 5.976562 -2.609375 5.734375 -2.375 5.734375 -1.90625 L 5.734375 -0.265625 C 5.734375 0.222656 5.96875 0.46875 6.4375 0.46875 L 8.140625 0.46875 C 8.628906 0.46875 8.875 0.234375 8.875 -0.234375 Z M 8.875 -1.84375 "/></g></g><g transform="translate(142.423988, 233.955181)"><g><path d="M 19.5625 -21.578125 C 19.5625 -22.203125 19.832031 -22.515625 20.375 -22.515625 L 22.109375 -22.515625 C 22.710938 -22.515625 23.015625 -22.222656 23.015625 -21.640625 L 23.015625 -13.96875 C 23.015625 -13.476562 23.25 -13.234375 23.71875 -13.234375 L 27.640625 -13.234375 C 28.242188 -13.234375 28.546875 -12.941406 28.546875 -12.359375 L 28.546875 -10.6875 C 28.546875 -10.082031 28.253906 -9.78125 27.671875 -9.78125 L 23.75 -9.78125 C 23.257812 -9.78125 23.015625 -9.546875 23.015625 -9.078125 L 23.015625 3.515625 C 23.015625 4.117188 22.722656 4.421875 22.140625 4.421875 L 20.46875 4.421875 C 19.863281 4.421875 19.5625 4.128906 19.5625 3.546875 L 19.5625 -9.046875 C 19.5625 -9.535156 19.328125 -9.78125 18.859375 -9.78125 L 14.734375 -9.78125 C 14.128906 -9.78125 13.828125 -10.070312 13.828125 -10.65625 L 13.828125 -12.328125 C 13.828125 -12.929688 14.117188 -13.234375 14.703125 -13.234375 L 18.828125 -13.234375 C 19.316406 -13.234375 19.5625 -13.46875 19.5625 -13.9375 Z M 3.015625 -21.265625 C 3.015625 -21.890625 3.296875 -22.203125 3.859375 -22.203125 L 12.03125 -22.203125 C 12.632812 -22.203125 12.9375 -21.90625 12.9375 -21.3125 L 12.9375 -19.828125 C 12.9375 -19.222656 12.644531 -18.921875 12.0625 -18.921875 L 3.890625 -18.921875 C 3.304688 -18.921875 3.015625 -19.210938 3.015625 -19.796875 Z M 1.734375 -17.28125 C 1.734375 -17.863281 2.023438 -18.15625 2.609375 -18.15625 L 13.609375 -18.15625 C 14.222656 -18.15625 14.53125 -17.863281 14.53125 -17.28125 L 14.53125 -15.71875 C 14.53125 -15.113281 14.234375 -14.8125 13.640625 -14.8125 L 2.640625 -14.8125 C 2.035156 -14.8125 1.734375 -15.101562 1.734375 -15.6875 Z M 2.546875 -13.03125 C 2.546875 -13.632812 2.835938 -13.9375 3.421875 -13.9375 L 12.15625 -13.9375 C 12.757812 -13.9375 13.0625 -13.644531 13.0625 -13.0625 L 13.0625 -11.59375 C 13.0625 -10.988281 12.769531 -10.6875 12.1875 -10.6875 L 3.421875 -10.6875 C 2.835938 -10.6875 2.546875 -10.976562 2.546875 -11.5625 Z M 2.671875 -8.953125 C 2.671875 -9.566406 2.960938 -9.875 3.546875 -9.875 L 12.03125 -9.875 C 12.632812 -9.875 12.9375 -9.578125 12.9375 -8.984375 L 12.9375 -7.5 C 12.9375 -6.894531 12.644531 -6.59375 12.0625 -6.59375 L 3.546875 -6.59375 C 2.960938 -6.59375 2.671875 -6.882812 2.671875 -7.46875 Z M 2.453125 -4.71875 C 2.453125 -5.320312 2.738281 -5.625 3.3125 -5.625 L 12.4375 -5.625 C 13.050781 -5.625 13.359375 -5.332031 13.359375 -4.75 L 13.359375 3.515625 C 13.359375 4.117188 13.0625 4.421875 12.46875 4.421875 L 10.984375 4.421875 C 10.378906 4.421875 10.078125 4.253906 10.078125 3.921875 C 10.078125 3.554688 9.84375 3.375 9.375 3.375 L 6.46875 3.375 C 5.976562 3.375 5.734375 3.535156 5.734375 3.859375 C 5.734375 4.234375 5.441406 4.421875 4.859375 4.421875 L 3.375 4.421875 C 2.757812 4.421875 2.453125 4.128906 2.453125 3.546875 Z M 10.078125 -1.78125 C 10.078125 -2.269531 9.84375 -2.515625 9.375 -2.515625 L 6.46875 -2.515625 C 5.976562 -2.515625 5.734375 -2.28125 5.734375 -1.8125 L 5.734375 -0.4375 C 5.734375 0.0507812 5.96875 0.296875 6.4375 0.296875 L 9.34375 0.296875 C 9.832031 0.296875 10.078125 0.0625 10.078125 -0.40625 Z M 10.078125 -1.78125 "/></g></g></g><g fill="#ffffff" fill-opacity="1"><g transform="translate(67.463994, 268.436778)"><g><path d="M 18.5625 -22.453125 L 19.828125 -22.578125 C 20.472656 -22.628906 20.796875 -22.375 20.796875 -21.8125 C 20.796875 -20.625 20.820312 -19.40625 20.875 -18.15625 C 20.957031 -17.601562 21.066406 -17.40625 21.203125 -17.5625 C 21.316406 -17.707031 21.421875 -17.757812 21.515625 -17.71875 C 21.617188 -17.632812 21.804688 -17.890625 22.078125 -18.484375 C 22.484375 -19.453125 22.851562 -20.425781 23.1875 -21.40625 C 23.425781 -22.125 23.847656 -22.359375 24.453125 -22.109375 L 25.1875 -21.75 C 25.789062 -21.476562 25.945312 -20.984375 25.65625 -20.265625 C 25.207031 -19.148438 24.707031 -18.035156 24.15625 -16.921875 C 23.925781 -16.472656 23.914062 -16.148438 24.125 -15.953125 C 24.300781 -15.796875 24.523438 -16.03125 24.796875 -16.65625 L 25.390625 -18.1875 C 25.597656 -18.789062 26 -18.96875 26.59375 -18.71875 L 27.140625 -18.484375 C 27.898438 -18.128906 28.15625 -17.660156 27.90625 -17.078125 L 26.9375 -15 C 26.6875 -14.445312 26.742188 -14.226562 27.109375 -14.34375 C 27.546875 -14.476562 27.890625 -14.1875 28.140625 -13.46875 C 28.492188 -12.457031 28.765625 -11.472656 28.953125 -10.515625 C 29.078125 -9.929688 28.84375 -9.550781 28.25 -9.375 L 27.703125 -9.1875 C 27.117188 -9.019531 26.804688 -9.0625 26.765625 -9.3125 C 26.722656 -9.601562 26.5 -9.679688 26.09375 -9.546875 C 25.675781 -9.453125 25.789062 -9.1875 26.4375 -8.75 C 26.96875 -8.320312 27.101562 -7.960938 26.84375 -7.671875 C 26.570312 -7.359375 26.648438 -7.203125 27.078125 -7.203125 L 27.875 -7.203125 C 28.476562 -7.203125 28.78125 -6.910156 28.78125 -6.328125 L 28.78125 -5.265625 C 28.78125 -4.660156 28.488281 -4.359375 27.90625 -4.359375 L 23.453125 -4.359375 C 22.984375 -4.359375 22.847656 -4.066406 23.046875 -3.484375 C 23.316406 -2.816406 23.617188 -2.71875 23.953125 -3.1875 C 24.285156 -3.695312 24.742188 -3.828125 25.328125 -3.578125 C 25.597656 -3.421875 25.898438 -3.273438 26.234375 -3.140625 C 26.859375 -2.835938 26.957031 -2.335938 26.53125 -1.640625 C 26.238281 -1.191406 25.894531 -0.710938 25.5 -0.203125 C 25.09375 0.265625 25.003906 0.644531 25.234375 0.9375 C 25.765625 1.425781 26.070312 1.179688 26.15625 0.203125 C 26.207031 -0.304688 26.554688 -0.441406 27.203125 -0.203125 L 28.171875 0.203125 C 28.816406 0.441406 29.019531 0.898438 28.78125 1.578125 C 28.507812 2.472656 28.003906 3.253906 27.265625 3.921875 C 25.992188 4.835938 24.6875 4.582031 23.34375 3.15625 C 22.945312 2.675781 22.46875 2.628906 21.90625 3.015625 C 21.144531 3.441406 20.382812 3.832031 19.625 4.1875 C 19.03125 4.414062 18.5625 4.226562 18.21875 3.625 L 17.75 2.78125 C 17.394531 2.195312 17.53125 1.769531 18.15625 1.5 C 18.832031 1.195312 19.59375 0.796875 20.4375 0.296875 C 20.945312 -0.0351562 21.082031 -0.484375 20.84375 -1.046875 C 20.507812 -1.890625 20.21875 -2.734375 19.96875 -3.578125 C 19.832031 -4.097656 19.550781 -4.359375 19.125 -4.359375 L 16.21875 -4.359375 C 15.75 -4.359375 15.492188 -4.175781 15.453125 -3.8125 C 15.453125 -3.4375 15.75 -3.09375 16.34375 -2.78125 C 16.925781 -2.488281 17.539062 -2.15625 18.1875 -1.78125 C 18.84375 -1.394531 18.929688 -0.867188 18.453125 -0.203125 L 18.03125 0.375 C 17.644531 0.925781 17.140625 0.992188 16.515625 0.578125 L 15.921875 0.171875 C 15.335938 -0.171875 14.957031 -0.0507812 14.78125 0.53125 C 14.570312 1.46875 14.175781 2.441406 13.59375 3.453125 C 13.101562 4.160156 12.546875 4.316406 11.921875 3.921875 L 10.984375 3.34375 C 10.398438 2.945312 10.3125 2.457031 10.71875 1.875 C 11.726562 0.21875 12.285156 -1.625 12.390625 -3.65625 C 12.390625 -4.125 12.15625 -4.359375 11.6875 -4.359375 L 11.296875 -4.359375 C 10.691406 -4.359375 10.390625 -4.648438 10.390625 -5.234375 L 10.390625 -6.296875 C 10.390625 -6.898438 10.6875 -7.203125 11.28125 -7.203125 L 18.328125 -7.203125 C 18.796875 -7.203125 18.972656 -7.492188 18.859375 -8.078125 C 18.878906 -8.140625 18.867188 -8.226562 18.828125 -8.34375 C 18.734375 -8.875 18.46875 -9.070312 18.03125 -8.9375 L 17.65625 -8.8125 C 16.96875 -8.59375 16.609375 -8.613281 16.578125 -8.875 C 16.554688 -9.082031 16.242188 -9.101562 15.640625 -8.9375 C 14.328125 -8.5625 13.023438 -8.332031 11.734375 -8.25 C 11.078125 -8.238281 10.726562 -8.359375 10.6875 -8.609375 C 10.644531 -8.828125 10.429688 -8.671875 10.046875 -8.140625 L 9.640625 -7.546875 C 9.148438 -6.847656 8.707031 -6.8125 8.3125 -7.4375 L 8.078125 -7.78125 C 7.671875 -8.394531 7.46875 -8.390625 7.46875 -7.765625 L 7.46875 3.625 C 7.46875 4.226562 7.175781 4.53125 6.59375 4.53125 L 5.328125 4.53125 C 4.722656 4.53125 4.421875 4.238281 4.421875 3.65625 L 4.421875 -4.515625 C 4.421875 -5.171875 4.300781 -5.1875 4.0625 -4.5625 L 3.609375 -3.3125 C 3.367188 -2.726562 3.003906 -2.726562 2.515625 -3.3125 L 2.078125 -3.859375 C 1.628906 -4.429688 1.539062 -5.019531 1.8125 -5.625 C 2.613281 -7.4375 3.460938 -10.140625 4.359375 -13.734375 C 4.378906 -14.203125 4.15625 -14.4375 3.6875 -14.4375 L 2.875 -14.4375 C 2.269531 -14.4375 1.96875 -14.726562 1.96875 -15.3125 L 1.96875 -16.453125 C 1.96875 -17.054688 2.257812 -17.359375 2.84375 -17.359375 L 3.6875 -17.359375 C 4.175781 -17.359375 4.421875 -17.59375 4.421875 -18.0625 L 4.421875 -21.640625 C 4.421875 -22.222656 4.710938 -22.515625 5.296875 -22.515625 L 6.5625 -22.515625 C 7.164062 -22.515625 7.46875 -22.222656 7.46875 -21.640625 L 7.46875 -18.09375 C 7.46875 -17.601562 7.769531 -17.359375 8.375 -17.359375 C 9 -17.359375 9.3125 -17.066406 9.3125 -16.484375 L 9.3125 -15.34375 C 9.3125 -14.738281 9.007812 -14.4375 8.40625 -14.4375 C 7.78125 -14.4375 7.46875 -14.171875 7.46875 -13.640625 C 7.46875 -13.117188 7.757812 -12.570312 8.34375 -12 L 9.84375 -10.453125 C 10.25 -10.023438 10.429688 -10.015625 10.390625 -10.421875 C 10.335938 -10.773438 10.535156 -10.953125 10.984375 -10.953125 C 11.390625 -10.953125 11.78125 -11.253906 12.15625 -11.859375 L 12.703125 -12.796875 C 13.035156 -13.378906 12.910156 -13.894531 12.328125 -14.34375 C 11.742188 -14.738281 11.160156 -15.101562 10.578125 -15.4375 C 9.929688 -15.800781 9.8125 -16.25 10.21875 -16.78125 C 10.332031 -16.894531 10.421875 -17.007812 10.484375 -17.125 C 10.992188 -17.75 11.328125 -18.015625 11.484375 -17.921875 C 11.648438 -17.828125 11.890625 -18.070312 12.203125 -18.65625 L 13.46875 -21.609375 C 13.707031 -22.210938 14.117188 -22.378906 14.703125 -22.109375 L 15.34375 -21.8125 C 16.007812 -21.5 16.195312 -21.019531 15.90625 -20.375 C 15.457031 -19.40625 14.96875 -18.429688 14.4375 -17.453125 C 14.082031 -16.867188 13.992188 -16.507812 14.171875 -16.375 C 14.367188 -16.226562 14.613281 -16.460938 14.90625 -17.078125 L 15.171875 -17.625 C 15.421875 -18.207031 15.847656 -18.363281 16.453125 -18.09375 L 17.015625 -17.859375 C 17.554688 -17.609375 17.816406 -17.6875 17.796875 -18.09375 L 17.6875 -21.5 C 17.6875 -22.082031 17.976562 -22.398438 18.5625 -22.453125 Z M 17.921875 -15.78125 C 17.835938 -16.34375 17.648438 -16.398438 17.359375 -15.953125 L 16.515625 -14.40625 C 16.203125 -13.800781 16.300781 -13.546875 16.8125 -13.640625 C 17.3125 -13.796875 17.679688 -13.523438 17.921875 -12.828125 C 18.117188 -12.179688 18.207031 -12.148438 18.1875 -12.734375 C 18.070312 -13.753906 17.984375 -14.769531 17.921875 -15.78125 Z M 22.578125 -14.03125 C 22.304688 -14.257812 22.03125 -14.453125 21.75 -14.609375 C 21.28125 -14.898438 21.066406 -14.753906 21.109375 -14.171875 C 21.328125 -11.535156 21.59375 -9.445312 21.90625 -7.90625 C 22.019531 -7.4375 22.347656 -7.203125 22.890625 -7.203125 C 23.617188 -7.203125 23.828125 -7.335938 23.515625 -7.609375 C 23.222656 -7.785156 23.242188 -8.078125 23.578125 -8.484375 C 23.941406 -8.898438 23.785156 -9.078125 23.109375 -9.015625 C 22.347656 -8.960938 21.90625 -9.296875 21.78125 -10.015625 C 21.78125 -10.171875 21.753906 -10.359375 21.703125 -10.578125 C 21.597656 -11.160156 21.6875 -11.460938 21.96875 -11.484375 C 22.21875 -11.492188 22.507812 -11.8125 22.84375 -12.4375 L 23.015625 -12.796875 C 23.210938 -13.265625 23.066406 -13.675781 22.578125 -14.03125 Z M 15.78125 -12.265625 C 15.664062 -12.679688 15.472656 -12.625 15.203125 -12.09375 C 14.910156 -11.601562 14.976562 -11.390625 15.40625 -11.453125 C 15.789062 -11.585938 15.914062 -11.859375 15.78125 -12.265625 Z M 26.0625 -12.421875 C 25.945312 -12.710938 25.800781 -12.679688 25.625 -12.328125 C 25.425781 -12.015625 25.472656 -11.890625 25.765625 -11.953125 C 26.023438 -12.023438 26.125 -12.179688 26.0625 -12.421875 Z M 26.0625 -12.421875 "/></g></g><g transform="translate(97.447992, 268.436778)"><g><path d="M 3.34375 -21.265625 C 3.34375 -21.890625 3.625 -22.203125 4.1875 -22.203125 L 13.09375 -22.203125 C 13.695312 -22.203125 14 -21.90625 14 -21.3125 L 14 -15.046875 C 14 -14.578125 14.289062 -14.175781 14.875 -13.84375 L 15.765625 -13.40625 C 16.390625 -13.070312 16.515625 -12.632812 16.140625 -12.09375 C 15.691406 -11.46875 15.703125 -11.15625 16.171875 -11.15625 L 20.96875 -11.15625 C 21.476562 -11.15625 21.398438 -11.367188 20.734375 -11.796875 L 20.1875 -12.15625 C 19.570312 -12.5 19.414062 -12.828125 19.71875 -13.140625 C 20.039062 -13.472656 19.960938 -13.640625 19.484375 -13.640625 L 17.046875 -13.640625 C 16.441406 -13.640625 16.140625 -13.9375 16.140625 -14.53125 L 16.140625 -21.28125 C 16.140625 -21.894531 16.429688 -22.203125 17.015625 -22.203125 L 26.0625 -22.203125 C 26.664062 -22.203125 26.96875 -21.90625 26.96875 -21.3125 L 26.96875 -14.546875 C 26.96875 -13.941406 26.675781 -13.640625 26.09375 -13.640625 L 24.65625 -13.640625 C 23.625 -13.660156 23.6875 -13.398438 24.84375 -12.859375 C 25.382812 -12.421875 25.539062 -12.046875 25.3125 -11.734375 C 25.03125 -11.347656 25.109375 -11.15625 25.546875 -11.15625 L 27.46875 -11.15625 C 28.070312 -11.15625 28.375 -10.863281 28.375 -10.28125 L 28.375 -9.015625 C 28.375 -8.410156 28.082031 -8.109375 27.5 -8.109375 L 24.109375 -8.109375 C 23.378906 -8.109375 23.359375 -7.984375 24.046875 -7.734375 C 25.359375 -7.265625 26.785156 -6.875 28.328125 -6.5625 C 28.984375 -6.425781 29.144531 -6.035156 28.8125 -5.390625 C 28.582031 -4.992188 28.378906 -4.601562 28.203125 -4.21875 C 27.816406 -3.476562 27.535156 -3.113281 27.359375 -3.125 C 27.179688 -3.144531 27.09375 -2.921875 27.09375 -2.453125 L 27.09375 3.390625 C 27.09375 3.992188 26.800781 4.296875 26.21875 4.296875 L 24.78125 4.296875 C 24.195312 4.296875 23.894531 4.21875 23.875 4.0625 C 23.851562 3.894531 23.609375 3.8125 23.140625 3.8125 L 20.203125 3.8125 C 19.734375 3.8125 19.492188 3.890625 19.484375 4.046875 C 19.460938 4.210938 19.160156 4.296875 18.578125 4.296875 L 17.171875 4.296875 C 16.554688 4.296875 16.25 4.003906 16.25 3.421875 L 16.25 -3.921875 C 16.25 -4.523438 16.546875 -4.828125 17.140625 -4.828125 L 21.96875 -4.828125 C 22.570312 -4.828125 22.617188 -4.972656 22.109375 -5.265625 C 21.035156 -5.816406 19.9375 -6.507812 18.8125 -7.34375 C 18.195312 -7.851562 17.65625 -8.109375 17.1875 -8.109375 L 13.359375 -8.109375 C 12.890625 -8.109375 12.363281 -7.851562 11.78125 -7.34375 C 10.664062 -6.46875 9.671875 -5.816406 8.796875 -5.390625 C 8.203125 -5.097656 7.941406 -4.929688 8.015625 -4.890625 C 8.097656 -4.847656 8.375 -4.828125 8.84375 -4.828125 L 13.328125 -4.828125 C 13.929688 -4.828125 14.234375 -4.535156 14.234375 -3.953125 L 14.234375 3.390625 C 14.234375 3.992188 13.941406 4.296875 13.359375 4.296875 L 11.890625 4.296875 C 11.304688 4.296875 11.003906 4.21875 10.984375 4.0625 C 10.960938 3.894531 10.71875 3.8125 10.25 3.8125 L 7.359375 3.8125 C 6.890625 3.8125 6.644531 3.890625 6.625 4.046875 C 6.601562 4.210938 6.300781 4.296875 5.71875 4.296875 L 4.25 4.296875 C 3.644531 4.296875 3.34375 4.003906 3.34375 3.421875 L 3.34375 -2.3125 C 3.34375 -2.78125 3.253906 -2.992188 3.078125 -2.953125 C 2.878906 -2.878906 2.617188 -3.144531 2.296875 -3.75 L 1.796875 -4.65625 C 1.441406 -5.28125 1.554688 -5.707031 2.140625 -5.9375 C 3.703125 -6.507812 4.992188 -7.066406 6.015625 -7.609375 C 6.597656 -7.941406 6.546875 -8.109375 5.859375 -8.109375 L 2.96875 -8.109375 C 2.363281 -8.109375 2.0625 -8.398438 2.0625 -8.984375 L 2.0625 -10.25 C 2.0625 -10.851562 2.351562 -11.15625 2.9375 -11.15625 L 10.109375 -11.15625 C 10.640625 -10.90625 11.367188 -11.472656 12.296875 -12.859375 C 12.691406 -13.378906 12.675781 -13.640625 12.25 -13.640625 L 4.21875 -13.640625 C 3.632812 -13.640625 3.34375 -13.9375 3.34375 -14.53125 Z M 10.71875 -18.25 C 10.71875 -18.75 10.492188 -19 10.046875 -19 L 7.359375 -19 C 6.867188 -19 6.625 -18.765625 6.625 -18.296875 L 6.625 -17.484375 C 6.625 -16.992188 6.859375 -16.75 7.328125 -16.75 L 9.984375 -16.75 C 10.472656 -16.75 10.71875 -16.984375 10.71875 -17.453125 Z M 23.75 -18.25 C 23.75 -18.75 23.523438 -19 23.078125 -19 L 20.09375 -19 C 19.601562 -19 19.359375 -18.765625 19.359375 -18.296875 L 19.359375 -17.484375 C 19.359375 -16.992188 19.59375 -16.75 20.0625 -16.75 L 23.015625 -16.75 C 23.503906 -16.75 23.75 -16.984375 23.75 -17.453125 Z M 10.984375 -1.109375 C 10.984375 -1.640625 10.769531 -1.90625 10.34375 -1.90625 L 7.359375 -1.90625 C 6.867188 -1.90625 6.625 -1.671875 6.625 -1.203125 L 6.625 0.171875 C 6.625 0.660156 6.859375 0.90625 7.328125 0.90625 L 10.25 0.90625 C 10.738281 0.90625 10.984375 0.671875 10.984375 0.203125 Z M 23.875 -1.109375 C 23.875 -1.640625 23.65625 -1.90625 23.21875 -1.90625 L 20.203125 -1.90625 C 19.722656 -1.90625 19.484375 -1.671875 19.484375 -1.203125 L 19.484375 0.171875 C 19.484375 0.660156 19.71875 0.90625 20.1875 0.90625 L 23.140625 0.90625 C 23.628906 0.90625 23.875 0.671875 23.875 0.203125 Z M 23.875 -1.109375 "/></g></g><g transform="translate(127.431989, 268.436778)"><g><path d="M 13.296875 -21.578125 C 13.296875 -22.203125 13.570312 -22.515625 14.125 -22.515625 L 15.90625 -22.515625 C 16.507812 -22.515625 16.8125 -22.222656 16.8125 -21.640625 L 16.8125 -15.375 C 16.769531 -14.90625 16.894531 -14.28125 17.1875 -13.5 C 18.25 -10.0625 19.851562 -6.9375 22 -4.125 C 23.632812 -2.175781 25.625 -0.453125 27.96875 1.046875 C 28.550781 1.441406 28.539062 1.941406 27.9375 2.546875 C 27.53125 2.898438 27.117188 3.289062 26.703125 3.71875 C 26.140625 4.257812 25.566406 4.328125 24.984375 3.921875 C 20.566406 0.660156 17.519531 -3.222656 15.84375 -7.734375 C 15.644531 -8.253906 15.429688 -8.234375 15.203125 -7.671875 C 13.265625 -3.203125 9.769531 0.691406 4.71875 4.015625 C 4.113281 4.359375 3.578125 4.160156 3.109375 3.421875 L 2.375 2.25 C 2.007812 1.6875 2.128906 1.207031 2.734375 0.8125 C 9.484375 -3.53125 13.003906 -8.738281 13.296875 -14.8125 Z M 13.296875 -21.578125 "/></g></g></g></svg>