<svg xmlns="http://www.w3.org/2000/svg" xmlns:xlink="http://www.w3.org/1999/xlink" width="300" zoomAndPan="magnify" viewBox="0 0 224.87999 299.999988" height="400" preserveAspectRatio="xMidYMid meet" version="1.0"><defs><g/><clipPath id="7fd4eac81d"><path d="M 0 0.078125 L 224.761719 0.078125 L 224.761719 299.917969 L 0 299.917969 Z M 0 0.078125 " clip-rule="nonzero"/></clipPath><clipPath id="d21ef0f8ea"><path d="M 44.976562 54.050781 L 179.902344 54.050781 L 179.902344 188.980469 L 44.976562 188.980469 Z M 44.976562 54.050781 " clip-rule="nonzero"/></clipPath></defs><g clip-path="url(#7fd4eac81d)"><path fill="#ffffff" d="M 0 0.078125 L 224.878906 0.078125 L 224.878906 299.921875 L 0 299.921875 Z M 0 0.078125 " fill-opacity="1" fill-rule="nonzero"/><path fill="#b3e5ec" d="M 0 0.078125 L 224.878906 0.078125 L 224.878906 299.921875 L 0 299.921875 Z M 0 0.078125 " fill-opacity="1" fill-rule="nonzero"/></g><g clip-path="url(#d21ef0f8ea)"><path fill="#ffffff" d="M 129.125 161.828125 L 129.125 184.71875 C 129.125 187.0625 127.210938 188.980469 124.867188 188.980469 L 49.242188 188.980469 C 46.886719 188.980469 44.976562 187.0625 44.976562 184.71875 L 44.976562 85.472656 C 44.976562 83.117188 46.886719 81.203125 49.242188 81.203125 L 95.753906 81.203125 L 95.753906 58.316406 C 95.753906 55.964844 97.667969 54.050781 100.019531 54.050781 L 163.9375 54.050781 C 165.109375 54.050781 166.125 54.476562 166.945312 55.300781 L 178.65625 67.007812 C 179.480469 67.832031 179.902344 68.847656 179.902344 70.019531 L 179.902344 157.566406 C 179.902344 159.910156 177.988281 161.828125 175.644531 161.828125 Z M 95.753906 85.554688 L 49.328125 85.554688 L 49.328125 184.625 L 124.773438 184.625 L 124.773438 161.828125 L 100.019531 161.828125 C 97.664062 161.828125 95.753906 159.90625 95.753906 157.566406 L 95.753906 133.261719 L 73.457031 120.382812 L 67.179688 116.757812 C 63.179688 114.453125 61.792969 109.3125 64.105469 105.308594 L 65.34375 103.152344 L 65.34375 103.148438 C 67.648438 99.148438 72.804688 97.773438 76.804688 100.078125 L 76.808594 100.078125 L 95.753906 111.019531 Z M 162.621094 58.402344 L 100.105469 58.402344 L 100.105469 113.53125 L 131.460938 131.636719 C 131.460938 131.640625 131.464844 131.640625 131.464844 131.640625 C 131.796875 131.832031 132.070312 132.105469 132.261719 132.4375 L 139.085938 144.257812 L 166.429688 144.257812 C 167.628906 144.257812 168.605469 145.234375 168.605469 146.433594 C 168.605469 147.636719 167.628906 148.613281 166.429688 148.613281 L 122.914062 148.613281 C 122.53125 148.613281 122.15625 148.507812 121.828125 148.320312 L 100.105469 135.773438 L 100.105469 157.472656 L 175.550781 157.472656 L 175.550781 71.335938 L 165.839844 71.335938 C 164.074219 71.335938 162.621094 69.878906 162.621094 68.113281 Z M 172.472656 66.984375 L 166.972656 61.480469 L 166.972656 66.984375 Z M 77.519531 117.703125 L 122.117188 143.460938 L 127.398438 134.320312 L 82.796875 108.5625 Z M 79.027344 106.386719 L 74.632812 103.847656 C 72.707031 102.738281 70.226562 103.394531 69.117188 105.320312 L 67.882812 107.476562 C 67.878906 107.480469 67.878906 107.480469 67.875 107.484375 C 66.761719 109.40625 67.429688 111.878906 69.351562 112.984375 L 69.355469 112.988281 L 73.75 115.527344 C 73.75 115.527344 79.027344 106.386719 79.027344 106.386719 Z M 126.683594 144.257812 L 134.058594 144.257812 L 130.371094 137.871094 Z M 110.742188 114.695312 C 109.539062 114.695312 108.566406 113.722656 108.566406 112.519531 C 108.566406 111.320312 109.539062 110.34375 110.742188 110.34375 L 166.429688 110.34375 C 167.628906 110.34375 168.605469 111.320312 168.605469 112.519531 C 168.605469 113.722656 167.628906 114.695312 166.429688 114.695312 Z M 110.742188 79.878906 C 109.539062 79.878906 108.566406 78.902344 108.566406 77.703125 C 108.566406 76.5 109.539062 75.527344 110.742188 75.527344 L 149.371094 75.527344 C 150.570312 75.527344 151.546875 76.5 151.546875 77.703125 C 151.546875 78.902344 150.570312 79.878906 149.371094 79.878906 Z M 110.742188 91.484375 C 109.539062 91.484375 108.566406 90.507812 108.566406 89.308594 C 108.566406 88.105469 109.539062 87.132812 110.742188 87.132812 L 153.765625 87.132812 C 154.96875 87.132812 155.941406 88.105469 155.941406 89.308594 C 155.941406 90.507812 154.96875 91.484375 153.765625 91.484375 Z M 110.742188 103.089844 C 109.539062 103.089844 108.566406 102.113281 108.566406 100.914062 C 108.566406 99.714844 109.539062 98.738281 110.742188 98.738281 L 153.765625 98.738281 C 154.96875 98.738281 155.941406 99.714844 155.941406 100.914062 C 155.941406 102.113281 154.96875 103.089844 153.765625 103.089844 Z M 65.671875 72.679688 L 65.671875 65.132812 C 65.671875 63.929688 66.644531 62.957031 67.847656 62.957031 L 91.476562 62.957031 C 92.679688 62.957031 93.652344 63.933594 93.652344 65.132812 C 93.652344 66.335938 92.679688 67.308594 91.476562 67.308594 L 70.023438 67.308594 L 70.023438 72.679688 L 70.71875 72.175781 C 71.691406 71.46875 73.054688 71.683594 73.757812 72.65625 C 74.464844 73.628906 74.25 74.988281 73.277344 75.695312 L 69.128906 78.710938 C 68.363281 79.265625 67.332031 79.265625 66.570312 78.710938 L 62.417969 75.695312 C 61.445312 74.988281 61.230469 73.628906 61.9375 72.65625 C 62.640625 71.683594 64.003906 71.46875 64.976562 72.175781 Z M 156.933594 171.476562 L 156.238281 171.980469 C 155.265625 172.6875 153.902344 172.472656 153.199219 171.5 C 152.492188 170.527344 152.707031 169.167969 153.679688 168.460938 L 157.832031 165.445312 C 158.59375 164.890625 159.625 164.890625 160.390625 165.445312 L 164.539062 168.460938 C 165.511719 169.167969 165.726562 170.527344 165.019531 171.5 C 164.316406 172.472656 162.953125 172.6875 161.980469 171.980469 L 161.285156 171.476562 L 161.285156 179.023438 C 161.285156 180.226562 160.3125 181.199219 159.109375 181.199219 L 135.480469 181.199219 C 134.277344 181.199219 133.304688 180.222656 133.304688 179.023438 C 133.304688 177.820312 134.277344 176.847656 135.480469 176.847656 L 156.933594 176.847656 Z M 156.933594 171.476562 " fill-opacity="1" fill-rule="evenodd"/></g><g fill="#ffffff" fill-opacity="1"><g transform="translate(37.479997, 251.945579)"><g><path d="M 6.265625 -21.9375 C 6.460938 -22.613281 6.832031 -22.875 7.375 -22.71875 L 8.78125 -22.3125 C 9.425781 -22.09375 9.648438 -21.664062 9.453125 -21.03125 C 8.929688 -19.40625 8.367188 -17.898438 7.765625 -16.515625 C 7.367188 -15.828125 7.210938 -15.25 7.296875 -14.78125 L 7.296875 3.515625 C 7.296875 4.117188 7.003906 4.421875 6.421875 4.421875 L 4.921875 4.421875 C 4.316406 4.421875 4.015625 4.128906 4.015625 3.546875 L 4.015625 -8.78125 C 4.015625 -9.289062 3.867188 -9.320312 3.578125 -8.875 C 3.304688 -8.539062 3.003906 -8.675781 2.671875 -9.28125 L 1.90625 -10.75 C 1.59375 -11.332031 1.640625 -11.9375 2.046875 -12.5625 C 4.003906 -15.757812 5.410156 -18.882812 6.265625 -21.9375 Z M 15.078125 -21.578125 C 15.296875 -22.203125 15.664062 -22.425781 16.1875 -22.25 L 17.59375 -21.78125 C 18.207031 -21.570312 18.453125 -21.289062 18.328125 -20.9375 C 18.210938 -20.5625 18.390625 -20.375 18.859375 -20.375 L 26.625 -20.375 C 27.226562 -20.375 27.53125 -20.082031 27.53125 -19.5 L 27.53125 -18.296875 C 27.53125 -17.691406 27.265625 -17.390625 26.734375 -17.390625 C 26.210938 -17.390625 25.765625 -17.097656 25.390625 -16.515625 C 24.984375 -15.867188 24.492188 -15.222656 23.921875 -14.578125 C 23.492188 -14.109375 23.570312 -13.75 24.15625 -13.5 C 25 -13.1875 26.269531 -12.832031 27.96875 -12.4375 C 28.6875 -12.300781 28.898438 -11.921875 28.609375 -11.296875 L 28 -9.984375 C 27.707031 -9.359375 27.273438 -9.113281 26.703125 -9.25 C 25.359375 -9.582031 24.128906 -9.953125 23.015625 -10.359375 C 22.472656 -10.554688 22.453125 -10.363281 22.953125 -9.78125 C 23.503906 -9.15625 23.503906 -8.640625 22.953125 -8.234375 C 20.890625 -6.722656 18.472656 -5.5625 15.703125 -4.75 C 15.109375 -4.570312 14.609375 -4.773438 14.203125 -5.359375 L 13.46875 -6.53125 C 13.101562 -7.113281 13.210938 -7.492188 13.796875 -7.671875 C 16.609375 -8.472656 18.878906 -9.429688 20.609375 -10.546875 C 21.140625 -10.890625 21.269531 -11.128906 21 -11.265625 C 20.6875 -11.441406 20.320312 -11.414062 19.90625 -11.1875 C 18.445312 -10.320312 16.757812 -9.609375 14.84375 -9.046875 C 14.101562 -8.816406 13.578125 -9.015625 13.265625 -9.640625 C 13.035156 -10.046875 12.832031 -10.453125 12.65625 -10.859375 C 12.375 -11.441406 12.53125 -11.804688 13.125 -11.953125 C 14.175781 -12.203125 15.382812 -12.640625 16.75 -13.265625 C 17.175781 -13.492188 17.109375 -13.851562 16.546875 -14.34375 C 16.015625 -14.832031 15.601562 -14.84375 15.3125 -14.375 C 14.96875 -13.882812 14.488281 -13.859375 13.875 -14.296875 L 13.0625 -14.90625 C 12.414062 -15.375 12.28125 -15.898438 12.65625 -16.484375 C 13.6875 -18.109375 14.492188 -19.804688 15.078125 -21.578125 Z M 21.109375 -16.34375 C 22.109375 -17.238281 22.171875 -17.585938 21.296875 -17.390625 L 18.921875 -17.390625 C 18.410156 -17.390625 18.445312 -17.109375 19.03125 -16.546875 L 19.390625 -16.25 C 19.972656 -15.78125 20.546875 -15.8125 21.109375 -16.34375 Z M 8.578125 -15.953125 C 8.578125 -16.554688 8.863281 -16.859375 9.4375 -16.859375 L 10.8125 -16.859375 C 11.414062 -16.859375 11.71875 -16.566406 11.71875 -15.984375 L 11.71875 -0.46875 C 11.71875 0.132812 11.425781 0.4375 10.84375 0.4375 L 9.484375 0.4375 C 8.878906 0.4375 8.578125 0.144531 8.578125 -0.4375 Z M 23.375 -7.09375 C 24.03125 -7.5 24.59375 -7.445312 25.0625 -6.9375 C 25.28125 -6.664062 25.523438 -6.394531 25.796875 -6.125 C 26.347656 -5.519531 26.335938 -5.007812 25.765625 -4.59375 C 22.453125 -2.382812 19.132812 -0.882812 15.8125 -0.09375 C 15.132812 0.0820312 14.585938 -0.148438 14.171875 -0.796875 L 13.390625 -2.046875 C 13.015625 -2.628906 13.117188 -3 13.703125 -3.15625 C 17.273438 -4.113281 20.5 -5.425781 23.375 -7.09375 Z M 25.71875 -3.375 C 26.320312 -3.894531 26.863281 -3.863281 27.34375 -3.28125 L 28.140625 -2.40625 C 28.585938 -1.9375 28.539062 -1.445312 28 -0.9375 C 25.1875 1.445312 21.398438 3.125 16.640625 4.09375 C 15.503906 4.351562 14.679688 4.492188 14.171875 4.515625 C 13.742188 3.847656 13.34375 3.179688 12.96875 2.515625 C 12.632812 1.929688 12.773438 1.582031 13.390625 1.46875 C 14.828125 1.175781 16.269531 0.84375 17.71875 0.46875 C 20.914062 -0.382812 23.582031 -1.664062 25.71875 -3.375 Z M 25.71875 -3.375 "/></g></g><g transform="translate(67.463994, 251.945579)"><g><path d="M 17.078125 -21.375 C 17.242188 -22.132812 17.601562 -22.4375 18.15625 -22.28125 L 19.5625 -21.875 C 20.226562 -21.675781 20.5 -21.253906 20.375 -20.609375 L 20.0625 -19.234375 C 19.957031 -18.765625 20.140625 -18.53125 20.609375 -18.53125 L 27.53125 -18.53125 C 28.132812 -18.53125 28.4375 -18.238281 28.4375 -17.65625 L 28.4375 -16.15625 C 28.4375 -15.550781 28.21875 -15.25 27.78125 -15.25 C 27.332031 -15.25 27.0625 -14.957031 26.96875 -14.375 C 26.5625 -10.726562 25.535156 -7.34375 23.890625 -4.21875 C 23.597656 -3.726562 23.707031 -3.203125 24.21875 -2.640625 C 25.332031 -1.460938 26.53125 -0.445312 27.8125 0.40625 C 28.457031 0.832031 28.585938 1.34375 28.203125 1.9375 L 27.078125 3.609375 C 26.710938 4.128906 26.21875 4.15625 25.59375 3.6875 C 24.207031 2.613281 22.976562 1.472656 21.90625 0.265625 C 21.507812 -0.160156 21.007812 -0.0625 20.40625 0.5625 C 18.976562 1.96875 17.59375 3.054688 16.25 3.828125 C 15.550781 4.222656 14.945312 4.109375 14.4375 3.484375 L 13.875 2.75 C 13.351562 2.101562 13.351562 1.613281 13.875 1.28125 C 15.59375 0.3125 17.195312 -1.003906 18.6875 -2.671875 C 19.050781 -3.097656 19.066406 -3.625 18.734375 -4.25 C 18.035156 -5.59375 17.421875 -7.015625 16.890625 -8.515625 C 16.734375 -9.023438 16.507812 -8.976562 16.21875 -8.375 C 15.945312 -7.84375 15.488281 -7.820312 14.84375 -8.3125 L 13.96875 -8.953125 C 13.476562 -9.328125 13.234375 -9.457031 13.234375 -9.34375 C 13.210938 -9.226562 12.910156 -9.171875 12.328125 -9.171875 L 6.46875 -9.171875 C 5.976562 -9.171875 5.734375 -8.9375 5.734375 -8.46875 L 5.734375 -2.25 C 5.554688 -1.351562 5.890625 -0.875 6.734375 -0.8125 C 8.003906 -0.695312 9.078125 -0.847656 9.953125 -1.265625 C 10.242188 -1.453125 10.421875 -1.910156 10.484375 -2.640625 L 10.625 -4.953125 C 10.644531 -5.535156 10.945312 -5.691406 11.53125 -5.421875 C 12.019531 -5.203125 12.507812 -4.957031 13 -4.6875 C 13.644531 -4.351562 13.945312 -3.863281 13.90625 -3.21875 C 13.789062 -1.5 13.476562 -0.00390625 12.96875 1.265625 C 12.789062 1.609375 12.429688 1.890625 11.890625 2.109375 C 11.023438 2.285156 10.046875 2.394531 8.953125 2.4375 L 5.96875 2.4375 C 4.914062 2.375 4.132812 2.285156 3.625 2.171875 C 2.769531 1.640625 2.34375 0.722656 2.34375 -0.578125 L 2.34375 -11.53125 C 2.34375 -12.132812 2.632812 -12.4375 3.21875 -12.4375 L 8.984375 -12.4375 C 9.472656 -12.4375 9.71875 -12.671875 9.71875 -13.140625 L 9.71875 -17.21875 C 9.71875 -17.707031 9.484375 -17.953125 9.015625 -17.953125 L 3.015625 -17.953125 C 2.410156 -17.953125 2.109375 -18.242188 2.109375 -18.828125 L 2.109375 -20.328125 C 2.109375 -20.929688 2.398438 -21.234375 2.984375 -21.234375 L 12.328125 -21.234375 C 12.929688 -21.234375 13.234375 -20.9375 13.234375 -20.34375 L 13.234375 -11.734375 C 13.234375 -11.078125 13.410156 -11.085938 13.765625 -11.765625 C 15.285156 -15.285156 16.390625 -18.488281 17.078125 -21.375 Z M 23.578125 -14.53125 C 23.648438 -15.007812 23.453125 -15.25 22.984375 -15.25 L 19.671875 -15.25 C 19.203125 -15.25 18.863281 -14.957031 18.65625 -14.375 C 18.320312 -13.925781 18.300781 -13.4375 18.59375 -12.90625 C 19.101562 -11.195312 19.882812 -9.316406 20.9375 -7.265625 C 21.1875 -6.816406 21.457031 -6.910156 21.75 -7.546875 C 22.632812 -9.722656 23.242188 -12.050781 23.578125 -14.53125 Z M 23.578125 -14.53125 "/></g></g><g transform="translate(97.447992, 251.945579)"><g><path d="M 18.5625 -22.453125 L 19.828125 -22.578125 C 20.472656 -22.628906 20.796875 -22.375 20.796875 -21.8125 C 20.796875 -20.625 20.820312 -19.40625 20.875 -18.15625 C 20.957031 -17.601562 21.066406 -17.40625 21.203125 -17.5625 C 21.316406 -17.707031 21.421875 -17.757812 21.515625 -17.71875 C 21.617188 -17.632812 21.804688 -17.890625 22.078125 -18.484375 C 22.484375 -19.453125 22.851562 -20.425781 23.1875 -21.40625 C 23.425781 -22.125 23.847656 -22.359375 24.453125 -22.109375 L 25.1875 -21.75 C 25.789062 -21.476562 25.945312 -20.984375 25.65625 -20.265625 C 25.207031 -19.148438 24.707031 -18.035156 24.15625 -16.921875 C 23.925781 -16.472656 23.914062 -16.148438 24.125 -15.953125 C 24.300781 -15.796875 24.523438 -16.03125 24.796875 -16.65625 L 25.390625 -18.1875 C 25.597656 -18.789062 26 -18.96875 26.59375 -18.71875 L 27.140625 -18.484375 C 27.898438 -18.128906 28.15625 -17.660156 27.90625 -17.078125 L 26.9375 -15 C 26.6875 -14.445312 26.742188 -14.226562 27.109375 -14.34375 C 27.546875 -14.476562 27.890625 -14.1875 28.140625 -13.46875 C 28.492188 -12.457031 28.765625 -11.472656 28.953125 -10.515625 C 29.078125 -9.929688 28.84375 -9.550781 28.25 -9.375 L 27.703125 -9.1875 C 27.117188 -9.019531 26.804688 -9.0625 26.765625 -9.3125 C 26.722656 -9.601562 26.5 -9.679688 26.09375 -9.546875 C 25.675781 -9.453125 25.789062 -9.1875 26.4375 -8.75 C 26.96875 -8.320312 27.101562 -7.960938 26.84375 -7.671875 C 26.570312 -7.359375 26.648438 -7.203125 27.078125 -7.203125 L 27.875 -7.203125 C 28.476562 -7.203125 28.78125 -6.910156 28.78125 -6.328125 L 28.78125 -5.265625 C 28.78125 -4.660156 28.488281 -4.359375 27.90625 -4.359375 L 23.453125 -4.359375 C 22.984375 -4.359375 22.847656 -4.066406 23.046875 -3.484375 C 23.316406 -2.816406 23.617188 -2.71875 23.953125 -3.1875 C 24.285156 -3.695312 24.742188 -3.828125 25.328125 -3.578125 C 25.597656 -3.421875 25.898438 -3.273438 26.234375 -3.140625 C 26.859375 -2.835938 26.957031 -2.335938 26.53125 -1.640625 C 26.238281 -1.191406 25.894531 -0.710938 25.5 -0.203125 C 25.09375 0.265625 25.003906 0.644531 25.234375 0.9375 C 25.765625 1.425781 26.070312 1.179688 26.15625 0.203125 C 26.207031 -0.304688 26.554688 -0.441406 27.203125 -0.203125 L 28.171875 0.203125 C 28.816406 0.441406 29.019531 0.898438 28.78125 1.578125 C 28.507812 2.472656 28.003906 3.253906 27.265625 3.921875 C 25.992188 4.835938 24.6875 4.582031 23.34375 3.15625 C 22.945312 2.675781 22.46875 2.628906 21.90625 3.015625 C 21.144531 3.441406 20.382812 3.832031 19.625 4.1875 C 19.03125 4.414062 18.5625 4.226562 18.21875 3.625 L 17.75 2.78125 C 17.394531 2.195312 17.53125 1.769531 18.15625 1.5 C 18.832031 1.195312 19.59375 0.796875 20.4375 0.296875 C 20.945312 -0.0351562 21.082031 -0.484375 20.84375 -1.046875 C 20.507812 -1.890625 20.21875 -2.734375 19.96875 -3.578125 C 19.832031 -4.097656 19.550781 -4.359375 19.125 -4.359375 L 16.21875 -4.359375 C 15.75 -4.359375 15.492188 -4.175781 15.453125 -3.8125 C 15.453125 -3.4375 15.75 -3.09375 16.34375 -2.78125 C 16.925781 -2.488281 17.539062 -2.15625 18.1875 -1.78125 C 18.84375 -1.394531 18.929688 -0.867188 18.453125 -0.203125 L 18.03125 0.375 C 17.644531 0.925781 17.140625 0.992188 16.515625 0.578125 L 15.921875 0.171875 C 15.335938 -0.171875 14.957031 -0.0507812 14.78125 0.53125 C 14.570312 1.46875 14.175781 2.441406 13.59375 3.453125 C 13.101562 4.160156 12.546875 4.316406 11.921875 3.921875 L 10.984375 3.34375 C 10.398438 2.945312 10.3125 2.457031 10.71875 1.875 C 11.726562 0.21875 12.285156 -1.625 12.390625 -3.65625 C 12.390625 -4.125 12.15625 -4.359375 11.6875 -4.359375 L 11.296875 -4.359375 C 10.691406 -4.359375 10.390625 -4.648438 10.390625 -5.234375 L 10.390625 -6.296875 C 10.390625 -6.898438 10.6875 -7.203125 11.28125 -7.203125 L 18.328125 -7.203125 C 18.796875 -7.203125 18.972656 -7.492188 18.859375 -8.078125 C 18.878906 -8.140625 18.867188 -8.226562 18.828125 -8.34375 C 18.734375 -8.875 18.46875 -9.070312 18.03125 -8.9375 L 17.65625 -8.8125 C 16.96875 -8.59375 16.609375 -8.613281 16.578125 -8.875 C 16.554688 -9.082031 16.242188 -9.101562 15.640625 -8.9375 C 14.328125 -8.5625 13.023438 -8.332031 11.734375 -8.25 C 11.078125 -8.238281 10.726562 -8.359375 10.6875 -8.609375 C 10.644531 -8.828125 10.429688 -8.671875 10.046875 -8.140625 L 9.640625 -7.546875 C 9.148438 -6.847656 8.707031 -6.8125 8.3125 -7.4375 L 8.078125 -7.78125 C 7.671875 -8.394531 7.46875 -8.390625 7.46875 -7.765625 L 7.46875 3.625 C 7.46875 4.226562 7.175781 4.53125 6.59375 4.53125 L 5.328125 4.53125 C 4.722656 4.53125 4.421875 4.238281 4.421875 3.65625 L 4.421875 -4.515625 C 4.421875 -5.171875 4.300781 -5.1875 4.0625 -4.5625 L 3.609375 -3.3125 C 3.367188 -2.726562 3.003906 -2.726562 2.515625 -3.3125 L 2.078125 -3.859375 C 1.628906 -4.429688 1.539062 -5.019531 1.8125 -5.625 C 2.613281 -7.4375 3.460938 -10.140625 4.359375 -13.734375 C 4.378906 -14.203125 4.15625 -14.4375 3.6875 -14.4375 L 2.875 -14.4375 C 2.269531 -14.4375 1.96875 -14.726562 1.96875 -15.3125 L 1.96875 -16.453125 C 1.96875 -17.054688 2.257812 -17.359375 2.84375 -17.359375 L 3.6875 -17.359375 C 4.175781 -17.359375 4.421875 -17.59375 4.421875 -18.0625 L 4.421875 -21.640625 C 4.421875 -22.222656 4.710938 -22.515625 5.296875 -22.515625 L 6.5625 -22.515625 C 7.164062 -22.515625 7.46875 -22.222656 7.46875 -21.640625 L 7.46875 -18.09375 C 7.46875 -17.601562 7.769531 -17.359375 8.375 -17.359375 C 9 -17.359375 9.3125 -17.066406 9.3125 -16.484375 L 9.3125 -15.34375 C 9.3125 -14.738281 9.007812 -14.4375 8.40625 -14.4375 C 7.78125 -14.4375 7.46875 -14.171875 7.46875 -13.640625 C 7.46875 -13.117188 7.757812 -12.570312 8.34375 -12 L 9.84375 -10.453125 C 10.25 -10.023438 10.429688 -10.015625 10.390625 -10.421875 C 10.335938 -10.773438 10.535156 -10.953125 10.984375 -10.953125 C 11.390625 -10.953125 11.78125 -11.253906 12.15625 -11.859375 L 12.703125 -12.796875 C 13.035156 -13.378906 12.910156 -13.894531 12.328125 -14.34375 C 11.742188 -14.738281 11.160156 -15.101562 10.578125 -15.4375 C 9.929688 -15.800781 9.8125 -16.25 10.21875 -16.78125 C 10.332031 -16.894531 10.421875 -17.007812 10.484375 -17.125 C 10.992188 -17.75 11.328125 -18.015625 11.484375 -17.921875 C 11.648438 -17.828125 11.890625 -18.070312 12.203125 -18.65625 L 13.46875 -21.609375 C 13.707031 -22.210938 14.117188 -22.378906 14.703125 -22.109375 L 15.34375 -21.8125 C 16.007812 -21.5 16.195312 -21.019531 15.90625 -20.375 C 15.457031 -19.40625 14.96875 -18.429688 14.4375 -17.453125 C 14.082031 -16.867188 13.992188 -16.507812 14.171875 -16.375 C 14.367188 -16.226562 14.613281 -16.460938 14.90625 -17.078125 L 15.171875 -17.625 C 15.421875 -18.207031 15.847656 -18.363281 16.453125 -18.09375 L 17.015625 -17.859375 C 17.554688 -17.609375 17.816406 -17.6875 17.796875 -18.09375 L 17.6875 -21.5 C 17.6875 -22.082031 17.976562 -22.398438 18.5625 -22.453125 Z M 17.921875 -15.78125 C 17.835938 -16.34375 17.648438 -16.398438 17.359375 -15.953125 L 16.515625 -14.40625 C 16.203125 -13.800781 16.300781 -13.546875 16.8125 -13.640625 C 17.3125 -13.796875 17.679688 -13.523438 17.921875 -12.828125 C 18.117188 -12.179688 18.207031 -12.148438 18.1875 -12.734375 C 18.070312 -13.753906 17.984375 -14.769531 17.921875 -15.78125 Z M 22.578125 -14.03125 C 22.304688 -14.257812 22.03125 -14.453125 21.75 -14.609375 C 21.28125 -14.898438 21.066406 -14.753906 21.109375 -14.171875 C 21.328125 -11.535156 21.59375 -9.445312 21.90625 -7.90625 C 22.019531 -7.4375 22.347656 -7.203125 22.890625 -7.203125 C 23.617188 -7.203125 23.828125 -7.335938 23.515625 -7.609375 C 23.222656 -7.785156 23.242188 -8.078125 23.578125 -8.484375 C 23.941406 -8.898438 23.785156 -9.078125 23.109375 -9.015625 C 22.347656 -8.960938 21.90625 -9.296875 21.78125 -10.015625 C 21.78125 -10.171875 21.753906 -10.359375 21.703125 -10.578125 C 21.597656 -11.160156 21.6875 -11.460938 21.96875 -11.484375 C 22.21875 -11.492188 22.507812 -11.8125 22.84375 -12.4375 L 23.015625 -12.796875 C 23.210938 -13.265625 23.066406 -13.675781 22.578125 -14.03125 Z M 15.78125 -12.265625 C 15.664062 -12.679688 15.472656 -12.625 15.203125 -12.09375 C 14.910156 -11.601562 14.976562 -11.390625 15.40625 -11.453125 C 15.789062 -11.585938 15.914062 -11.859375 15.78125 -12.265625 Z M 26.0625 -12.421875 C 25.945312 -12.710938 25.800781 -12.679688 25.625 -12.328125 C 25.425781 -12.015625 25.472656 -11.890625 25.765625 -11.953125 C 26.023438 -12.023438 26.125 -12.179688 26.0625 -12.421875 Z M 26.0625 -12.421875 "/></g></g><g transform="translate(127.431989, 251.945579)"><g><path d="M 3.34375 -21.265625 C 3.34375 -21.890625 3.625 -22.203125 4.1875 -22.203125 L 13.09375 -22.203125 C 13.695312 -22.203125 14 -21.90625 14 -21.3125 L 14 -15.046875 C 14 -14.578125 14.289062 -14.175781 14.875 -13.84375 L 15.765625 -13.40625 C 16.390625 -13.070312 16.515625 -12.632812 16.140625 -12.09375 C 15.691406 -11.46875 15.703125 -11.15625 16.171875 -11.15625 L 20.96875 -11.15625 C 21.476562 -11.15625 21.398438 -11.367188 20.734375 -11.796875 L 20.1875 -12.15625 C 19.570312 -12.5 19.414062 -12.828125 19.71875 -13.140625 C 20.039062 -13.472656 19.960938 -13.640625 19.484375 -13.640625 L 17.046875 -13.640625 C 16.441406 -13.640625 16.140625 -13.9375 16.140625 -14.53125 L 16.140625 -21.28125 C 16.140625 -21.894531 16.429688 -22.203125 17.015625 -22.203125 L 26.0625 -22.203125 C 26.664062 -22.203125 26.96875 -21.90625 26.96875 -21.3125 L 26.96875 -14.546875 C 26.96875 -13.941406 26.675781 -13.640625 26.09375 -13.640625 L 24.65625 -13.640625 C 23.625 -13.660156 23.6875 -13.398438 24.84375 -12.859375 C 25.382812 -12.421875 25.539062 -12.046875 25.3125 -11.734375 C 25.03125 -11.347656 25.109375 -11.15625 25.546875 -11.15625 L 27.46875 -11.15625 C 28.070312 -11.15625 28.375 -10.863281 28.375 -10.28125 L 28.375 -9.015625 C 28.375 -8.410156 28.082031 -8.109375 27.5 -8.109375 L 24.109375 -8.109375 C 23.378906 -8.109375 23.359375 -7.984375 24.046875 -7.734375 C 25.359375 -7.265625 26.785156 -6.875 28.328125 -6.5625 C 28.984375 -6.425781 29.144531 -6.035156 28.8125 -5.390625 C 28.582031 -4.992188 28.378906 -4.601562 28.203125 -4.21875 C 27.816406 -3.476562 27.535156 -3.113281 27.359375 -3.125 C 27.179688 -3.144531 27.09375 -2.921875 27.09375 -2.453125 L 27.09375 3.390625 C 27.09375 3.992188 26.800781 4.296875 26.21875 4.296875 L 24.78125 4.296875 C 24.195312 4.296875 23.894531 4.21875 23.875 4.0625 C 23.851562 3.894531 23.609375 3.8125 23.140625 3.8125 L 20.203125 3.8125 C 19.734375 3.8125 19.492188 3.890625 19.484375 4.046875 C 19.460938 4.210938 19.160156 4.296875 18.578125 4.296875 L 17.171875 4.296875 C 16.554688 4.296875 16.25 4.003906 16.25 3.421875 L 16.25 -3.921875 C 16.25 -4.523438 16.546875 -4.828125 17.140625 -4.828125 L 21.96875 -4.828125 C 22.570312 -4.828125 22.617188 -4.972656 22.109375 -5.265625 C 21.035156 -5.816406 19.9375 -6.507812 18.8125 -7.34375 C 18.195312 -7.851562 17.65625 -8.109375 17.1875 -8.109375 L 13.359375 -8.109375 C 12.890625 -8.109375 12.363281 -7.851562 11.78125 -7.34375 C 10.664062 -6.46875 9.671875 -5.816406 8.796875 -5.390625 C 8.203125 -5.097656 7.941406 -4.929688 8.015625 -4.890625 C 8.097656 -4.847656 8.375 -4.828125 8.84375 -4.828125 L 13.328125 -4.828125 C 13.929688 -4.828125 14.234375 -4.535156 14.234375 -3.953125 L 14.234375 3.390625 C 14.234375 3.992188 13.941406 4.296875 13.359375 4.296875 L 11.890625 4.296875 C 11.304688 4.296875 11.003906 4.21875 10.984375 4.0625 C 10.960938 3.894531 10.71875 3.8125 10.25 3.8125 L 7.359375 3.8125 C 6.890625 3.8125 6.644531 3.890625 6.625 4.046875 C 6.601562 4.210938 6.300781 4.296875 5.71875 4.296875 L 4.25 4.296875 C 3.644531 4.296875 3.34375 4.003906 3.34375 3.421875 L 3.34375 -2.3125 C 3.34375 -2.78125 3.253906 -2.992188 3.078125 -2.953125 C 2.878906 -2.878906 2.617188 -3.144531 2.296875 -3.75 L 1.796875 -4.65625 C 1.441406 -5.28125 1.554688 -5.707031 2.140625 -5.9375 C 3.703125 -6.507812 4.992188 -7.066406 6.015625 -7.609375 C 6.597656 -7.941406 6.546875 -8.109375 5.859375 -8.109375 L 2.96875 -8.109375 C 2.363281 -8.109375 2.0625 -8.398438 2.0625 -8.984375 L 2.0625 -10.25 C 2.0625 -10.851562 2.351562 -11.15625 2.9375 -11.15625 L 10.109375 -11.15625 C 10.640625 -10.90625 11.367188 -11.472656 12.296875 -12.859375 C 12.691406 -13.378906 12.675781 -13.640625 12.25 -13.640625 L 4.21875 -13.640625 C 3.632812 -13.640625 3.34375 -13.9375 3.34375 -14.53125 Z M 10.71875 -18.25 C 10.71875 -18.75 10.492188 -19 10.046875 -19 L 7.359375 -19 C 6.867188 -19 6.625 -18.765625 6.625 -18.296875 L 6.625 -17.484375 C 6.625 -16.992188 6.859375 -16.75 7.328125 -16.75 L 9.984375 -16.75 C 10.472656 -16.75 10.71875 -16.984375 10.71875 -17.453125 Z M 23.75 -18.25 C 23.75 -18.75 23.523438 -19 23.078125 -19 L 20.09375 -19 C 19.601562 -19 19.359375 -18.765625 19.359375 -18.296875 L 19.359375 -17.484375 C 19.359375 -16.992188 19.59375 -16.75 20.0625 -16.75 L 23.015625 -16.75 C 23.503906 -16.75 23.75 -16.984375 23.75 -17.453125 Z M 10.984375 -1.109375 C 10.984375 -1.640625 10.769531 -1.90625 10.34375 -1.90625 L 7.359375 -1.90625 C 6.867188 -1.90625 6.625 -1.671875 6.625 -1.203125 L 6.625 0.171875 C 6.625 0.660156 6.859375 0.90625 7.328125 0.90625 L 10.25 0.90625 C 10.738281 0.90625 10.984375 0.671875 10.984375 0.203125 Z M 23.875 -1.109375 C 23.875 -1.640625 23.65625 -1.90625 23.21875 -1.90625 L 20.203125 -1.90625 C 19.722656 -1.90625 19.484375 -1.671875 19.484375 -1.203125 L 19.484375 0.171875 C 19.484375 0.660156 19.71875 0.90625 20.1875 0.90625 L 23.140625 0.90625 C 23.628906 0.90625 23.875 0.671875 23.875 0.203125 Z M 23.875 -1.109375 "/></g></g><g transform="translate(157.415986, 251.945579)"><g><path d="M 13.296875 -21.578125 C 13.296875 -22.203125 13.570312 -22.515625 14.125 -22.515625 L 15.90625 -22.515625 C 16.507812 -22.515625 16.8125 -22.222656 16.8125 -21.640625 L 16.8125 -15.375 C 16.769531 -14.90625 16.894531 -14.28125 17.1875 -13.5 C 18.25 -10.0625 19.851562 -6.9375 22 -4.125 C 23.632812 -2.175781 25.625 -0.453125 27.96875 1.046875 C 28.550781 1.441406 28.539062 1.941406 27.9375 2.546875 C 27.53125 2.898438 27.117188 3.289062 26.703125 3.71875 C 26.140625 4.257812 25.566406 4.328125 24.984375 3.921875 C 20.566406 0.660156 17.519531 -3.222656 15.84375 -7.734375 C 15.644531 -8.253906 15.429688 -8.234375 15.203125 -7.671875 C 13.265625 -3.203125 9.769531 0.691406 4.71875 4.015625 C 4.113281 4.359375 3.578125 4.160156 3.109375 3.421875 L 2.375 2.25 C 2.007812 1.6875 2.128906 1.207031 2.734375 0.8125 C 9.484375 -3.53125 13.003906 -8.738281 13.296875 -14.8125 Z M 13.296875 -21.578125 "/></g></g></g></svg>