<svg xmlns="http://www.w3.org/2000/svg" xmlns:xlink="http://www.w3.org/1999/xlink" width="1920" zoomAndPan="magnify" viewBox="0 0 1440 809.999993" height="1080" preserveAspectRatio="xMidYMid meet" version="1.0"><defs><clipPath id="583721bd6c"><path d="M 635.203125 30.128906 L 1370.953125 30.128906 L 1370.953125 779.867188 L 635.203125 779.867188 Z M 635.203125 30.128906 " clip-rule="nonzero"/></clipPath><clipPath id="d78f9b1014"><path d="M 63.765625 66.183594 L 573.925781 66.183594 L 573.925781 743.816406 L 63.765625 743.816406 Z M 63.765625 66.183594 " clip-rule="nonzero"/></clipPath><clipPath id="b934fae1ab"><path d="M 63.765625 66.183594 L 573.765625 66.183594 L 573.765625 743.804688 L 63.765625 743.804688 Z M 63.765625 66.183594 " clip-rule="nonzero"/></clipPath></defs><rect x="-144" width="1728" fill="#ffffff" y="-80.999999" height="971.999992" fill-opacity="1"/><rect x="-144" width="1728" fill="#e8e4dd" y="-80.999999" height="971.999992" fill-opacity="1"/><g clip-path="url(#583721bd6c)"><path fill="#41624f" d="M 656.203125 27.128906 L 674.203125 27.128906 L 674.203125 33.128906 L 656.203125 33.128906 Z M 677.203125 27.128906 L 695.203125 27.128906 L 695.203125 33.128906 L 677.203125 33.128906 Z M 698.203125 27.128906 L 716.203125 27.128906 L 716.203125 33.128906 L 698.203125 33.128906 Z M 719.203125 27.128906 L 737.203125 27.128906 L 737.203125 33.128906 L 719.203125 33.128906 Z M 740.203125 27.128906 L 758.203125 27.128906 L 758.203125 33.128906 L 740.203125 33.128906 Z M 761.203125 27.128906 L 779.203125 27.128906 L 779.203125 33.128906 L 761.203125 33.128906 Z M 782.203125 27.128906 L 800.203125 27.128906 L 800.203125 33.128906 L 782.203125 33.128906 Z M 803.203125 27.128906 L 821.203125 27.128906 L 821.203125 33.128906 L 803.203125 33.128906 Z M 824.203125 27.128906 L 842.203125 27.128906 L 842.203125 33.128906 L 824.203125 33.128906 Z M 845.203125 27.128906 L 863.203125 27.128906 L 863.203125 33.128906 L 845.203125 33.128906 Z M 866.203125 27.128906 L 884.203125 27.128906 L 884.203125 33.128906 L 866.203125 33.128906 Z M 887.203125 27.128906 L 905.203125 27.128906 L 905.203125 33.128906 L 887.203125 33.128906 Z M 908.203125 27.128906 L 926.203125 27.128906 L 926.203125 33.128906 L 908.203125 33.128906 Z M 929.203125 27.128906 L 947.203125 27.128906 L 947.203125 33.128906 L 929.203125 33.128906 Z M 950.203125 27.128906 L 968.203125 27.128906 L 968.203125 33.128906 L 950.203125 33.128906 Z M 971.203125 27.128906 L 989.203125 27.128906 L 989.203125 33.128906 L 971.203125 33.128906 Z M 992.203125 27.128906 L 1010.203125 27.128906 L 1010.203125 33.128906 L 992.203125 33.128906 Z M 1013.203125 27.128906 L 1031.203125 27.128906 L 1031.203125 33.128906 L 1013.203125 33.128906 Z M 1034.203125 27.128906 L 1052.203125 27.128906 L 1052.203125 33.128906 L 1034.203125 33.128906 Z M 1055.203125 27.128906 L 1073.203125 27.128906 L 1073.203125 33.128906 L 1055.203125 33.128906 Z M 1076.203125 27.128906 L 1094.203125 27.128906 L 1094.203125 33.128906 L 1076.203125 33.128906 Z M 1097.203125 27.128906 L 1115.203125 27.128906 L 1115.203125 33.128906 L 1097.203125 33.128906 Z M 1118.203125 27.128906 L 1136.203125 27.128906 L 1136.203125 33.128906 L 1118.203125 33.128906 Z M 1139.203125 27.128906 L 1157.203125 27.128906 L 1157.203125 33.128906 L 1139.203125 33.128906 Z M 1160.203125 27.128906 L 1178.203125 27.128906 L 1178.203125 33.128906 L 1160.203125 33.128906 Z M 1181.203125 27.128906 L 1199.203125 27.128906 L 1199.203125 33.128906 L 1181.203125 33.128906 Z M 1202.203125 27.128906 L 1220.203125 27.128906 L 1220.203125 33.128906 L 1202.203125 33.128906 Z M 1223.203125 27.128906 L 1241.203125 27.128906 L 1241.203125 33.128906 L 1223.203125 33.128906 Z M 1244.203125 27.128906 L 1262.203125 27.128906 L 1262.203125 33.128906 L 1244.203125 33.128906 Z M 1265.203125 27.128906 L 1283.203125 27.128906 L 1283.203125 33.128906 L 1265.203125 33.128906 Z M 1286.203125 27.128906 L 1304.203125 27.128906 L 1304.203125 33.128906 L 1286.203125 33.128906 Z M 1307.203125 27.128906 L 1325.203125 27.128906 L 1325.203125 33.128906 L 1307.203125 33.128906 Z M 1328.203125 27.128906 L 1346.203125 27.128906 L 1346.203125 33.128906 L 1328.203125 33.128906 Z M 1349.203125 27.128906 L 1367.203125 27.128906 L 1367.203125 33.128906 L 1349.203125 33.128906 Z M 1370.203125 27.128906 L 1373.988281 27.128906 L 1373.988281 47.34375 L 1367.988281 47.34375 L 1367.988281 30.128906 L 1370.988281 30.128906 L 1370.988281 33.128906 L 1370.203125 33.128906 Z M 1373.988281 50.34375 L 1373.988281 68.34375 L 1367.988281 68.34375 L 1367.988281 50.34375 Z M 1373.988281 71.34375 L 1373.988281 89.34375 L 1367.988281 89.34375 L 1367.988281 71.34375 Z M 1373.988281 92.34375 L 1373.988281 110.34375 L 1367.988281 110.34375 L 1367.988281 92.34375 Z M 1373.988281 113.34375 L 1373.988281 131.34375 L 1367.988281 131.34375 L 1367.988281 113.34375 Z M 1373.988281 134.34375 L 1373.988281 152.34375 L 1367.988281 152.34375 L 1367.988281 134.34375 Z M 1373.988281 155.34375 L 1373.988281 173.34375 L 1367.988281 173.34375 L 1367.988281 155.34375 Z M 1373.988281 176.34375 L 1373.988281 194.34375 L 1367.988281 194.34375 L 1367.988281 176.34375 Z M 1373.988281 197.34375 L 1373.988281 215.34375 L 1367.988281 215.34375 L 1367.988281 197.34375 Z M 1373.988281 218.34375 L 1373.988281 236.34375 L 1367.988281 236.34375 L 1367.988281 218.34375 Z M 1373.988281 239.34375 L 1373.988281 257.34375 L 1367.988281 257.34375 L 1367.988281 239.34375 Z M 1373.988281 260.34375 L 1373.988281 278.34375 L 1367.988281 278.34375 L 1367.988281 260.34375 Z M 1373.988281 281.34375 L 1373.988281 299.34375 L 1367.988281 299.34375 L 1367.988281 281.34375 Z M 1373.988281 302.34375 L 1373.988281 320.34375 L 1367.988281 320.34375 L 1367.988281 302.34375 Z M 1373.988281 323.34375 L 1373.988281 341.34375 L 1367.988281 341.34375 L 1367.988281 323.34375 Z M 1373.988281 344.34375 L 1373.988281 362.34375 L 1367.988281 362.34375 L 1367.988281 344.34375 Z M 1373.988281 365.34375 L 1373.988281 383.34375 L 1367.988281 383.34375 L 1367.988281 365.34375 Z M 1373.988281 386.34375 L 1373.988281 404.34375 L 1367.988281 404.34375 L 1367.988281 386.34375 Z M 1373.988281 407.34375 L 1373.988281 425.34375 L 1367.988281 425.34375 L 1367.988281 407.34375 Z M 1373.988281 428.34375 L 1373.988281 446.34375 L 1367.988281 446.34375 L 1367.988281 428.34375 Z M 1373.988281 449.34375 L 1373.988281 467.34375 L 1367.988281 467.34375 L 1367.988281 449.34375 Z M 1373.988281 470.34375 L 1373.988281 488.34375 L 1367.988281 488.34375 L 1367.988281 470.34375 Z M 1373.988281 491.34375 L 1373.988281 509.34375 L 1367.988281 509.34375 L 1367.988281 491.34375 Z M 1373.988281 512.34375 L 1373.988281 530.34375 L 1367.988281 530.34375 L 1367.988281 512.34375 Z M 1373.988281 533.34375 L 1373.988281 551.34375 L 1367.988281 551.34375 L 1367.988281 533.34375 Z M 1373.988281 554.34375 L 1373.988281 572.34375 L 1367.988281 572.34375 L 1367.988281 554.34375 Z M 1373.988281 575.34375 L 1373.988281 593.34375 L 1367.988281 593.34375 L 1367.988281 575.34375 Z M 1373.988281 596.34375 L 1373.988281 614.34375 L 1367.988281 614.34375 L 1367.988281 596.34375 Z M 1373.988281 617.34375 L 1373.988281 635.34375 L 1367.988281 635.34375 L 1367.988281 617.34375 Z M 1373.988281 638.34375 L 1373.988281 656.34375 L 1367.988281 656.34375 L 1367.988281 638.34375 Z M 1373.988281 659.34375 L 1373.988281 677.34375 L 1367.988281 677.34375 L 1367.988281 659.34375 Z M 1373.988281 680.34375 L 1373.988281 698.34375 L 1367.988281 698.34375 L 1367.988281 680.34375 Z M 1373.988281 701.34375 L 1373.988281 719.34375 L 1367.988281 719.34375 L 1367.988281 701.34375 Z M 1373.988281 722.34375 L 1373.988281 740.34375 L 1367.988281 740.34375 L 1367.988281 722.34375 Z M 1373.988281 743.34375 L 1373.988281 761.34375 L 1367.988281 761.34375 L 1367.988281 743.34375 Z M 1373.988281 764.34375 L 1373.988281 782.867188 L 1368.511719 782.867188 L 1368.511719 776.867188 L 1370.988281 776.867188 L 1370.988281 779.867188 L 1367.988281 779.867188 L 1367.988281 764.34375 Z M 1365.511719 782.867188 L 1347.511719 782.867188 L 1347.511719 776.867188 L 1365.511719 776.867188 Z M 1344.511719 782.867188 L 1326.511719 782.867188 L 1326.511719 776.867188 L 1344.511719 776.867188 Z M 1323.511719 782.867188 L 1305.511719 782.867188 L 1305.511719 776.867188 L 1323.511719 776.867188 Z M 1302.511719 782.867188 L 1284.511719 782.867188 L 1284.511719 776.867188 L 1302.511719 776.867188 Z M 1281.511719 782.867188 L 1263.511719 782.867188 L 1263.511719 776.867188 L 1281.511719 776.867188 Z M 1260.511719 782.867188 L 1242.511719 782.867188 L 1242.511719 776.867188 L 1260.511719 776.867188 Z M 1239.511719 782.867188 L 1221.511719 782.867188 L 1221.511719 776.867188 L 1239.511719 776.867188 Z M 1218.511719 782.867188 L 1200.511719 782.867188 L 1200.511719 776.867188 L 1218.511719 776.867188 Z M 1197.511719 782.867188 L 1179.511719 782.867188 L 1179.511719 776.867188 L 1197.511719 776.867188 Z M 1176.511719 782.867188 L 1158.511719 782.867188 L 1158.511719 776.867188 L 1176.511719 776.867188 Z M 1155.511719 782.867188 L 1137.511719 782.867188 L 1137.511719 776.867188 L 1155.511719 776.867188 Z M 1134.511719 782.867188 L 1116.511719 782.867188 L 1116.511719 776.867188 L 1134.511719 776.867188 Z M 1113.511719 782.867188 L 1095.511719 782.867188 L 1095.511719 776.867188 L 1113.511719 776.867188 Z M 1092.511719 782.867188 L 1074.511719 782.867188 L 1074.511719 776.867188 L 1092.511719 776.867188 Z M 1071.511719 782.867188 L 1053.511719 782.867188 L 1053.511719 776.867188 L 1071.511719 776.867188 Z M 1050.511719 782.867188 L 1032.511719 782.867188 L 1032.511719 776.867188 L 1050.511719 776.867188 Z M 1029.511719 782.867188 L 1011.511719 782.867188 L 1011.511719 776.867188 L 1029.511719 776.867188 Z M 1008.511719 782.867188 L 990.511719 782.867188 L 990.511719 776.867188 L 1008.511719 776.867188 Z M 987.511719 782.867188 L 969.511719 782.867188 L 969.511719 776.867188 L 987.511719 776.867188 Z M 966.511719 782.867188 L 948.511719 782.867188 L 948.511719 776.867188 L 966.511719 776.867188 Z M 945.511719 782.867188 L 927.511719 782.867188 L 927.511719 776.867188 L 945.511719 776.867188 Z M 924.511719 782.867188 L 906.511719 782.867188 L 906.511719 776.867188 L 924.511719 776.867188 Z M 903.511719 782.867188 L 885.511719 782.867188 L 885.511719 776.867188 L 903.511719 776.867188 Z M 882.511719 782.867188 L 864.511719 782.867188 L 864.511719 776.867188 L 882.511719 776.867188 Z M 861.511719 782.867188 L 843.511719 782.867188 L 843.511719 776.867188 L 861.511719 776.867188 Z M 840.511719 782.867188 L 822.511719 782.867188 L 822.511719 776.867188 L 840.511719 776.867188 Z M 819.511719 782.867188 L 801.511719 782.867188 L 801.511719 776.867188 L 819.511719 776.867188 Z M 798.511719 782.867188 L 780.511719 782.867188 L 780.511719 776.867188 L 798.511719 776.867188 Z M 777.511719 782.867188 L 759.511719 782.867188 L 759.511719 776.867188 L 777.511719 776.867188 Z M 756.511719 782.867188 L 738.511719 782.867188 L 738.511719 776.867188 L 756.511719 776.867188 Z M 735.511719 782.867188 L 717.511719 782.867188 L 717.511719 776.867188 L 735.511719 776.867188 Z M 714.511719 782.867188 L 696.511719 782.867188 L 696.511719 776.867188 L 714.511719 776.867188 Z M 693.511719 782.867188 L 675.511719 782.867188 L 675.511719 776.867188 L 693.511719 776.867188 Z M 672.511719 782.867188 L 654.511719 782.867188 L 654.511719 776.867188 L 672.511719 776.867188 Z M 651.511719 782.867188 L 632.203125 782.867188 L 632.203125 778.171875 L 638.203125 778.171875 L 638.203125 779.867188 L 635.203125 779.867188 L 635.203125 776.867188 L 651.511719 776.867188 Z M 632.203125 775.171875 L 632.203125 757.171875 L 638.203125 757.171875 L 638.203125 775.171875 Z M 632.203125 754.171875 L 632.203125 736.171875 L 638.203125 736.171875 L 638.203125 754.171875 Z M 632.203125 733.171875 L 632.203125 715.171875 L 638.203125 715.171875 L 638.203125 733.171875 Z M 632.203125 712.171875 L 632.203125 694.171875 L 638.203125 694.171875 L 638.203125 712.171875 Z M 632.203125 691.171875 L 632.203125 673.171875 L 638.203125 673.171875 L 638.203125 691.171875 Z M 632.203125 670.171875 L 632.203125 652.171875 L 638.203125 652.171875 L 638.203125 670.171875 Z M 632.203125 649.171875 L 632.203125 631.171875 L 638.203125 631.171875 L 638.203125 649.171875 Z M 632.203125 628.171875 L 632.203125 610.171875 L 638.203125 610.171875 L 638.203125 628.171875 Z M 632.203125 607.171875 L 632.203125 589.171875 L 638.203125 589.171875 L 638.203125 607.171875 Z M 632.203125 586.171875 L 632.203125 568.171875 L 638.203125 568.171875 L 638.203125 586.171875 Z M 632.203125 565.171875 L 632.203125 547.171875 L 638.203125 547.171875 L 638.203125 565.171875 Z M 632.203125 544.171875 L 632.203125 526.171875 L 638.203125 526.171875 L 638.203125 544.171875 Z M 632.203125 523.171875 L 632.203125 505.171875 L 638.203125 505.171875 L 638.203125 523.171875 Z M 632.203125 502.171875 L 632.203125 484.171875 L 638.203125 484.171875 L 638.203125 502.171875 Z M 632.203125 481.171875 L 632.203125 463.171875 L 638.203125 463.171875 L 638.203125 481.171875 Z M 632.203125 460.171875 L 632.203125 442.171875 L 638.203125 442.171875 L 638.203125 460.171875 Z M 632.203125 439.171875 L 632.203125 421.171875 L 638.203125 421.171875 L 638.203125 439.171875 Z M 632.203125 418.171875 L 632.203125 400.171875 L 638.203125 400.171875 L 638.203125 418.171875 Z M 632.203125 397.171875 L 632.203125 379.171875 L 638.203125 379.171875 L 638.203125 397.171875 Z M 632.203125 376.171875 L 632.203125 358.171875 L 638.203125 358.171875 L 638.203125 376.171875 Z M 632.203125 355.171875 L 632.203125 337.171875 L 638.203125 337.171875 L 638.203125 355.171875 Z M 632.203125 334.171875 L 632.203125 316.171875 L 638.203125 316.171875 L 638.203125 334.171875 Z M 632.203125 313.171875 L 632.203125 295.171875 L 638.203125 295.171875 L 638.203125 313.171875 Z M 632.203125 292.171875 L 632.203125 274.171875 L 638.203125 274.171875 L 638.203125 292.171875 Z M 632.203125 271.171875 L 632.203125 253.171875 L 638.203125 253.171875 L 638.203125 271.171875 Z M 632.203125 250.171875 L 632.203125 232.171875 L 638.203125 232.171875 L 638.203125 250.171875 Z M 632.203125 229.171875 L 632.203125 211.171875 L 638.203125 211.171875 L 638.203125 229.171875 Z M 632.203125 208.171875 L 632.203125 190.171875 L 638.203125 190.171875 L 638.203125 208.171875 Z M 632.203125 187.171875 L 632.203125 169.171875 L 638.203125 169.171875 L 638.203125 187.171875 Z M 632.203125 166.171875 L 632.203125 148.171875 L 638.203125 148.171875 L 638.203125 166.171875 Z M 632.203125 145.171875 L 632.203125 127.171875 L 638.203125 127.171875 L 638.203125 145.171875 Z M 632.203125 124.171875 L 632.203125 106.171875 L 638.203125 106.171875 L 638.203125 124.171875 Z M 632.203125 103.171875 L 632.203125 85.171875 L 638.203125 85.171875 L 638.203125 103.171875 Z M 632.203125 82.171875 L 632.203125 64.171875 L 638.203125 64.171875 L 638.203125 82.171875 Z M 632.203125 61.171875 L 632.203125 43.171875 L 638.203125 43.171875 L 638.203125 61.171875 Z M 632.203125 40.171875 L 632.203125 27.128906 L 653.203125 27.128906 L 653.203125 33.128906 L 635.203125 33.128906 L 635.203125 30.128906 L 638.203125 30.128906 L 638.203125 40.171875 Z M 632.203125 40.171875 " fill-opacity="1" fill-rule="nonzero"/></g><g clip-path="url(#d78f9b1014)"><path fill="#41624f" d="M 63.765625 66.183594 L 573.925781 66.183594 L 573.925781 743.742188 L 63.765625 743.742188 Z M 63.765625 66.183594 " fill-opacity="1" fill-rule="nonzero"/></g><g clip-path="url(#b934fae1ab)"><path fill="#e8e4dd" d="M 84.765625 63.183594 L 102.765625 63.183594 L 102.765625 69.183594 L 84.765625 69.183594 Z M 105.765625 63.183594 L 123.765625 63.183594 L 123.765625 69.183594 L 105.765625 69.183594 Z M 126.765625 63.183594 L 144.765625 63.183594 L 144.765625 69.183594 L 126.765625 69.183594 Z M 147.765625 63.183594 L 165.765625 63.183594 L 165.765625 69.183594 L 147.765625 69.183594 Z M 168.765625 63.183594 L 186.765625 63.183594 L 186.765625 69.183594 L 168.765625 69.183594 Z M 189.765625 63.183594 L 207.765625 63.183594 L 207.765625 69.183594 L 189.765625 69.183594 Z M 210.765625 63.183594 L 228.765625 63.183594 L 228.765625 69.183594 L 210.765625 69.183594 Z M 231.765625 63.183594 L 249.765625 63.183594 L 249.765625 69.183594 L 231.765625 69.183594 Z M 252.765625 63.183594 L 270.765625 63.183594 L 270.765625 69.183594 L 252.765625 69.183594 Z M 273.765625 63.183594 L 291.765625 63.183594 L 291.765625 69.183594 L 273.765625 69.183594 Z M 294.765625 63.183594 L 312.765625 63.183594 L 312.765625 69.183594 L 294.765625 69.183594 Z M 315.765625 63.183594 L 333.765625 63.183594 L 333.765625 69.183594 L 315.765625 69.183594 Z M 336.765625 63.183594 L 354.765625 63.183594 L 354.765625 69.183594 L 336.765625 69.183594 Z M 357.765625 63.183594 L 375.765625 63.183594 L 375.765625 69.183594 L 357.765625 69.183594 Z M 378.765625 63.183594 L 396.765625 63.183594 L 396.765625 69.183594 L 378.765625 69.183594 Z M 399.765625 63.183594 L 417.765625 63.183594 L 417.765625 69.183594 L 399.765625 69.183594 Z M 420.765625 63.183594 L 438.765625 63.183594 L 438.765625 69.183594 L 420.765625 69.183594 Z M 441.765625 63.183594 L 459.765625 63.183594 L 459.765625 69.183594 L 441.765625 69.183594 Z M 462.765625 63.183594 L 480.765625 63.183594 L 480.765625 69.183594 L 462.765625 69.183594 Z M 483.765625 63.183594 L 501.765625 63.183594 L 501.765625 69.183594 L 483.765625 69.183594 Z M 504.765625 63.183594 L 522.765625 63.183594 L 522.765625 69.183594 L 504.765625 69.183594 Z M 525.765625 63.183594 L 543.765625 63.183594 L 543.765625 69.183594 L 525.765625 69.183594 Z M 546.765625 63.183594 L 564.765625 63.183594 L 564.765625 69.183594 L 546.765625 69.183594 Z M 567.765625 63.183594 L 576.917969 63.183594 L 576.917969 78.03125 L 570.917969 78.03125 L 570.917969 66.183594 L 573.917969 66.183594 L 573.917969 69.183594 L 567.765625 69.183594 Z M 576.917969 81.03125 L 576.917969 99.03125 L 570.917969 99.03125 L 570.917969 81.03125 Z M 576.917969 102.03125 L 576.917969 120.03125 L 570.917969 120.03125 L 570.917969 102.03125 Z M 576.917969 123.03125 L 576.917969 141.03125 L 570.917969 141.03125 L 570.917969 123.03125 Z M 576.917969 144.03125 L 576.917969 162.03125 L 570.917969 162.03125 L 570.917969 144.03125 Z M 576.917969 165.03125 L 576.917969 183.03125 L 570.917969 183.03125 L 570.917969 165.03125 Z M 576.917969 186.03125 L 576.917969 204.03125 L 570.917969 204.03125 L 570.917969 186.03125 Z M 576.917969 207.03125 L 576.917969 225.03125 L 570.917969 225.03125 L 570.917969 207.03125 Z M 576.917969 228.03125 L 576.917969 246.03125 L 570.917969 246.03125 L 570.917969 228.03125 Z M 576.917969 249.03125 L 576.917969 267.03125 L 570.917969 267.03125 L 570.917969 249.03125 Z M 576.917969 270.03125 L 576.917969 288.03125 L 570.917969 288.03125 L 570.917969 270.03125 Z M 576.917969 291.03125 L 576.917969 309.03125 L 570.917969 309.03125 L 570.917969 291.03125 Z M 576.917969 312.03125 L 576.917969 330.03125 L 570.917969 330.03125 L 570.917969 312.03125 Z M 576.917969 333.03125 L 576.917969 351.03125 L 570.917969 351.03125 L 570.917969 333.03125 Z M 576.917969 354.03125 L 576.917969 372.03125 L 570.917969 372.03125 L 570.917969 354.03125 Z M 576.917969 375.03125 L 576.917969 393.03125 L 570.917969 393.03125 L 570.917969 375.03125 Z M 576.917969 396.03125 L 576.917969 414.03125 L 570.917969 414.03125 L 570.917969 396.03125 Z M 576.917969 417.03125 L 576.917969 435.03125 L 570.917969 435.03125 L 570.917969 417.03125 Z M 576.917969 438.03125 L 576.917969 456.03125 L 570.917969 456.03125 L 570.917969 438.03125 Z M 576.917969 459.03125 L 576.917969 477.03125 L 570.917969 477.03125 L 570.917969 459.03125 Z M 576.917969 480.03125 L 576.917969 498.03125 L 570.917969 498.03125 L 570.917969 480.03125 Z M 576.917969 501.03125 L 576.917969 519.03125 L 570.917969 519.03125 L 570.917969 501.03125 Z M 576.917969 522.03125 L 576.917969 540.03125 L 570.917969 540.03125 L 570.917969 522.03125 Z M 576.917969 543.03125 L 576.917969 561.03125 L 570.917969 561.03125 L 570.917969 543.03125 Z M 576.917969 564.03125 L 576.917969 582.03125 L 570.917969 582.03125 L 570.917969 564.03125 Z M 576.917969 585.03125 L 576.917969 603.03125 L 570.917969 603.03125 L 570.917969 585.03125 Z M 576.917969 606.03125 L 576.917969 624.03125 L 570.917969 624.03125 L 570.917969 606.03125 Z M 576.917969 627.03125 L 576.917969 645.03125 L 570.917969 645.03125 L 570.917969 627.03125 Z M 576.917969 648.03125 L 576.917969 666.03125 L 570.917969 666.03125 L 570.917969 648.03125 Z M 576.917969 669.03125 L 576.917969 687.03125 L 570.917969 687.03125 L 570.917969 669.03125 Z M 576.917969 690.03125 L 576.917969 708.03125 L 570.917969 708.03125 L 570.917969 690.03125 Z M 576.917969 711.03125 L 576.917969 729.03125 L 570.917969 729.03125 L 570.917969 711.03125 Z M 576.917969 732.03125 L 576.917969 746.808594 L 567.691406 746.808594 L 567.691406 740.808594 L 573.917969 740.808594 L 573.917969 743.808594 L 570.917969 743.808594 L 570.917969 732.03125 Z M 564.691406 746.808594 L 546.691406 746.808594 L 546.691406 740.808594 L 564.691406 740.808594 Z M 543.691406 746.808594 L 525.691406 746.808594 L 525.691406 740.808594 L 543.691406 740.808594 Z M 522.691406 746.808594 L 504.691406 746.808594 L 504.691406 740.808594 L 522.691406 740.808594 Z M 501.691406 746.808594 L 483.691406 746.808594 L 483.691406 740.808594 L 501.691406 740.808594 Z M 480.691406 746.808594 L 462.691406 746.808594 L 462.691406 740.808594 L 480.691406 740.808594 Z M 459.691406 746.808594 L 441.691406 746.808594 L 441.691406 740.808594 L 459.691406 740.808594 Z M 438.691406 746.808594 L 420.691406 746.808594 L 420.691406 740.808594 L 438.691406 740.808594 Z M 417.691406 746.808594 L 399.691406 746.808594 L 399.691406 740.808594 L 417.691406 740.808594 Z M 396.691406 746.808594 L 378.691406 746.808594 L 378.691406 740.808594 L 396.691406 740.808594 Z M 375.691406 746.808594 L 357.691406 746.808594 L 357.691406 740.808594 L 375.691406 740.808594 Z M 354.691406 746.808594 L 336.691406 746.808594 L 336.691406 740.808594 L 354.691406 740.808594 Z M 333.691406 746.808594 L 315.691406 746.808594 L 315.691406 740.808594 L 333.691406 740.808594 Z M 312.691406 746.808594 L 294.691406 746.808594 L 294.691406 740.808594 L 312.691406 740.808594 Z M 291.691406 746.808594 L 273.691406 746.808594 L 273.691406 740.808594 L 291.691406 740.808594 Z M 270.691406 746.808594 L 252.691406 746.808594 L 252.691406 740.808594 L 270.691406 740.808594 Z M 249.691406 746.808594 L 231.691406 746.808594 L 231.691406 740.808594 L 249.691406 740.808594 Z M 228.691406 746.808594 L 210.691406 746.808594 L 210.691406 740.808594 L 228.691406 740.808594 Z M 207.691406 746.808594 L 189.691406 746.808594 L 189.691406 740.808594 L 207.691406 740.808594 Z M 186.691406 746.808594 L 168.691406 746.808594 L 168.691406 740.808594 L 186.691406 740.808594 Z M 165.691406 746.808594 L 147.691406 746.808594 L 147.691406 740.808594 L 165.691406 740.808594 Z M 144.691406 746.808594 L 126.691406 746.808594 L 126.691406 740.808594 L 144.691406 740.808594 Z M 123.691406 746.808594 L 105.691406 746.808594 L 105.691406 740.808594 L 123.691406 740.808594 Z M 102.691406 746.808594 L 84.691406 746.808594 L 84.691406 740.808594 L 102.691406 740.808594 Z M 81.691406 746.808594 L 60.765625 746.808594 L 60.765625 743.734375 L 66.765625 743.734375 L 66.765625 743.808594 L 63.765625 743.808594 L 63.765625 740.808594 L 81.691406 740.808594 Z M 60.765625 740.734375 L 60.765625 722.734375 L 66.765625 722.734375 L 66.765625 740.734375 Z M 60.765625 719.734375 L 60.765625 701.734375 L 66.765625 701.734375 L 66.765625 719.734375 Z M 60.765625 698.734375 L 60.765625 680.734375 L 66.765625 680.734375 L 66.765625 698.734375 Z M 60.765625 677.734375 L 60.765625 659.734375 L 66.765625 659.734375 L 66.765625 677.734375 Z M 60.765625 656.734375 L 60.765625 638.734375 L 66.765625 638.734375 L 66.765625 656.734375 Z M 60.765625 635.734375 L 60.765625 617.734375 L 66.765625 617.734375 L 66.765625 635.734375 Z M 60.765625 614.734375 L 60.765625 596.734375 L 66.765625 596.734375 L 66.765625 614.734375 Z M 60.765625 593.734375 L 60.765625 575.734375 L 66.765625 575.734375 L 66.765625 593.734375 Z M 60.765625 572.734375 L 60.765625 554.734375 L 66.765625 554.734375 L 66.765625 572.734375 Z M 60.765625 551.734375 L 60.765625 533.734375 L 66.765625 533.734375 L 66.765625 551.734375 Z M 60.765625 530.734375 L 60.765625 512.734375 L 66.765625 512.734375 L 66.765625 530.734375 Z M 60.765625 509.734375 L 60.765625 491.734375 L 66.765625 491.734375 L 66.765625 509.734375 Z M 60.765625 488.734375 L 60.765625 470.734375 L 66.765625 470.734375 L 66.765625 488.734375 Z M 60.765625 467.734375 L 60.765625 449.734375 L 66.765625 449.734375 L 66.765625 467.734375 Z M 60.765625 446.734375 L 60.765625 428.734375 L 66.765625 428.734375 L 66.765625 446.734375 Z M 60.765625 425.734375 L 60.765625 407.734375 L 66.765625 407.734375 L 66.765625 425.734375 Z M 60.765625 404.734375 L 60.765625 386.734375 L 66.765625 386.734375 L 66.765625 404.734375 Z M 60.765625 383.734375 L 60.765625 365.734375 L 66.765625 365.734375 L 66.765625 383.734375 Z M 60.765625 362.734375 L 60.765625 344.734375 L 66.765625 344.734375 L 66.765625 362.734375 Z M 60.765625 341.734375 L 60.765625 323.734375 L 66.765625 323.734375 L 66.765625 341.734375 Z M 60.765625 320.734375 L 60.765625 302.734375 L 66.765625 302.734375 L 66.765625 320.734375 Z M 60.765625 299.734375 L 60.765625 281.734375 L 66.765625 281.734375 L 66.765625 299.734375 Z M 60.765625 278.734375 L 60.765625 260.734375 L 66.765625 260.734375 L 66.765625 278.734375 Z M 60.765625 257.734375 L 60.765625 239.734375 L 66.765625 239.734375 L 66.765625 257.734375 Z M 60.765625 236.734375 L 60.765625 218.734375 L 66.765625 218.734375 L 66.765625 236.734375 Z M 60.765625 215.734375 L 60.765625 197.734375 L 66.765625 197.734375 L 66.765625 215.734375 Z M 60.765625 194.734375 L 60.765625 176.734375 L 66.765625 176.734375 L 66.765625 194.734375 Z M 60.765625 173.734375 L 60.765625 155.734375 L 66.765625 155.734375 L 66.765625 173.734375 Z M 60.765625 152.734375 L 60.765625 134.734375 L 66.765625 134.734375 L 66.765625 152.734375 Z M 60.765625 131.734375 L 60.765625 113.734375 L 66.765625 113.734375 L 66.765625 131.734375 Z M 60.765625 110.734375 L 60.765625 92.734375 L 66.765625 92.734375 L 66.765625 110.734375 Z M 60.765625 89.734375 L 60.765625 71.734375 L 66.765625 71.734375 L 66.765625 89.734375 Z M 60.765625 68.734375 L 60.765625 63.183594 L 81.765625 63.183594 L 81.765625 69.183594 L 63.765625 69.183594 L 63.765625 66.183594 L 66.765625 66.183594 L 66.765625 68.734375 Z M 60.765625 68.734375 " fill-opacity="1" fill-rule="nonzero"/></g></svg>