<svg xmlns="http://www.w3.org/2000/svg" xmlns:xlink="http://www.w3.org/1999/xlink" width="1920" zoomAndPan="magnify" viewBox="0 0 1440 809.999993" height="1080" preserveAspectRatio="xMidYMid meet" version="1.0"><defs><clipPath id="6e6039e287"><path d="M 72 560.246094 L 540.859375 560.246094 L 540.859375 689.628906 L 72 689.628906 Z M 72 560.246094 " clip-rule="nonzero"/></clipPath><clipPath id="99440d872a"><path d="M 306.488281 560.246094 C 177.179688 560.246094 72.351562 589.210938 72.351562 624.9375 C 72.351562 660.667969 177.179688 689.628906 306.488281 689.628906 C 435.800781 689.628906 540.628906 660.667969 540.628906 624.9375 C 540.628906 589.210938 435.800781 560.246094 306.488281 560.246094 Z M 306.488281 560.246094 " clip-rule="nonzero"/></clipPath><clipPath id="8c63ef4b6e"><path d="M 72.363281 560.246094 L 540.351562 560.246094 L 540.351562 689.996094 L 72.363281 689.996094 Z M 72.363281 560.246094 " clip-rule="nonzero"/></clipPath><clipPath id="dccbfc9407"><path d="M 306.484375 560.246094 C 177.183594 560.246094 72.363281 589.207031 72.363281 624.933594 C 72.363281 660.660156 177.183594 689.621094 306.484375 689.621094 C 435.789062 689.621094 540.609375 660.660156 540.609375 624.933594 C 540.609375 589.207031 435.789062 560.246094 306.484375 560.246094 Z M 306.484375 560.246094 " clip-rule="nonzero"/></clipPath></defs><rect x="-144" width="1728" fill="#ffffff" y="-80.999999" height="971.999992" fill-opacity="1"/><rect x="-144" width="1728" fill="#41624f" y="-80.999999" height="971.999992" fill-opacity="1"/><g clip-path="url(#6e6039e287)"><g clip-path="url(#99440d872a)"><path fill="#e8e4dd" d="M 72.351562 560.246094 L 540.859375 560.246094 L 540.859375 689.628906 L 72.351562 689.628906 Z M 72.351562 560.246094 " fill-opacity="1" fill-rule="nonzero"/></g></g><g clip-path="url(#8c63ef4b6e)"><g clip-path="url(#dccbfc9407)"><path fill="#41624f" d="M 285.527344 563.503906 C 279.496094 563.652344 273.507812 563.863281 267.554688 564.140625 L 267.277344 558.148438 C 273.273438 557.867188 279.304688 557.65625 285.378906 557.503906 Z M 264.589844 564.285156 C 258.554688 564.585938 252.574219 564.953125 246.652344 565.386719 L 246.214844 559.402344 C 252.183594 558.964844 258.207031 558.59375 264.289062 558.292969 Z M 243.6875 565.609375 C 237.648438 566.074219 231.6875 566.605469 225.804688 567.207031 L 225.195312 561.238281 C 231.128906 560.632812 237.136719 560.097656 243.226562 559.625 Z M 222.84375 567.515625 C 216.800781 568.15625 210.859375 568.867188 205.027344 569.644531 L 204.234375 563.699219 C 210.121094 562.914062 216.113281 562.195312 222.210938 561.546875 Z M 202.082031 570.046875 C 196.035156 570.886719 190.128906 571.796875 184.359375 572.777344 L 183.355469 566.863281 C 189.179688 565.871094 195.148438 564.949219 201.257812 564.105469 Z M 181.445312 573.28125 C 175.394531 574.34375 169.535156 575.484375 163.863281 576.699219 L 162.609375 570.832031 C 168.351562 569.601562 174.285156 568.449219 180.40625 567.371094 Z M 161 577.320312 C 154.96875 578.652344 149.1875 580.066406 143.664062 581.558594 L 142.097656 575.765625 C 147.714844 574.25 153.582031 572.816406 159.707031 571.460938 Z M 140.828125 582.335938 C 134.773438 584.027344 129.078125 585.804688 123.746094 587.667969 L 121.765625 582.003906 C 127.21875 580.097656 133.035156 578.285156 139.210938 576.558594 Z M 120.90625 588.679688 C 114.933594 590.855469 109.5 593.121094 104.605469 595.476562 L 102.003906 590.070312 C 107.078125 587.628906 112.695312 585.285156 118.851562 583.042969 Z M 102.089844 596.71875 C 96.183594 599.714844 91.222656 602.804688 87.203125 605.992188 L 83.476562 601.292969 C 87.8125 597.855469 93.109375 594.546875 99.371094 591.367188 Z M 85.117188 607.730469 C 80.167969 612.074219 77.097656 616.445312 75.910156 620.84375 L 70.117188 619.28125 C 71.617188 613.714844 75.300781 608.359375 81.160156 603.21875 Z M 75.445312 623.316406 C 75.390625 623.855469 75.363281 624.394531 75.363281 624.933594 C 75.363281 629.128906 77.097656 633.320312 80.566406 637.511719 L 75.949219 641.339844 C 71.558594 636.035156 69.363281 630.570312 69.363281 624.933594 C 69.363281 624.183594 69.402344 623.433594 69.480469 622.683594 Z M 82.390625 639.546875 C 85.792969 643.074219 90.347656 646.511719 96.054688 649.863281 L 93.019531 655.039062 C 86.835938 651.410156 81.855469 647.632812 78.074219 643.710938 Z M 98.605469 651.3125 C 103.324219 653.90625 108.683594 656.40625 114.679688 658.808594 L 112.445312 664.378906 C 106.222656 661.882812 100.648438 659.28125 95.714844 656.570312 Z M 117.347656 659.855469 C 122.546875 661.855469 128.148438 663.765625 134.160156 665.589844 L 132.417969 671.332031 C 126.269531 669.464844 120.527344 667.507812 115.195312 665.457031 Z M 137.03125 666.445312 C 142.511719 668.050781 148.273438 669.574219 154.316406 671.015625 L 152.925781 676.851562 C 146.78125 675.386719 140.921875 673.835938 135.347656 672.203125 Z M 157.296875 671.710938 C 162.921875 673.007812 168.753906 674.230469 174.792969 675.371094 L 173.675781 681.269531 C 167.558594 680.109375 161.652344 678.871094 155.949219 677.558594 Z M 177.722656 675.917969 C 183.464844 676.972656 189.367188 677.953125 195.421875 678.859375 L 194.53125 684.792969 C 188.414062 683.878906 182.449219 682.886719 176.640625 681.820312 Z M 198.3125 679.289062 C 204.136719 680.132812 210.078125 680.90625 216.132812 681.609375 L 215.441406 687.570312 C 209.328125 686.859375 203.332031 686.078125 197.453125 685.226562 Z M 219.050781 681.941406 C 224.929688 682.597656 230.894531 683.1875 236.945312 683.710938 L 236.429688 689.6875 C 230.328125 689.160156 224.3125 688.566406 218.382812 687.902344 Z M 239.882812 683.957031 C 245.785156 684.441406 251.753906 684.863281 257.785156 685.214844 L 257.433594 691.203125 C 251.355469 690.847656 245.339844 690.425781 239.390625 689.9375 Z M 260.777344 685.386719 C 266.695312 685.710938 272.660156 685.972656 278.664062 686.167969 L 278.46875 692.164062 C 272.417969 691.964844 266.410156 691.703125 260.449219 691.375 Z M 281.6875 686.261719 C 287.621094 686.433594 293.582031 686.546875 299.570312 686.59375 L 299.523438 692.59375 C 293.492188 692.546875 287.488281 692.433594 281.511719 692.257812 Z M 302.578125 686.613281 L 306.492188 686.621094 L 320.664062 686.503906 L 320.710938 692.503906 L 306.480469 692.621094 L 302.5625 692.613281 Z M 323.613281 686.449219 C 329.632812 686.332031 335.617188 686.144531 341.566406 685.898438 L 341.816406 691.894531 C 335.824219 692.140625 329.796875 692.328125 323.734375 692.449219 Z M 344.550781 685.769531 C 350.574219 685.496094 356.546875 685.15625 362.464844 684.753906 L 362.871094 690.742188 C 356.910156 691.144531 350.890625 691.488281 344.820312 691.761719 Z M 365.453125 684.546875 C 371.480469 684.109375 377.433594 683.609375 383.316406 683.042969 L 383.890625 689.015625 C 377.960938 689.589844 371.960938 690.09375 365.882812 690.53125 Z M 386.300781 682.75 C 392.335938 682.144531 398.269531 681.46875 404.105469 680.722656 L 404.863281 686.675781 C 398.976562 687.425781 392.988281 688.109375 386.902344 688.71875 Z M 407.082031 680.335938 C 413.121094 679.539062 419.027344 678.667969 424.800781 677.726562 L 425.765625 683.648438 C 419.933594 684.597656 413.96875 685.476562 407.867188 686.285156 Z M 427.753906 677.238281 C 433.800781 676.21875 439.667969 675.125 445.355469 673.957031 L 446.5625 679.835938 C 440.804688 681.015625 434.867188 682.121094 428.753906 683.152344 Z M 448.265625 673.351562 C 454.308594 672.070312 460.109375 670.710938 465.667969 669.273438 L 467.171875 675.082031 C 461.523438 676.542969 455.636719 677.921875 449.511719 679.21875 Z M 468.492188 668.53125 C 474.5 666.921875 480.175781 665.234375 485.515625 663.464844 L 487.40625 669.15625 C 481.949219 670.96875 476.164062 672.691406 470.042969 674.324219 Z M 488.382812 662.492188 C 494.414062 660.410156 499.941406 658.238281 504.964844 655.976562 L 507.429688 661.445312 C 502.238281 663.785156 496.542969 666.023438 490.34375 668.164062 Z M 507.613281 654.753906 C 513.496094 651.964844 518.550781 649.082031 522.78125 646.105469 L 526.234375 651.011719 C 521.726562 654.183594 516.375 657.238281 510.183594 660.175781 Z M 525.121094 644.382812 C 530.347656 640.351562 533.941406 636.273438 535.898438 632.140625 L 541.320312 634.714844 C 538.949219 639.710938 534.769531 644.515625 528.785156 649.132812 Z M 536.847656 629.742188 C 537.355469 628.140625 537.609375 626.539062 537.609375 624.933594 C 537.609375 621.667969 536.554688 618.398438 534.445312 615.128906 L 539.484375 611.875 C 542.234375 616.136719 543.609375 620.488281 543.609375 624.933594 C 543.609375 627.15625 543.261719 629.363281 542.570312 631.554688 Z M 532.882812 612.949219 C 529.914062 609.1875 525.621094 605.503906 520 601.898438 L 523.242188 596.847656 C 529.425781 600.816406 534.207031 604.945312 537.59375 609.234375 Z M 517.632812 600.429688 C 513.078125 597.703125 507.820312 595.070312 501.867188 592.535156 L 504.214844 587.015625 C 510.425781 589.660156 515.921875 592.414062 520.714844 595.28125 Z M 499.054688 591.367188 C 493.949219 589.292969 488.40625 587.304688 482.4375 585.40625 L 484.257812 579.6875 C 490.375 581.636719 496.0625 583.675781 501.3125 585.808594 Z M 479.640625 584.53125 C 474.207031 582.863281 468.472656 581.277344 462.433594 579.777344 L 463.882812 573.953125 C 470.023438 575.484375 475.863281 577.097656 481.398438 578.792969 Z M 459.515625 579.0625 C 453.90625 577.710938 448.082031 576.4375 442.039062 575.242188 L 443.203125 569.359375 C 449.328125 570.570312 455.230469 571.859375 460.917969 573.226562 Z M 439.054688 574.664062 C 433.347656 573.570312 427.476562 572.550781 421.441406 571.605469 L 422.371094 565.675781 C 428.472656 566.632812 434.40625 567.664062 440.183594 568.769531 Z M 418.429688 571.140625 C 412.648438 570.265625 406.75 569.460938 400.726562 568.722656 L 401.457031 562.769531 C 407.535156 563.511719 413.492188 564.324219 419.328125 565.207031 Z M 397.703125 568.359375 C 391.871094 567.675781 385.949219 567.058594 379.933594 566.507812 L 380.484375 560.53125 C 386.546875 561.085938 392.519531 561.710938 398.402344 562.402344 Z M 376.910156 566.234375 C 371.035156 565.722656 365.09375 565.273438 359.085938 564.890625 L 359.46875 558.902344 C 365.523438 559.289062 371.511719 559.742188 377.433594 560.257812 Z M 356.070312 564.707031 C 350.160156 564.351562 344.199219 564.0625 338.195312 563.835938 L 338.421875 557.839844 C 344.46875 558.070312 350.472656 558.359375 356.425781 558.714844 Z M 335.1875 563.730469 C 329.246094 563.527344 323.277344 563.390625 317.273438 563.316406 L 317.351562 557.316406 C 323.394531 557.390625 329.40625 557.53125 335.390625 557.734375 Z M 314.289062 563.28125 L 306.472656 563.246094 C 300.460938 563.246094 294.464844 563.308594 288.492188 563.4375 L 288.363281 557.4375 C 294.382812 557.308594 300.425781 557.246094 306.5 557.246094 L 314.316406 557.28125 Z M 314.289062 563.28125 " fill-opacity="1" fill-rule="nonzero"/></g></g></svg>