<svg xmlns="http://www.w3.org/2000/svg" xmlns:xlink="http://www.w3.org/1999/xlink" width="1920" zoomAndPan="magnify" viewBox="0 0 1440 809.999993" height="1080" preserveAspectRatio="xMidYMid meet" version="1.0"><defs><clipPath id="c887d3e3e0"><path d="M 689.125 408.511719 L 1413 408.511719 L 1413 768.183594 L 689.125 768.183594 Z M 689.125 408.511719 " clip-rule="nonzero"/></clipPath><clipPath id="fa4745d3d2"><path d="M 689.125 408.511719 L 1413.34375 408.511719 L 1413.34375 768.183594 L 689.125 768.183594 Z M 689.125 408.511719 " clip-rule="nonzero"/></clipPath><clipPath id="7471ccde51"><path d="M 515.03125 41.816406 L 1318.355469 41.816406 L 1318.355469 439.539062 L 515.03125 439.539062 Z M 515.03125 41.816406 " clip-rule="nonzero"/></clipPath><clipPath id="10e43753c0"><path d="M 515.03125 41.816406 L 1318.28125 41.816406 L 1318.28125 439.316406 L 515.03125 439.316406 Z M 515.03125 41.816406 " clip-rule="nonzero"/></clipPath></defs><rect x="-144" width="1728" fill="#ffffff" y="-80.999999" height="971.999992" fill-opacity="1"/><rect x="-144" width="1728" fill="#41624f" y="-80.999999" height="971.999992" fill-opacity="1"/><g clip-path="url(#c887d3e3e0)"><path fill="#41624f" d="M 689.125 408.511719 L 1412.6875 408.511719 L 1412.6875 768.183594 L 689.125 768.183594 Z M 689.125 408.511719 " fill-opacity="1" fill-rule="nonzero"/></g><g clip-path="url(#fa4745d3d2)"><path fill="#e8e4dd" d="M 715.375 404.761719 L 737.875 404.761719 L 737.875 412.261719 L 715.375 412.261719 Z M 741.625 404.761719 L 764.125 404.761719 L 764.125 412.261719 L 741.625 412.261719 Z M 767.875 404.761719 L 790.375 404.761719 L 790.375 412.261719 L 767.875 412.261719 Z M 794.125 404.761719 L 816.625 404.761719 L 816.625 412.261719 L 794.125 412.261719 Z M 820.375 404.761719 L 842.875 404.761719 L 842.875 412.261719 L 820.375 412.261719 Z M 846.625 404.761719 L 869.125 404.761719 L 869.125 412.261719 L 846.625 412.261719 Z M 872.875 404.761719 L 895.375 404.761719 L 895.375 412.261719 L 872.875 412.261719 Z M 899.125 404.761719 L 921.625 404.761719 L 921.625 412.261719 L 899.125 412.261719 Z M 925.375 404.761719 L 947.875 404.761719 L 947.875 412.261719 L 925.375 412.261719 Z M 951.625 404.761719 L 974.125 404.761719 L 974.125 412.261719 L 951.625 412.261719 Z M 977.875 404.761719 L 1000.375 404.761719 L 1000.375 412.261719 L 977.875 412.261719 Z M 1004.125 404.761719 L 1026.625 404.761719 L 1026.625 412.261719 L 1004.125 412.261719 Z M 1030.375 404.761719 L 1052.875 404.761719 L 1052.875 412.261719 L 1030.375 412.261719 Z M 1056.625 404.761719 L 1079.125 404.761719 L 1079.125 412.261719 L 1056.625 412.261719 Z M 1082.875 404.761719 L 1105.375 404.761719 L 1105.375 412.261719 L 1082.875 412.261719 Z M 1109.125 404.761719 L 1131.625 404.761719 L 1131.625 412.261719 L 1109.125 412.261719 Z M 1135.375 404.761719 L 1157.875 404.761719 L 1157.875 412.261719 L 1135.375 412.261719 Z M 1161.625 404.761719 L 1184.125 404.761719 L 1184.125 412.261719 L 1161.625 412.261719 Z M 1187.875 404.761719 L 1210.375 404.761719 L 1210.375 412.261719 L 1187.875 412.261719 Z M 1214.125 404.761719 L 1236.625 404.761719 L 1236.625 412.261719 L 1214.125 412.261719 Z M 1240.375 404.761719 L 1262.875 404.761719 L 1262.875 412.261719 L 1240.375 412.261719 Z M 1266.625 404.761719 L 1289.125 404.761719 L 1289.125 412.261719 L 1266.625 412.261719 Z M 1292.875 404.761719 L 1315.375 404.761719 L 1315.375 412.261719 L 1292.875 412.261719 Z M 1319.125 404.761719 L 1341.625 404.761719 L 1341.625 412.261719 L 1319.125 412.261719 Z M 1345.375 404.761719 L 1367.875 404.761719 L 1367.875 412.261719 L 1345.375 412.261719 Z M 1371.625 404.761719 L 1394.125 404.761719 L 1394.125 412.261719 L 1371.625 412.261719 Z M 1397.875 404.761719 L 1417.09375 404.761719 L 1417.09375 415.542969 L 1409.59375 415.542969 L 1409.59375 408.511719 L 1413.34375 408.511719 L 1413.34375 412.261719 L 1397.875 412.261719 Z M 1417.09375 419.292969 L 1417.09375 441.792969 L 1409.59375 441.792969 L 1409.59375 419.292969 Z M 1417.09375 445.542969 L 1417.09375 468.042969 L 1409.59375 468.042969 L 1409.59375 445.542969 Z M 1417.09375 471.792969 L 1417.09375 494.292969 L 1409.59375 494.292969 L 1409.59375 471.792969 Z M 1417.09375 498.042969 L 1417.09375 520.542969 L 1409.59375 520.542969 L 1409.59375 498.042969 Z M 1417.09375 524.292969 L 1417.09375 546.792969 L 1409.59375 546.792969 L 1409.59375 524.292969 Z M 1417.09375 550.542969 L 1417.09375 573.042969 L 1409.59375 573.042969 L 1409.59375 550.542969 Z M 1417.09375 576.792969 L 1417.09375 599.292969 L 1409.59375 599.292969 L 1409.59375 576.792969 Z M 1417.09375 603.042969 L 1417.09375 625.542969 L 1409.59375 625.542969 L 1409.59375 603.042969 Z M 1417.09375 629.292969 L 1417.09375 651.792969 L 1409.59375 651.792969 L 1409.59375 629.292969 Z M 1417.09375 655.542969 L 1417.09375 678.042969 L 1409.59375 678.042969 L 1409.59375 655.542969 Z M 1417.09375 681.792969 L 1417.09375 704.292969 L 1409.59375 704.292969 L 1409.59375 681.792969 Z M 1417.09375 708.042969 L 1417.09375 730.542969 L 1409.59375 730.542969 L 1409.59375 708.042969 Z M 1417.09375 734.292969 L 1417.09375 756.792969 L 1409.59375 756.792969 L 1409.59375 734.292969 Z M 1417.09375 760.542969 L 1417.09375 771.933594 L 1398.484375 771.933594 L 1398.484375 764.433594 L 1413.34375 764.433594 L 1413.34375 768.183594 L 1409.59375 768.183594 L 1409.59375 760.542969 Z M 1394.734375 771.933594 L 1372.234375 771.933594 L 1372.234375 764.433594 L 1394.734375 764.433594 Z M 1368.484375 771.933594 L 1345.984375 771.933594 L 1345.984375 764.433594 L 1368.484375 764.433594 Z M 1342.234375 771.933594 L 1319.734375 771.933594 L 1319.734375 764.433594 L 1342.234375 764.433594 Z M 1315.984375 771.933594 L 1293.484375 771.933594 L 1293.484375 764.433594 L 1315.984375 764.433594 Z M 1289.734375 771.933594 L 1267.234375 771.933594 L 1267.234375 764.433594 L 1289.734375 764.433594 Z M 1263.484375 771.933594 L 1240.984375 771.933594 L 1240.984375 764.433594 L 1263.484375 764.433594 Z M 1237.234375 771.933594 L 1214.734375 771.933594 L 1214.734375 764.433594 L 1237.234375 764.433594 Z M 1210.984375 771.933594 L 1188.484375 771.933594 L 1188.484375 764.433594 L 1210.984375 764.433594 Z M 1184.734375 771.933594 L 1162.234375 771.933594 L 1162.234375 764.433594 L 1184.734375 764.433594 Z M 1158.484375 771.933594 L 1135.984375 771.933594 L 1135.984375 764.433594 L 1158.484375 764.433594 Z M 1132.234375 771.933594 L 1109.734375 771.933594 L 1109.734375 764.433594 L 1132.234375 764.433594 Z M 1105.984375 771.933594 L 1083.484375 771.933594 L 1083.484375 764.433594 L 1105.984375 764.433594 Z M 1079.734375 771.933594 L 1057.234375 771.933594 L 1057.234375 764.433594 L 1079.734375 764.433594 Z M 1053.484375 771.933594 L 1030.984375 771.933594 L 1030.984375 764.433594 L 1053.484375 764.433594 Z M 1027.234375 771.933594 L 1004.734375 771.933594 L 1004.734375 764.433594 L 1027.234375 764.433594 Z M 1000.984375 771.933594 L 978.484375 771.933594 L 978.484375 764.433594 L 1000.984375 764.433594 Z M 974.734375 771.933594 L 952.234375 771.933594 L 952.234375 764.433594 L 974.734375 764.433594 Z M 948.484375 771.933594 L 925.984375 771.933594 L 925.984375 764.433594 L 948.484375 764.433594 Z M 922.234375 771.933594 L 899.734375 771.933594 L 899.734375 764.433594 L 922.234375 764.433594 Z M 895.984375 771.933594 L 873.484375 771.933594 L 873.484375 764.433594 L 895.984375 764.433594 Z M 869.734375 771.933594 L 847.234375 771.933594 L 847.234375 764.433594 L 869.734375 764.433594 Z M 843.484375 771.933594 L 820.984375 771.933594 L 820.984375 764.433594 L 843.484375 764.433594 Z M 817.234375 771.933594 L 794.734375 771.933594 L 794.734375 764.433594 L 817.234375 764.433594 Z M 790.984375 771.933594 L 768.484375 771.933594 L 768.484375 764.433594 L 790.984375 764.433594 Z M 764.734375 771.933594 L 742.234375 771.933594 L 742.234375 764.433594 L 764.734375 764.433594 Z M 738.484375 771.933594 L 715.984375 771.933594 L 715.984375 764.433594 L 738.484375 764.433594 Z M 712.234375 771.933594 L 689.734375 771.933594 L 689.734375 764.433594 L 712.234375 764.433594 Z M 685.375 765.039062 L 685.375 742.539062 L 692.875 742.539062 L 692.875 765.039062 Z M 685.375 738.789062 L 685.375 716.289062 L 692.875 716.289062 L 692.875 738.789062 Z M 685.375 712.539062 L 685.375 690.039062 L 692.875 690.039062 L 692.875 712.539062 Z M 685.375 686.289062 L 685.375 663.789062 L 692.875 663.789062 L 692.875 686.289062 Z M 685.375 660.039062 L 685.375 637.539062 L 692.875 637.539062 L 692.875 660.039062 Z M 685.375 633.789062 L 685.375 611.289062 L 692.875 611.289062 L 692.875 633.789062 Z M 685.375 607.539062 L 685.375 585.039062 L 692.875 585.039062 L 692.875 607.539062 Z M 685.375 581.289062 L 685.375 558.789062 L 692.875 558.789062 L 692.875 581.289062 Z M 685.375 555.039062 L 685.375 532.539062 L 692.875 532.539062 L 692.875 555.039062 Z M 685.375 528.789062 L 685.375 506.289062 L 692.875 506.289062 L 692.875 528.789062 Z M 685.375 502.539062 L 685.375 480.039062 L 692.875 480.039062 L 692.875 502.539062 Z M 685.375 476.289062 L 685.375 453.789062 L 692.875 453.789062 L 692.875 476.289062 Z M 685.375 450.039062 L 685.375 427.539062 L 692.875 427.539062 L 692.875 450.039062 Z M 685.375 423.789062 L 685.375 404.761719 L 711.625 404.761719 L 711.625 412.261719 L 689.125 412.261719 L 689.125 408.511719 L 692.875 408.511719 L 692.875 423.789062 Z M 685.375 423.789062 " fill-opacity="1" fill-rule="nonzero"/></g><g clip-path="url(#7471ccde51)"><path fill="#e8e4dd" d="M 515.03125 41.816406 L 1318.246094 41.816406 L 1318.246094 439.539062 L 515.03125 439.539062 Z M 515.03125 41.816406 " fill-opacity="1" fill-rule="nonzero"/></g><g clip-path="url(#10e43753c0)"><path fill="#41624f" d="M 541.28125 38.066406 L 563.78125 38.066406 L 563.78125 45.566406 L 541.28125 45.566406 Z M 567.53125 38.066406 L 590.03125 38.066406 L 590.03125 45.566406 L 567.53125 45.566406 Z M 593.78125 38.066406 L 616.28125 38.066406 L 616.28125 45.566406 L 593.78125 45.566406 Z M 620.03125 38.066406 L 642.53125 38.066406 L 642.53125 45.566406 L 620.03125 45.566406 Z M 646.28125 38.066406 L 668.78125 38.066406 L 668.78125 45.566406 L 646.28125 45.566406 Z M 672.53125 38.066406 L 695.03125 38.066406 L 695.03125 45.566406 L 672.53125 45.566406 Z M 698.78125 38.066406 L 721.28125 38.066406 L 721.28125 45.566406 L 698.78125 45.566406 Z M 725.03125 38.066406 L 747.53125 38.066406 L 747.53125 45.566406 L 725.03125 45.566406 Z M 751.28125 38.066406 L 773.78125 38.066406 L 773.78125 45.566406 L 751.28125 45.566406 Z M 777.53125 38.066406 L 800.03125 38.066406 L 800.03125 45.566406 L 777.53125 45.566406 Z M 803.78125 38.066406 L 826.28125 38.066406 L 826.28125 45.566406 L 803.78125 45.566406 Z M 830.03125 38.066406 L 852.53125 38.066406 L 852.53125 45.566406 L 830.03125 45.566406 Z M 856.28125 38.066406 L 878.78125 38.066406 L 878.78125 45.566406 L 856.28125 45.566406 Z M 882.53125 38.066406 L 905.03125 38.066406 L 905.03125 45.566406 L 882.53125 45.566406 Z M 908.78125 38.066406 L 931.28125 38.066406 L 931.28125 45.566406 L 908.78125 45.566406 Z M 935.03125 38.066406 L 957.53125 38.066406 L 957.53125 45.566406 L 935.03125 45.566406 Z M 961.28125 38.066406 L 983.78125 38.066406 L 983.78125 45.566406 L 961.28125 45.566406 Z M 987.53125 38.066406 L 1010.03125 38.066406 L 1010.03125 45.566406 L 987.53125 45.566406 Z M 1013.78125 38.066406 L 1036.28125 38.066406 L 1036.28125 45.566406 L 1013.78125 45.566406 Z M 1040.03125 38.066406 L 1062.53125 38.066406 L 1062.53125 45.566406 L 1040.03125 45.566406 Z M 1066.28125 38.066406 L 1088.78125 38.066406 L 1088.78125 45.566406 L 1066.28125 45.566406 Z M 1092.53125 38.066406 L 1115.03125 38.066406 L 1115.03125 45.566406 L 1092.53125 45.566406 Z M 1118.78125 38.066406 L 1141.28125 38.066406 L 1141.28125 45.566406 L 1118.78125 45.566406 Z M 1145.03125 38.066406 L 1167.53125 38.066406 L 1167.53125 45.566406 L 1145.03125 45.566406 Z M 1171.28125 38.066406 L 1193.78125 38.066406 L 1193.78125 45.566406 L 1171.28125 45.566406 Z M 1197.53125 38.066406 L 1220.03125 38.066406 L 1220.03125 45.566406 L 1197.53125 45.566406 Z M 1223.78125 38.066406 L 1246.28125 38.066406 L 1246.28125 45.566406 L 1223.78125 45.566406 Z M 1250.03125 38.066406 L 1272.53125 38.066406 L 1272.53125 45.566406 L 1250.03125 45.566406 Z M 1276.28125 38.066406 L 1298.78125 38.066406 L 1298.78125 45.566406 L 1276.28125 45.566406 Z M 1302.53125 38.066406 L 1322.101562 38.066406 L 1322.101562 48.496094 L 1314.601562 48.496094 L 1314.601562 41.816406 L 1318.351562 41.816406 L 1318.351562 45.566406 L 1302.53125 45.566406 Z M 1322.101562 52.246094 L 1322.101562 74.746094 L 1314.601562 74.746094 L 1314.601562 52.246094 Z M 1322.101562 78.496094 L 1322.101562 100.996094 L 1314.601562 100.996094 L 1314.601562 78.496094 Z M 1322.101562 104.746094 L 1322.101562 127.246094 L 1314.601562 127.246094 L 1314.601562 104.746094 Z M 1322.101562 130.996094 L 1322.101562 153.496094 L 1314.601562 153.496094 L 1314.601562 130.996094 Z M 1322.101562 157.246094 L 1322.101562 179.746094 L 1314.601562 179.746094 L 1314.601562 157.246094 Z M 1322.101562 183.496094 L 1322.101562 205.996094 L 1314.601562 205.996094 L 1314.601562 183.496094 Z M 1322.101562 209.746094 L 1322.101562 232.246094 L 1314.601562 232.246094 L 1314.601562 209.746094 Z M 1322.101562 235.996094 L 1322.101562 258.496094 L 1314.601562 258.496094 L 1314.601562 235.996094 Z M 1322.101562 262.246094 L 1322.101562 284.746094 L 1314.601562 284.746094 L 1314.601562 262.246094 Z M 1322.101562 288.496094 L 1322.101562 310.996094 L 1314.601562 310.996094 L 1314.601562 288.496094 Z M 1322.101562 314.746094 L 1322.101562 337.246094 L 1314.601562 337.246094 L 1314.601562 314.746094 Z M 1322.101562 340.996094 L 1322.101562 363.496094 L 1314.601562 363.496094 L 1314.601562 340.996094 Z M 1322.101562 367.246094 L 1322.101562 389.746094 L 1314.601562 389.746094 L 1314.601562 367.246094 Z M 1322.101562 393.496094 L 1322.101562 415.996094 L 1314.601562 415.996094 L 1314.601562 393.496094 Z M 1322.101562 419.746094 L 1322.101562 443.289062 L 1315.644531 443.289062 L 1315.644531 435.789062 L 1318.351562 435.789062 L 1318.351562 439.539062 L 1314.601562 439.539062 L 1314.601562 419.746094 Z M 1311.894531 443.289062 L 1289.394531 443.289062 L 1289.394531 435.789062 L 1311.894531 435.789062 Z M 1285.644531 443.289062 L 1263.144531 443.289062 L 1263.144531 435.789062 L 1285.644531 435.789062 Z M 1259.394531 443.289062 L 1236.894531 443.289062 L 1236.894531 435.789062 L 1259.394531 435.789062 Z M 1233.144531 443.289062 L 1210.644531 443.289062 L 1210.644531 435.789062 L 1233.144531 435.789062 Z M 1206.894531 443.289062 L 1184.394531 443.289062 L 1184.394531 435.789062 L 1206.894531 435.789062 Z M 1180.644531 443.289062 L 1158.144531 443.289062 L 1158.144531 435.789062 L 1180.644531 435.789062 Z M 1154.394531 443.289062 L 1131.894531 443.289062 L 1131.894531 435.789062 L 1154.394531 435.789062 Z M 1128.144531 443.289062 L 1105.644531 443.289062 L 1105.644531 435.789062 L 1128.144531 435.789062 Z M 1101.894531 443.289062 L 1079.394531 443.289062 L 1079.394531 435.789062 L 1101.894531 435.789062 Z M 1075.644531 443.289062 L 1053.144531 443.289062 L 1053.144531 435.789062 L 1075.644531 435.789062 Z M 1049.394531 443.289062 L 1026.894531 443.289062 L 1026.894531 435.789062 L 1049.394531 435.789062 Z M 1023.144531 443.289062 L 1000.644531 443.289062 L 1000.644531 435.789062 L 1023.144531 435.789062 Z M 996.894531 443.289062 L 974.394531 443.289062 L 974.394531 435.789062 L 996.894531 435.789062 Z M 970.644531 443.289062 L 948.144531 443.289062 L 948.144531 435.789062 L 970.644531 435.789062 Z M 944.394531 443.289062 L 921.894531 443.289062 L 921.894531 435.789062 L 944.394531 435.789062 Z M 918.144531 443.289062 L 895.644531 443.289062 L 895.644531 435.789062 L 918.144531 435.789062 Z M 891.894531 443.289062 L 869.394531 443.289062 L 869.394531 435.789062 L 891.894531 435.789062 Z M 865.644531 443.289062 L 843.144531 443.289062 L 843.144531 435.789062 L 865.644531 435.789062 Z M 839.394531 443.289062 L 816.894531 443.289062 L 816.894531 435.789062 L 839.394531 435.789062 Z M 813.144531 443.289062 L 790.644531 443.289062 L 790.644531 435.789062 L 813.144531 435.789062 Z M 786.894531 443.289062 L 764.394531 443.289062 L 764.394531 435.789062 L 786.894531 435.789062 Z M 760.644531 443.289062 L 738.144531 443.289062 L 738.144531 435.789062 L 760.644531 435.789062 Z M 734.394531 443.289062 L 711.894531 443.289062 L 711.894531 435.789062 L 734.394531 435.789062 Z M 708.144531 443.289062 L 685.644531 443.289062 L 685.644531 435.789062 L 708.144531 435.789062 Z M 681.894531 443.289062 L 659.394531 443.289062 L 659.394531 435.789062 L 681.894531 435.789062 Z M 655.644531 443.289062 L 633.144531 443.289062 L 633.144531 435.789062 L 655.644531 435.789062 Z M 629.394531 443.289062 L 606.894531 443.289062 L 606.894531 435.789062 L 629.394531 435.789062 Z M 603.144531 443.289062 L 580.644531 443.289062 L 580.644531 435.789062 L 603.144531 435.789062 Z M 576.894531 443.289062 L 554.394531 443.289062 L 554.394531 435.789062 L 576.894531 435.789062 Z M 550.644531 443.289062 L 528.144531 443.289062 L 528.144531 435.789062 L 550.644531 435.789062 Z M 524.394531 443.289062 L 511.28125 443.289062 L 511.28125 426.398438 L 518.78125 426.398438 L 518.78125 439.539062 L 515.03125 439.539062 L 515.03125 435.789062 L 524.394531 435.789062 Z M 511.28125 422.648438 L 511.28125 400.148438 L 518.78125 400.148438 L 518.78125 422.648438 Z M 511.28125 396.398438 L 511.28125 373.898438 L 518.78125 373.898438 L 518.78125 396.398438 Z M 511.28125 370.148438 L 511.28125 347.648438 L 518.78125 347.648438 L 518.78125 370.148438 Z M 511.28125 343.898438 L 511.28125 321.398438 L 518.78125 321.398438 L 518.78125 343.898438 Z M 511.28125 317.648438 L 511.28125 295.148438 L 518.78125 295.148438 L 518.78125 317.648438 Z M 511.28125 291.398438 L 511.28125 268.898438 L 518.78125 268.898438 L 518.78125 291.398438 Z M 511.28125 265.148438 L 511.28125 242.648438 L 518.78125 242.648438 L 518.78125 265.148438 Z M 511.28125 238.898438 L 511.28125 216.398438 L 518.78125 216.398438 L 518.78125 238.898438 Z M 511.28125 212.648438 L 511.28125 190.148438 L 518.78125 190.148438 L 518.78125 212.648438 Z M 511.28125 186.398438 L 511.28125 163.898438 L 518.78125 163.898438 L 518.78125 186.398438 Z M 511.28125 160.148438 L 511.28125 137.648438 L 518.78125 137.648438 L 518.78125 160.148438 Z M 511.28125 133.898438 L 511.28125 111.398438 L 518.78125 111.398438 L 518.78125 133.898438 Z M 511.28125 107.648438 L 511.28125 85.148438 L 518.78125 85.148438 L 518.78125 107.648438 Z M 511.28125 81.398438 L 511.28125 58.898438 L 518.78125 58.898438 L 518.78125 81.398438 Z M 511.28125 55.148438 L 511.28125 38.066406 L 537.53125 38.066406 L 537.53125 45.566406 L 515.03125 45.566406 L 515.03125 41.816406 L 518.78125 41.816406 L 518.78125 55.148438 Z M 511.28125 55.148438 " fill-opacity="1" fill-rule="nonzero"/></g></svg>