<svg xmlns="http://www.w3.org/2000/svg" xmlns:xlink="http://www.w3.org/1999/xlink" width="1920" zoomAndPan="magnify" viewBox="0 0 1440 809.999993" height="1080" preserveAspectRatio="xMidYMid meet" version="1.0"><defs><clipPath id="4cac7d0922"><path d="M 717.132812 408.375 L 1413 408.375 L 1413 754.140625 L 717.132812 754.140625 Z M 717.132812 408.375 " clip-rule="nonzero"/></clipPath><clipPath id="966d544946"><path d="M 717.132812 408.375 L 1413.132812 408.375 L 1413.132812 754.125 L 717.132812 754.125 Z M 717.132812 408.375 " clip-rule="nonzero"/></clipPath><clipPath id="80ac84a6a1"><path d="M 579.019531 55.859375 L 1351.28125 55.859375 L 1351.28125 438.203125 L 579.019531 438.203125 Z M 579.019531 55.859375 " clip-rule="nonzero"/></clipPath><clipPath id="f696e0cedc"><path d="M 579.023438 55.859375 L 1351.269531 55.859375 L 1351.269531 438.195312 L 579.023438 438.195312 Z M 579.023438 55.859375 " clip-rule="nonzero"/></clipPath></defs><rect x="-144" width="1728" fill="#ffffff" y="-80.999999" height="971.999992" fill-opacity="1"/><rect x="-144" width="1728" fill="#41624f" y="-80.999999" height="971.999992" fill-opacity="1"/><g clip-path="url(#4cac7d0922)"><path fill="#41624f" d="M 717.132812 408.375 L 1412.710938 408.375 L 1412.710938 754.140625 L 717.132812 754.140625 Z M 717.132812 408.375 " fill-opacity="1" fill-rule="nonzero"/></g><g clip-path="url(#966d544946)"><path fill="#e8e4dd" d="M 743.382812 404.625 L 765.882812 404.625 L 765.882812 412.125 L 743.382812 412.125 Z M 769.632812 404.625 L 792.132812 404.625 L 792.132812 412.125 L 769.632812 412.125 Z M 795.882812 404.625 L 818.382812 404.625 L 818.382812 412.125 L 795.882812 412.125 Z M 822.132812 404.625 L 844.632812 404.625 L 844.632812 412.125 L 822.132812 412.125 Z M 848.382812 404.625 L 870.882812 404.625 L 870.882812 412.125 L 848.382812 412.125 Z M 874.632812 404.625 L 897.132812 404.625 L 897.132812 412.125 L 874.632812 412.125 Z M 900.882812 404.625 L 923.382812 404.625 L 923.382812 412.125 L 900.882812 412.125 Z M 927.132812 404.625 L 949.632812 404.625 L 949.632812 412.125 L 927.132812 412.125 Z M 953.382812 404.625 L 975.882812 404.625 L 975.882812 412.125 L 953.382812 412.125 Z M 979.632812 404.625 L 1002.132812 404.625 L 1002.132812 412.125 L 979.632812 412.125 Z M 1005.882812 404.625 L 1028.382812 404.625 L 1028.382812 412.125 L 1005.882812 412.125 Z M 1032.132812 404.625 L 1054.632812 404.625 L 1054.632812 412.125 L 1032.132812 412.125 Z M 1058.382812 404.625 L 1080.882812 404.625 L 1080.882812 412.125 L 1058.382812 412.125 Z M 1084.632812 404.625 L 1107.132812 404.625 L 1107.132812 412.125 L 1084.632812 412.125 Z M 1110.882812 404.625 L 1133.382812 404.625 L 1133.382812 412.125 L 1110.882812 412.125 Z M 1137.132812 404.625 L 1159.632812 404.625 L 1159.632812 412.125 L 1137.132812 412.125 Z M 1163.382812 404.625 L 1185.882812 404.625 L 1185.882812 412.125 L 1163.382812 412.125 Z M 1189.632812 404.625 L 1212.132812 404.625 L 1212.132812 412.125 L 1189.632812 412.125 Z M 1215.882812 404.625 L 1238.382812 404.625 L 1238.382812 412.125 L 1215.882812 412.125 Z M 1242.132812 404.625 L 1264.632812 404.625 L 1264.632812 412.125 L 1242.132812 412.125 Z M 1268.382812 404.625 L 1290.882812 404.625 L 1290.882812 412.125 L 1268.382812 412.125 Z M 1294.632812 404.625 L 1317.132812 404.625 L 1317.132812 412.125 L 1294.632812 412.125 Z M 1320.882812 404.625 L 1343.382812 404.625 L 1343.382812 412.125 L 1320.882812 412.125 Z M 1347.132812 404.625 L 1369.632812 404.625 L 1369.632812 412.125 L 1347.132812 412.125 Z M 1373.382812 404.625 L 1395.882812 404.625 L 1395.882812 412.125 L 1373.382812 412.125 Z M 1399.632812 404.625 L 1417.09375 404.625 L 1417.09375 417.164062 L 1409.59375 417.164062 L 1409.59375 408.375 L 1413.34375 408.375 L 1413.34375 412.125 L 1399.632812 412.125 Z M 1417.09375 420.914062 L 1417.09375 443.414062 L 1409.59375 443.414062 L 1409.59375 420.914062 Z M 1417.09375 447.164062 L 1417.09375 469.664062 L 1409.59375 469.664062 L 1409.59375 447.164062 Z M 1417.09375 473.414062 L 1417.09375 495.914062 L 1409.59375 495.914062 L 1409.59375 473.414062 Z M 1417.09375 499.664062 L 1417.09375 522.164062 L 1409.59375 522.164062 L 1409.59375 499.664062 Z M 1417.09375 525.914062 L 1417.09375 548.414062 L 1409.59375 548.414062 L 1409.59375 525.914062 Z M 1417.09375 552.164062 L 1417.09375 574.664062 L 1409.59375 574.664062 L 1409.59375 552.164062 Z M 1417.09375 578.414062 L 1417.09375 600.914062 L 1409.59375 600.914062 L 1409.59375 578.414062 Z M 1417.09375 604.664062 L 1417.09375 627.164062 L 1409.59375 627.164062 L 1409.59375 604.664062 Z M 1417.09375 630.914062 L 1417.09375 653.414062 L 1409.59375 653.414062 L 1409.59375 630.914062 Z M 1417.09375 657.164062 L 1417.09375 679.664062 L 1409.59375 679.664062 L 1409.59375 657.164062 Z M 1417.09375 683.414062 L 1417.09375 705.914062 L 1409.59375 705.914062 L 1409.59375 683.414062 Z M 1417.09375 709.664062 L 1417.09375 732.164062 L 1409.59375 732.164062 L 1409.59375 709.664062 Z M 1417.09375 735.914062 L 1417.09375 757.886719 L 1409.0625 757.886719 L 1409.0625 750.386719 L 1413.34375 750.386719 L 1413.34375 754.136719 L 1409.59375 754.136719 L 1409.59375 735.914062 Z M 1405.3125 757.886719 L 1382.8125 757.886719 L 1382.8125 750.386719 L 1405.3125 750.386719 Z M 1379.0625 757.886719 L 1356.5625 757.886719 L 1356.5625 750.386719 L 1379.0625 750.386719 Z M 1352.8125 757.886719 L 1330.3125 757.886719 L 1330.3125 750.386719 L 1352.8125 750.386719 Z M 1326.5625 757.886719 L 1304.0625 757.886719 L 1304.0625 750.386719 L 1326.5625 750.386719 Z M 1300.3125 757.886719 L 1277.8125 757.886719 L 1277.8125 750.386719 L 1300.3125 750.386719 Z M 1274.0625 757.886719 L 1251.5625 757.886719 L 1251.5625 750.386719 L 1274.0625 750.386719 Z M 1247.8125 757.886719 L 1225.3125 757.886719 L 1225.3125 750.386719 L 1247.8125 750.386719 Z M 1221.5625 757.886719 L 1199.0625 757.886719 L 1199.0625 750.386719 L 1221.5625 750.386719 Z M 1195.3125 757.886719 L 1172.8125 757.886719 L 1172.8125 750.386719 L 1195.3125 750.386719 Z M 1169.0625 757.886719 L 1146.5625 757.886719 L 1146.5625 750.386719 L 1169.0625 750.386719 Z M 1142.8125 757.886719 L 1120.3125 757.886719 L 1120.3125 750.386719 L 1142.8125 750.386719 Z M 1116.5625 757.886719 L 1094.0625 757.886719 L 1094.0625 750.386719 L 1116.5625 750.386719 Z M 1090.3125 757.886719 L 1067.8125 757.886719 L 1067.8125 750.386719 L 1090.3125 750.386719 Z M 1064.0625 757.886719 L 1041.5625 757.886719 L 1041.5625 750.386719 L 1064.0625 750.386719 Z M 1037.8125 757.886719 L 1015.3125 757.886719 L 1015.3125 750.386719 L 1037.8125 750.386719 Z M 1011.5625 757.886719 L 989.0625 757.886719 L 989.0625 750.386719 L 1011.5625 750.386719 Z M 985.3125 757.886719 L 962.8125 757.886719 L 962.8125 750.386719 L 985.3125 750.386719 Z M 959.0625 757.886719 L 936.5625 757.886719 L 936.5625 750.386719 L 959.0625 750.386719 Z M 932.8125 757.886719 L 910.3125 757.886719 L 910.3125 750.386719 L 932.8125 750.386719 Z M 906.5625 757.886719 L 884.0625 757.886719 L 884.0625 750.386719 L 906.5625 750.386719 Z M 880.3125 757.886719 L 857.8125 757.886719 L 857.8125 750.386719 L 880.3125 750.386719 Z M 854.0625 757.886719 L 831.5625 757.886719 L 831.5625 750.386719 L 854.0625 750.386719 Z M 827.8125 757.886719 L 805.3125 757.886719 L 805.3125 750.386719 L 827.8125 750.386719 Z M 801.5625 757.886719 L 779.0625 757.886719 L 779.0625 750.386719 L 801.5625 750.386719 Z M 775.3125 757.886719 L 752.8125 757.886719 L 752.8125 750.386719 L 775.3125 750.386719 Z M 749.0625 757.886719 L 726.5625 757.886719 L 726.5625 750.386719 L 749.0625 750.386719 Z M 722.8125 757.886719 L 713.382812 757.886719 L 713.382812 737.320312 L 720.882812 737.320312 L 720.882812 754.136719 L 717.132812 754.136719 L 717.132812 750.386719 L 722.8125 750.386719 Z M 713.382812 733.570312 L 713.382812 711.070312 L 720.882812 711.070312 L 720.882812 733.570312 Z M 713.382812 707.320312 L 713.382812 684.820312 L 720.882812 684.820312 L 720.882812 707.320312 Z M 713.382812 681.070312 L 713.382812 658.570312 L 720.882812 658.570312 L 720.882812 681.070312 Z M 713.382812 654.820312 L 713.382812 632.320312 L 720.882812 632.320312 L 720.882812 654.820312 Z M 713.382812 628.570312 L 713.382812 606.070312 L 720.882812 606.070312 L 720.882812 628.570312 Z M 713.382812 602.320312 L 713.382812 579.820312 L 720.882812 579.820312 L 720.882812 602.320312 Z M 713.382812 576.070312 L 713.382812 553.570312 L 720.882812 553.570312 L 720.882812 576.070312 Z M 713.382812 549.820312 L 713.382812 527.320312 L 720.882812 527.320312 L 720.882812 549.820312 Z M 713.382812 523.570312 L 713.382812 501.070312 L 720.882812 501.070312 L 720.882812 523.570312 Z M 713.382812 497.320312 L 713.382812 474.820312 L 720.882812 474.820312 L 720.882812 497.320312 Z M 713.382812 471.070312 L 713.382812 448.570312 L 720.882812 448.570312 L 720.882812 471.070312 Z M 713.382812 444.820312 L 713.382812 422.320312 L 720.882812 422.320312 L 720.882812 444.820312 Z M 713.382812 418.570312 L 713.382812 404.625 L 739.632812 404.625 L 739.632812 412.125 L 717.132812 412.125 L 717.132812 408.375 L 720.882812 408.375 L 720.882812 418.570312 Z M 713.382812 418.570312 " fill-opacity="1" fill-rule="nonzero"/></g><g clip-path="url(#80ac84a6a1)"><path fill="#e8e4dd" d="M 579.019531 55.859375 L 1351.175781 55.859375 L 1351.175781 438.203125 L 579.019531 438.203125 Z M 579.019531 55.859375 " fill-opacity="1" fill-rule="nonzero"/></g><g clip-path="url(#f696e0cedc)"><path fill="#41624f" d="M 605.273438 52.109375 L 627.773438 52.109375 L 627.773438 59.609375 L 605.273438 59.609375 Z M 631.523438 52.109375 L 654.023438 52.109375 L 654.023438 59.609375 L 631.523438 59.609375 Z M 657.773438 52.109375 L 680.273438 52.109375 L 680.273438 59.609375 L 657.773438 59.609375 Z M 684.023438 52.109375 L 706.523438 52.109375 L 706.523438 59.609375 L 684.023438 59.609375 Z M 710.273438 52.109375 L 732.773438 52.109375 L 732.773438 59.609375 L 710.273438 59.609375 Z M 736.523438 52.109375 L 759.023438 52.109375 L 759.023438 59.609375 L 736.523438 59.609375 Z M 762.773438 52.109375 L 785.273438 52.109375 L 785.273438 59.609375 L 762.773438 59.609375 Z M 789.023438 52.109375 L 811.523438 52.109375 L 811.523438 59.609375 L 789.023438 59.609375 Z M 815.273438 52.109375 L 837.773438 52.109375 L 837.773438 59.609375 L 815.273438 59.609375 Z M 841.523438 52.109375 L 864.023438 52.109375 L 864.023438 59.609375 L 841.523438 59.609375 Z M 867.773438 52.109375 L 890.273438 52.109375 L 890.273438 59.609375 L 867.773438 59.609375 Z M 894.023438 52.109375 L 916.523438 52.109375 L 916.523438 59.609375 L 894.023438 59.609375 Z M 920.273438 52.109375 L 942.773438 52.109375 L 942.773438 59.609375 L 920.273438 59.609375 Z M 946.523438 52.109375 L 969.023438 52.109375 L 969.023438 59.609375 L 946.523438 59.609375 Z M 972.773438 52.109375 L 995.273438 52.109375 L 995.273438 59.609375 L 972.773438 59.609375 Z M 999.023438 52.109375 L 1021.523438 52.109375 L 1021.523438 59.609375 L 999.023438 59.609375 Z M 1025.273438 52.109375 L 1047.773438 52.109375 L 1047.773438 59.609375 L 1025.273438 59.609375 Z M 1051.523438 52.109375 L 1074.023438 52.109375 L 1074.023438 59.609375 L 1051.523438 59.609375 Z M 1077.773438 52.109375 L 1100.273438 52.109375 L 1100.273438 59.609375 L 1077.773438 59.609375 Z M 1104.023438 52.109375 L 1126.523438 52.109375 L 1126.523438 59.609375 L 1104.023438 59.609375 Z M 1130.273438 52.109375 L 1152.773438 52.109375 L 1152.773438 59.609375 L 1130.273438 59.609375 Z M 1156.523438 52.109375 L 1179.023438 52.109375 L 1179.023438 59.609375 L 1156.523438 59.609375 Z M 1182.773438 52.109375 L 1205.273438 52.109375 L 1205.273438 59.609375 L 1182.773438 59.609375 Z M 1209.023438 52.109375 L 1231.523438 52.109375 L 1231.523438 59.609375 L 1209.023438 59.609375 Z M 1235.273438 52.109375 L 1257.773438 52.109375 L 1257.773438 59.609375 L 1235.273438 59.609375 Z M 1261.523438 52.109375 L 1284.023438 52.109375 L 1284.023438 59.609375 L 1261.523438 59.609375 Z M 1287.773438 52.109375 L 1310.273438 52.109375 L 1310.273438 59.609375 L 1287.773438 59.609375 Z M 1314.023438 52.109375 L 1336.523438 52.109375 L 1336.523438 59.609375 L 1314.023438 59.609375 Z M 1340.273438 52.109375 L 1355.019531 52.109375 L 1355.019531 67.367188 L 1347.519531 67.367188 L 1347.519531 55.859375 L 1351.269531 55.859375 L 1351.269531 59.609375 L 1340.273438 59.609375 Z M 1355.019531 71.117188 L 1355.019531 93.617188 L 1347.519531 93.617188 L 1347.519531 71.117188 Z M 1355.019531 97.367188 L 1355.019531 119.867188 L 1347.519531 119.867188 L 1347.519531 97.367188 Z M 1355.019531 123.617188 L 1355.019531 146.117188 L 1347.519531 146.117188 L 1347.519531 123.617188 Z M 1355.019531 149.867188 L 1355.019531 172.367188 L 1347.519531 172.367188 L 1347.519531 149.867188 Z M 1355.019531 176.117188 L 1355.019531 198.617188 L 1347.519531 198.617188 L 1347.519531 176.117188 Z M 1355.019531 202.367188 L 1355.019531 224.867188 L 1347.519531 224.867188 L 1347.519531 202.367188 Z M 1355.019531 228.617188 L 1355.019531 251.117188 L 1347.519531 251.117188 L 1347.519531 228.617188 Z M 1355.019531 254.867188 L 1355.019531 277.367188 L 1347.519531 277.367188 L 1347.519531 254.867188 Z M 1355.019531 281.117188 L 1355.019531 303.617188 L 1347.519531 303.617188 L 1347.519531 281.117188 Z M 1355.019531 307.367188 L 1355.019531 329.867188 L 1347.519531 329.867188 L 1347.519531 307.367188 Z M 1355.019531 333.617188 L 1355.019531 356.117188 L 1347.519531 356.117188 L 1347.519531 333.617188 Z M 1355.019531 359.867188 L 1355.019531 382.367188 L 1347.519531 382.367188 L 1347.519531 359.867188 Z M 1355.019531 386.117188 L 1355.019531 408.617188 L 1347.519531 408.617188 L 1347.519531 386.117188 Z M 1355.019531 412.367188 L 1355.019531 434.867188 L 1347.519531 434.867188 L 1347.519531 412.367188 Z M 1350.847656 441.945312 L 1328.347656 441.945312 L 1328.347656 434.445312 L 1350.847656 434.445312 Z M 1324.597656 441.945312 L 1302.097656 441.945312 L 1302.097656 434.445312 L 1324.597656 434.445312 Z M 1298.347656 441.945312 L 1275.847656 441.945312 L 1275.847656 434.445312 L 1298.347656 434.445312 Z M 1272.097656 441.945312 L 1249.597656 441.945312 L 1249.597656 434.445312 L 1272.097656 434.445312 Z M 1245.847656 441.945312 L 1223.347656 441.945312 L 1223.347656 434.445312 L 1245.847656 434.445312 Z M 1219.597656 441.945312 L 1197.097656 441.945312 L 1197.097656 434.445312 L 1219.597656 434.445312 Z M 1193.347656 441.945312 L 1170.847656 441.945312 L 1170.847656 434.445312 L 1193.347656 434.445312 Z M 1167.097656 441.945312 L 1144.597656 441.945312 L 1144.597656 434.445312 L 1167.097656 434.445312 Z M 1140.847656 441.945312 L 1118.347656 441.945312 L 1118.347656 434.445312 L 1140.847656 434.445312 Z M 1114.597656 441.945312 L 1092.097656 441.945312 L 1092.097656 434.445312 L 1114.597656 434.445312 Z M 1088.347656 441.945312 L 1065.847656 441.945312 L 1065.847656 434.445312 L 1088.347656 434.445312 Z M 1062.097656 441.945312 L 1039.597656 441.945312 L 1039.597656 434.445312 L 1062.097656 434.445312 Z M 1035.847656 441.945312 L 1013.347656 441.945312 L 1013.347656 434.445312 L 1035.847656 434.445312 Z M 1009.597656 441.945312 L 987.097656 441.945312 L 987.097656 434.445312 L 1009.597656 434.445312 Z M 983.347656 441.945312 L 960.847656 441.945312 L 960.847656 434.445312 L 983.347656 434.445312 Z M 957.097656 441.945312 L 934.597656 441.945312 L 934.597656 434.445312 L 957.097656 434.445312 Z M 930.847656 441.945312 L 908.347656 441.945312 L 908.347656 434.445312 L 930.847656 434.445312 Z M 904.597656 441.945312 L 882.097656 441.945312 L 882.097656 434.445312 L 904.597656 434.445312 Z M 878.347656 441.945312 L 855.847656 441.945312 L 855.847656 434.445312 L 878.347656 434.445312 Z M 852.097656 441.945312 L 829.597656 441.945312 L 829.597656 434.445312 L 852.097656 434.445312 Z M 825.847656 441.945312 L 803.347656 441.945312 L 803.347656 434.445312 L 825.847656 434.445312 Z M 799.597656 441.945312 L 777.097656 441.945312 L 777.097656 434.445312 L 799.597656 434.445312 Z M 773.347656 441.945312 L 750.847656 441.945312 L 750.847656 434.445312 L 773.347656 434.445312 Z M 747.097656 441.945312 L 724.597656 441.945312 L 724.597656 434.445312 L 747.097656 434.445312 Z M 720.847656 441.945312 L 698.347656 441.945312 L 698.347656 434.445312 L 720.847656 434.445312 Z M 694.597656 441.945312 L 672.097656 441.945312 L 672.097656 434.445312 L 694.597656 434.445312 Z M 668.347656 441.945312 L 645.847656 441.945312 L 645.847656 434.445312 L 668.347656 434.445312 Z M 642.097656 441.945312 L 619.597656 441.945312 L 619.597656 434.445312 L 642.097656 434.445312 Z M 615.847656 441.945312 L 593.347656 441.945312 L 593.347656 434.445312 L 615.847656 434.445312 Z M 589.597656 441.945312 L 575.273438 441.945312 L 575.273438 426.269531 L 582.773438 426.269531 L 582.773438 438.195312 L 579.023438 438.195312 L 579.023438 434.445312 L 589.597656 434.445312 Z M 575.273438 422.519531 L 575.273438 400.019531 L 582.773438 400.019531 L 582.773438 422.519531 Z M 575.273438 396.269531 L 575.273438 373.769531 L 582.773438 373.769531 L 582.773438 396.269531 Z M 575.273438 370.019531 L 575.273438 347.519531 L 582.773438 347.519531 L 582.773438 370.019531 Z M 575.273438 343.769531 L 575.273438 321.269531 L 582.773438 321.269531 L 582.773438 343.769531 Z M 575.273438 317.519531 L 575.273438 295.019531 L 582.773438 295.019531 L 582.773438 317.519531 Z M 575.273438 291.269531 L 575.273438 268.769531 L 582.773438 268.769531 L 582.773438 291.269531 Z M 575.273438 265.019531 L 575.273438 242.519531 L 582.773438 242.519531 L 582.773438 265.019531 Z M 575.273438 238.769531 L 575.273438 216.269531 L 582.773438 216.269531 L 582.773438 238.769531 Z M 575.273438 212.519531 L 575.273438 190.019531 L 582.773438 190.019531 L 582.773438 212.519531 Z M 575.273438 186.269531 L 575.273438 163.769531 L 582.773438 163.769531 L 582.773438 186.269531 Z M 575.273438 160.019531 L 575.273438 137.519531 L 582.773438 137.519531 L 582.773438 160.019531 Z M 575.273438 133.769531 L 575.273438 111.269531 L 582.773438 111.269531 L 582.773438 133.769531 Z M 575.273438 107.519531 L 575.273438 85.019531 L 582.773438 85.019531 L 582.773438 107.519531 Z M 575.273438 81.269531 L 575.273438 58.769531 L 582.773438 58.769531 L 582.773438 81.269531 Z M 579.023438 52.109375 L 601.523438 52.109375 L 601.523438 59.609375 L 579.023438 59.609375 Z M 579.023438 52.109375 " fill-opacity="1" fill-rule="nonzero"/></g></svg>