<svg xmlns="http://www.w3.org/2000/svg" xmlns:xlink="http://www.w3.org/1999/xlink" width="1920" zoomAndPan="magnify" viewBox="0 0 1440 809.999993" height="1080" preserveAspectRatio="xMidYMid meet" version="1.0"><defs><clipPath id="3bdb5aebb6"><path d="M 635.203125 30.128906 L 1370.953125 30.128906 L 1370.953125 779.867188 L 635.203125 779.867188 Z M 635.203125 30.128906 " clip-rule="nonzero"/></clipPath><clipPath id="8c9cb5bf10"><path d="M 63.765625 103.742188 L 573.925781 103.742188 L 573.925781 729 L 63.765625 729 Z M 63.765625 103.742188 " clip-rule="nonzero"/></clipPath><clipPath id="74495e9d6d"><path d="M 63.765625 103.742188 L 573.765625 103.742188 L 573.765625 728.992188 L 63.765625 728.992188 Z M 63.765625 103.742188 " clip-rule="nonzero"/></clipPath></defs><rect x="-144" width="1728" fill="#ffffff" y="-80.999999" height="971.999992" fill-opacity="1"/><rect x="-144" width="1728" fill="#e8e4dd" y="-80.999999" height="971.999992" fill-opacity="1"/><g clip-path="url(#3bdb5aebb6)"><path fill="#41624f" d="M 656.203125 27.128906 L 674.203125 27.128906 L 674.203125 33.128906 L 656.203125 33.128906 Z M 677.203125 27.128906 L 695.203125 27.128906 L 695.203125 33.128906 L 677.203125 33.128906 Z M 698.203125 27.128906 L 716.203125 27.128906 L 716.203125 33.128906 L 698.203125 33.128906 Z M 719.203125 27.128906 L 737.203125 27.128906 L 737.203125 33.128906 L 719.203125 33.128906 Z M 740.203125 27.128906 L 758.203125 27.128906 L 758.203125 33.128906 L 740.203125 33.128906 Z M 761.203125 27.128906 L 779.203125 27.128906 L 779.203125 33.128906 L 761.203125 33.128906 Z M 782.203125 27.128906 L 800.203125 27.128906 L 800.203125 33.128906 L 782.203125 33.128906 Z M 803.203125 27.128906 L 821.203125 27.128906 L 821.203125 33.128906 L 803.203125 33.128906 Z M 824.203125 27.128906 L 842.203125 27.128906 L 842.203125 33.128906 L 824.203125 33.128906 Z M 845.203125 27.128906 L 863.203125 27.128906 L 863.203125 33.128906 L 845.203125 33.128906 Z M 866.203125 27.128906 L 884.203125 27.128906 L 884.203125 33.128906 L 866.203125 33.128906 Z M 887.203125 27.128906 L 905.203125 27.128906 L 905.203125 33.128906 L 887.203125 33.128906 Z M 908.203125 27.128906 L 926.203125 27.128906 L 926.203125 33.128906 L 908.203125 33.128906 Z M 929.203125 27.128906 L 947.203125 27.128906 L 947.203125 33.128906 L 929.203125 33.128906 Z M 950.203125 27.128906 L 968.203125 27.128906 L 968.203125 33.128906 L 950.203125 33.128906 Z M 971.203125 27.128906 L 989.203125 27.128906 L 989.203125 33.128906 L 971.203125 33.128906 Z M 992.203125 27.128906 L 1010.203125 27.128906 L 1010.203125 33.128906 L 992.203125 33.128906 Z M 1013.203125 27.128906 L 1031.203125 27.128906 L 1031.203125 33.128906 L 1013.203125 33.128906 Z M 1034.203125 27.128906 L 1052.203125 27.128906 L 1052.203125 33.128906 L 1034.203125 33.128906 Z M 1055.203125 27.128906 L 1073.203125 27.128906 L 1073.203125 33.128906 L 1055.203125 33.128906 Z M 1076.203125 27.128906 L 1094.203125 27.128906 L 1094.203125 33.128906 L 1076.203125 33.128906 Z M 1097.203125 27.128906 L 1115.203125 27.128906 L 1115.203125 33.128906 L 1097.203125 33.128906 Z M 1118.203125 27.128906 L 1136.203125 27.128906 L 1136.203125 33.128906 L 1118.203125 33.128906 Z M 1139.203125 27.128906 L 1157.203125 27.128906 L 1157.203125 33.128906 L 1139.203125 33.128906 Z M 1160.203125 27.128906 L 1178.203125 27.128906 L 1178.203125 33.128906 L 1160.203125 33.128906 Z M 1181.203125 27.128906 L 1199.203125 27.128906 L 1199.203125 33.128906 L 1181.203125 33.128906 Z M 1202.203125 27.128906 L 1220.203125 27.128906 L 1220.203125 33.128906 L 1202.203125 33.128906 Z M 1223.203125 27.128906 L 1241.203125 27.128906 L 1241.203125 33.128906 L 1223.203125 33.128906 Z M 1244.203125 27.128906 L 1262.203125 27.128906 L 1262.203125 33.128906 L 1244.203125 33.128906 Z M 1265.203125 27.128906 L 1283.203125 27.128906 L 1283.203125 33.128906 L 1265.203125 33.128906 Z M 1286.203125 27.128906 L 1304.203125 27.128906 L 1304.203125 33.128906 L 1286.203125 33.128906 Z M 1307.203125 27.128906 L 1325.203125 27.128906 L 1325.203125 33.128906 L 1307.203125 33.128906 Z M 1328.203125 27.128906 L 1346.203125 27.128906 L 1346.203125 33.128906 L 1328.203125 33.128906 Z M 1349.203125 27.128906 L 1367.203125 27.128906 L 1367.203125 33.128906 L 1349.203125 33.128906 Z M 1370.203125 27.128906 L 1373.988281 27.128906 L 1373.988281 47.34375 L 1367.988281 47.34375 L 1367.988281 30.128906 L 1370.988281 30.128906 L 1370.988281 33.128906 L 1370.203125 33.128906 Z M 1373.988281 50.34375 L 1373.988281 68.34375 L 1367.988281 68.34375 L 1367.988281 50.34375 Z M 1373.988281 71.34375 L 1373.988281 89.34375 L 1367.988281 89.34375 L 1367.988281 71.34375 Z M 1373.988281 92.34375 L 1373.988281 110.34375 L 1367.988281 110.34375 L 1367.988281 92.34375 Z M 1373.988281 113.34375 L 1373.988281 131.34375 L 1367.988281 131.34375 L 1367.988281 113.34375 Z M 1373.988281 134.34375 L 1373.988281 152.34375 L 1367.988281 152.34375 L 1367.988281 134.34375 Z M 1373.988281 155.34375 L 1373.988281 173.34375 L 1367.988281 173.34375 L 1367.988281 155.34375 Z M 1373.988281 176.34375 L 1373.988281 194.34375 L 1367.988281 194.34375 L 1367.988281 176.34375 Z M 1373.988281 197.34375 L 1373.988281 215.34375 L 1367.988281 215.34375 L 1367.988281 197.34375 Z M 1373.988281 218.34375 L 1373.988281 236.34375 L 1367.988281 236.34375 L 1367.988281 218.34375 Z M 1373.988281 239.34375 L 1373.988281 257.34375 L 1367.988281 257.34375 L 1367.988281 239.34375 Z M 1373.988281 260.34375 L 1373.988281 278.34375 L 1367.988281 278.34375 L 1367.988281 260.34375 Z M 1373.988281 281.34375 L 1373.988281 299.34375 L 1367.988281 299.34375 L 1367.988281 281.34375 Z M 1373.988281 302.34375 L 1373.988281 320.34375 L 1367.988281 320.34375 L 1367.988281 302.34375 Z M 1373.988281 323.34375 L 1373.988281 341.34375 L 1367.988281 341.34375 L 1367.988281 323.34375 Z M 1373.988281 344.34375 L 1373.988281 362.34375 L 1367.988281 362.34375 L 1367.988281 344.34375 Z M 1373.988281 365.34375 L 1373.988281 383.34375 L 1367.988281 383.34375 L 1367.988281 365.34375 Z M 1373.988281 386.34375 L 1373.988281 404.34375 L 1367.988281 404.34375 L 1367.988281 386.34375 Z M 1373.988281 407.34375 L 1373.988281 425.34375 L 1367.988281 425.34375 L 1367.988281 407.34375 Z M 1373.988281 428.34375 L 1373.988281 446.34375 L 1367.988281 446.34375 L 1367.988281 428.34375 Z M 1373.988281 449.34375 L 1373.988281 467.34375 L 1367.988281 467.34375 L 1367.988281 449.34375 Z M 1373.988281 470.34375 L 1373.988281 488.34375 L 1367.988281 488.34375 L 1367.988281 470.34375 Z M 1373.988281 491.34375 L 1373.988281 509.34375 L 1367.988281 509.34375 L 1367.988281 491.34375 Z M 1373.988281 512.34375 L 1373.988281 530.34375 L 1367.988281 530.34375 L 1367.988281 512.34375 Z M 1373.988281 533.34375 L 1373.988281 551.34375 L 1367.988281 551.34375 L 1367.988281 533.34375 Z M 1373.988281 554.34375 L 1373.988281 572.34375 L 1367.988281 572.34375 L 1367.988281 554.34375 Z M 1373.988281 575.34375 L 1373.988281 593.34375 L 1367.988281 593.34375 L 1367.988281 575.34375 Z M 1373.988281 596.34375 L 1373.988281 614.34375 L 1367.988281 614.34375 L 1367.988281 596.34375 Z M 1373.988281 617.34375 L 1373.988281 635.34375 L 1367.988281 635.34375 L 1367.988281 617.34375 Z M 1373.988281 638.34375 L 1373.988281 656.34375 L 1367.988281 656.34375 L 1367.988281 638.34375 Z M 1373.988281 659.34375 L 1373.988281 677.34375 L 1367.988281 677.34375 L 1367.988281 659.34375 Z M 1373.988281 680.34375 L 1373.988281 698.34375 L 1367.988281 698.34375 L 1367.988281 680.34375 Z M 1373.988281 701.34375 L 1373.988281 719.34375 L 1367.988281 719.34375 L 1367.988281 701.34375 Z M 1373.988281 722.34375 L 1373.988281 740.34375 L 1367.988281 740.34375 L 1367.988281 722.34375 Z M 1373.988281 743.34375 L 1373.988281 761.34375 L 1367.988281 761.34375 L 1367.988281 743.34375 Z M 1373.988281 764.34375 L 1373.988281 782.867188 L 1368.511719 782.867188 L 1368.511719 776.867188 L 1370.988281 776.867188 L 1370.988281 779.867188 L 1367.988281 779.867188 L 1367.988281 764.34375 Z M 1365.511719 782.867188 L 1347.511719 782.867188 L 1347.511719 776.867188 L 1365.511719 776.867188 Z M 1344.511719 782.867188 L 1326.511719 782.867188 L 1326.511719 776.867188 L 1344.511719 776.867188 Z M 1323.511719 782.867188 L 1305.511719 782.867188 L 1305.511719 776.867188 L 1323.511719 776.867188 Z M 1302.511719 782.867188 L 1284.511719 782.867188 L 1284.511719 776.867188 L 1302.511719 776.867188 Z M 1281.511719 782.867188 L 1263.511719 782.867188 L 1263.511719 776.867188 L 1281.511719 776.867188 Z M 1260.511719 782.867188 L 1242.511719 782.867188 L 1242.511719 776.867188 L 1260.511719 776.867188 Z M 1239.511719 782.867188 L 1221.511719 782.867188 L 1221.511719 776.867188 L 1239.511719 776.867188 Z M 1218.511719 782.867188 L 1200.511719 782.867188 L 1200.511719 776.867188 L 1218.511719 776.867188 Z M 1197.511719 782.867188 L 1179.511719 782.867188 L 1179.511719 776.867188 L 1197.511719 776.867188 Z M 1176.511719 782.867188 L 1158.511719 782.867188 L 1158.511719 776.867188 L 1176.511719 776.867188 Z M 1155.511719 782.867188 L 1137.511719 782.867188 L 1137.511719 776.867188 L 1155.511719 776.867188 Z M 1134.511719 782.867188 L 1116.511719 782.867188 L 1116.511719 776.867188 L 1134.511719 776.867188 Z M 1113.511719 782.867188 L 1095.511719 782.867188 L 1095.511719 776.867188 L 1113.511719 776.867188 Z M 1092.511719 782.867188 L 1074.511719 782.867188 L 1074.511719 776.867188 L 1092.511719 776.867188 Z M 1071.511719 782.867188 L 1053.511719 782.867188 L 1053.511719 776.867188 L 1071.511719 776.867188 Z M 1050.511719 782.867188 L 1032.511719 782.867188 L 1032.511719 776.867188 L 1050.511719 776.867188 Z M 1029.511719 782.867188 L 1011.511719 782.867188 L 1011.511719 776.867188 L 1029.511719 776.867188 Z M 1008.511719 782.867188 L 990.511719 782.867188 L 990.511719 776.867188 L 1008.511719 776.867188 Z M 987.511719 782.867188 L 969.511719 782.867188 L 969.511719 776.867188 L 987.511719 776.867188 Z M 966.511719 782.867188 L 948.511719 782.867188 L 948.511719 776.867188 L 966.511719 776.867188 Z M 945.511719 782.867188 L 927.511719 782.867188 L 927.511719 776.867188 L 945.511719 776.867188 Z M 924.511719 782.867188 L 906.511719 782.867188 L 906.511719 776.867188 L 924.511719 776.867188 Z M 903.511719 782.867188 L 885.511719 782.867188 L 885.511719 776.867188 L 903.511719 776.867188 Z M 882.511719 782.867188 L 864.511719 782.867188 L 864.511719 776.867188 L 882.511719 776.867188 Z M 861.511719 782.867188 L 843.511719 782.867188 L 843.511719 776.867188 L 861.511719 776.867188 Z M 840.511719 782.867188 L 822.511719 782.867188 L 822.511719 776.867188 L 840.511719 776.867188 Z M 819.511719 782.867188 L 801.511719 782.867188 L 801.511719 776.867188 L 819.511719 776.867188 Z M 798.511719 782.867188 L 780.511719 782.867188 L 780.511719 776.867188 L 798.511719 776.867188 Z M 777.511719 782.867188 L 759.511719 782.867188 L 759.511719 776.867188 L 777.511719 776.867188 Z M 756.511719 782.867188 L 738.511719 782.867188 L 738.511719 776.867188 L 756.511719 776.867188 Z M 735.511719 782.867188 L 717.511719 782.867188 L 717.511719 776.867188 L 735.511719 776.867188 Z M 714.511719 782.867188 L 696.511719 782.867188 L 696.511719 776.867188 L 714.511719 776.867188 Z M 693.511719 782.867188 L 675.511719 782.867188 L 675.511719 776.867188 L 693.511719 776.867188 Z M 672.511719 782.867188 L 654.511719 782.867188 L 654.511719 776.867188 L 672.511719 776.867188 Z M 651.511719 782.867188 L 632.203125 782.867188 L 632.203125 778.171875 L 638.203125 778.171875 L 638.203125 779.867188 L 635.203125 779.867188 L 635.203125 776.867188 L 651.511719 776.867188 Z M 632.203125 775.171875 L 632.203125 757.171875 L 638.203125 757.171875 L 638.203125 775.171875 Z M 632.203125 754.171875 L 632.203125 736.171875 L 638.203125 736.171875 L 638.203125 754.171875 Z M 632.203125 733.171875 L 632.203125 715.171875 L 638.203125 715.171875 L 638.203125 733.171875 Z M 632.203125 712.171875 L 632.203125 694.171875 L 638.203125 694.171875 L 638.203125 712.171875 Z M 632.203125 691.171875 L 632.203125 673.171875 L 638.203125 673.171875 L 638.203125 691.171875 Z M 632.203125 670.171875 L 632.203125 652.171875 L 638.203125 652.171875 L 638.203125 670.171875 Z M 632.203125 649.171875 L 632.203125 631.171875 L 638.203125 631.171875 L 638.203125 649.171875 Z M 632.203125 628.171875 L 632.203125 610.171875 L 638.203125 610.171875 L 638.203125 628.171875 Z M 632.203125 607.171875 L 632.203125 589.171875 L 638.203125 589.171875 L 638.203125 607.171875 Z M 632.203125 586.171875 L 632.203125 568.171875 L 638.203125 568.171875 L 638.203125 586.171875 Z M 632.203125 565.171875 L 632.203125 547.171875 L 638.203125 547.171875 L 638.203125 565.171875 Z M 632.203125 544.171875 L 632.203125 526.171875 L 638.203125 526.171875 L 638.203125 544.171875 Z M 632.203125 523.171875 L 632.203125 505.171875 L 638.203125 505.171875 L 638.203125 523.171875 Z M 632.203125 502.171875 L 632.203125 484.171875 L 638.203125 484.171875 L 638.203125 502.171875 Z M 632.203125 481.171875 L 632.203125 463.171875 L 638.203125 463.171875 L 638.203125 481.171875 Z M 632.203125 460.171875 L 632.203125 442.171875 L 638.203125 442.171875 L 638.203125 460.171875 Z M 632.203125 439.171875 L 632.203125 421.171875 L 638.203125 421.171875 L 638.203125 439.171875 Z M 632.203125 418.171875 L 632.203125 400.171875 L 638.203125 400.171875 L 638.203125 418.171875 Z M 632.203125 397.171875 L 632.203125 379.171875 L 638.203125 379.171875 L 638.203125 397.171875 Z M 632.203125 376.171875 L 632.203125 358.171875 L 638.203125 358.171875 L 638.203125 376.171875 Z M 632.203125 355.171875 L 632.203125 337.171875 L 638.203125 337.171875 L 638.203125 355.171875 Z M 632.203125 334.171875 L 632.203125 316.171875 L 638.203125 316.171875 L 638.203125 334.171875 Z M 632.203125 313.171875 L 632.203125 295.171875 L 638.203125 295.171875 L 638.203125 313.171875 Z M 632.203125 292.171875 L 632.203125 274.171875 L 638.203125 274.171875 L 638.203125 292.171875 Z M 632.203125 271.171875 L 632.203125 253.171875 L 638.203125 253.171875 L 638.203125 271.171875 Z M 632.203125 250.171875 L 632.203125 232.171875 L 638.203125 232.171875 L 638.203125 250.171875 Z M 632.203125 229.171875 L 632.203125 211.171875 L 638.203125 211.171875 L 638.203125 229.171875 Z M 632.203125 208.171875 L 632.203125 190.171875 L 638.203125 190.171875 L 638.203125 208.171875 Z M 632.203125 187.171875 L 632.203125 169.171875 L 638.203125 169.171875 L 638.203125 187.171875 Z M 632.203125 166.171875 L 632.203125 148.171875 L 638.203125 148.171875 L 638.203125 166.171875 Z M 632.203125 145.171875 L 632.203125 127.171875 L 638.203125 127.171875 L 638.203125 145.171875 Z M 632.203125 124.171875 L 632.203125 106.171875 L 638.203125 106.171875 L 638.203125 124.171875 Z M 632.203125 103.171875 L 632.203125 85.171875 L 638.203125 85.171875 L 638.203125 103.171875 Z M 632.203125 82.171875 L 632.203125 64.171875 L 638.203125 64.171875 L 638.203125 82.171875 Z M 632.203125 61.171875 L 632.203125 43.171875 L 638.203125 43.171875 L 638.203125 61.171875 Z M 632.203125 40.171875 L 632.203125 27.128906 L 653.203125 27.128906 L 653.203125 33.128906 L 635.203125 33.128906 L 635.203125 30.128906 L 638.203125 30.128906 L 638.203125 40.171875 Z M 632.203125 40.171875 " fill-opacity="1" fill-rule="nonzero"/></g><g clip-path="url(#8c9cb5bf10)"><path fill="#41624f" d="M 63.765625 103.742188 L 573.925781 103.742188 L 573.925781 729.484375 L 63.765625 729.484375 Z M 63.765625 103.742188 " fill-opacity="1" fill-rule="nonzero"/></g><g clip-path="url(#74495e9d6d)"><path fill="#e8e4dd" d="M 84.765625 100.742188 L 102.765625 100.742188 L 102.765625 106.742188 L 84.765625 106.742188 Z M 105.765625 100.742188 L 123.765625 100.742188 L 123.765625 106.742188 L 105.765625 106.742188 Z M 126.765625 100.742188 L 144.765625 100.742188 L 144.765625 106.742188 L 126.765625 106.742188 Z M 147.765625 100.742188 L 165.765625 100.742188 L 165.765625 106.742188 L 147.765625 106.742188 Z M 168.765625 100.742188 L 186.765625 100.742188 L 186.765625 106.742188 L 168.765625 106.742188 Z M 189.765625 100.742188 L 207.765625 100.742188 L 207.765625 106.742188 L 189.765625 106.742188 Z M 210.765625 100.742188 L 228.765625 100.742188 L 228.765625 106.742188 L 210.765625 106.742188 Z M 231.765625 100.742188 L 249.765625 100.742188 L 249.765625 106.742188 L 231.765625 106.742188 Z M 252.765625 100.742188 L 270.765625 100.742188 L 270.765625 106.742188 L 252.765625 106.742188 Z M 273.765625 100.742188 L 291.765625 100.742188 L 291.765625 106.742188 L 273.765625 106.742188 Z M 294.765625 100.742188 L 312.765625 100.742188 L 312.765625 106.742188 L 294.765625 106.742188 Z M 315.765625 100.742188 L 333.765625 100.742188 L 333.765625 106.742188 L 315.765625 106.742188 Z M 336.765625 100.742188 L 354.765625 100.742188 L 354.765625 106.742188 L 336.765625 106.742188 Z M 357.765625 100.742188 L 375.765625 100.742188 L 375.765625 106.742188 L 357.765625 106.742188 Z M 378.765625 100.742188 L 396.765625 100.742188 L 396.765625 106.742188 L 378.765625 106.742188 Z M 399.765625 100.742188 L 417.765625 100.742188 L 417.765625 106.742188 L 399.765625 106.742188 Z M 420.765625 100.742188 L 438.765625 100.742188 L 438.765625 106.742188 L 420.765625 106.742188 Z M 441.765625 100.742188 L 459.765625 100.742188 L 459.765625 106.742188 L 441.765625 106.742188 Z M 462.765625 100.742188 L 480.765625 100.742188 L 480.765625 106.742188 L 462.765625 106.742188 Z M 483.765625 100.742188 L 501.765625 100.742188 L 501.765625 106.742188 L 483.765625 106.742188 Z M 504.765625 100.742188 L 522.765625 100.742188 L 522.765625 106.742188 L 504.765625 106.742188 Z M 525.765625 100.742188 L 543.765625 100.742188 L 543.765625 106.742188 L 525.765625 106.742188 Z M 546.765625 100.742188 L 564.765625 100.742188 L 564.765625 106.742188 L 546.765625 106.742188 Z M 567.765625 100.742188 L 576.917969 100.742188 L 576.917969 115.589844 L 570.917969 115.589844 L 570.917969 103.742188 L 573.917969 103.742188 L 573.917969 106.742188 L 567.765625 106.742188 Z M 576.917969 118.589844 L 576.917969 136.589844 L 570.917969 136.589844 L 570.917969 118.589844 Z M 576.917969 139.589844 L 576.917969 157.589844 L 570.917969 157.589844 L 570.917969 139.589844 Z M 576.917969 160.589844 L 576.917969 178.589844 L 570.917969 178.589844 L 570.917969 160.589844 Z M 576.917969 181.589844 L 576.917969 199.589844 L 570.917969 199.589844 L 570.917969 181.589844 Z M 576.917969 202.589844 L 576.917969 220.589844 L 570.917969 220.589844 L 570.917969 202.589844 Z M 576.917969 223.589844 L 576.917969 241.589844 L 570.917969 241.589844 L 570.917969 223.589844 Z M 576.917969 244.589844 L 576.917969 262.589844 L 570.917969 262.589844 L 570.917969 244.589844 Z M 576.917969 265.589844 L 576.917969 283.589844 L 570.917969 283.589844 L 570.917969 265.589844 Z M 576.917969 286.589844 L 576.917969 304.589844 L 570.917969 304.589844 L 570.917969 286.589844 Z M 576.917969 307.589844 L 576.917969 325.589844 L 570.917969 325.589844 L 570.917969 307.589844 Z M 576.917969 328.589844 L 576.917969 346.589844 L 570.917969 346.589844 L 570.917969 328.589844 Z M 576.917969 349.589844 L 576.917969 367.589844 L 570.917969 367.589844 L 570.917969 349.589844 Z M 576.917969 370.589844 L 576.917969 388.589844 L 570.917969 388.589844 L 570.917969 370.589844 Z M 576.917969 391.589844 L 576.917969 409.589844 L 570.917969 409.589844 L 570.917969 391.589844 Z M 576.917969 412.589844 L 576.917969 430.589844 L 570.917969 430.589844 L 570.917969 412.589844 Z M 576.917969 433.589844 L 576.917969 451.589844 L 570.917969 451.589844 L 570.917969 433.589844 Z M 576.917969 454.589844 L 576.917969 472.589844 L 570.917969 472.589844 L 570.917969 454.589844 Z M 576.917969 475.589844 L 576.917969 493.589844 L 570.917969 493.589844 L 570.917969 475.589844 Z M 576.917969 496.589844 L 576.917969 514.589844 L 570.917969 514.589844 L 570.917969 496.589844 Z M 576.917969 517.589844 L 576.917969 535.589844 L 570.917969 535.589844 L 570.917969 517.589844 Z M 576.917969 538.589844 L 576.917969 556.589844 L 570.917969 556.589844 L 570.917969 538.589844 Z M 576.917969 559.589844 L 576.917969 577.589844 L 570.917969 577.589844 L 570.917969 559.589844 Z M 576.917969 580.589844 L 576.917969 598.589844 L 570.917969 598.589844 L 570.917969 580.589844 Z M 576.917969 601.589844 L 576.917969 619.589844 L 570.917969 619.589844 L 570.917969 601.589844 Z M 576.917969 622.589844 L 576.917969 640.589844 L 570.917969 640.589844 L 570.917969 622.589844 Z M 576.917969 643.589844 L 576.917969 661.589844 L 570.917969 661.589844 L 570.917969 643.589844 Z M 576.917969 664.589844 L 576.917969 682.589844 L 570.917969 682.589844 L 570.917969 664.589844 Z M 576.917969 685.589844 L 576.917969 703.589844 L 570.917969 703.589844 L 570.917969 685.589844 Z M 576.917969 706.589844 L 576.917969 724.589844 L 570.917969 724.589844 L 570.917969 706.589844 Z M 576.917969 727.589844 L 576.917969 731.992188 L 557.320312 731.992188 L 557.320312 725.992188 L 573.917969 725.992188 L 573.917969 728.992188 L 570.917969 728.992188 L 570.917969 727.589844 Z M 554.320312 731.992188 L 536.320312 731.992188 L 536.320312 725.992188 L 554.320312 725.992188 Z M 533.320312 731.992188 L 515.320312 731.992188 L 515.320312 725.992188 L 533.320312 725.992188 Z M 512.320312 731.992188 L 494.320312 731.992188 L 494.320312 725.992188 L 512.320312 725.992188 Z M 491.320312 731.992188 L 473.320312 731.992188 L 473.320312 725.992188 L 491.320312 725.992188 Z M 470.320312 731.992188 L 452.320312 731.992188 L 452.320312 725.992188 L 470.320312 725.992188 Z M 449.320312 731.992188 L 431.320312 731.992188 L 431.320312 725.992188 L 449.320312 725.992188 Z M 428.320312 731.992188 L 410.320312 731.992188 L 410.320312 725.992188 L 428.320312 725.992188 Z M 407.320312 731.992188 L 389.320312 731.992188 L 389.320312 725.992188 L 407.320312 725.992188 Z M 386.320312 731.992188 L 368.320312 731.992188 L 368.320312 725.992188 L 386.320312 725.992188 Z M 365.320312 731.992188 L 347.320312 731.992188 L 347.320312 725.992188 L 365.320312 725.992188 Z M 344.320312 731.992188 L 326.320312 731.992188 L 326.320312 725.992188 L 344.320312 725.992188 Z M 323.320312 731.992188 L 305.320312 731.992188 L 305.320312 725.992188 L 323.320312 725.992188 Z M 302.320312 731.992188 L 284.320312 731.992188 L 284.320312 725.992188 L 302.320312 725.992188 Z M 281.320312 731.992188 L 263.320312 731.992188 L 263.320312 725.992188 L 281.320312 725.992188 Z M 260.320312 731.992188 L 242.320312 731.992188 L 242.320312 725.992188 L 260.320312 725.992188 Z M 239.320312 731.992188 L 221.320312 731.992188 L 221.320312 725.992188 L 239.320312 725.992188 Z M 218.320312 731.992188 L 200.320312 731.992188 L 200.320312 725.992188 L 218.320312 725.992188 Z M 197.320312 731.992188 L 179.320312 731.992188 L 179.320312 725.992188 L 197.320312 725.992188 Z M 176.320312 731.992188 L 158.320312 731.992188 L 158.320312 725.992188 L 176.320312 725.992188 Z M 155.320312 731.992188 L 137.320312 731.992188 L 137.320312 725.992188 L 155.320312 725.992188 Z M 134.320312 731.992188 L 116.320312 731.992188 L 116.320312 725.992188 L 134.320312 725.992188 Z M 113.320312 731.992188 L 95.320312 731.992188 L 95.320312 725.992188 L 113.320312 725.992188 Z M 92.320312 731.992188 L 74.320312 731.992188 L 74.320312 725.992188 L 92.320312 725.992188 Z M 71.320312 731.992188 L 60.765625 731.992188 L 60.765625 718.546875 L 66.765625 718.546875 L 66.765625 728.992188 L 63.765625 728.992188 L 63.765625 725.992188 L 71.320312 725.992188 Z M 60.765625 715.546875 L 60.765625 697.546875 L 66.765625 697.546875 L 66.765625 715.546875 Z M 60.765625 694.546875 L 60.765625 676.546875 L 66.765625 676.546875 L 66.765625 694.546875 Z M 60.765625 673.546875 L 60.765625 655.546875 L 66.765625 655.546875 L 66.765625 673.546875 Z M 60.765625 652.546875 L 60.765625 634.546875 L 66.765625 634.546875 L 66.765625 652.546875 Z M 60.765625 631.546875 L 60.765625 613.546875 L 66.765625 613.546875 L 66.765625 631.546875 Z M 60.765625 610.546875 L 60.765625 592.546875 L 66.765625 592.546875 L 66.765625 610.546875 Z M 60.765625 589.546875 L 60.765625 571.546875 L 66.765625 571.546875 L 66.765625 589.546875 Z M 60.765625 568.546875 L 60.765625 550.546875 L 66.765625 550.546875 L 66.765625 568.546875 Z M 60.765625 547.542969 L 60.765625 529.542969 L 66.765625 529.542969 L 66.765625 547.542969 Z M 60.765625 526.542969 L 60.765625 508.542969 L 66.765625 508.542969 L 66.765625 526.542969 Z M 60.765625 505.546875 L 60.765625 487.546875 L 66.765625 487.546875 L 66.765625 505.546875 Z M 60.765625 484.546875 L 60.765625 466.546875 L 66.765625 466.546875 L 66.765625 484.546875 Z M 60.765625 463.546875 L 60.765625 445.546875 L 66.765625 445.546875 L 66.765625 463.546875 Z M 60.765625 442.546875 L 60.765625 424.546875 L 66.765625 424.546875 L 66.765625 442.546875 Z M 60.765625 421.546875 L 60.765625 403.546875 L 66.765625 403.546875 L 66.765625 421.546875 Z M 60.765625 400.546875 L 60.765625 382.546875 L 66.765625 382.546875 L 66.765625 400.546875 Z M 60.765625 379.542969 L 60.765625 361.542969 L 66.765625 361.542969 L 66.765625 379.542969 Z M 60.765625 358.546875 L 60.765625 340.546875 L 66.765625 340.546875 L 66.765625 358.546875 Z M 60.765625 337.542969 L 60.765625 319.542969 L 66.765625 319.542969 L 66.765625 337.542969 Z M 60.765625 316.542969 L 60.765625 298.542969 L 66.765625 298.542969 L 66.765625 316.542969 Z M 60.765625 295.542969 L 60.765625 277.542969 L 66.765625 277.542969 L 66.765625 295.542969 Z M 60.765625 274.542969 L 60.765625 256.542969 L 66.765625 256.542969 L 66.765625 274.542969 Z M 60.765625 253.542969 L 60.765625 235.542969 L 66.765625 235.542969 L 66.765625 253.542969 Z M 60.765625 232.542969 L 60.765625 214.546875 L 66.765625 214.546875 L 66.765625 232.542969 Z M 60.765625 211.546875 L 60.765625 193.546875 L 66.765625 193.546875 L 66.765625 211.546875 Z M 60.765625 190.546875 L 60.765625 172.546875 L 66.765625 172.546875 L 66.765625 190.546875 Z M 60.765625 169.546875 L 60.765625 151.546875 L 66.765625 151.546875 L 66.765625 169.546875 Z M 60.765625 148.546875 L 60.765625 130.546875 L 66.765625 130.546875 L 66.765625 148.546875 Z M 60.765625 127.546875 L 60.765625 109.546875 L 66.765625 109.546875 L 66.765625 127.546875 Z M 60.765625 106.546875 L 60.765625 100.742188 L 81.765625 100.742188 L 81.765625 106.742188 L 63.765625 106.742188 L 63.765625 103.742188 L 66.765625 103.742188 L 66.765625 106.546875 Z M 60.765625 106.546875 " fill-opacity="1" fill-rule="nonzero"/></g></svg>