<svg xmlns="http://www.w3.org/2000/svg" xmlns:xlink="http://www.w3.org/1999/xlink" width="300" zoomAndPan="magnify" viewBox="0 0 224.87999 299.999988" height="400" preserveAspectRatio="xMidYMid meet" version="1.0"><defs><g/><clipPath id="1fa5e4dea6"><path d="M 0 0.078125 L 224.761719 0.078125 L 224.761719 299.917969 L 0 299.917969 Z M 0 0.078125 " clip-rule="nonzero"/></clipPath><clipPath id="3c8781bf48"><path d="M 44.976562 35.78125 L 179.902344 35.78125 L 179.902344 170.707031 L 44.976562 170.707031 Z M 44.976562 35.78125 " clip-rule="nonzero"/></clipPath></defs><g clip-path="url(#1fa5e4dea6)"><path fill="#ffffff" d="M 0 0.078125 L 224.878906 0.078125 L 224.878906 299.921875 L 0 299.921875 Z M 0 0.078125 " fill-opacity="1" fill-rule="nonzero"/><path fill="#f2de9a" d="M 0 0.078125 L 224.878906 0.078125 L 224.878906 299.921875 L 0 299.921875 Z M 0 0.078125 " fill-opacity="1" fill-rule="nonzero"/></g><g fill="#ffffff" fill-opacity="1"><g transform="translate(82.460985, 213.697243)"><g><path d="M 17.609375 -21.71875 C 17.609375 -22.238281 17.882812 -22.5 18.4375 -22.5 L 19.921875 -22.5 C 20.523438 -22.5 20.828125 -22.257812 20.828125 -21.78125 C 20.828125 -21.25 21.0625 -20.984375 21.53125 -20.984375 L 26.015625 -20.984375 C 26.617188 -20.984375 26.921875 -20.691406 26.921875 -20.109375 L 26.921875 -17.46875 C 26.921875 -16.976562 27.234375 -16.734375 27.859375 -16.734375 C 28.503906 -16.734375 28.828125 -16.441406 28.828125 -15.859375 L 28.828125 -14.65625 C 28.828125 -14.050781 28.515625 -13.75 27.890625 -13.75 C 27.242188 -13.75 26.921875 -13.515625 26.921875 -13.046875 L 26.921875 -10.421875 C 26.921875 -9.816406 26.628906 -9.515625 26.046875 -9.515625 L 21.5625 -9.515625 C 21.070312 -9.515625 20.828125 -9.367188 20.828125 -9.078125 C 20.828125 -8.742188 21.0625 -8.578125 21.53125 -8.578125 L 26.75 -8.578125 C 27.351562 -8.578125 27.65625 -8.285156 27.65625 -7.703125 L 27.65625 -6.4375 C 27.65625 -5.832031 27.363281 -5.53125 26.78125 -5.53125 L 21.5625 -5.53125 C 21.070312 -5.53125 20.828125 -5.351562 20.828125 -5 C 20.828125 -4.632812 21.0625 -4.453125 21.53125 -4.453125 L 27.53125 -4.453125 C 28.132812 -4.453125 28.4375 -4.160156 28.4375 -3.578125 L 28.4375 -2.34375 C 28.4375 -1.738281 28.144531 -1.4375 27.5625 -1.4375 L 21.5625 -1.4375 C 21.070312 -1.4375 20.828125 -1.148438 20.828125 -0.578125 C 20.828125 0.00390625 20.535156 0.296875 19.953125 0.296875 L 18.515625 0.296875 C 17.910156 0.296875 17.609375 0.0078125 17.609375 -0.5625 C 17.609375 -1.144531 17.375 -1.4375 16.90625 -1.4375 L 11.46875 -1.4375 C 10.863281 -1.4375 10.5625 -1.726562 10.5625 -2.3125 L 10.5625 -3.546875 C 10.5625 -4.148438 10.851562 -4.453125 11.4375 -4.453125 L 16.890625 -4.453125 C 17.367188 -4.453125 17.609375 -4.625 17.609375 -4.96875 C 17.609375 -5.34375 17.375 -5.53125 16.90625 -5.53125 L 12.875 -5.53125 C 12.269531 -5.53125 11.96875 -5.820312 11.96875 -6.40625 L 11.96875 -7.671875 C 11.96875 -8.273438 12.257812 -8.578125 12.84375 -8.578125 L 16.890625 -8.578125 C 17.367188 -8.578125 17.609375 -8.722656 17.609375 -9.015625 C 17.609375 -9.347656 17.375 -9.515625 16.90625 -9.515625 L 13.484375 -9.515625 C 12.878906 -9.515625 12.578125 -9.804688 12.578125 -10.390625 L 12.578125 -11.640625 C 12.578125 -12.253906 12.867188 -12.5625 13.453125 -12.5625 L 16.890625 -12.5625 C 17.367188 -12.5625 17.609375 -12.753906 17.609375 -13.140625 C 17.609375 -13.546875 17.375 -13.75 16.90625 -13.75 L 11.8125 -13.75 C 11.207031 -13.75 10.90625 -14.046875 10.90625 -14.640625 L 10.90625 -15.828125 C 10.90625 -16.429688 11.203125 -16.734375 11.796875 -16.734375 L 16.890625 -16.734375 C 17.367188 -16.734375 17.609375 -16.929688 17.609375 -17.328125 C 17.609375 -17.734375 17.375 -17.9375 16.90625 -17.9375 L 13.609375 -17.9375 C 13.003906 -17.9375 12.703125 -18.226562 12.703125 -18.8125 L 12.703125 -20.078125 C 12.703125 -20.679688 12.992188 -20.984375 13.578125 -20.984375 L 16.890625 -20.984375 C 17.367188 -20.984375 17.609375 -21.226562 17.609375 -21.71875 Z M 2.390625 -20.515625 C 2.390625 -21.140625 2.664062 -21.453125 3.21875 -21.453125 L 9.65625 -21.453125 C 10.257812 -21.453125 10.5625 -21.160156 10.5625 -20.578125 C 10.632812 -19.460938 10.554688 -18.703125 10.328125 -18.296875 C 9.566406 -16.535156 8.84375 -15.039062 8.15625 -13.8125 C 7.925781 -13.34375 8.046875 -13.109375 8.515625 -13.109375 L 10.703125 -13.109375 C 11.296875 -13.109375 11.570312 -12.816406 11.53125 -12.234375 C 11.195312 -8.546875 10.40625 -5.238281 9.15625 -2.3125 C 8.925781 -1.84375 9.0625 -1.394531 9.5625 -0.96875 C 10.769531 -0.207031 12.332031 0.28125 14.25 0.5 C 17.6875 0.925781 22.257812 0.9375 27.96875 0.53125 C 28.632812 0.46875 28.84375 0.789062 28.59375 1.5 L 28.09375 3.046875 C 27.875 3.703125 27.503906 4.03125 26.984375 4.03125 L 18.375 4.03125 C 15.78125 3.957031 13.378906 3.65625 11.171875 3.125 C 9.910156 2.851562 8.800781 2.359375 7.84375 1.640625 C 7.394531 1.285156 6.925781 1.429688 6.4375 2.078125 L 4.828125 3.859375 C 4.273438 4.367188 3.695312 4.300781 3.09375 3.65625 L 2.578125 3.078125 C 2.046875 2.484375 2.070312 1.945312 2.65625 1.46875 C 3.320312 0.863281 3.945312 0.21875 4.53125 -0.46875 C 4.925781 -0.976562 4.96875 -1.503906 4.65625 -2.046875 C 4.101562 -3.066406 3.644531 -4.117188 3.28125 -5.203125 C 3.039062 -5.960938 3.222656 -6.472656 3.828125 -6.734375 L 4.53125 -7.03125 C 5.132812 -7.28125 5.535156 -7.113281 5.734375 -6.53125 L 6.3125 -5.125 C 6.625 -4.539062 6.890625 -4.539062 7.109375 -5.125 C 7.484375 -6.289062 7.785156 -7.644531 8.015625 -9.1875 C 8.078125 -9.738281 7.898438 -10.015625 7.484375 -10.015625 L 6.515625 -10.015625 C 6.054688 -10.015625 5.671875 -9.804688 5.359375 -9.390625 C 5.023438 -8.941406 4.570312 -8.90625 4 -9.28125 C 3.75 -9.46875 3.5 -9.632812 3.25 -9.78125 C 2.695312 -10.1875 2.632812 -10.703125 3.0625 -11.328125 C 4.414062 -13.410156 5.5 -15.457031 6.3125 -17.46875 C 6.488281 -17.9375 6.34375 -18.171875 5.875 -18.171875 L 3.296875 -18.171875 C 2.691406 -18.171875 2.390625 -18.460938 2.390625 -19.046875 Z M 23.703125 -17.296875 C 23.703125 -17.722656 23.476562 -17.9375 23.03125 -17.9375 L 21.5625 -17.9375 C 21.070312 -17.9375 20.828125 -17.742188 20.828125 -17.359375 C 20.828125 -16.941406 21.0625 -16.734375 21.53125 -16.734375 L 22.96875 -16.734375 C 23.457031 -16.734375 23.703125 -16.921875 23.703125 -17.296875 Z M 23.703125 -13.109375 C 23.703125 -13.535156 23.488281 -13.75 23.0625 -13.75 L 21.5625 -13.75 C 21.070312 -13.75 20.828125 -13.554688 20.828125 -13.171875 C 20.828125 -12.765625 21.0625 -12.5625 21.53125 -12.5625 L 22.96875 -12.5625 C 23.457031 -12.5625 23.703125 -12.742188 23.703125 -13.109375 Z M 23.703125 -13.109375 "/></g></g></g><g fill="#ffffff" fill-opacity="1"><g transform="translate(112.43327, 213.697243)"><g><path d="M 12.96875 -21.5625 C 12.96875 -22.1875 13.238281 -22.5 13.78125 -22.5 L 15.78125 -22.5 C 16.382812 -22.5 16.6875 -22.207031 16.6875 -21.625 L 16.6875 -18.765625 C 16.6875 -18.273438 16.921875 -18.03125 17.390625 -18.03125 L 26.34375 -18.03125 C 26.945312 -18.03125 27.25 -17.738281 27.25 -17.15625 L 27.25 -15.71875 C 27.25 -15.113281 26.957031 -14.8125 26.375 -14.8125 L 3.6875 -14.8125 C 3.082031 -14.8125 2.78125 -15.101562 2.78125 -15.6875 L 2.78125 -17.125 C 2.78125 -17.726562 3.070312 -18.03125 3.65625 -18.03125 L 12.234375 -18.03125 C 12.722656 -18.03125 12.96875 -18.265625 12.96875 -18.734375 Z M 20.25 -13 C 20.382812 -13.78125 20.726562 -14.109375 21.28125 -13.984375 L 23.296875 -13.546875 C 23.878906 -13.390625 24.113281 -13.019531 24 -12.4375 C 23.238281 -8.375 22.085938 -4.316406 20.546875 -0.265625 C 20.367188 0.222656 20.515625 0.46875 20.984375 0.46875 L 27.515625 0.46875 C 28.117188 0.46875 28.421875 0.757812 28.421875 1.34375 L 28.421875 2.8125 C 28.421875 3.414062 28.128906 3.71875 27.546875 3.71875 L 2.40625 3.71875 C 1.800781 3.71875 1.5 3.425781 1.5 2.84375 L 1.5 1.375 C 1.5 0.769531 1.789062 0.46875 2.375 0.46875 L 15.796875 0.46875 C 16.265625 0.46875 16.617188 0.175781 16.859375 -0.40625 C 18.378906 -4.675781 19.507812 -8.875 20.25 -13 Z M 6.671875 -12.9375 L 8.484375 -13.484375 C 9.035156 -13.640625 9.414062 -13.398438 9.625 -12.765625 C 10.738281 -9.367188 11.578125 -5.929688 12.140625 -2.453125 C 12.222656 -1.867188 11.960938 -1.472656 11.359375 -1.265625 L 9.3125 -0.5625 C 8.71875 -0.382812 8.382812 -0.585938 8.3125 -1.171875 C 7.863281 -4.816406 7.140625 -8.335938 6.140625 -11.734375 C 5.953125 -12.359375 6.128906 -12.757812 6.671875 -12.9375 Z M 6.671875 -12.9375 "/></g></g></g><g fill="#ffffff" fill-opacity="1"><g transform="translate(49.794826, 254.92524)"><g><path d="M 1.5 -19.203125 C 1.5 -19.828125 1.769531 -20.140625 2.3125 -20.140625 L 4.390625 -20.140625 C 4.992188 -20.140625 5.296875 -19.84375 5.296875 -19.25 L 5.296875 -2.515625 C 5.296875 -2.023438 5.53125 -1.78125 6 -1.78125 L 14.546875 -1.78125 C 15.148438 -1.78125 15.453125 -1.488281 15.453125 -0.90625 L 15.453125 0.96875 C 15.453125 1.570312 15.160156 1.875 14.578125 1.875 L 2.40625 1.875 C 1.800781 1.875 1.5 1.582031 1.5 1 Z M 1.5 -19.203125 "/></g></g></g><g fill="#ffffff" fill-opacity="1"><g transform="translate(66.03957, 254.92524)"><g><path d="M 1.5 -19.203125 C 1.5 -19.828125 1.769531 -20.140625 2.3125 -20.140625 L 4.421875 -20.140625 C 5.023438 -20.140625 5.328125 -19.84375 5.328125 -19.25 L 5.328125 0.96875 C 5.328125 1.570312 5.035156 1.875 4.453125 1.875 L 2.40625 1.875 C 1.800781 1.875 1.5 1.582031 1.5 1 Z M 1.5 -19.203125 "/></g></g></g><g fill="#ffffff" fill-opacity="1"><g transform="translate(72.888705, 254.92524)"><g><path d="M 1.5 -19.203125 C 1.5 -19.828125 1.769531 -20.140625 2.3125 -20.140625 L 4.484375 -20.140625 C 5.066406 -20.140625 5.550781 -19.84375 5.9375 -19.25 C 8.789062 -14.769531 11.671875 -10.285156 14.578125 -5.796875 C 14.960938 -5.242188 15.15625 -5.28125 15.15625 -5.90625 L 15.15625 -19.234375 C 15.15625 -19.835938 15.445312 -20.140625 16.03125 -20.140625 L 18.109375 -20.140625 C 18.710938 -20.140625 19.015625 -19.84375 19.015625 -19.25 L 19.015625 0.96875 C 19.015625 1.570312 18.722656 1.875 18.140625 1.875 L 16.15625 1.875 C 15.570312 1.875 15.070312 1.582031 14.65625 1 C 11.8125 -3.507812 8.925781 -8.03125 6 -12.5625 C 5.59375 -13.082031 5.390625 -13.050781 5.390625 -12.46875 L 5.390625 0.96875 C 5.390625 1.570312 5.09375 1.875 4.5 1.875 L 2.40625 1.875 C 1.800781 1.875 1.5 1.582031 1.5 1 Z M 1.5 -19.203125 "/></g></g></g><g fill="#ffffff" fill-opacity="1"><g transform="translate(93.436111, 254.92524)"><g><path d="M 1.5 -19.203125 C 1.5 -19.828125 1.769531 -20.140625 2.3125 -20.140625 L 17.125 -20.140625 C 17.726562 -20.140625 18.03125 -19.84375 18.03125 -19.25 L 18.03125 -17.40625 C 18.03125 -16.800781 17.738281 -16.5 17.15625 -16.5 L 6.03125 -16.5 C 5.539062 -16.5 5.296875 -16.265625 5.296875 -15.796875 L 5.296875 -12 C 5.296875 -11.507812 5.53125 -11.265625 6 -11.265625 L 16.765625 -11.265625 C 17.367188 -11.265625 17.671875 -10.972656 17.671875 -10.390625 L 17.671875 -8.546875 C 17.671875 -7.941406 17.378906 -7.640625 16.796875 -7.640625 L 6.03125 -7.640625 C 5.539062 -7.640625 5.296875 -7.40625 5.296875 -6.9375 L 5.296875 -2.484375 C 5.296875 -1.992188 5.53125 -1.75 6 -1.75 L 17.5625 -1.75 C 18.164062 -1.75 18.46875 -1.457031 18.46875 -0.875 L 18.46875 0.96875 C 18.46875 1.570312 18.175781 1.875 17.59375 1.875 L 2.40625 1.875 C 1.800781 1.875 1.5 1.582031 1.5 1 Z M 1.5 -19.203125 "/></g></g></g><g fill="#ffffff" fill-opacity="1"><g transform="translate(112.812726, 254.92524)"><g/></g></g><g fill="#ffffff" fill-opacity="1"><g transform="translate(127.798868, 254.92524)"><g><path d="M 1.5 -19.203125 C 1.5 -19.828125 1.769531 -20.140625 2.3125 -20.140625 L 10.21875 -20.140625 C 12.007812 -20.003906 13.566406 -19.347656 14.890625 -18.171875 C 16.378906 -16.515625 16.898438 -14.738281 16.453125 -12.84375 C 16.367188 -12.1875 15.976562 -11.40625 15.28125 -10.5 C 14.769531 -10 14.75 -9.570312 15.21875 -9.21875 C 16.519531 -8.164062 17.242188 -6.800781 17.390625 -5.125 C 17.503906 -1.039062 15.25 1.289062 10.625 1.875 L 2.40625 1.875 C 1.800781 1.875 1.5 1.582031 1.5 1 Z M 9.28125 -16.5625 L 6.03125 -16.5625 C 5.539062 -16.5625 5.296875 -16.328125 5.296875 -15.859375 L 5.296875 -11.96875 C 5.296875 -11.476562 5.53125 -11.234375 6 -11.234375 L 9.421875 -11.234375 C 10.441406 -11.316406 11.222656 -11.59375 11.765625 -12.0625 C 12.171875 -12.375 12.4375 -12.867188 12.5625 -13.546875 C 12.5625 -15.535156 11.46875 -16.539062 9.28125 -16.5625 Z M 11.234375 -7.375 C 10.046875 -7.644531 8.3125 -7.753906 6.03125 -7.703125 C 5.539062 -7.703125 5.296875 -7.46875 5.296875 -7 L 5.296875 -2.421875 C 5.296875 -1.941406 5.53125 -1.703125 6 -1.703125 L 9.6875 -1.703125 C 11.03125 -1.679688 12.113281 -2.117188 12.9375 -3.015625 C 13.320312 -3.679688 13.476562 -4.382812 13.40625 -5.125 C 13.34375 -6.15625 12.617188 -6.90625 11.234375 -7.375 Z M 11.234375 -7.375 "/></g></g></g><g fill="#ffffff" fill-opacity="1"><g transform="translate(146.0925, 254.92524)"><g><path d="M 3.875 -12.265625 C 5.84375 -13.785156 8.125 -14.289062 10.71875 -13.78125 C 13.488281 -13.125 15.320312 -11.320312 16.21875 -8.375 C 16.976562 -5.539062 16.5 -2.90625 14.78125 -0.46875 C 13.570312 1.03125 12.0625 1.910156 10.25 2.171875 C 8.320312 2.484375 6.46875 2.140625 4.6875 1.140625 C 3.4375 0.265625 2.507812 -0.835938 1.90625 -2.171875 C 1.226562 -4.117188 1.0625 -5.988281 1.40625 -7.78125 C 1.71875 -9.476562 2.539062 -10.972656 3.875 -12.265625 Z M 7.9375 -10.390625 C 7.0625 -10.171875 6.347656 -9.601562 5.796875 -8.6875 C 4.941406 -7.207031 4.835938 -5.492188 5.484375 -3.546875 C 6.335938 -1.710938 7.738281 -0.957031 9.6875 -1.28125 C 10.46875 -1.382812 11.222656 -1.914062 11.953125 -2.875 C 12.890625 -4.488281 13.003906 -6.253906 12.296875 -8.171875 C 11.335938 -10.078125 9.882812 -10.816406 7.9375 -10.390625 Z M 7.9375 -10.390625 "/></g></g></g><g fill="#ffffff" fill-opacity="1"><g transform="translate(163.215338, 254.92524)"><g><path d="M 6.8125 -17.671875 C 7.457031 -17.984375 7.78125 -17.878906 7.78125 -17.359375 L 7.78125 -14.21875 C 7.78125 -13.726562 8.015625 -13.484375 8.484375 -13.484375 L 10.5 -13.484375 C 11.101562 -13.484375 11.40625 -13.191406 11.40625 -12.609375 L 11.40625 -10.890625 C 11.40625 -10.285156 11.113281 -9.984375 10.53125 -9.984375 L 8.515625 -9.984375 C 8.023438 -9.984375 7.78125 -9.75 7.78125 -9.28125 L 7.78125 -3.015625 C 7.59375 -1.960938 8.070312 -1.484375 9.21875 -1.578125 L 10.1875 -1.578125 C 10.789062 -1.578125 11.09375 -1.285156 11.09375 -0.703125 L 11.09375 0.9375 C 11.09375 1.539062 10.800781 1.84375 10.21875 1.84375 L 7.8125 1.84375 C 5.820312 1.726562 4.625 0.6875 4.21875 -1.28125 C 4.21875 -1.476562 4.1875 -1.710938 4.125 -1.984375 L 4.125 -9.25 C 4.125 -9.738281 3.890625 -9.984375 3.421875 -9.984375 L 1.671875 -9.984375 C 1.066406 -9.984375 0.765625 -10.273438 0.765625 -10.859375 L 0.765625 -12.578125 C 0.765625 -13.179688 1.054688 -13.484375 1.640625 -13.484375 L 3.390625 -13.484375 C 3.878906 -13.484375 4.125 -13.71875 4.125 -14.1875 L 4.125 -15.453125 C 4.125 -16.035156 4.414062 -16.484375 5 -16.796875 Z M 6.8125 -17.671875 "/></g></g></g><g clip-path="url(#3c8781bf48)"><path fill="#ffffff" d="M 175.40625 163.960938 C 175.40625 165.199219 174.394531 166.210938 173.15625 166.210938 L 96.699219 166.210938 C 95.460938 166.210938 94.449219 165.199219 94.449219 163.960938 L 94.449219 114.488281 C 94.449219 113.25 95.460938 112.238281 96.699219 112.238281 L 173.15625 112.238281 C 174.394531 112.238281 175.40625 113.25 175.40625 114.488281 Z M 49.472656 136.976562 L 49.472656 117 C 57.210938 122.410156 73.796875 125.238281 89.953125 125.671875 L 89.953125 148.132812 C 64.828125 147.445312 49.472656 141.289062 49.472656 136.976562 Z M 49.472656 87.722656 C 57.738281 93.5 76.167969 96.496094 94.449219 96.496094 C 112.730469 96.496094 131.167969 93.5 139.425781 87.722656 L 139.425781 107.742188 L 96.699219 107.742188 C 92.972656 107.742188 89.953125 110.761719 89.953125 114.488281 L 89.953125 121.15625 C 64.828125 120.46875 49.472656 114.304688 49.472656 109.988281 Z M 49.472656 58.488281 C 57.738281 64.265625 76.167969 67.261719 94.449219 67.261719 C 112.730469 67.261719 131.167969 64.265625 139.425781 58.488281 L 139.425781 80.753906 C 139.425781 85.339844 121.910156 92 94.449219 92 C 67 92 49.472656 85.339844 49.472656 80.753906 Z M 94.449219 40.277344 C 121.910156 40.277344 139.425781 46.9375 139.425781 51.519531 C 139.425781 56.105469 121.910156 62.765625 94.449219 62.765625 C 67 62.765625 49.472656 56.105469 49.472656 51.519531 C 49.472656 46.9375 67 40.277344 94.449219 40.277344 Z M 173.15625 107.742188 L 143.921875 107.742188 L 143.921875 51.519531 C 143.921875 41.191406 119.035156 35.78125 94.449219 35.78125 C 69.863281 35.78125 44.976562 41.191406 44.976562 51.519531 L 44.976562 136.976562 C 44.976562 146.566406 67.246094 152.03125 89.953125 152.648438 L 89.953125 163.960938 C 89.953125 167.6875 92.972656 170.707031 96.699219 170.707031 L 173.15625 170.707031 C 176.882812 170.707031 179.902344 167.6875 179.902344 163.960938 L 179.902344 114.488281 C 179.902344 110.761719 176.882812 107.742188 173.15625 107.742188 " fill-opacity="1" fill-rule="nonzero"/></g><path fill="#ffffff" d="M 138.765625 146.628906 C 137.886719 145.75 136.464844 145.75 135.585938 146.628906 C 134.707031 147.507812 134.707031 148.929688 135.585938 149.808594 L 136.078125 150.300781 C 135.710938 150.398438 135.324219 150.46875 134.929688 150.46875 C 132.449219 150.46875 130.429688 148.449219 130.429688 145.972656 L 130.429688 132.476562 C 130.429688 130 132.449219 127.980469 134.929688 127.980469 C 137.40625 127.980469 139.425781 130 139.425781 132.476562 L 139.425781 145.972656 C 139.425781 146.367188 139.355469 146.753906 139.257812 147.121094 Z M 134.929688 123.484375 C 129.964844 123.484375 125.933594 127.515625 125.933594 132.476562 L 125.933594 145.972656 C 125.933594 150.933594 129.964844 154.964844 134.929688 154.964844 C 136.589844 154.964844 138.132812 154.484375 139.46875 153.691406 L 140.085938 154.308594 C 140.523438 154.746094 141.09375 154.964844 141.675781 154.964844 C 142.253906 154.964844 142.824219 154.746094 143.265625 154.308594 C 144.144531 153.429688 144.144531 152.003906 143.265625 151.128906 L 142.648438 150.511719 C 143.441406 149.175781 143.921875 147.632812 143.921875 145.972656 L 143.921875 132.476562 C 143.921875 127.515625 139.890625 123.484375 134.929688 123.484375 " fill-opacity="1" fill-rule="nonzero"/><path fill="#ffffff" d="M 112.441406 127.980469 C 114.917969 127.980469 116.9375 130 116.9375 132.476562 C 116.9375 133.714844 117.949219 134.726562 119.1875 134.726562 C 120.425781 134.726562 121.433594 133.714844 121.433594 132.476562 C 121.433594 127.515625 117.402344 123.484375 112.441406 123.484375 C 107.476562 123.484375 103.445312 127.515625 103.445312 132.476562 C 103.445312 137.441406 107.476562 141.472656 112.441406 141.472656 C 114.917969 141.472656 116.9375 143.492188 116.9375 145.972656 C 116.9375 148.449219 114.917969 150.46875 112.441406 150.46875 C 109.960938 150.46875 107.941406 148.449219 107.941406 145.972656 C 107.941406 144.730469 106.933594 143.722656 105.695312 143.722656 C 104.453125 143.722656 103.445312 144.730469 103.445312 145.972656 C 103.445312 150.933594 107.476562 154.964844 112.441406 154.964844 C 117.402344 154.964844 121.433594 150.933594 121.433594 145.972656 C 121.433594 141.007812 117.402344 136.976562 112.441406 136.976562 C 109.960938 136.976562 107.941406 134.957031 107.941406 132.476562 C 107.941406 130 109.960938 127.980469 112.441406 127.980469 " fill-opacity="1" fill-rule="nonzero"/><path fill="#ffffff" d="M 164.164062 150.46875 L 152.917969 150.46875 L 152.917969 125.730469 C 152.917969 124.492188 151.90625 123.484375 150.667969 123.484375 C 149.429688 123.484375 148.421875 124.492188 148.421875 125.730469 L 148.421875 152.71875 C 148.421875 153.957031 149.429688 154.964844 150.667969 154.964844 L 164.164062 154.964844 C 165.402344 154.964844 166.410156 153.957031 166.410156 152.71875 C 166.410156 151.480469 165.402344 150.46875 164.164062 150.46875 " fill-opacity="1" fill-rule="nonzero"/></svg>