<svg xmlns="http://www.w3.org/2000/svg" xmlns:xlink="http://www.w3.org/1999/xlink" width="300" zoomAndPan="magnify" viewBox="0 0 224.87999 299.999988" height="400" preserveAspectRatio="xMidYMid meet" version="1.0"><defs><g/><clipPath id="49296958bb"><path d="M 0 0.078125 L 224.761719 0.078125 L 224.761719 299.917969 L 0 299.917969 Z M 0 0.078125 " clip-rule="nonzero"/></clipPath><clipPath id="00e7ce3ade"><path d="M 96 132 L 138 132 L 138 173.238281 L 96 173.238281 Z M 96 132 " clip-rule="nonzero"/></clipPath><clipPath id="b750c4763c"><path d="M 96 152 L 118 152 L 118 173.238281 L 96 173.238281 Z M 96 152 " clip-rule="nonzero"/></clipPath><clipPath id="f9a65d2718"><path d="M 141 90 L 179.902344 90 L 179.902344 129 L 141 129 Z M 141 90 " clip-rule="nonzero"/></clipPath><clipPath id="47d4bebaa7"><path d="M 44.976562 114 L 93 114 L 93 172 L 44.976562 172 Z M 44.976562 114 " clip-rule="nonzero"/></clipPath><clipPath id="187dd82010"><path d="M 83 38.308594 L 88 38.308594 L 88 48 L 83 48 Z M 83 38.308594 " clip-rule="nonzero"/></clipPath></defs><g clip-path="url(#49296958bb)"><path fill="#ffffff" d="M 0 0.078125 L 224.878906 0.078125 L 224.878906 299.921875 L 0 299.921875 Z M 0 0.078125 " fill-opacity="1" fill-rule="nonzero"/><path fill="#f3b062" d="M 0 0.078125 L 224.878906 0.078125 L 224.878906 299.921875 L 0 299.921875 Z M 0 0.078125 " fill-opacity="1" fill-rule="nonzero"/></g><path fill="#ffffff" d="M 135.0625 160.839844 C 134.398438 160.839844 133.835938 160.601562 133.371094 160.125 L 109.792969 136.527344 C 109.570312 136.300781 109.402344 136.046875 109.28125 135.753906 C 109.160156 135.464844 109.101562 135.160156 109.101562 134.84375 C 109.101562 134.53125 109.160156 134.226562 109.28125 133.9375 C 109.402344 133.644531 109.570312 133.386719 109.792969 133.164062 L 143.503906 99.457031 C 143.726562 99.234375 143.984375 99.0625 144.273438 98.941406 C 144.566406 98.824219 144.867188 98.761719 145.183594 98.761719 C 145.496094 98.761719 145.800781 98.824219 146.089844 98.941406 C 146.382812 99.0625 146.640625 99.234375 146.863281 99.457031 L 170.464844 123.058594 C 170.921875 123.519531 171.152344 124.074219 171.15625 124.726562 C 171.160156 125.386719 170.929688 125.949219 170.464844 126.417969 L 136.753906 160.125 C 136.289062 160.601562 135.726562 160.839844 135.0625 160.839844 Z M 114.847656 134.855469 L 135.0625 155.074219 L 165.410156 124.726562 L 145.097656 104.511719 Z M 114.847656 134.855469 " fill-opacity="1" fill-rule="nonzero"/><g clip-path="url(#00e7ce3ade)"><path fill="#ffffff" d="M 99.257812 173.046875 C 99.066406 173.046875 98.878906 173.023438 98.695312 172.976562 C 98.511719 172.933594 98.335938 172.867188 98.167969 172.777344 C 97.996094 172.691406 97.84375 172.582031 97.699219 172.457031 C 97.554688 172.335938 97.429688 172.195312 97.320312 172.039062 C 97.210938 171.882812 97.121094 171.71875 97.050781 171.542969 C 96.980469 171.363281 96.933594 171.183594 96.90625 170.996094 C 96.878906 170.804688 96.875 170.617188 96.894531 170.429688 C 96.914062 170.238281 96.953125 170.054688 97.015625 169.875 L 109.222656 134.117188 C 109.289062 133.925781 109.378906 133.75 109.488281 133.582031 C 109.601562 133.414062 109.730469 133.261719 109.882812 133.125 C 110.03125 132.992188 110.195312 132.878906 110.375 132.785156 C 110.554688 132.691406 110.742188 132.625 110.9375 132.578125 C 111.132812 132.53125 111.332031 132.511719 111.535156 132.519531 C 111.738281 132.523438 111.933594 132.554688 112.128906 132.609375 C 112.320312 132.664062 112.507812 132.742188 112.679688 132.84375 C 112.855469 132.949219 113.011719 133.070312 113.15625 133.210938 L 136.753906 156.8125 C 137.046875 157.101562 137.25 157.445312 137.363281 157.839844 C 137.476562 158.230469 137.488281 158.628906 137.398438 159.03125 C 137.304688 159.429688 137.121094 159.78125 136.847656 160.089844 C 136.570312 160.394531 136.238281 160.613281 135.851562 160.746094 L 100.089844 172.953125 C 99.820312 173.03125 99.539062 173.066406 99.257812 173.046875 Z M 112.488281 139.242188 L 103.09375 166.824219 L 130.796875 157.433594 Z M 112.488281 139.242188 " fill-opacity="1" fill-rule="nonzero"/></g><g clip-path="url(#b750c4763c)"><path fill="#ffffff" d="M 99.257812 173.046875 C 99.066406 173.046875 98.878906 173.023438 98.695312 172.976562 C 98.511719 172.933594 98.335938 172.867188 98.167969 172.777344 C 97.996094 172.691406 97.84375 172.582031 97.699219 172.457031 C 97.554688 172.335938 97.429688 172.195312 97.320312 172.039062 C 97.210938 171.882812 97.121094 171.71875 97.050781 171.542969 C 96.980469 171.363281 96.933594 171.183594 96.90625 170.996094 C 96.878906 170.804688 96.875 170.617188 96.894531 170.429688 C 96.914062 170.238281 96.953125 170.054688 97.015625 169.875 L 102.308594 154.285156 C 102.398438 154.023438 102.527344 153.785156 102.699219 153.570312 C 102.871094 153.351562 103.074219 153.171875 103.308594 153.027344 C 103.542969 152.878906 103.796875 152.777344 104.066406 152.71875 C 104.335938 152.664062 104.609375 152.652344 104.882812 152.6875 C 106.449219 152.886719 107.941406 153.335938 109.359375 154.035156 C 110.777344 154.734375 112.042969 155.644531 113.15625 156.765625 C 114.269531 157.882812 115.171875 159.152344 115.871094 160.566406 C 116.570312 161.984375 117.023438 163.472656 117.230469 165.035156 C 117.269531 165.3125 117.257812 165.582031 117.199219 165.851562 C 117.140625 166.125 117.039062 166.375 116.894531 166.609375 C 116.75 166.84375 116.566406 167.050781 116.351562 167.222656 C 116.136719 167.390625 115.894531 167.523438 115.632812 167.613281 L 100.042969 172.902344 C 99.789062 172.996094 99.527344 173.042969 99.257812 173.046875 Z M 106.148438 157.863281 L 103.09375 166.824219 L 112.058594 163.773438 C 111.582031 162.386719 110.824219 161.171875 109.785156 160.136719 C 108.746094 159.097656 107.535156 158.339844 106.148438 157.863281 Z M 106.148438 157.863281 " fill-opacity="1" fill-rule="nonzero"/></g><g clip-path="url(#f9a65d2718)"><path fill="#ffffff" d="M 168.769531 128.109375 L 141.808594 101.125 L 150.25 92.710938 C 150.585938 92.390625 150.953125 92.101562 151.34375 91.851562 C 151.738281 91.601562 152.148438 91.390625 152.582031 91.214844 C 153.015625 91.042969 153.460938 90.914062 153.917969 90.824219 C 154.375 90.738281 154.835938 90.695312 155.300781 90.695312 C 155.769531 90.695312 156.230469 90.738281 156.6875 90.824219 C 157.144531 90.914062 157.589844 91.042969 158.023438 91.214844 C 158.457031 91.390625 158.867188 91.601562 159.261719 91.851562 C 159.652344 92.101562 160.019531 92.390625 160.355469 92.710938 L 177.210938 109.5625 C 177.542969 109.894531 177.835938 110.257812 178.097656 110.648438 C 178.359375 111.039062 178.578125 111.449219 178.757812 111.882812 C 178.9375 112.316406 179.074219 112.761719 179.164062 113.222656 C 179.257812 113.683594 179.300781 114.148438 179.300781 114.617188 C 179.300781 115.085938 179.257812 115.550781 179.164062 116.011719 C 179.074219 116.472656 178.9375 116.917969 178.757812 117.351562 C 178.578125 117.785156 178.359375 118.199219 178.097656 118.589844 C 177.835938 118.980469 177.542969 119.339844 177.210938 119.671875 Z M 148.554688 101.125 L 168.769531 121.363281 L 173.847656 116.308594 C 174.074219 116.085938 174.25 115.828125 174.371094 115.535156 C 174.492188 115.242188 174.554688 114.9375 174.554688 114.617188 C 174.554688 114.300781 174.492188 113.996094 174.371094 113.699219 C 174.25 113.40625 174.074219 113.148438 173.847656 112.925781 L 157.019531 96.070312 C 156.796875 95.847656 156.539062 95.679688 156.246094 95.558594 C 155.957031 95.4375 155.652344 95.378906 155.339844 95.378906 C 155.023438 95.378906 154.71875 95.4375 154.429688 95.558594 C 154.136719 95.679688 153.878906 95.847656 153.65625 96.070312 Z M 148.554688 101.125 " fill-opacity="1" fill-rule="nonzero"/></g><path fill="#ffffff" d="M 135.0625 160.839844 C 134.398438 160.839844 133.835938 160.601562 133.371094 160.125 L 126.648438 153.402344 C 126.421875 153.179688 126.25 152.921875 126.125 152.628906 C 126.003906 152.335938 125.941406 152.027344 125.941406 151.710938 C 125.941406 151.394531 126.003906 151.085938 126.125 150.792969 C 126.25 150.5 126.421875 150.242188 126.648438 150.019531 L 160.355469 116.308594 C 160.578125 116.089844 160.835938 115.917969 161.128906 115.796875 C 161.417969 115.675781 161.722656 115.617188 162.035156 115.617188 C 162.351562 115.617188 162.65625 115.675781 162.945312 115.796875 C 163.238281 115.917969 163.492188 116.089844 163.71875 116.308594 L 170.464844 123.058594 C 170.921875 123.519531 171.152344 124.074219 171.15625 124.726562 C 171.160156 125.386719 170.929688 125.949219 170.464844 126.417969 L 136.753906 160.125 C 136.289062 160.601562 135.726562 160.839844 135.0625 160.839844 Z M 131.703125 151.710938 L 135.0625 155.074219 L 165.410156 124.726562 L 162.046875 121.363281 Z M 131.703125 151.710938 " fill-opacity="1" fill-rule="nonzero"/><path fill="#ffffff" d="M 118.210938 143.988281 C 117.542969 144.003906 116.972656 143.78125 116.492188 143.320312 L 109.769531 136.574219 C 109.546875 136.351562 109.378906 136.09375 109.257812 135.800781 C 109.136719 135.511719 109.078125 135.207031 109.078125 134.894531 C 109.078125 134.578125 109.136719 134.273438 109.257812 133.984375 C 109.378906 133.691406 109.546875 133.433594 109.769531 133.210938 L 143.503906 99.457031 C 143.726562 99.234375 143.984375 99.0625 144.273438 98.941406 C 144.566406 98.824219 144.867188 98.761719 145.183594 98.761719 C 145.496094 98.761719 145.800781 98.824219 146.089844 98.941406 C 146.382812 99.0625 146.640625 99.234375 146.863281 99.457031 L 153.609375 106.203125 C 154.066406 106.664062 154.296875 107.222656 154.300781 107.871094 C 154.304688 108.53125 154.074219 109.09375 153.609375 109.5625 L 119.902344 143.320312 C 119.429688 143.773438 118.863281 143.996094 118.210938 143.988281 Z M 114.847656 134.855469 L 118.210938 138.21875 L 148.554688 107.871094 L 145.097656 104.511719 Z M 114.847656 134.855469 " fill-opacity="1" fill-rule="nonzero"/><g clip-path="url(#47d4bebaa7)"><path fill="#ffffff" d="M 90.269531 171.925781 L 47.359375 171.925781 C 47.042969 171.925781 46.738281 171.867188 46.449219 171.746094 C 46.15625 171.625 45.898438 171.453125 45.675781 171.226562 C 45.449219 171.003906 45.277344 170.746094 45.15625 170.453125 C 45.035156 170.164062 44.976562 169.859375 44.976562 169.542969 L 44.976562 155.238281 C 44.976562 154.921875 45.035156 154.617188 45.15625 154.328125 C 45.277344 154.035156 45.449219 153.777344 45.675781 153.554688 C 45.898438 153.328125 46.15625 153.15625 46.449219 153.035156 C 46.738281 152.914062 47.042969 152.855469 47.359375 152.855469 L 68.816406 152.855469 L 68.816406 143.320312 L 47.359375 143.320312 C 47.042969 143.320312 46.738281 143.257812 46.449219 143.136719 C 46.15625 143.015625 45.898438 142.84375 45.675781 142.621094 C 45.449219 142.398438 45.277344 142.140625 45.15625 141.847656 C 45.035156 141.554688 44.976562 141.253906 44.976562 140.9375 L 44.976562 126.632812 C 44.976562 126.316406 45.035156 126.011719 45.15625 125.71875 C 45.277344 125.429688 45.449219 125.171875 45.675781 124.945312 C 45.898438 124.722656 46.15625 124.550781 46.449219 124.429688 C 46.738281 124.308594 47.042969 124.25 47.359375 124.25 L 83.117188 124.25 L 83.117188 117.097656 C 83.117188 116.78125 83.179688 116.476562 83.300781 116.183594 C 83.421875 115.894531 83.59375 115.636719 83.816406 115.410156 C 84.039062 115.1875 84.296875 115.015625 84.589844 114.894531 C 84.882812 114.773438 85.1875 114.714844 85.503906 114.714844 C 85.816406 114.714844 86.121094 114.773438 86.414062 114.894531 C 86.707031 115.015625 86.964844 115.1875 87.1875 115.410156 C 87.410156 115.636719 87.582031 115.894531 87.703125 116.183594 C 87.824219 116.476562 87.886719 116.78125 87.886719 117.097656 L 87.886719 126.632812 C 87.886719 126.949219 87.824219 127.253906 87.703125 127.542969 C 87.582031 127.835938 87.410156 128.09375 87.1875 128.316406 C 86.964844 128.542969 86.707031 128.714844 86.414062 128.835938 C 86.121094 128.957031 85.816406 129.015625 85.503906 129.015625 L 49.742188 129.015625 L 49.742188 138.550781 L 71.199219 138.550781 C 71.515625 138.550781 71.820312 138.613281 72.109375 138.734375 C 72.402344 138.855469 72.660156 139.027344 72.882812 139.25 C 73.109375 139.472656 73.28125 139.730469 73.402344 140.023438 C 73.523438 140.316406 73.582031 140.621094 73.582031 140.9375 L 73.582031 155.238281 C 73.582031 155.554688 73.523438 155.859375 73.402344 156.152344 C 73.28125 156.445312 73.109375 156.703125 72.882812 156.925781 C 72.660156 157.148438 72.402344 157.320312 72.109375 157.441406 C 71.820312 157.5625 71.515625 157.625 71.199219 157.625 L 49.742188 157.625 L 49.742188 167.160156 L 90.269531 167.160156 C 90.585938 167.160156 90.890625 167.21875 91.183594 167.339844 C 91.472656 167.460938 91.730469 167.632812 91.957031 167.855469 C 92.179688 168.082031 92.351562 168.339844 92.472656 168.628906 C 92.59375 168.921875 92.652344 169.226562 92.652344 169.542969 C 92.652344 169.859375 92.59375 170.164062 92.472656 170.453125 C 92.351562 170.746094 92.179688 171.003906 91.957031 171.226562 C 91.730469 171.453125 91.472656 171.625 91.183594 171.746094 C 90.890625 171.867188 90.585938 171.925781 90.269531 171.925781 Z M 90.269531 171.925781 " fill-opacity="1" fill-rule="nonzero"/></g><path fill="#ffffff" d="M 95.039062 100.410156 L 75.964844 100.410156 C 75.652344 100.410156 75.347656 100.347656 75.054688 100.226562 C 74.761719 100.105469 74.503906 99.933594 74.28125 99.710938 C 74.058594 99.488281 73.886719 99.230469 73.765625 98.9375 C 73.644531 98.644531 73.582031 98.34375 73.582031 98.027344 L 73.582031 93.257812 C 73.578125 92.882812 73.492188 92.523438 73.320312 92.1875 C 73.148438 91.851562 72.910156 91.574219 72.605469 91.351562 C 72.253906 91.082031 71.914062 90.804688 71.578125 90.515625 C 71.246094 90.226562 70.921875 89.925781 70.605469 89.617188 C 70.292969 89.308594 69.984375 88.988281 69.691406 88.664062 C 69.394531 88.335938 69.109375 87.996094 68.835938 87.652344 C 68.5625 87.304688 68.296875 86.953125 68.046875 86.589844 C 67.792969 86.230469 67.550781 85.859375 67.320312 85.484375 C 67.089844 85.105469 66.875 84.722656 66.667969 84.332031 C 66.460938 83.941406 66.265625 83.546875 66.085938 83.144531 C 65.902344 82.742188 65.734375 82.335938 65.578125 81.921875 C 65.421875 81.507812 65.277344 81.09375 65.144531 80.671875 C 65.015625 80.25 64.898438 79.824219 64.792969 79.394531 C 64.6875 78.964844 64.597656 78.535156 64.519531 78.101562 C 64.441406 77.667969 64.375 77.230469 64.324219 76.792969 C 64.273438 76.351562 64.234375 75.914062 64.210938 75.472656 C 64.1875 75.03125 64.175781 74.589844 64.179688 74.148438 C 64.183594 73.707031 64.199219 73.265625 64.230469 72.828125 C 64.261719 72.386719 64.304688 71.949219 64.363281 71.511719 C 64.421875 71.074219 64.492188 70.636719 64.574219 70.203125 C 64.660156 69.769531 64.757812 69.339844 64.867188 68.914062 C 64.980469 68.488281 65.101562 68.0625 65.242188 67.644531 C 65.378906 67.222656 65.527344 66.808594 65.691406 66.398438 C 65.851562 65.988281 66.027344 65.582031 66.214844 65.183594 C 66.402344 64.785156 66.601562 64.390625 66.816406 64.003906 C 67.027344 63.617188 67.25 63.238281 67.484375 62.863281 C 67.722656 62.488281 67.96875 62.125 68.226562 61.765625 C 68.484375 61.40625 68.753906 61.058594 69.03125 60.714844 C 69.3125 60.375 69.601562 60.042969 69.902344 59.71875 C 70.203125 59.394531 70.511719 59.082031 70.832031 58.777344 C 71.148438 58.472656 71.480469 58.175781 71.816406 57.894531 C 72.152344 57.609375 72.5 57.335938 72.855469 57.074219 C 73.210938 56.808594 73.570312 56.558594 73.941406 56.316406 C 74.3125 56.078125 74.6875 55.847656 75.074219 55.628906 C 75.457031 55.414062 75.847656 55.207031 76.246094 55.015625 C 76.640625 54.820312 77.042969 54.640625 77.453125 54.472656 C 77.859375 54.304688 78.273438 54.148438 78.691406 54.007812 C 79.105469 53.863281 79.527344 53.734375 79.953125 53.617188 C 80.378906 53.5 80.808594 53.394531 81.242188 53.304688 C 81.671875 53.214844 82.105469 53.136719 82.542969 53.074219 C 82.980469 53.011719 83.417969 52.960938 83.859375 52.925781 C 84.296875 52.886719 84.738281 52.863281 85.179688 52.855469 C 85.621094 52.847656 86.0625 52.851562 86.503906 52.867188 C 86.945312 52.886719 87.386719 52.917969 87.824219 52.960938 C 88.261719 53.007812 88.699219 53.066406 89.136719 53.136719 C 89.570312 53.210938 90.003906 53.296875 90.433594 53.394531 C 90.863281 53.492188 91.292969 53.605469 91.714844 53.730469 C 92.136719 53.855469 92.554688 53.992188 92.972656 54.144531 C 93.386719 54.296875 93.796875 54.457031 94.199219 54.632812 C 94.605469 54.8125 95.003906 55 95.398438 55.199219 C 95.789062 55.402344 96.175781 55.613281 96.554688 55.839844 C 96.9375 56.0625 97.308594 56.300781 97.675781 56.546875 C 98.039062 56.792969 98.398438 57.054688 98.746094 57.324219 C 99.09375 57.59375 99.4375 57.871094 99.769531 58.164062 C 100.101562 58.453125 100.421875 58.753906 100.738281 59.066406 C 101.050781 59.375 101.355469 59.695312 101.648438 60.027344 C 101.941406 60.355469 102.222656 60.695312 102.496094 61.039062 C 102.769531 61.386719 103.03125 61.742188 103.285156 62.105469 C 103.535156 62.46875 103.773438 62.839844 104 63.214844 C 104.230469 63.59375 104.445312 63.980469 104.652344 64.371094 C 104.855469 64.761719 105.046875 65.160156 105.226562 65.5625 C 105.40625 65.964844 105.574219 66.371094 105.730469 66.785156 C 105.882812 67.199219 106.027344 67.617188 106.15625 68.039062 C 106.285156 68.460938 106.398438 68.886719 106.5 69.316406 C 106.605469 69.746094 106.695312 70.175781 106.769531 70.613281 C 106.84375 71.046875 106.90625 71.484375 106.957031 71.921875 C 107.152344 73.765625 107.105469 75.605469 106.824219 77.441406 C 106.539062 79.273438 106.027344 81.039062 105.285156 82.742188 C 104.542969 84.441406 103.597656 86.019531 102.445312 87.476562 C 101.296875 88.929688 99.976562 90.214844 98.496094 91.328125 C 97.859375 91.804688 97.539062 92.441406 97.539062 93.234375 L 97.539062 98.003906 C 97.542969 98.332031 97.484375 98.648438 97.355469 98.949219 C 97.230469 99.253906 97.046875 99.519531 96.808594 99.746094 C 96.574219 99.976562 96.300781 100.148438 95.992188 100.261719 C 95.683594 100.375 95.367188 100.425781 95.039062 100.410156 Z M 78.351562 95.640625 L 92.652344 95.640625 L 92.652344 93.257812 C 92.65625 92.136719 92.910156 91.074219 93.414062 90.074219 C 93.917969 89.070312 94.617188 88.234375 95.515625 87.5625 C 96.046875 87.160156 96.554688 86.730469 97.035156 86.269531 C 97.515625 85.808594 97.96875 85.320312 98.390625 84.804688 C 98.8125 84.289062 99.203125 83.75 99.5625 83.191406 C 99.921875 82.628906 100.242188 82.046875 100.53125 81.445312 C 100.820312 80.847656 101.074219 80.230469 101.289062 79.601562 C 101.503906 78.96875 101.679688 78.328125 101.816406 77.675781 C 101.953125 77.023438 102.054688 76.367188 102.113281 75.703125 C 102.171875 75.039062 102.191406 74.375 102.171875 73.707031 C 102.152344 73.042969 102.089844 72.378906 101.992188 71.722656 C 101.890625 71.0625 101.753906 70.414062 101.574219 69.769531 C 101.398438 69.128906 101.183594 68.5 100.929688 67.882812 C 100.675781 67.265625 100.386719 66.667969 100.0625 66.085938 C 99.738281 65.503906 99.378906 64.941406 98.988281 64.402344 C 98.59375 63.867188 98.171875 63.351562 97.71875 62.863281 C 97.265625 62.375 96.785156 61.914062 96.277344 61.484375 C 95.769531 61.054688 95.234375 60.65625 94.679688 60.289062 C 93.636719 59.597656 92.53125 59.035156 91.363281 58.589844 C 90.195312 58.148438 88.992188 57.84375 87.753906 57.671875 C 86.515625 57.5 85.273438 57.46875 84.027344 57.578125 C 82.785156 57.683594 81.566406 57.929688 80.375 58.308594 C 79.597656 58.550781 78.84375 58.851562 78.109375 59.203125 C 77.378906 59.554688 76.675781 59.960938 76 60.417969 C 75.328125 60.875 74.691406 61.378906 74.089844 61.929688 C 73.492188 62.480469 72.9375 63.074219 72.425781 63.707031 C 71.914062 64.339844 71.449219 65.007812 71.039062 65.710938 C 70.625 66.410156 70.265625 67.136719 69.960938 67.894531 C 69.652344 68.648438 69.40625 69.417969 69.210938 70.210938 C 69.019531 71.003906 68.886719 71.804688 68.816406 72.613281 C 68.691406 74.03125 68.746094 75.441406 68.980469 76.847656 C 69.214844 78.25 69.621094 79.601562 70.199219 80.902344 C 70.777344 82.203125 71.507812 83.410156 72.390625 84.527344 C 73.273438 85.640625 74.285156 86.628906 75.417969 87.488281 C 76.339844 88.160156 77.058594 89.007812 77.574219 90.023438 C 78.089844 91.039062 78.347656 92.117188 78.351562 93.257812 Z M 78.351562 95.640625 " fill-opacity="1" fill-rule="nonzero"/><path fill="#ffffff" d="M 90.269531 109.945312 L 80.734375 109.945312 C 80.265625 109.945312 79.800781 109.898438 79.339844 109.808594 C 78.878906 109.714844 78.429688 109.582031 77.996094 109.402344 C 77.5625 109.222656 77.152344 109 76.761719 108.738281 C 76.371094 108.480469 76.007812 108.183594 75.675781 107.851562 C 75.34375 107.519531 75.046875 107.15625 74.789062 106.765625 C 74.527344 106.375 74.308594 105.964844 74.128906 105.53125 C 73.949219 105.097656 73.8125 104.648438 73.71875 104.1875 C 73.628906 103.726562 73.582031 103.261719 73.582031 102.792969 L 73.582031 98.027344 C 73.582031 97.710938 73.644531 97.40625 73.765625 97.113281 C 73.886719 96.820312 74.058594 96.5625 74.28125 96.339844 C 74.503906 96.117188 74.761719 95.945312 75.054688 95.824219 C 75.347656 95.703125 75.652344 95.640625 75.964844 95.640625 L 95.039062 95.640625 C 95.355469 95.640625 95.65625 95.703125 95.949219 95.824219 C 96.242188 95.945312 96.5 96.117188 96.722656 96.339844 C 96.945312 96.5625 97.117188 96.820312 97.238281 97.113281 C 97.359375 97.40625 97.421875 97.710938 97.421875 98.027344 L 97.421875 102.792969 C 97.421875 103.261719 97.375 103.726562 97.285156 104.1875 C 97.191406 104.648438 97.058594 105.097656 96.878906 105.53125 C 96.699219 105.964844 96.476562 106.375 96.214844 106.765625 C 95.957031 107.15625 95.660156 107.519531 95.328125 107.851562 C 94.996094 108.183594 94.632812 108.480469 94.242188 108.738281 C 93.851562 109 93.441406 109.222656 93.007812 109.402344 C 92.574219 109.582031 92.125 109.714844 91.664062 109.808594 C 91.203125 109.898438 90.738281 109.945312 90.269531 109.945312 Z M 78.351562 100.410156 L 78.351562 102.792969 C 78.351562 103.109375 78.410156 103.414062 78.53125 103.707031 C 78.652344 104 78.824219 104.253906 79.046875 104.480469 C 79.273438 104.703125 79.53125 104.875 79.820312 104.996094 C 80.113281 105.117188 80.417969 105.175781 80.734375 105.175781 L 90.269531 105.175781 C 90.585938 105.175781 90.890625 105.117188 91.183594 104.996094 C 91.472656 104.875 91.730469 104.703125 91.957031 104.480469 C 92.179688 104.253906 92.351562 104 92.472656 103.707031 C 92.59375 103.414062 92.652344 103.109375 92.652344 102.792969 L 92.652344 100.410156 Z M 78.351562 100.410156 " fill-opacity="1" fill-rule="nonzero"/><g clip-path="url(#187dd82010)"><path fill="#ffffff" d="M 85.503906 47.964844 C 85.1875 47.964844 84.882812 47.902344 84.589844 47.78125 C 84.296875 47.660156 84.039062 47.488281 83.816406 47.265625 C 83.59375 47.042969 83.421875 46.785156 83.300781 46.492188 C 83.179688 46.199219 83.117188 45.898438 83.117188 45.582031 L 83.117188 40.8125 C 83.117188 40.496094 83.179688 40.191406 83.300781 39.902344 C 83.421875 39.609375 83.59375 39.351562 83.816406 39.128906 C 84.039062 38.902344 84.296875 38.730469 84.589844 38.609375 C 84.882812 38.488281 85.1875 38.429688 85.503906 38.429688 C 85.816406 38.429688 86.121094 38.488281 86.414062 38.609375 C 86.707031 38.730469 86.964844 38.902344 87.1875 39.128906 C 87.410156 39.351562 87.582031 39.609375 87.703125 39.902344 C 87.824219 40.191406 87.886719 40.496094 87.886719 40.8125 L 87.886719 45.582031 C 87.886719 45.898438 87.824219 46.199219 87.703125 46.492188 C 87.582031 46.785156 87.410156 47.042969 87.1875 47.265625 C 86.964844 47.488281 86.707031 47.660156 86.414062 47.78125 C 86.121094 47.902344 85.816406 47.964844 85.503906 47.964844 Z M 85.503906 47.964844 " fill-opacity="1" fill-rule="nonzero"/></g><path fill="#ffffff" d="M 65.261719 56.332031 C 64.613281 56.328125 64.054688 56.097656 63.59375 55.640625 L 60.210938 52.277344 C 59.984375 52.054688 59.8125 51.796875 59.691406 51.503906 C 59.570312 51.210938 59.507812 50.902344 59.507812 50.585938 C 59.507812 50.269531 59.570312 49.964844 59.691406 49.671875 C 59.8125 49.378906 59.984375 49.121094 60.210938 48.894531 C 60.433594 48.671875 60.695312 48.5 60.988281 48.375 C 61.28125 48.253906 61.585938 48.195312 61.902344 48.195312 C 62.21875 48.195312 62.523438 48.253906 62.816406 48.375 C 63.109375 48.496094 63.371094 48.667969 63.59375 48.894531 L 66.957031 52.277344 C 67.175781 52.503906 67.347656 52.757812 67.46875 53.050781 C 67.589844 53.34375 67.648438 53.644531 67.648438 53.960938 C 67.648438 54.273438 67.589844 54.578125 67.46875 54.867188 C 67.347656 55.160156 67.175781 55.417969 66.957031 55.640625 C 66.488281 56.105469 65.921875 56.335938 65.261719 56.332031 Z M 65.261719 56.332031 " fill-opacity="1" fill-rule="nonzero"/><path fill="#ffffff" d="M 56.894531 76.570312 L 52.128906 76.570312 C 51.8125 76.570312 51.507812 76.511719 51.214844 76.390625 C 50.921875 76.269531 50.664062 76.097656 50.441406 75.871094 C 50.21875 75.648438 50.046875 75.390625 49.925781 75.097656 C 49.804688 74.808594 49.742188 74.503906 49.742188 74.1875 C 49.742188 73.871094 49.804688 73.566406 49.925781 73.273438 C 50.046875 72.984375 50.21875 72.726562 50.441406 72.5 C 50.664062 72.277344 50.921875 72.105469 51.214844 71.984375 C 51.507812 71.863281 51.8125 71.804688 52.128906 71.804688 L 56.894531 71.804688 C 57.210938 71.804688 57.515625 71.863281 57.808594 71.984375 C 58.101562 72.105469 58.359375 72.277344 58.582031 72.5 C 58.804688 72.726562 58.976562 72.984375 59.097656 73.273438 C 59.21875 73.566406 59.28125 73.871094 59.28125 74.1875 C 59.28125 74.503906 59.21875 74.808594 59.097656 75.097656 C 58.976562 75.390625 58.804688 75.648438 58.582031 75.871094 C 58.359375 76.097656 58.101562 76.269531 57.808594 76.390625 C 57.515625 76.511719 57.210938 76.570312 56.894531 76.570312 Z M 56.894531 76.570312 " fill-opacity="1" fill-rule="nonzero"/><path fill="#ffffff" d="M 61.902344 100.171875 C 61.242188 100.175781 60.675781 99.945312 60.210938 99.480469 C 59.984375 99.257812 59.808594 98.996094 59.6875 98.703125 C 59.566406 98.410156 59.503906 98.105469 59.503906 97.789062 C 59.503906 97.46875 59.566406 97.164062 59.6875 96.871094 C 59.808594 96.578125 59.984375 96.320312 60.210938 96.09375 L 63.59375 92.734375 C 63.808594 92.480469 64.066406 92.28125 64.367188 92.136719 C 64.664062 91.992188 64.980469 91.914062 65.3125 91.902344 C 65.644531 91.890625 65.964844 91.945312 66.273438 92.066406 C 66.582031 92.1875 66.855469 92.363281 67.089844 92.597656 C 67.324219 92.832031 67.503906 93.105469 67.625 93.414062 C 67.746094 93.722656 67.800781 94.042969 67.785156 94.375 C 67.773438 94.707031 67.695312 95.023438 67.550781 95.324219 C 67.40625 95.621094 67.207031 95.878906 66.957031 96.09375 L 63.59375 99.480469 C 63.125 99.945312 62.5625 100.175781 61.902344 100.171875 Z M 61.902344 100.171875 " fill-opacity="1" fill-rule="nonzero"/><path fill="#ffffff" d="M 109.101562 100.171875 C 108.441406 100.175781 107.878906 99.945312 107.410156 99.480469 L 104.046875 96.09375 C 103.796875 95.878906 103.597656 95.621094 103.453125 95.324219 C 103.308594 95.023438 103.230469 94.707031 103.21875 94.375 C 103.203125 94.042969 103.257812 93.722656 103.378906 93.414062 C 103.5 93.105469 103.679688 92.832031 103.914062 92.597656 C 104.148438 92.363281 104.421875 92.1875 104.730469 92.066406 C 105.039062 91.945312 105.359375 91.890625 105.691406 91.902344 C 106.023438 91.914062 106.339844 91.992188 106.636719 92.136719 C 106.9375 92.28125 107.195312 92.480469 107.410156 92.734375 L 110.796875 96.09375 C 111.019531 96.320312 111.195312 96.578125 111.316406 96.871094 C 111.4375 97.164062 111.5 97.46875 111.5 97.789062 C 111.5 98.105469 111.4375 98.410156 111.316406 98.703125 C 111.195312 98.996094 111.019531 99.257812 110.796875 99.480469 C 110.328125 99.945312 109.761719 100.175781 109.101562 100.171875 Z M 109.101562 100.171875 " fill-opacity="1" fill-rule="nonzero"/><path fill="#ffffff" d="M 118.875 76.570312 L 114.109375 76.570312 C 113.792969 76.570312 113.488281 76.511719 113.195312 76.390625 C 112.90625 76.269531 112.648438 76.097656 112.421875 75.871094 C 112.199219 75.648438 112.027344 75.390625 111.90625 75.097656 C 111.785156 74.808594 111.726562 74.503906 111.726562 74.1875 C 111.726562 73.871094 111.785156 73.566406 111.90625 73.273438 C 112.027344 72.984375 112.199219 72.726562 112.421875 72.5 C 112.648438 72.277344 112.90625 72.105469 113.195312 71.984375 C 113.488281 71.863281 113.792969 71.804688 114.109375 71.804688 L 118.875 71.804688 C 119.191406 71.804688 119.496094 71.863281 119.789062 71.984375 C 120.082031 72.105469 120.339844 72.277344 120.5625 72.5 C 120.785156 72.726562 120.957031 72.984375 121.078125 73.273438 C 121.199219 73.566406 121.261719 73.871094 121.261719 74.1875 C 121.261719 74.503906 121.199219 74.808594 121.078125 75.097656 C 120.957031 75.390625 120.785156 75.648438 120.5625 75.871094 C 120.339844 76.097656 120.082031 76.269531 119.789062 76.390625 C 119.496094 76.511719 119.191406 76.570312 118.875 76.570312 Z M 118.875 76.570312 " fill-opacity="1" fill-rule="nonzero"/><path fill="#ffffff" d="M 105.742188 56.332031 C 105.082031 56.335938 104.515625 56.105469 104.046875 55.640625 C 103.828125 55.417969 103.65625 55.160156 103.535156 54.867188 C 103.414062 54.578125 103.355469 54.273438 103.355469 53.960938 C 103.355469 53.644531 103.414062 53.34375 103.535156 53.050781 C 103.65625 52.757812 103.828125 52.503906 104.046875 52.277344 L 107.410156 48.894531 C 107.632812 48.667969 107.894531 48.496094 108.1875 48.375 C 108.480469 48.253906 108.785156 48.195312 109.101562 48.195312 C 109.417969 48.195312 109.722656 48.253906 110.019531 48.375 C 110.3125 48.5 110.570312 48.671875 110.792969 48.894531 C 111.019531 49.121094 111.191406 49.378906 111.3125 49.671875 C 111.433594 49.964844 111.496094 50.269531 111.496094 50.585938 C 111.496094 50.902344 111.433594 51.210938 111.3125 51.503906 C 111.191406 51.796875 111.019531 52.054688 110.796875 52.277344 L 107.410156 55.640625 C 106.949219 56.097656 106.390625 56.328125 105.742188 56.332031 Z M 105.742188 56.332031 " fill-opacity="1" fill-rule="nonzero"/><path fill="#ffffff" d="M 95.039062 76.570312 C 94.722656 76.570312 94.417969 76.511719 94.125 76.390625 C 93.832031 76.269531 93.574219 76.097656 93.351562 75.871094 C 93.128906 75.648438 92.957031 75.390625 92.835938 75.097656 C 92.714844 74.808594 92.652344 74.503906 92.652344 74.1875 C 92.652344 73.71875 92.609375 73.253906 92.515625 72.792969 C 92.425781 72.332031 92.289062 71.882812 92.109375 71.449219 C 91.929688 71.015625 91.710938 70.605469 91.449219 70.214844 C 91.1875 69.824219 90.890625 69.460938 90.558594 69.128906 C 90.226562 68.796875 89.867188 68.5 89.476562 68.242188 C 89.085938 67.980469 88.671875 67.757812 88.238281 67.578125 C 87.804688 67.398438 87.359375 67.265625 86.898438 67.171875 C 86.4375 67.082031 85.972656 67.035156 85.503906 67.035156 C 85.1875 67.035156 84.882812 66.976562 84.589844 66.855469 C 84.296875 66.734375 84.039062 66.5625 83.816406 66.335938 C 83.59375 66.113281 83.421875 65.855469 83.300781 65.5625 C 83.179688 65.273438 83.117188 64.96875 83.117188 64.652344 C 83.117188 64.335938 83.179688 64.03125 83.300781 63.738281 C 83.421875 63.445312 83.59375 63.1875 83.816406 62.964844 C 84.039062 62.742188 84.296875 62.570312 84.589844 62.449219 C 84.882812 62.328125 85.1875 62.269531 85.503906 62.269531 C 86.285156 62.269531 87.058594 62.34375 87.828125 62.496094 C 88.59375 62.648438 89.339844 62.875 90.0625 63.175781 C 90.785156 63.472656 91.472656 63.839844 92.125 64.277344 C 92.773438 64.710938 93.378906 65.207031 93.929688 65.757812 C 94.484375 66.3125 94.976562 66.914062 95.414062 67.566406 C 95.847656 68.214844 96.214844 68.902344 96.515625 69.625 C 96.8125 70.347656 97.039062 71.09375 97.191406 71.863281 C 97.34375 72.628906 97.421875 73.40625 97.421875 74.1875 C 97.421875 74.503906 97.359375 74.808594 97.238281 75.097656 C 97.117188 75.390625 96.945312 75.648438 96.722656 75.871094 C 96.5 76.097656 96.242188 76.269531 95.949219 76.390625 C 95.65625 76.511719 95.355469 76.570312 95.039062 76.570312 Z M 95.039062 76.570312 " fill-opacity="1" fill-rule="nonzero"/><g fill="#ffffff" fill-opacity="1"><g transform="translate(52.471995, 213.697243)"><g><path d="M 2.34375 -21.375 C 2.34375 -21.976562 2.625 -22.28125 3.1875 -22.28125 L 12.90625 -22.28125 C 13.519531 -22.28125 13.828125 -21.988281 13.828125 -21.40625 L 13.828125 -12.203125 C 13.828125 -11.597656 13.53125 -11.296875 12.9375 -11.296875 L 6.0625 -11.296875 C 5.570312 -11.296875 5.328125 -11.0625 5.328125 -10.59375 L 5.328125 3.515625 C 5.328125 4.117188 5.035156 4.421875 4.453125 4.421875 L 3.25 4.421875 C 2.644531 4.421875 2.34375 4.128906 2.34375 3.546875 Z M 15.6875 -21.375 C 15.6875 -21.976562 15.972656 -22.28125 16.546875 -22.28125 L 26.265625 -22.28125 C 26.867188 -22.28125 27.171875 -21.988281 27.171875 -21.40625 L 27.171875 0.5625 C 27.128906 1.414062 26.90625 2.195312 26.5 2.90625 C 25.46875 4.226562 23.9375 4.65625 21.90625 4.1875 C 21.28125 4.09375 20.910156 3.757812 20.796875 3.1875 L 20.4375 1.5 C 20.300781 0.90625 20.523438 0.675781 21.109375 0.8125 C 21.929688 1.03125 22.644531 1.09375 23.25 1 C 23.71875 0.644531 23.960938 0.0976562 23.984375 -0.640625 L 23.984375 -10.578125 C 23.984375 -11.054688 23.75 -11.296875 23.28125 -11.296875 L 16.609375 -11.296875 C 15.992188 -11.296875 15.6875 -11.59375 15.6875 -12.1875 Z M 10.78125 -18.6875 C 10.78125 -19.050781 10.546875 -19.234375 10.078125 -19.234375 L 6.0625 -19.234375 C 5.570312 -19.234375 5.328125 -19.0625 5.328125 -18.71875 C 5.328125 -18.34375 5.5625 -18.15625 6.03125 -18.15625 L 10.046875 -18.15625 C 10.535156 -18.15625 10.78125 -18.332031 10.78125 -18.6875 Z M 23.984375 -18.6875 C 23.984375 -19.050781 23.75 -19.234375 23.28125 -19.234375 L 19.4375 -19.234375 C 18.957031 -19.234375 18.71875 -19.0625 18.71875 -18.71875 C 18.71875 -18.34375 18.945312 -18.15625 19.40625 -18.15625 L 23.25 -18.15625 C 23.738281 -18.15625 23.984375 -18.332031 23.984375 -18.6875 Z M 10.78125 -14.78125 C 10.78125 -15.175781 10.5625 -15.375 10.125 -15.375 L 6.0625 -15.375 C 5.570312 -15.375 5.328125 -15.195312 5.328125 -14.84375 C 5.328125 -14.476562 5.5625 -14.296875 6.03125 -14.296875 L 10.046875 -14.296875 C 10.535156 -14.296875 10.78125 -14.457031 10.78125 -14.78125 Z M 23.984375 -14.78125 C 23.984375 -15.175781 23.769531 -15.375 23.34375 -15.375 L 19.4375 -15.375 C 18.957031 -15.375 18.71875 -15.195312 18.71875 -14.84375 C 18.71875 -14.476562 18.945312 -14.296875 19.40625 -14.296875 L 23.25 -14.296875 C 23.738281 -14.296875 23.984375 -14.457031 23.984375 -14.78125 Z M 7.375 -9.40625 C 7.375 -10.03125 7.660156 -10.34375 8.234375 -10.34375 L 21.109375 -10.34375 C 21.710938 -10.34375 22.015625 -10.046875 22.015625 -9.453125 L 22.015625 -8.234375 C 22.015625 -7.628906 21.722656 -7.328125 21.140625 -7.328125 L 19.875 -7.328125 C 19.394531 -7.328125 19.15625 -7.09375 19.15625 -6.625 L 19.15625 -6.03125 C 19.15625 -5.539062 19.390625 -5.296875 19.859375 -5.296875 L 21.703125 -5.296875 C 22.304688 -5.296875 22.609375 -5.003906 22.609375 -4.421875 L 22.609375 -3.1875 C 22.609375 -2.582031 22.316406 -2.28125 21.734375 -2.28125 L 19.875 -2.28125 C 19.394531 -2.28125 19.15625 -2.046875 19.15625 -1.578125 L 19.15625 2.578125 C 19.15625 3.179688 18.859375 3.484375 18.265625 3.484375 L 16.84375 3.484375 C 16.226562 3.484375 15.921875 3.191406 15.921875 2.609375 L 15.921875 -1.546875 C 15.921875 -2.035156 15.6875 -2.28125 15.21875 -2.28125 L 13.671875 -2.28125 C 13.203125 -2.28125 12.890625 -1.988281 12.734375 -1.40625 C 12.460938 0.269531 11.367188 1.800781 9.453125 3.1875 C 8.867188 3.519531 8.332031 3.414062 7.84375 2.875 L 7.171875 1.984375 C 6.742188 1.460938 6.851562 0.976562 7.5 0.53125 C 8.21875 -0.0390625 8.78125 -0.71875 9.1875 -1.5 C 9.425781 -2.019531 9.332031 -2.28125 8.90625 -2.28125 L 7.546875 -2.28125 C 6.941406 -2.28125 6.640625 -2.570312 6.640625 -3.15625 L 6.640625 -4.390625 C 6.640625 -4.992188 6.9375 -5.296875 7.53125 -5.296875 L 9.3125 -5.296875 C 9.800781 -5.296875 10.046875 -5.539062 10.046875 -6.03125 L 10.078125 -6.59375 C 10.078125 -7.082031 9.84375 -7.328125 9.375 -7.328125 L 8.25 -7.328125 C 7.664062 -7.328125 7.375 -7.617188 7.375 -8.203125 Z M 15.921875 -6.265625 C 15.921875 -6.972656 15.707031 -7.328125 15.28125 -7.328125 L 13.96875 -7.328125 C 13.476562 -7.328125 13.234375 -7.09375 13.234375 -6.625 L 13.234375 -6.03125 C 13.234375 -5.539062 13.46875 -5.296875 13.9375 -5.296875 L 15.203125 -5.296875 C 15.679688 -5.296875 15.921875 -5.617188 15.921875 -6.265625 Z M 15.921875 -6.265625 "/></g></g><g transform="translate(82.455993, 213.697243)"><g><path d="M 18.625 -21.8125 C 18.832031 -22.4375 19.234375 -22.671875 19.828125 -22.515625 C 20.429688 -22.359375 21.035156 -22.175781 21.640625 -21.96875 C 22.242188 -21.789062 22.390625 -21.335938 22.078125 -20.609375 C 21.523438 -19.191406 20.476562 -17.09375 18.9375 -14.3125 C 18.644531 -13.84375 18.8125 -13.640625 19.4375 -13.703125 L 23.15625 -13.96875 C 23.625 -14.039062 23.722656 -14.367188 23.453125 -14.953125 C 23.179688 -15.546875 22.859375 -16.132812 22.484375 -16.71875 C 22.148438 -17.300781 22.273438 -17.722656 22.859375 -17.984375 C 23.253906 -18.191406 23.675781 -18.375 24.125 -18.53125 C 24.789062 -18.820312 25.328125 -18.648438 25.734375 -18.015625 C 26.867188 -16.097656 27.816406 -14.144531 28.578125 -12.15625 C 28.847656 -11.425781 28.671875 -10.9375 28.046875 -10.6875 L 26.53125 -10.046875 C 25.925781 -9.773438 25.535156 -9.878906 25.359375 -10.359375 C 25.179688 -10.890625 24.789062 -11.097656 24.1875 -10.984375 C 20.820312 -10.492188 17.617188 -10.125 14.578125 -9.875 C 13.898438 -9.8125 13.5 -10.101562 13.375 -10.75 L 13.09375 -12.328125 C 12.988281 -12.910156 13.226562 -13.234375 13.8125 -13.296875 C 14.40625 -13.335938 14.859375 -13.640625 15.171875 -14.203125 C 16.472656 -16.617188 17.625 -19.15625 18.625 -21.8125 Z M 5.1875 -21.4375 C 5.300781 -22.15625 5.617188 -22.476562 6.140625 -22.40625 L 7.546875 -22.203125 C 8.253906 -22.078125 8.554688 -21.703125 8.453125 -21.078125 L 8.046875 -18.625 C 7.992188 -18.15625 8.203125 -17.921875 8.671875 -17.921875 L 11.828125 -17.921875 C 12.410156 -17.921875 12.703125 -17.628906 12.703125 -17.046875 C 12.492188 -12.671875 11.859375 -8.6875 10.796875 -5.09375 C 10.640625 -4.582031 10.835938 -4.078125 11.390625 -3.578125 L 12.4375 -2.515625 C 12.988281 -1.953125 12.988281 -1.367188 12.4375 -0.765625 L 11.65625 0.140625 C 11.207031 0.628906 10.738281 0.613281 10.25 0.09375 L 9.8125 -0.40625 C 9.375 -0.875 8.972656 -0.816406 8.609375 -0.234375 C 7.847656 1.035156 6.773438 2.316406 5.390625 3.609375 C 4.660156 4.222656 4.0625 4.226562 3.59375 3.625 L 3.078125 2.921875 C 2.628906 2.316406 2.65625 1.789062 3.15625 1.34375 C 4.507812 0.09375 5.582031 -1.269531 6.375 -2.75 C 6.632812 -3.21875 6.488281 -3.707031 5.9375 -4.21875 C 5.351562 -4.6875 4.992188 -4.707031 4.859375 -4.28125 C 4.703125 -3.8125 4.332031 -3.644531 3.75 -3.78125 L 2.578125 -4.015625 C 1.835938 -4.171875 1.5625 -4.539062 1.75 -5.125 C 2.664062 -8.25 3.398438 -11.242188 3.953125 -14.109375 C 4.023438 -14.578125 3.828125 -14.8125 3.359375 -14.8125 L 2.609375 -14.8125 C 2.003906 -14.8125 1.703125 -15.101562 1.703125 -15.6875 L 1.703125 -17.015625 C 1.703125 -17.617188 1.992188 -17.921875 2.578125 -17.921875 L 3.953125 -17.921875 C 4.421875 -17.921875 4.703125 -18.210938 4.796875 -18.796875 Z M 9.390625 -14.078125 C 9.410156 -14.566406 9.1875 -14.8125 8.71875 -14.8125 L 8.109375 -14.8125 C 7.640625 -14.8125 7.335938 -14.519531 7.203125 -13.9375 L 6.125 -8.984375 C 6.019531 -8.441406 6.15625 -8.015625 6.53125 -7.703125 L 7.3125 -7.09375 C 7.78125 -6.695312 8.125 -6.8125 8.34375 -7.4375 C 8.882812 -9.851562 9.234375 -12.066406 9.390625 -14.078125 Z M 13.671875 -7.375 C 13.671875 -8 13.945312 -8.3125 14.5 -8.3125 L 26.9375 -8.3125 C 27.539062 -8.3125 27.84375 -8.019531 27.84375 -7.4375 L 27.84375 3.515625 C 27.84375 4.117188 27.550781 4.421875 26.96875 4.421875 L 25.328125 4.421875 C 24.722656 4.421875 24.421875 4.21875 24.421875 3.8125 C 24.421875 3.363281 24.1875 3.140625 23.71875 3.140625 L 17.75 3.140625 C 17.257812 3.140625 17.015625 3.34375 17.015625 3.75 C 17.015625 4.195312 16.71875 4.421875 16.125 4.421875 L 14.578125 4.421875 C 13.972656 4.421875 13.671875 4.128906 13.671875 3.546875 Z M 24.421875 -4.328125 C 24.421875 -4.835938 24.195312 -5.09375 23.75 -5.09375 L 17.75 -5.09375 C 17.257812 -5.09375 17.015625 -4.859375 17.015625 -4.390625 L 17.015625 -0.84375 C 17.015625 -0.351562 17.25 -0.109375 17.71875 -0.109375 L 23.6875 -0.109375 C 24.175781 -0.109375 24.421875 -0.34375 24.421875 -0.8125 Z M 24.421875 -4.328125 "/></g></g><g transform="translate(112.43999, 213.697243)"><g><path d="M 14.875 -21.265625 C 14.875 -21.890625 15.15625 -22.203125 15.71875 -22.203125 L 23.78125 -22.203125 C 24.382812 -22.203125 24.6875 -21.90625 24.6875 -21.3125 L 24.6875 -15.84375 C 24.78125 -15.195312 24.859375 -14.851562 24.921875 -14.8125 C 25.660156 -14.476562 26.019531 -14.691406 26 -15.453125 L 26.0625 -16.421875 C 26.101562 -17.109375 26.4375 -17.304688 27.0625 -17.015625 L 28.015625 -16.546875 C 28.742188 -16.171875 29.085938 -15.679688 29.046875 -15.078125 C 29.003906 -14.410156 28.847656 -13.695312 28.578125 -12.9375 C 28.304688 -12.332031 27.769531 -11.960938 26.96875 -11.828125 C 24.71875 -11.554688 23.03125 -11.78125 21.90625 -12.5 C 21.507812 -12.914062 21.273438 -13.59375 21.203125 -14.53125 L 21.203125 -18.1875 C 21.203125 -18.675781 20.96875 -18.921875 20.5 -18.921875 L 18.890625 -18.921875 C 18.398438 -18.921875 18.15625 -18.6875 18.15625 -18.21875 C 18.175781 -16.101562 17.882812 -14.382812 17.28125 -13.0625 C 17.019531 -12.507812 16.578125 -11.921875 15.953125 -11.296875 C 15.453125 -10.816406 14.878906 -10.859375 14.234375 -11.421875 L 13.296875 -12.265625 C 12.710938 -12.796875 12.734375 -13.304688 13.359375 -13.796875 C 14.328125 -14.742188 14.832031 -15.765625 14.875 -16.859375 Z M 3.015625 -21.109375 C 3.015625 -21.710938 3.304688 -22.015625 3.890625 -22.015625 L 10.75 -22.015625 C 11.351562 -22.015625 11.65625 -21.722656 11.65625 -21.140625 L 11.65625 -19.828125 C 11.65625 -19.222656 11.363281 -18.921875 10.78125 -18.921875 L 3.890625 -18.921875 C 3.304688 -18.921875 3.015625 -19.210938 3.015625 -19.796875 Z M 1.5 -17.28125 C 1.5 -17.863281 1.789062 -18.15625 2.375 -18.15625 L 12.15625 -18.15625 C 12.757812 -18.15625 13.0625 -17.863281 13.0625 -17.28125 L 13.0625 -15.84375 C 13.0625 -15.238281 12.769531 -14.9375 12.1875 -14.9375 L 2.40625 -14.9375 C 1.800781 -14.9375 1.5 -15.226562 1.5 -15.8125 Z M 2.90625 -13.03125 C 2.90625 -13.632812 3.195312 -13.9375 3.78125 -13.9375 L 10.859375 -13.9375 C 11.460938 -13.9375 11.765625 -13.644531 11.765625 -13.0625 L 11.765625 -11.71875 C 11.765625 -11.113281 11.472656 -10.8125 10.890625 -10.8125 L 3.78125 -10.8125 C 3.195312 -10.8125 2.90625 -11.101562 2.90625 -11.6875 Z M 13.09375 -9.40625 C 13.09375 -10.03125 13.375 -10.34375 13.9375 -10.34375 L 25.734375 -10.34375 C 26.335938 -10.34375 26.640625 -10.046875 26.640625 -9.453125 C 26.722656 -8.359375 26.644531 -7.617188 26.40625 -7.234375 C 25.800781 -5.515625 24.882812 -3.796875 23.65625 -2.078125 C 23.289062 -1.609375 23.390625 -1.179688 23.953125 -0.796875 C 25.179688 -0.109375 26.453125 0.457031 27.765625 0.90625 C 28.347656 1.082031 28.503906 1.460938 28.234375 2.046875 L 27.40625 3.609375 C 27.070312 4.222656 26.566406 4.40625 25.890625 4.15625 C 24.304688 3.570312 22.769531 2.753906 21.28125 1.703125 C 20.78125 1.328125 20.253906 1.34375 19.703125 1.75 C 18.335938 2.769531 16.707031 3.601562 14.8125 4.25 C 14.226562 4.4375 13.769531 4.222656 13.4375 3.609375 L 12.859375 2.4375 C 12.484375 1.75 12.609375 1.304688 13.234375 1.109375 C 14.710938 0.660156 16.007812 0.0976562 17.125 -0.578125 C 17.726562 -0.992188 17.816406 -1.484375 17.390625 -2.046875 C 16.410156 -3.296875 15.5625 -4.664062 14.84375 -6.15625 C 14.570312 -6.757812 14.210938 -7.0625 13.765625 -7.0625 C 13.316406 -7.0625 13.09375 -7.351562 13.09375 -7.9375 Z M 2.78125 -8.953125 C 2.78125 -9.566406 3.070312 -9.875 3.65625 -9.875 L 10.75 -9.875 C 11.351562 -9.875 11.65625 -9.578125 11.65625 -8.984375 L 11.65625 -7.609375 C 11.65625 -7.003906 11.363281 -6.703125 10.78125 -6.703125 L 3.65625 -6.703125 C 3.070312 -6.703125 2.78125 -6.992188 2.78125 -7.578125 Z M 22.484375 -6.234375 C 22.742188 -6.785156 22.65625 -7.0625 22.21875 -7.0625 L 18.625 -7.0625 C 18.132812 -7.0625 18.054688 -6.757812 18.390625 -6.15625 C 18.742188 -5.507812 19.210938 -4.851562 19.796875 -4.1875 C 20.222656 -3.675781 20.691406 -3.707031 21.203125 -4.28125 C 21.671875 -4.863281 22.097656 -5.515625 22.484375 -6.234375 Z M 2.546875 -4.71875 C 2.546875 -5.320312 2.828125 -5.625 3.390625 -5.625 L 11.15625 -5.625 C 11.757812 -5.625 12.0625 -5.332031 12.0625 -4.75 L 12.0625 2.578125 C 12.0625 3.179688 11.769531 3.484375 11.1875 3.484375 L 6.46875 3.484375 C 5.976562 3.484375 5.734375 3.648438 5.734375 3.984375 C 5.734375 4.347656 5.441406 4.53125 4.859375 4.53125 L 3.453125 4.53125 C 2.847656 4.53125 2.546875 4.238281 2.546875 3.65625 Z M 8.875 -1.84375 C 8.875 -2.351562 8.648438 -2.609375 8.203125 -2.609375 L 6.46875 -2.609375 C 5.976562 -2.609375 5.734375 -2.375 5.734375 -1.90625 L 5.734375 -0.265625 C 5.734375 0.222656 5.96875 0.46875 6.4375 0.46875 L 8.140625 0.46875 C 8.628906 0.46875 8.875 0.234375 8.875 -0.234375 Z M 8.875 -1.84375 "/></g></g><g transform="translate(142.423988, 213.697243)"><g><path d="M 19.5625 -21.578125 C 19.5625 -22.203125 19.832031 -22.515625 20.375 -22.515625 L 22.109375 -22.515625 C 22.710938 -22.515625 23.015625 -22.222656 23.015625 -21.640625 L 23.015625 -13.96875 C 23.015625 -13.476562 23.25 -13.234375 23.71875 -13.234375 L 27.640625 -13.234375 C 28.242188 -13.234375 28.546875 -12.941406 28.546875 -12.359375 L 28.546875 -10.6875 C 28.546875 -10.082031 28.253906 -9.78125 27.671875 -9.78125 L 23.75 -9.78125 C 23.257812 -9.78125 23.015625 -9.546875 23.015625 -9.078125 L 23.015625 3.515625 C 23.015625 4.117188 22.722656 4.421875 22.140625 4.421875 L 20.46875 4.421875 C 19.863281 4.421875 19.5625 4.128906 19.5625 3.546875 L 19.5625 -9.046875 C 19.5625 -9.535156 19.328125 -9.78125 18.859375 -9.78125 L 14.734375 -9.78125 C 14.128906 -9.78125 13.828125 -10.070312 13.828125 -10.65625 L 13.828125 -12.328125 C 13.828125 -12.929688 14.117188 -13.234375 14.703125 -13.234375 L 18.828125 -13.234375 C 19.316406 -13.234375 19.5625 -13.46875 19.5625 -13.9375 Z M 3.015625 -21.265625 C 3.015625 -21.890625 3.296875 -22.203125 3.859375 -22.203125 L 12.03125 -22.203125 C 12.632812 -22.203125 12.9375 -21.90625 12.9375 -21.3125 L 12.9375 -19.828125 C 12.9375 -19.222656 12.644531 -18.921875 12.0625 -18.921875 L 3.890625 -18.921875 C 3.304688 -18.921875 3.015625 -19.210938 3.015625 -19.796875 Z M 1.734375 -17.28125 C 1.734375 -17.863281 2.023438 -18.15625 2.609375 -18.15625 L 13.609375 -18.15625 C 14.222656 -18.15625 14.53125 -17.863281 14.53125 -17.28125 L 14.53125 -15.71875 C 14.53125 -15.113281 14.234375 -14.8125 13.640625 -14.8125 L 2.640625 -14.8125 C 2.035156 -14.8125 1.734375 -15.101562 1.734375 -15.6875 Z M 2.546875 -13.03125 C 2.546875 -13.632812 2.835938 -13.9375 3.421875 -13.9375 L 12.15625 -13.9375 C 12.757812 -13.9375 13.0625 -13.644531 13.0625 -13.0625 L 13.0625 -11.59375 C 13.0625 -10.988281 12.769531 -10.6875 12.1875 -10.6875 L 3.421875 -10.6875 C 2.835938 -10.6875 2.546875 -10.976562 2.546875 -11.5625 Z M 2.671875 -8.953125 C 2.671875 -9.566406 2.960938 -9.875 3.546875 -9.875 L 12.03125 -9.875 C 12.632812 -9.875 12.9375 -9.578125 12.9375 -8.984375 L 12.9375 -7.5 C 12.9375 -6.894531 12.644531 -6.59375 12.0625 -6.59375 L 3.546875 -6.59375 C 2.960938 -6.59375 2.671875 -6.882812 2.671875 -7.46875 Z M 2.453125 -4.71875 C 2.453125 -5.320312 2.738281 -5.625 3.3125 -5.625 L 12.4375 -5.625 C 13.050781 -5.625 13.359375 -5.332031 13.359375 -4.75 L 13.359375 3.515625 C 13.359375 4.117188 13.0625 4.421875 12.46875 4.421875 L 10.984375 4.421875 C 10.378906 4.421875 10.078125 4.253906 10.078125 3.921875 C 10.078125 3.554688 9.84375 3.375 9.375 3.375 L 6.46875 3.375 C 5.976562 3.375 5.734375 3.535156 5.734375 3.859375 C 5.734375 4.234375 5.441406 4.421875 4.859375 4.421875 L 3.375 4.421875 C 2.757812 4.421875 2.453125 4.128906 2.453125 3.546875 Z M 10.078125 -1.78125 C 10.078125 -2.269531 9.84375 -2.515625 9.375 -2.515625 L 6.46875 -2.515625 C 5.976562 -2.515625 5.734375 -2.28125 5.734375 -1.8125 L 5.734375 -0.4375 C 5.734375 0.0507812 5.96875 0.296875 6.4375 0.296875 L 9.34375 0.296875 C 9.832031 0.296875 10.078125 0.0625 10.078125 -0.40625 Z M 10.078125 -1.78125 "/></g></g></g><g fill="#ffffff" fill-opacity="1"><g transform="translate(49.778121, 254.92524)"><g><path d="M 1.5 -19.203125 C 1.5 -19.828125 1.769531 -20.140625 2.3125 -20.140625 L 4.390625 -20.140625 C 4.992188 -20.140625 5.296875 -19.847656 5.296875 -19.265625 L 5.296875 -2.515625 C 5.296875 -2.023438 5.53125 -1.78125 6 -1.78125 L 14.546875 -1.78125 C 15.148438 -1.78125 15.453125 -1.488281 15.453125 -0.90625 L 15.453125 0.96875 C 15.453125 1.570312 15.160156 1.875 14.578125 1.875 L 2.40625 1.875 C 1.800781 1.875 1.5 1.582031 1.5 1 Z M 1.5 -19.203125 "/></g></g><g transform="translate(66.029213, 254.92524)"><g><path d="M 1.5 -19.203125 C 1.5 -19.828125 1.769531 -20.140625 2.3125 -20.140625 L 4.421875 -20.140625 C 5.023438 -20.140625 5.328125 -19.847656 5.328125 -19.265625 L 5.328125 0.96875 C 5.328125 1.570312 5.035156 1.875 4.453125 1.875 L 2.40625 1.875 C 1.800781 1.875 1.5 1.582031 1.5 1 Z M 1.5 -19.203125 "/></g></g><g transform="translate(72.881025, 254.92524)"><g><path d="M 1.5 -19.203125 C 1.5 -19.828125 1.769531 -20.140625 2.3125 -20.140625 L 4.484375 -20.140625 C 5.066406 -20.140625 5.550781 -19.847656 5.9375 -19.265625 C 8.789062 -14.773438 11.671875 -10.285156 14.578125 -5.796875 C 14.972656 -5.253906 15.171875 -5.296875 15.171875 -5.921875 L 15.171875 -19.234375 C 15.171875 -19.835938 15.460938 -20.140625 16.046875 -20.140625 L 18.125 -20.140625 C 18.726562 -20.140625 19.03125 -19.847656 19.03125 -19.265625 L 19.03125 0.96875 C 19.03125 1.570312 18.738281 1.875 18.15625 1.875 L 16.15625 1.875 C 15.570312 1.875 15.078125 1.582031 14.671875 1 C 11.816406 -3.507812 8.925781 -8.03125 6 -12.5625 C 5.59375 -13.09375 5.390625 -13.0625 5.390625 -12.46875 L 5.390625 0.96875 C 5.390625 1.570312 5.097656 1.875 4.515625 1.875 L 2.40625 1.875 C 1.800781 1.875 1.5 1.582031 1.5 1 Z M 1.5 -19.203125 "/></g></g><g transform="translate(93.436461, 254.92524)"><g><path d="M 1.5 -19.203125 C 1.5 -19.828125 1.769531 -20.140625 2.3125 -20.140625 L 17.125 -20.140625 C 17.726562 -20.140625 18.03125 -19.847656 18.03125 -19.265625 L 18.03125 -17.421875 C 18.03125 -16.816406 17.738281 -16.515625 17.15625 -16.515625 L 6.03125 -16.515625 C 5.539062 -16.515625 5.296875 -16.28125 5.296875 -15.8125 L 5.296875 -12 C 5.296875 -11.507812 5.53125 -11.265625 6 -11.265625 L 16.78125 -11.265625 C 17.382812 -11.265625 17.6875 -10.972656 17.6875 -10.390625 L 17.6875 -8.546875 C 17.6875 -7.941406 17.394531 -7.640625 16.8125 -7.640625 L 6.03125 -7.640625 C 5.539062 -7.640625 5.296875 -7.40625 5.296875 -6.9375 L 5.296875 -2.484375 C 5.296875 -1.992188 5.53125 -1.75 6 -1.75 L 17.5625 -1.75 C 18.175781 -1.75 18.484375 -1.457031 18.484375 -0.875 L 18.484375 0.96875 C 18.484375 1.570312 18.1875 1.875 17.59375 1.875 L 2.40625 1.875 C 1.800781 1.875 1.5 1.582031 1.5 1 Z M 1.5 -19.203125 "/></g></g><g transform="translate(112.820647, 254.92524)"><g/></g><g transform="translate(127.812646, 254.92524)"><g><path d="M 1.5 -19.203125 C 1.5 -19.828125 1.769531 -20.140625 2.3125 -20.140625 L 10.21875 -20.140625 C 12.007812 -20.003906 13.570312 -19.351562 14.90625 -18.1875 C 16.382812 -16.519531 16.898438 -14.742188 16.453125 -12.859375 C 16.378906 -12.191406 15.988281 -11.410156 15.28125 -10.515625 C 14.78125 -10.003906 14.757812 -9.570312 15.21875 -9.21875 C 16.53125 -8.164062 17.253906 -6.800781 17.390625 -5.125 C 17.503906 -1.039062 15.25 1.289062 10.625 1.875 L 2.40625 1.875 C 1.800781 1.875 1.5 1.582031 1.5 1 Z M 9.28125 -16.578125 L 6.03125 -16.578125 C 5.539062 -16.578125 5.296875 -16.34375 5.296875 -15.875 L 5.296875 -11.96875 C 5.296875 -11.488281 5.53125 -11.25 6 -11.25 L 9.421875 -11.25 C 10.441406 -11.320312 11.222656 -11.59375 11.765625 -12.0625 C 12.179688 -12.375 12.445312 -12.875 12.5625 -13.5625 C 12.5625 -15.550781 11.46875 -16.554688 9.28125 -16.578125 Z M 11.25 -7.375 C 10.050781 -7.644531 8.3125 -7.753906 6.03125 -7.703125 C 5.539062 -7.703125 5.296875 -7.46875 5.296875 -7 L 5.296875 -2.4375 C 5.296875 -1.945312 5.53125 -1.703125 6 -1.703125 L 9.6875 -1.703125 C 11.039062 -1.679688 12.125 -2.117188 12.9375 -3.015625 C 13.332031 -3.679688 13.488281 -4.382812 13.40625 -5.125 C 13.351562 -6.15625 12.632812 -6.90625 11.25 -7.375 Z M 11.25 -7.375 "/></g></g><g transform="translate(146.113425, 254.92524)"><g><path d="M 3.875 -12.265625 C 5.84375 -13.785156 8.125 -14.296875 10.71875 -13.796875 C 13.488281 -13.128906 15.328125 -11.320312 16.234375 -8.375 C 16.992188 -5.539062 16.515625 -2.90625 14.796875 -0.46875 C 13.585938 1.03125 12.070312 1.910156 10.25 2.171875 C 8.320312 2.484375 6.46875 2.140625 4.6875 1.140625 C 3.4375 0.265625 2.507812 -0.835938 1.90625 -2.171875 C 1.226562 -4.117188 1.0625 -5.988281 1.40625 -7.78125 C 1.71875 -9.488281 2.539062 -10.984375 3.875 -12.265625 Z M 7.9375 -10.390625 C 7.0625 -10.179688 6.347656 -9.617188 5.796875 -8.703125 C 4.941406 -7.210938 4.835938 -5.492188 5.484375 -3.546875 C 6.335938 -1.710938 7.742188 -0.957031 9.703125 -1.28125 C 10.484375 -1.382812 11.234375 -1.914062 11.953125 -2.875 C 12.890625 -4.488281 13.003906 -6.253906 12.296875 -8.171875 C 11.347656 -10.085938 9.894531 -10.828125 7.9375 -10.390625 Z M 7.9375 -10.390625 "/></g></g><g transform="translate(163.242955, 254.92524)"><g><path d="M 6.828125 -17.6875 C 7.460938 -18 7.78125 -17.890625 7.78125 -17.359375 L 7.78125 -14.234375 C 7.78125 -13.742188 8.015625 -13.5 8.484375 -13.5 L 10.515625 -13.5 C 11.117188 -13.5 11.421875 -13.207031 11.421875 -12.625 L 11.421875 -10.890625 C 11.421875 -10.285156 11.128906 -9.984375 10.546875 -9.984375 L 8.515625 -9.984375 C 8.023438 -9.984375 7.78125 -9.75 7.78125 -9.28125 L 7.78125 -3.015625 C 7.59375 -1.960938 8.070312 -1.484375 9.21875 -1.578125 L 10.1875 -1.578125 C 10.789062 -1.578125 11.09375 -1.285156 11.09375 -0.703125 L 11.09375 0.9375 C 11.09375 1.539062 10.800781 1.84375 10.21875 1.84375 L 7.8125 1.84375 C 5.820312 1.726562 4.625 0.6875 4.21875 -1.28125 C 4.21875 -1.476562 4.1875 -1.710938 4.125 -1.984375 L 4.125 -9.25 C 4.125 -9.738281 3.890625 -9.984375 3.421875 -9.984375 L 1.671875 -9.984375 C 1.066406 -9.984375 0.765625 -10.273438 0.765625 -10.859375 L 0.765625 -12.59375 C 0.765625 -13.195312 1.054688 -13.5 1.640625 -13.5 L 3.390625 -13.5 C 3.878906 -13.5 4.125 -13.734375 4.125 -14.203125 L 4.125 -15.453125 C 4.125 -16.046875 4.414062 -16.5 5 -16.8125 Z M 6.828125 -17.6875 "/></g></g></g></svg>