<svg xmlns="http://www.w3.org/2000/svg" xmlns:xlink="http://www.w3.org/1999/xlink" width="300" zoomAndPan="magnify" viewBox="0 0 224.87999 299.999988" height="400" preserveAspectRatio="xMidYMid meet" version="1.0"><defs><g/><clipPath id="bc3d2a8cf8"><path d="M 0 0.078125 L 224.761719 0.078125 L 224.761719 299.917969 L 0 299.917969 Z M 0 0.078125 " clip-rule="nonzero"/></clipPath><clipPath id="2f4a6af483"><path d="M 44.976562 38.308594 L 179.902344 38.308594 L 179.902344 173.238281 L 44.976562 173.238281 Z M 44.976562 38.308594 " clip-rule="nonzero"/></clipPath></defs><g clip-path="url(#bc3d2a8cf8)"><path fill="#ffffff" d="M 0 0.078125 L 224.878906 0.078125 L 224.878906 299.921875 L 0 299.921875 Z M 0 0.078125 " fill-opacity="1" fill-rule="nonzero"/><path fill="#b3e5ec" d="M 0 0.078125 L 224.878906 0.078125 L 224.878906 299.921875 L 0 299.921875 Z M 0 0.078125 " fill-opacity="1" fill-rule="nonzero"/></g><g clip-path="url(#2f4a6af483)"><path fill="#ffffff" d="M 129.125 146.085938 L 129.125 168.976562 C 129.125 171.320312 127.210938 173.238281 124.867188 173.238281 L 49.242188 173.238281 C 46.886719 173.238281 44.976562 171.320312 44.976562 168.976562 L 44.976562 69.730469 C 44.976562 67.375 46.886719 65.460938 49.242188 65.460938 L 95.753906 65.460938 L 95.753906 42.578125 C 95.753906 40.222656 97.667969 38.308594 100.019531 38.308594 L 163.9375 38.308594 C 165.109375 38.308594 166.125 38.734375 166.945312 39.558594 L 178.65625 51.265625 C 179.480469 52.089844 179.902344 53.105469 179.902344 54.277344 L 179.902344 141.824219 C 179.902344 144.167969 177.988281 146.085938 175.644531 146.085938 Z M 95.753906 69.816406 L 49.328125 69.816406 L 49.328125 168.886719 L 124.773438 168.886719 L 124.773438 146.085938 L 100.019531 146.085938 C 97.664062 146.085938 95.753906 144.167969 95.753906 141.824219 L 95.753906 117.519531 L 73.457031 104.640625 L 67.179688 101.015625 C 63.179688 98.710938 61.792969 93.570312 64.105469 89.566406 L 65.34375 87.410156 L 65.34375 87.40625 C 67.648438 83.40625 72.804688 82.03125 76.804688 84.335938 L 76.808594 84.335938 L 95.753906 95.277344 Z M 162.621094 42.664062 L 100.105469 42.664062 L 100.105469 97.792969 L 131.460938 115.894531 C 131.460938 115.898438 131.464844 115.898438 131.464844 115.898438 C 131.796875 116.089844 132.070312 116.367188 132.261719 116.695312 L 139.085938 128.515625 L 166.429688 128.515625 C 167.628906 128.515625 168.605469 129.492188 168.605469 130.695312 C 168.605469 131.894531 167.628906 132.871094 166.429688 132.871094 L 122.914062 132.871094 C 122.53125 132.871094 122.15625 132.769531 121.828125 132.578125 L 100.105469 120.035156 L 100.105469 141.730469 L 175.550781 141.730469 L 175.550781 55.59375 L 165.839844 55.59375 C 164.074219 55.59375 162.621094 54.136719 162.621094 52.371094 Z M 172.472656 51.242188 L 166.972656 45.738281 L 166.972656 51.242188 Z M 77.519531 101.960938 L 122.117188 127.71875 L 127.398438 118.578125 L 82.796875 92.820312 Z M 79.027344 90.644531 L 74.632812 88.105469 C 72.707031 86.996094 70.226562 87.65625 69.117188 89.578125 L 67.882812 91.734375 C 67.878906 91.738281 67.878906 91.738281 67.875 91.742188 C 66.761719 93.664062 67.429688 96.136719 69.351562 97.246094 L 69.355469 97.246094 L 73.75 99.785156 C 73.75 99.785156 79.027344 90.644531 79.027344 90.644531 Z M 126.683594 128.515625 L 134.058594 128.515625 L 130.371094 122.128906 Z M 110.742188 98.953125 C 109.539062 98.953125 108.566406 97.980469 108.566406 96.777344 C 108.566406 95.578125 109.539062 94.601562 110.742188 94.601562 L 166.429688 94.601562 C 167.628906 94.601562 168.605469 95.578125 168.605469 96.777344 C 168.605469 97.980469 167.628906 98.953125 166.429688 98.953125 Z M 110.742188 64.136719 C 109.539062 64.136719 108.566406 63.160156 108.566406 61.960938 C 108.566406 60.757812 109.539062 59.785156 110.742188 59.785156 L 149.371094 59.785156 C 150.570312 59.785156 151.546875 60.757812 151.546875 61.960938 C 151.546875 63.160156 150.570312 64.136719 149.371094 64.136719 Z M 110.742188 75.742188 C 109.539062 75.742188 108.566406 74.765625 108.566406 73.566406 C 108.566406 72.367188 109.539062 71.390625 110.742188 71.390625 L 153.765625 71.390625 C 154.96875 71.390625 155.941406 72.367188 155.941406 73.566406 C 155.941406 74.765625 154.96875 75.742188 153.765625 75.742188 Z M 110.742188 87.347656 C 109.539062 87.347656 108.566406 86.375 108.566406 85.171875 C 108.566406 83.972656 109.539062 82.996094 110.742188 82.996094 L 153.765625 82.996094 C 154.96875 82.996094 155.941406 83.972656 155.941406 85.171875 C 155.941406 86.375 154.96875 87.347656 153.765625 87.347656 Z M 65.671875 56.9375 L 65.671875 49.390625 C 65.671875 48.191406 66.644531 47.214844 67.847656 47.214844 L 91.476562 47.214844 C 92.679688 47.214844 93.652344 48.191406 93.652344 49.390625 C 93.652344 50.59375 92.679688 51.566406 91.476562 51.566406 L 70.023438 51.566406 L 70.023438 56.9375 L 70.71875 56.433594 C 71.691406 55.726562 73.054688 55.941406 73.757812 56.914062 C 74.464844 57.886719 74.25 59.25 73.277344 59.953125 L 69.128906 62.96875 C 68.363281 63.523438 67.332031 63.523438 66.570312 62.96875 L 62.417969 59.953125 C 61.445312 59.25 61.230469 57.886719 61.9375 56.914062 C 62.640625 55.941406 64.003906 55.726562 64.976562 56.433594 Z M 156.933594 155.734375 L 156.238281 156.238281 C 155.265625 156.945312 153.902344 156.730469 153.199219 155.757812 C 152.492188 154.785156 152.707031 153.425781 153.679688 152.71875 L 157.832031 149.703125 C 158.59375 149.148438 159.625 149.148438 160.390625 149.703125 L 164.539062 152.71875 C 165.511719 153.425781 165.726562 154.785156 165.019531 155.757812 C 164.316406 156.730469 162.953125 156.945312 161.980469 156.238281 L 161.285156 155.734375 L 161.285156 163.28125 C 161.285156 164.484375 160.3125 165.457031 159.109375 165.457031 L 135.480469 165.457031 C 134.277344 165.457031 133.304688 164.484375 133.304688 163.28125 C 133.304688 162.082031 134.277344 161.105469 135.480469 161.105469 L 156.933594 161.105469 Z M 156.933594 155.734375 " fill-opacity="1" fill-rule="evenodd"/></g><g fill="#ffffff" fill-opacity="1"><g transform="translate(82.455993, 213.697243)"><g><path d="M 6.265625 -21.9375 C 6.460938 -22.613281 6.832031 -22.875 7.375 -22.71875 L 8.78125 -22.3125 C 9.425781 -22.09375 9.648438 -21.664062 9.453125 -21.03125 C 8.929688 -19.40625 8.367188 -17.898438 7.765625 -16.515625 C 7.367188 -15.828125 7.210938 -15.25 7.296875 -14.78125 L 7.296875 3.515625 C 7.296875 4.117188 7.003906 4.421875 6.421875 4.421875 L 4.921875 4.421875 C 4.316406 4.421875 4.015625 4.128906 4.015625 3.546875 L 4.015625 -8.78125 C 4.015625 -9.289062 3.867188 -9.320312 3.578125 -8.875 C 3.304688 -8.539062 3.003906 -8.675781 2.671875 -9.28125 L 1.90625 -10.75 C 1.59375 -11.332031 1.640625 -11.9375 2.046875 -12.5625 C 4.003906 -15.757812 5.410156 -18.882812 6.265625 -21.9375 Z M 15.078125 -21.578125 C 15.296875 -22.203125 15.664062 -22.425781 16.1875 -22.25 L 17.59375 -21.78125 C 18.207031 -21.570312 18.453125 -21.289062 18.328125 -20.9375 C 18.210938 -20.5625 18.390625 -20.375 18.859375 -20.375 L 26.625 -20.375 C 27.226562 -20.375 27.53125 -20.082031 27.53125 -19.5 L 27.53125 -18.296875 C 27.53125 -17.691406 27.265625 -17.390625 26.734375 -17.390625 C 26.210938 -17.390625 25.765625 -17.097656 25.390625 -16.515625 C 24.984375 -15.867188 24.492188 -15.222656 23.921875 -14.578125 C 23.492188 -14.109375 23.570312 -13.75 24.15625 -13.5 C 25 -13.1875 26.269531 -12.832031 27.96875 -12.4375 C 28.6875 -12.300781 28.898438 -11.921875 28.609375 -11.296875 L 28 -9.984375 C 27.707031 -9.359375 27.273438 -9.113281 26.703125 -9.25 C 25.359375 -9.582031 24.128906 -9.953125 23.015625 -10.359375 C 22.472656 -10.554688 22.453125 -10.363281 22.953125 -9.78125 C 23.503906 -9.15625 23.503906 -8.640625 22.953125 -8.234375 C 20.890625 -6.722656 18.472656 -5.5625 15.703125 -4.75 C 15.109375 -4.570312 14.609375 -4.773438 14.203125 -5.359375 L 13.46875 -6.53125 C 13.101562 -7.113281 13.210938 -7.492188 13.796875 -7.671875 C 16.609375 -8.472656 18.878906 -9.429688 20.609375 -10.546875 C 21.140625 -10.890625 21.269531 -11.128906 21 -11.265625 C 20.6875 -11.441406 20.320312 -11.414062 19.90625 -11.1875 C 18.445312 -10.320312 16.757812 -9.609375 14.84375 -9.046875 C 14.101562 -8.816406 13.578125 -9.015625 13.265625 -9.640625 C 13.035156 -10.046875 12.832031 -10.453125 12.65625 -10.859375 C 12.375 -11.441406 12.53125 -11.804688 13.125 -11.953125 C 14.175781 -12.203125 15.382812 -12.640625 16.75 -13.265625 C 17.175781 -13.492188 17.109375 -13.851562 16.546875 -14.34375 C 16.015625 -14.832031 15.601562 -14.84375 15.3125 -14.375 C 14.96875 -13.882812 14.488281 -13.859375 13.875 -14.296875 L 13.0625 -14.90625 C 12.414062 -15.375 12.28125 -15.898438 12.65625 -16.484375 C 13.6875 -18.109375 14.492188 -19.804688 15.078125 -21.578125 Z M 21.109375 -16.34375 C 22.109375 -17.238281 22.171875 -17.585938 21.296875 -17.390625 L 18.921875 -17.390625 C 18.410156 -17.390625 18.445312 -17.109375 19.03125 -16.546875 L 19.390625 -16.25 C 19.972656 -15.78125 20.546875 -15.8125 21.109375 -16.34375 Z M 8.578125 -15.953125 C 8.578125 -16.554688 8.863281 -16.859375 9.4375 -16.859375 L 10.8125 -16.859375 C 11.414062 -16.859375 11.71875 -16.566406 11.71875 -15.984375 L 11.71875 -0.46875 C 11.71875 0.132812 11.425781 0.4375 10.84375 0.4375 L 9.484375 0.4375 C 8.878906 0.4375 8.578125 0.144531 8.578125 -0.4375 Z M 23.375 -7.09375 C 24.03125 -7.5 24.59375 -7.445312 25.0625 -6.9375 C 25.28125 -6.664062 25.523438 -6.394531 25.796875 -6.125 C 26.347656 -5.519531 26.335938 -5.007812 25.765625 -4.59375 C 22.453125 -2.382812 19.132812 -0.882812 15.8125 -0.09375 C 15.132812 0.0820312 14.585938 -0.148438 14.171875 -0.796875 L 13.390625 -2.046875 C 13.015625 -2.628906 13.117188 -3 13.703125 -3.15625 C 17.273438 -4.113281 20.5 -5.425781 23.375 -7.09375 Z M 25.71875 -3.375 C 26.320312 -3.894531 26.863281 -3.863281 27.34375 -3.28125 L 28.140625 -2.40625 C 28.585938 -1.9375 28.539062 -1.445312 28 -0.9375 C 25.1875 1.445312 21.398438 3.125 16.640625 4.09375 C 15.503906 4.351562 14.679688 4.492188 14.171875 4.515625 C 13.742188 3.847656 13.34375 3.179688 12.96875 2.515625 C 12.632812 1.929688 12.773438 1.582031 13.390625 1.46875 C 14.828125 1.175781 16.269531 0.84375 17.71875 0.46875 C 20.914062 -0.382812 23.582031 -1.664062 25.71875 -3.375 Z M 25.71875 -3.375 "/></g></g><g transform="translate(112.43999, 213.697243)"><g><path d="M 17.078125 -21.375 C 17.242188 -22.132812 17.601562 -22.4375 18.15625 -22.28125 L 19.5625 -21.875 C 20.226562 -21.675781 20.5 -21.253906 20.375 -20.609375 L 20.0625 -19.234375 C 19.957031 -18.765625 20.140625 -18.53125 20.609375 -18.53125 L 27.53125 -18.53125 C 28.132812 -18.53125 28.4375 -18.238281 28.4375 -17.65625 L 28.4375 -16.15625 C 28.4375 -15.550781 28.21875 -15.25 27.78125 -15.25 C 27.332031 -15.25 27.0625 -14.957031 26.96875 -14.375 C 26.5625 -10.726562 25.535156 -7.34375 23.890625 -4.21875 C 23.597656 -3.726562 23.707031 -3.203125 24.21875 -2.640625 C 25.332031 -1.460938 26.53125 -0.445312 27.8125 0.40625 C 28.457031 0.832031 28.585938 1.34375 28.203125 1.9375 L 27.078125 3.609375 C 26.710938 4.128906 26.21875 4.15625 25.59375 3.6875 C 24.207031 2.613281 22.976562 1.472656 21.90625 0.265625 C 21.507812 -0.160156 21.007812 -0.0625 20.40625 0.5625 C 18.976562 1.96875 17.59375 3.054688 16.25 3.828125 C 15.550781 4.222656 14.945312 4.109375 14.4375 3.484375 L 13.875 2.75 C 13.351562 2.101562 13.351562 1.613281 13.875 1.28125 C 15.59375 0.3125 17.195312 -1.003906 18.6875 -2.671875 C 19.050781 -3.097656 19.066406 -3.625 18.734375 -4.25 C 18.035156 -5.59375 17.421875 -7.015625 16.890625 -8.515625 C 16.734375 -9.023438 16.507812 -8.976562 16.21875 -8.375 C 15.945312 -7.84375 15.488281 -7.820312 14.84375 -8.3125 L 13.96875 -8.953125 C 13.476562 -9.328125 13.234375 -9.457031 13.234375 -9.34375 C 13.210938 -9.226562 12.910156 -9.171875 12.328125 -9.171875 L 6.46875 -9.171875 C 5.976562 -9.171875 5.734375 -8.9375 5.734375 -8.46875 L 5.734375 -2.25 C 5.554688 -1.351562 5.890625 -0.875 6.734375 -0.8125 C 8.003906 -0.695312 9.078125 -0.847656 9.953125 -1.265625 C 10.242188 -1.453125 10.421875 -1.910156 10.484375 -2.640625 L 10.625 -4.953125 C 10.644531 -5.535156 10.945312 -5.691406 11.53125 -5.421875 C 12.019531 -5.203125 12.507812 -4.957031 13 -4.6875 C 13.644531 -4.351562 13.945312 -3.863281 13.90625 -3.21875 C 13.789062 -1.5 13.476562 -0.00390625 12.96875 1.265625 C 12.789062 1.609375 12.429688 1.890625 11.890625 2.109375 C 11.023438 2.285156 10.046875 2.394531 8.953125 2.4375 L 5.96875 2.4375 C 4.914062 2.375 4.132812 2.285156 3.625 2.171875 C 2.769531 1.640625 2.34375 0.722656 2.34375 -0.578125 L 2.34375 -11.53125 C 2.34375 -12.132812 2.632812 -12.4375 3.21875 -12.4375 L 8.984375 -12.4375 C 9.472656 -12.4375 9.71875 -12.671875 9.71875 -13.140625 L 9.71875 -17.21875 C 9.71875 -17.707031 9.484375 -17.953125 9.015625 -17.953125 L 3.015625 -17.953125 C 2.410156 -17.953125 2.109375 -18.242188 2.109375 -18.828125 L 2.109375 -20.328125 C 2.109375 -20.929688 2.398438 -21.234375 2.984375 -21.234375 L 12.328125 -21.234375 C 12.929688 -21.234375 13.234375 -20.9375 13.234375 -20.34375 L 13.234375 -11.734375 C 13.234375 -11.078125 13.410156 -11.085938 13.765625 -11.765625 C 15.285156 -15.285156 16.390625 -18.488281 17.078125 -21.375 Z M 23.578125 -14.53125 C 23.648438 -15.007812 23.453125 -15.25 22.984375 -15.25 L 19.671875 -15.25 C 19.203125 -15.25 18.863281 -14.957031 18.65625 -14.375 C 18.320312 -13.925781 18.300781 -13.4375 18.59375 -12.90625 C 19.101562 -11.195312 19.882812 -9.316406 20.9375 -7.265625 C 21.1875 -6.816406 21.457031 -6.910156 21.75 -7.546875 C 22.632812 -9.722656 23.242188 -12.050781 23.578125 -14.53125 Z M 23.578125 -14.53125 "/></g></g></g><g fill="#ffffff" fill-opacity="1"><g transform="translate(49.778121, 254.92524)"><g><path d="M 1.5 -19.203125 C 1.5 -19.828125 1.769531 -20.140625 2.3125 -20.140625 L 4.390625 -20.140625 C 4.992188 -20.140625 5.296875 -19.847656 5.296875 -19.265625 L 5.296875 -2.515625 C 5.296875 -2.023438 5.53125 -1.78125 6 -1.78125 L 14.546875 -1.78125 C 15.148438 -1.78125 15.453125 -1.488281 15.453125 -0.90625 L 15.453125 0.96875 C 15.453125 1.570312 15.160156 1.875 14.578125 1.875 L 2.40625 1.875 C 1.800781 1.875 1.5 1.582031 1.5 1 Z M 1.5 -19.203125 "/></g></g><g transform="translate(66.029213, 254.92524)"><g><path d="M 1.5 -19.203125 C 1.5 -19.828125 1.769531 -20.140625 2.3125 -20.140625 L 4.421875 -20.140625 C 5.023438 -20.140625 5.328125 -19.847656 5.328125 -19.265625 L 5.328125 0.96875 C 5.328125 1.570312 5.035156 1.875 4.453125 1.875 L 2.40625 1.875 C 1.800781 1.875 1.5 1.582031 1.5 1 Z M 1.5 -19.203125 "/></g></g><g transform="translate(72.881025, 254.92524)"><g><path d="M 1.5 -19.203125 C 1.5 -19.828125 1.769531 -20.140625 2.3125 -20.140625 L 4.484375 -20.140625 C 5.066406 -20.140625 5.550781 -19.847656 5.9375 -19.265625 C 8.789062 -14.773438 11.671875 -10.285156 14.578125 -5.796875 C 14.972656 -5.253906 15.171875 -5.296875 15.171875 -5.921875 L 15.171875 -19.234375 C 15.171875 -19.835938 15.460938 -20.140625 16.046875 -20.140625 L 18.125 -20.140625 C 18.726562 -20.140625 19.03125 -19.847656 19.03125 -19.265625 L 19.03125 0.96875 C 19.03125 1.570312 18.738281 1.875 18.15625 1.875 L 16.15625 1.875 C 15.570312 1.875 15.078125 1.582031 14.671875 1 C 11.816406 -3.507812 8.925781 -8.03125 6 -12.5625 C 5.59375 -13.09375 5.390625 -13.0625 5.390625 -12.46875 L 5.390625 0.96875 C 5.390625 1.570312 5.097656 1.875 4.515625 1.875 L 2.40625 1.875 C 1.800781 1.875 1.5 1.582031 1.5 1 Z M 1.5 -19.203125 "/></g></g><g transform="translate(93.436461, 254.92524)"><g><path d="M 1.5 -19.203125 C 1.5 -19.828125 1.769531 -20.140625 2.3125 -20.140625 L 17.125 -20.140625 C 17.726562 -20.140625 18.03125 -19.847656 18.03125 -19.265625 L 18.03125 -17.421875 C 18.03125 -16.816406 17.738281 -16.515625 17.15625 -16.515625 L 6.03125 -16.515625 C 5.539062 -16.515625 5.296875 -16.28125 5.296875 -15.8125 L 5.296875 -12 C 5.296875 -11.507812 5.53125 -11.265625 6 -11.265625 L 16.78125 -11.265625 C 17.382812 -11.265625 17.6875 -10.972656 17.6875 -10.390625 L 17.6875 -8.546875 C 17.6875 -7.941406 17.394531 -7.640625 16.8125 -7.640625 L 6.03125 -7.640625 C 5.539062 -7.640625 5.296875 -7.40625 5.296875 -6.9375 L 5.296875 -2.484375 C 5.296875 -1.992188 5.53125 -1.75 6 -1.75 L 17.5625 -1.75 C 18.175781 -1.75 18.484375 -1.457031 18.484375 -0.875 L 18.484375 0.96875 C 18.484375 1.570312 18.1875 1.875 17.59375 1.875 L 2.40625 1.875 C 1.800781 1.875 1.5 1.582031 1.5 1 Z M 1.5 -19.203125 "/></g></g><g transform="translate(112.820647, 254.92524)"><g/></g><g transform="translate(127.812646, 254.92524)"><g><path d="M 1.5 -19.203125 C 1.5 -19.828125 1.769531 -20.140625 2.3125 -20.140625 L 10.21875 -20.140625 C 12.007812 -20.003906 13.570312 -19.351562 14.90625 -18.1875 C 16.382812 -16.519531 16.898438 -14.742188 16.453125 -12.859375 C 16.378906 -12.191406 15.988281 -11.410156 15.28125 -10.515625 C 14.78125 -10.003906 14.757812 -9.570312 15.21875 -9.21875 C 16.53125 -8.164062 17.253906 -6.800781 17.390625 -5.125 C 17.503906 -1.039062 15.25 1.289062 10.625 1.875 L 2.40625 1.875 C 1.800781 1.875 1.5 1.582031 1.5 1 Z M 9.28125 -16.578125 L 6.03125 -16.578125 C 5.539062 -16.578125 5.296875 -16.34375 5.296875 -15.875 L 5.296875 -11.96875 C 5.296875 -11.488281 5.53125 -11.25 6 -11.25 L 9.421875 -11.25 C 10.441406 -11.320312 11.222656 -11.59375 11.765625 -12.0625 C 12.179688 -12.375 12.445312 -12.875 12.5625 -13.5625 C 12.5625 -15.550781 11.46875 -16.554688 9.28125 -16.578125 Z M 11.25 -7.375 C 10.050781 -7.644531 8.3125 -7.753906 6.03125 -7.703125 C 5.539062 -7.703125 5.296875 -7.46875 5.296875 -7 L 5.296875 -2.4375 C 5.296875 -1.945312 5.53125 -1.703125 6 -1.703125 L 9.6875 -1.703125 C 11.039062 -1.679688 12.125 -2.117188 12.9375 -3.015625 C 13.332031 -3.679688 13.488281 -4.382812 13.40625 -5.125 C 13.351562 -6.15625 12.632812 -6.90625 11.25 -7.375 Z M 11.25 -7.375 "/></g></g><g transform="translate(146.113425, 254.92524)"><g><path d="M 3.875 -12.265625 C 5.84375 -13.785156 8.125 -14.296875 10.71875 -13.796875 C 13.488281 -13.128906 15.328125 -11.320312 16.234375 -8.375 C 16.992188 -5.539062 16.515625 -2.90625 14.796875 -0.46875 C 13.585938 1.03125 12.070312 1.910156 10.25 2.171875 C 8.320312 2.484375 6.46875 2.140625 4.6875 1.140625 C 3.4375 0.265625 2.507812 -0.835938 1.90625 -2.171875 C 1.226562 -4.117188 1.0625 -5.988281 1.40625 -7.78125 C 1.71875 -9.488281 2.539062 -10.984375 3.875 -12.265625 Z M 7.9375 -10.390625 C 7.0625 -10.179688 6.347656 -9.617188 5.796875 -8.703125 C 4.941406 -7.210938 4.835938 -5.492188 5.484375 -3.546875 C 6.335938 -1.710938 7.742188 -0.957031 9.703125 -1.28125 C 10.484375 -1.382812 11.234375 -1.914062 11.953125 -2.875 C 12.890625 -4.488281 13.003906 -6.253906 12.296875 -8.171875 C 11.347656 -10.085938 9.894531 -10.828125 7.9375 -10.390625 Z M 7.9375 -10.390625 "/></g></g><g transform="translate(163.242955, 254.92524)"><g><path d="M 6.828125 -17.6875 C 7.460938 -18 7.78125 -17.890625 7.78125 -17.359375 L 7.78125 -14.234375 C 7.78125 -13.742188 8.015625 -13.5 8.484375 -13.5 L 10.515625 -13.5 C 11.117188 -13.5 11.421875 -13.207031 11.421875 -12.625 L 11.421875 -10.890625 C 11.421875 -10.285156 11.128906 -9.984375 10.546875 -9.984375 L 8.515625 -9.984375 C 8.023438 -9.984375 7.78125 -9.75 7.78125 -9.28125 L 7.78125 -3.015625 C 7.59375 -1.960938 8.070312 -1.484375 9.21875 -1.578125 L 10.1875 -1.578125 C 10.789062 -1.578125 11.09375 -1.285156 11.09375 -0.703125 L 11.09375 0.9375 C 11.09375 1.539062 10.800781 1.84375 10.21875 1.84375 L 7.8125 1.84375 C 5.820312 1.726562 4.625 0.6875 4.21875 -1.28125 C 4.21875 -1.476562 4.1875 -1.710938 4.125 -1.984375 L 4.125 -9.25 C 4.125 -9.738281 3.890625 -9.984375 3.421875 -9.984375 L 1.671875 -9.984375 C 1.066406 -9.984375 0.765625 -10.273438 0.765625 -10.859375 L 0.765625 -12.59375 C 0.765625 -13.195312 1.054688 -13.5 1.640625 -13.5 L 3.390625 -13.5 C 3.878906 -13.5 4.125 -13.734375 4.125 -14.203125 L 4.125 -15.453125 C 4.125 -16.046875 4.414062 -16.5 5 -16.8125 Z M 6.828125 -17.6875 "/></g></g></g></svg>