<svg xmlns="http://www.w3.org/2000/svg" xmlns:xlink="http://www.w3.org/1999/xlink" width="300" zoomAndPan="magnify" viewBox="0 0 224.87999 299.999988" height="400" preserveAspectRatio="xMidYMid meet" version="1.0"><defs><g/><clipPath id="28303f17cd"><path d="M 0 0.078125 L 224.761719 0.078125 L 224.761719 299.917969 L 0 299.917969 Z M 0 0.078125 " clip-rule="nonzero"/></clipPath><clipPath id="be04e7eaeb"><path d="M 50 152 L 81 152 L 81 167.992188 L 50 167.992188 Z M 50 152 " clip-rule="nonzero"/></clipPath><clipPath id="17278d33e4"><path d="M 135 152 L 166 152 L 166 167.992188 L 135 167.992188 Z M 135 152 " clip-rule="nonzero"/></clipPath><clipPath id="2dc26643ee"><path d="M 169 46 L 179.902344 46 L 179.902344 125 L 169 125 Z M 169 46 " clip-rule="nonzero"/></clipPath><clipPath id="ed49704d3e"><path d="M 72 38.308594 L 108 38.308594 L 108 111 L 72 111 Z M 72 38.308594 " clip-rule="nonzero"/></clipPath><clipPath id="be29460b72"><path d="M 120 38.308594 L 172 38.308594 L 172 98 L 120 98 Z M 120 38.308594 " clip-rule="nonzero"/></clipPath><clipPath id="1e74087ae6"><path d="M 85 64 L 111 64 L 111 91 L 85 91 Z M 85 64 " clip-rule="nonzero"/></clipPath><clipPath id="76eef0486b"><path d="M 82.757812 63.457031 L 115.6875 65.289062 L 114.230469 91.484375 L 81.300781 89.652344 Z M 82.757812 63.457031 " clip-rule="nonzero"/></clipPath><clipPath id="c0747c389e"><path d="M 82.757812 63.457031 L 115.6875 65.289062 L 114.230469 91.484375 L 81.300781 89.652344 Z M 82.757812 63.457031 " clip-rule="nonzero"/></clipPath><clipPath id="7e4011b5e1"><path d="M 81 74 L 85 74 L 85 84 L 81 84 Z M 81 74 " clip-rule="nonzero"/></clipPath><clipPath id="10d9e1d737"><path d="M 82.757812 63.457031 L 115.6875 65.289062 L 114.230469 91.484375 L 81.300781 89.652344 Z M 82.757812 63.457031 " clip-rule="nonzero"/></clipPath><clipPath id="207bbde5b5"><path d="M 82.757812 63.457031 L 115.6875 65.289062 L 114.230469 91.484375 L 81.300781 89.652344 Z M 82.757812 63.457031 " clip-rule="nonzero"/></clipPath><clipPath id="c8b692c95c"><path d="M 111 75 L 115 75 L 115 85 L 111 85 Z M 111 75 " clip-rule="nonzero"/></clipPath><clipPath id="b0d4bfed33"><path d="M 82.757812 63.457031 L 115.6875 65.289062 L 114.230469 91.484375 L 81.300781 89.652344 Z M 82.757812 63.457031 " clip-rule="nonzero"/></clipPath><clipPath id="692d1d7ac4"><path d="M 82.757812 63.457031 L 115.6875 65.289062 L 114.230469 91.484375 L 81.300781 89.652344 Z M 82.757812 63.457031 " clip-rule="nonzero"/></clipPath></defs><g clip-path="url(#28303f17cd)"><path fill="#ffffff" d="M 0 0.078125 L 224.878906 0.078125 L 224.878906 299.921875 L 0 299.921875 Z M 0 0.078125 " fill-opacity="1" fill-rule="nonzero"/><path fill="#c0dd9b" d="M 0 0.078125 L 224.878906 0.078125 L 224.878906 299.921875 L 0 299.921875 Z M 0 0.078125 " fill-opacity="1" fill-rule="nonzero"/></g><path fill="#ffffff" d="M 53.578125 155.484375 L 50.796875 153.546875 C 52.222656 151.496094 52.242188 144.71875 51.914062 140.792969 C 50.21875 135.394531 45.03125 118.570312 45.238281 115.589844 C 45.40625 113.148438 46.117188 111.644531 47.535156 108.648438 C 48.042969 107.570312 48.675781 106.230469 49.421875 104.550781 C 52.203125 98.304688 63.152344 82.246094 63.617188 81.566406 C 64.042969 80.945312 64.824219 80.675781 65.539062 80.90625 C 66.253906 81.136719 66.734375 81.808594 66.714844 82.5625 C 66.320312 99.558594 66.640625 118.449219 67.867188 120.773438 C 68.035156 120.964844 68.292969 121.15625 68.875 121.15625 C 68.960938 121.15625 69.109375 121.132812 69.257812 121.113281 L 69.332031 121.101562 C 70.652344 120.917969 72.199219 120.058594 73.019531 119.53125 L 76.59375 110.566406 C 76.796875 110.0625 77.09375 109.4375 77.453125 108.761719 C 78.707031 106.40625 83.257812 98.71875 89.128906 98.71875 C 90.011719 98.71875 90.878906 98.898438 91.707031 99.25 C 96.898438 101.460938 93.710938 109.234375 92.347656 112.554688 C 91.882812 113.691406 91.328125 114.953125 90.652344 116.417969 C 90.1875 117.429688 89.710938 118.433594 89.25 119.410156 C 88.949219 120.050781 88.652344 120.679688 88.367188 121.289062 C 87.855469 122.382812 87.464844 123.246094 87.136719 124.007812 C 86.730469 124.957031 86.429688 125.730469 86.214844 126.367188 C 84.117188 132.65625 79.855469 138.816406 78.664062 140.472656 L 77.863281 154.746094 L 74.476562 154.554688 L 75.304688 139.78125 C 75.320312 139.445312 75.4375 139.125 75.640625 138.859375 C 75.691406 138.789062 80.773438 131.964844 82.996094 125.292969 C 83.238281 124.566406 83.574219 123.707031 84.019531 122.667969 C 84.363281 121.871094 84.765625 120.980469 85.292969 119.855469 C 85.578125 119.238281 85.878906 118.605469 86.183594 117.964844 C 86.640625 116.992188 87.109375 116 87.570312 115 C 88.226562 113.578125 88.761719 112.355469 89.207031 111.265625 C 92.0625 104.308594 91.167969 102.707031 90.378906 102.375 C 89.96875 102.199219 89.558594 102.113281 89.128906 102.113281 C 86.164062 102.113281 82.632812 106.253906 80.445312 110.359375 C 80.148438 110.917969 79.898438 111.441406 79.742188 111.828125 L 75.980469 121.265625 C 75.859375 121.5625 75.660156 121.820312 75.402344 122.011719 C 75.109375 122.222656 72.488281 124.085938 69.796875 124.464844 L 69.726562 124.472656 C 69.488281 124.507812 69.195312 124.546875 68.875 124.546875 C 67.347656 124.546875 66.074219 123.960938 65.1875 122.855469 C 64.546875 122.054688 63.359375 120.566406 63.191406 101.074219 C 63.152344 96.363281 63.183594 91.714844 63.226562 88.242188 C 59.695312 93.582031 54.269531 102 52.523438 105.929688 C 51.761719 107.644531 51.117188 109.003906 50.601562 110.097656 C 49.253906 112.953125 48.746094 114.023438 48.621094 115.824219 C 48.527344 117.515625 51.894531 129.421875 55.207031 139.953125 C 55.242188 140.070312 55.265625 140.191406 55.277344 140.3125 C 55.378906 141.46875 56.195312 151.726562 53.578125 155.484375 Z M 53.578125 155.484375 " fill-opacity="1" fill-rule="nonzero"/><g clip-path="url(#be04e7eaeb)"><path fill="#ffffff" d="M 78.472656 168.171875 L 52.1875 168.171875 C 51.25 168.171875 50.492188 167.410156 50.492188 166.472656 L 50.492188 154.515625 C 50.492188 153.578125 51.25 152.820312 52.1875 152.820312 L 78.472656 152.820312 C 79.410156 152.820312 80.167969 153.578125 80.167969 154.515625 L 80.167969 166.472656 C 80.167969 167.410156 79.410156 168.171875 78.472656 168.171875 Z M 53.882812 164.777344 L 76.777344 164.777344 L 76.777344 156.210938 L 53.882812 156.210938 Z M 53.882812 164.777344 " fill-opacity="1" fill-rule="nonzero"/></g><path fill="#ffffff" d="M 138.578125 154.765625 C 138.5 154.246094 136.664062 141.957031 136.582031 138.113281 C 136.511719 134.953125 136.121094 132.535156 134.265625 128.804688 L 134.238281 128.75 C 133.964844 128.203125 133.664062 127.628906 133.339844 127.050781 C 132.867188 126.203125 132.410156 125.457031 131.980469 124.839844 C 131 123.417969 129.898438 121.945312 128.832031 120.519531 C 126 116.726562 123.324219 113.144531 122.300781 109.996094 C 122.128906 109.476562 122.007812 108.953125 121.933594 108.449219 C 121.574219 105.960938 122.613281 104.417969 123.546875 103.566406 C 124.65625 102.550781 125.878906 102.035156 127.175781 102.035156 C 130.367188 102.035156 133.09375 105.125 135.558594 108.460938 C 135.609375 108.527344 135.660156 108.601562 135.710938 108.675781 L 135.804688 108.804688 C 135.871094 108.894531 135.933594 108.984375 136 109.074219 L 137.167969 78.75 C 137.167969 78.144531 137.265625 74.355469 139.542969 72.054688 C 140.632812 70.957031 142.070312 70.371094 143.695312 70.367188 C 145.339844 70.367188 146.75 70.957031 147.796875 72.066406 C 150 74.402344 149.910156 78.277344 149.878906 78.9375 L 149.878906 95.4375 C 150.488281 95.246094 151.121094 95.148438 151.765625 95.148438 C 151.878906 95.148438 151.984375 95.15625 152.09375 95.171875 C 153.203125 95.222656 154.351562 95.550781 155.503906 96.148438 C 155.777344 96.289062 156.027344 96.433594 156.253906 96.574219 C 157.117188 95.917969 158.164062 95.578125 159.339844 95.578125 L 159.34375 95.578125 C 160.179688 95.578125 161.082031 95.757812 162.019531 96.105469 C 162.441406 96.265625 162.824219 96.441406 163.152344 96.605469 C 165 95.394531 167.304688 95.273438 169.6875 96.300781 C 170.835938 96.796875 171.617188 97.386719 171.703125 97.453125 C 171.96875 97.65625 172.167969 97.9375 172.277344 98.253906 C 172.304688 98.339844 172.328125 98.425781 172.355469 98.511719 L 172.382812 98.613281 C 173.480469 101.960938 174.222656 105.554688 174.589844 109.308594 C 175.761719 121.386719 171.136719 131.371094 170.941406 131.789062 L 163.847656 147.414062 L 163.40625 153.550781 L 160.023438 153.304688 L 160.484375 146.867188 C 160.5 146.667969 160.550781 146.472656 160.632812 146.289062 L 167.859375 130.367188 C 167.914062 130.25 172.292969 120.753906 171.210938 109.636719 C 170.878906 106.207031 170.210938 102.925781 169.226562 99.875 C 169.003906 99.738281 168.699219 99.570312 168.34375 99.417969 C 166.765625 98.738281 165.511719 98.863281 164.5 99.863281 C 163.917969 100.441406 163.007812 100.515625 162.335938 100.046875 C 162.332031 100.046875 161.6875 99.605469 160.832031 99.285156 C 160.273438 99.078125 159.773438 98.972656 159.34375 98.972656 C 158.679688 98.972656 158.234375 99.210938 157.855469 99.765625 C 157.582031 100.171875 157.144531 100.4375 156.660156 100.496094 C 156.171875 100.554688 155.683594 100.402344 155.320312 100.074219 C 155.320312 100.074219 154.765625 99.589844 153.945312 99.164062 C 153.222656 98.789062 152.535156 98.585938 151.910156 98.558594 C 151.839844 98.554688 151.773438 98.550781 151.707031 98.542969 C 151.09375 98.554688 150.484375 98.773438 149.90625 99.191406 L 149.789062 99.273438 C 149.671875 99.359375 149.578125 99.425781 149.507812 99.488281 C 148.886719 100.054688 147.941406 100.082031 147.289062 99.546875 C 147.261719 99.523438 147.230469 99.496094 147.203125 99.472656 C 147.207031 99.476562 147.195312 99.464844 147.128906 99.414062 C 146.722656 99.089844 146.484375 98.601562 146.484375 98.082031 L 146.484375 78.894531 C 146.484375 78.859375 146.488281 78.828125 146.488281 78.792969 C 146.53125 77.960938 146.410156 75.535156 145.324219 74.386719 C 144.917969 73.960938 144.40625 73.761719 143.714844 73.761719 C 142.972656 73.761719 142.414062 73.980469 141.953125 74.445312 C 140.800781 75.609375 140.554688 78.019531 140.558594 78.769531 C 140.558594 78.796875 140.558594 78.820312 140.558594 78.847656 L 139.195312 114.265625 C 139.167969 114.996094 138.675781 115.625 137.972656 115.828125 C 137.273438 116.03125 136.515625 115.761719 136.101562 115.15625 L 135.996094 115.003906 C 134.980469 113.515625 134.019531 112.113281 133.0625 110.804688 L 132.9375 110.628906 C 132.902344 110.578125 132.867188 110.527344 132.832031 110.480469 C 131.910156 109.230469 129.097656 105.429688 127.175781 105.429688 C 127.019531 105.429688 126.535156 105.429688 125.835938 106.070312 C 125.476562 106.398438 125.132812 106.875 125.292969 107.964844 C 125.335938 108.277344 125.417969 108.609375 125.527344 108.945312 C 126.378906 111.566406 129.007812 115.085938 131.550781 118.488281 C 132.632812 119.941406 133.753906 121.4375 134.773438 122.910156 C 135.261719 123.617188 135.777344 124.457031 136.304688 125.398438 C 136.652344 126.023438 136.976562 126.640625 137.273438 127.234375 L 137.304688 127.289062 C 139.421875 131.554688 139.894531 134.5625 139.972656 138.039062 C 140.054688 141.667969 141.917969 154.136719 141.9375 154.265625 Z M 138.578125 154.765625 " fill-opacity="1" fill-rule="nonzero"/><g clip-path="url(#17278d33e4)"><path fill="#ffffff" d="M 163.625 168.171875 L 137.339844 168.171875 C 136.402344 168.171875 135.644531 167.410156 135.644531 166.472656 L 135.644531 154.515625 C 135.644531 153.578125 136.402344 152.820312 137.339844 152.820312 L 163.625 152.820312 C 164.5625 152.820312 165.324219 153.578125 165.324219 154.515625 L 165.324219 166.472656 C 165.320312 167.410156 164.5625 168.171875 163.625 168.171875 Z M 139.039062 164.777344 L 161.929688 164.777344 L 161.929688 156.210938 L 139.039062 156.210938 Z M 139.039062 164.777344 " fill-opacity="1" fill-rule="nonzero"/></g><g clip-path="url(#2dc26643ee)"><path fill="#ffffff" d="M 179.820312 124.148438 L 172.097656 124.148438 L 172.097656 120.753906 L 176.429688 120.753906 L 176.429688 50.074219 L 169.585938 50.074219 L 169.585938 46.679688 L 179.820312 46.679688 Z M 179.820312 124.148438 " fill-opacity="1" fill-rule="nonzero"/></g><path fill="#ffffff" d="M 121.546875 129.644531 C 117.421875 129.644531 113.613281 127.5625 111.375 124.148438 L 86.203125 124.148438 L 86.203125 120.753906 L 113.347656 120.753906 L 113.828125 121.644531 C 115.363281 124.484375 118.320312 126.25 121.546875 126.25 C 124.773438 126.25 127.726562 124.484375 129.261719 121.644531 L 129.742188 120.753906 L 132.363281 120.753906 L 132.363281 124.148438 L 131.71875 124.148438 C 129.480469 127.5625 125.671875 129.644531 121.546875 129.644531 Z M 121.546875 129.644531 " fill-opacity="1" fill-rule="nonzero"/><path fill="#ffffff" d="M 66.664062 82.492188 L 63.273438 82.492188 L 63.273438 46.679688 L 73.507812 46.679688 L 73.507812 50.074219 L 66.664062 50.074219 Z M 66.664062 82.492188 " fill-opacity="1" fill-rule="nonzero"/><g clip-path="url(#ed49704d3e)"><path fill="#ffffff" d="M 72.292969 110.789062 L 72.292969 38.371094 L 76.003906 38.316406 C 76.019531 38.316406 76.03125 38.316406 76.046875 38.316406 C 77.976562 38.316406 84.316406 40.214844 94.488281 43.328125 C 99.730469 44.933594 106.257812 46.933594 107.335938 47.011719 L 107.085938 50.394531 C 105.695312 50.292969 101.246094 48.945312 93.496094 46.574219 C 87.164062 44.636719 77.609375 41.710938 76.070312 41.710938 C 76.066406 41.710938 76.058594 41.710938 76.054688 41.710938 L 75.6875 41.714844 L 75.6875 107.347656 L 76.066406 107.339844 C 77.324219 107.324219 78.640625 107.335938 79.972656 107.378906 L 79.863281 110.769531 C 78.582031 110.730469 77.320312 110.71875 76.113281 110.734375 Z M 72.292969 110.789062 " fill-opacity="1" fill-rule="nonzero"/></g><path fill="#ffffff" d="M 121.546875 119.863281 L 120.789062 119.480469 C 115.882812 117.03125 103.867188 113.492188 91.257812 111.765625 L 91.71875 108.40625 C 104.234375 110.117188 115.921875 113.488281 121.546875 116.082031 C 122.957031 115.433594 124.730469 114.75 126.828125 114.042969 L 127.910156 117.257812 C 125.597656 118.035156 123.660156 118.804688 122.304688 119.484375 Z M 121.546875 119.863281 " fill-opacity="1" fill-rule="nonzero"/><g clip-path="url(#be29460b72)"><path fill="#ffffff" d="M 171.1875 97.664062 L 167.796875 97.664062 L 167.796875 41.714844 L 167.429688 41.710938 C 167.421875 41.710938 167.417969 41.710938 167.410156 41.710938 C 165.773438 41.710938 155.824219 44.707031 149.234375 46.695312 C 141.859375 48.917969 137.160156 50.316406 135.550781 50.519531 L 121.378906 54.257812 L 120.515625 50.976562 L 134.960938 47.164062 L 135.113281 47.152344 C 136.234375 47.066406 142.621094 45.144531 148.253906 43.445312 C 158.828125 40.257812 165.417969 38.316406 167.433594 38.316406 C 167.449219 38.316406 167.464844 38.316406 167.480469 38.316406 L 171.1875 38.371094 Z M 171.1875 97.664062 " fill-opacity="1" fill-rule="nonzero"/></g><path fill="#ffffff" d="M 121.546875 119.660156 C 120.613281 119.660156 119.855469 118.910156 119.851562 117.972656 L 119.546875 66.777344 L 119.277344 53.90625 L 106.746094 50.335938 C 105.84375 50.078125 105.320312 49.140625 105.578125 48.238281 C 105.835938 47.335938 106.773438 46.816406 107.675781 47.070312 L 122.617188 51.328125 L 122.941406 66.730469 L 123.242188 117.953125 C 123.25 118.890625 122.492188 119.65625 121.554688 119.660156 C 121.554688 119.660156 121.550781 119.660156 121.546875 119.660156 Z M 121.546875 119.660156 " fill-opacity="1" fill-rule="nonzero"/><g clip-path="url(#1e74087ae6)"><g clip-path="url(#76eef0486b)"><g clip-path="url(#c0747c389e)"><path fill="#ffffff" d="M 104.515625 90.722656 L 90.714844 89.953125 C 87.675781 89.785156 85.347656 87.183594 85.515625 84.160156 L 86.015625 75.21875 C 86.183594 72.179688 88.785156 69.851562 91.824219 70.019531 L 98.132812 70.371094 L 98.269531 68.269531 C 97.460938 67.976562 96.890625 67.175781 96.941406 66.257812 C 97.003906 65.152344 97.972656 64.304688 99.082031 64.367188 C 100.1875 64.425781 101.054688 65.375 100.996094 66.484375 C 100.945312 67.402344 100.269531 68.152344 99.414062 68.351562 L 99.28125 70.433594 L 105.625 70.789062 C 108.644531 70.957031 110.972656 73.558594 110.804688 76.597656 L 110.304688 85.5625 C 110.136719 88.582031 107.535156 90.890625 104.515625 90.722656 Z M 92.917969 81.371094 C 91.292969 81.28125 90.085938 79.929688 90.175781 78.324219 C 90.265625 76.699219 91.617188 75.492188 93.242188 75.582031 C 94.867188 75.671875 96.054688 77.023438 95.964844 78.648438 C 95.875 80.253906 94.542969 81.464844 92.917969 81.371094 Z M 93.179688 76.726562 C 92.183594 76.671875 91.375 77.394531 91.320312 78.390625 C 91.265625 79.363281 91.988281 80.171875 92.984375 80.226562 C 93.957031 80.28125 94.785156 79.558594 94.839844 78.585938 C 94.894531 77.589844 94.152344 76.78125 93.179688 76.726562 Z M 103.304688 81.835938 C 101.679688 81.746094 100.453125 80.375 100.539062 78.769531 C 100.628906 77.164062 102.003906 75.933594 103.625 76.027344 C 105.214844 76.113281 106.441406 77.484375 106.351562 79.089844 C 106.261719 80.695312 104.890625 81.925781 103.304688 81.835938 Z M 103.5625 77.171875 C 102.570312 77.117188 101.742188 77.875 101.6875 78.832031 C 101.632812 79.804688 102.371094 80.652344 103.367188 80.707031 C 104.339844 80.761719 105.148438 80.003906 105.203125 79.027344 C 105.257812 78.035156 104.519531 77.226562 103.5625 77.171875 Z M 97.699219 85.011719 C 96.613281 84.953125 95.683594 84.382812 95.175781 83.894531 C 94.9375 83.671875 94.941406 83.289062 95.164062 83.089844 C 95.386719 82.871094 95.730469 82.851562 95.96875 83.09375 C 96.128906 83.257812 97.71875 84.667969 99.386719 83.304688 C 99.628906 83.105469 99.972656 83.125 100.207031 83.371094 C 100.40625 83.628906 100.386719 83.972656 100.144531 84.191406 C 99.300781 84.832031 98.464844 85.054688 97.699219 85.011719 Z M 97.699219 85.011719 " fill-opacity="1" fill-rule="evenodd"/></g></g></g><g clip-path="url(#7e4011b5e1)"><g clip-path="url(#10d9e1d737)"><g clip-path="url(#207bbde5b5)"><path fill="#ffffff" d="M 84.40625 83.449219 L 84.175781 83.4375 C 82.800781 83.359375 81.71875 82.167969 81.792969 80.773438 L 82.011719 76.875 C 82.089844 75.476562 83.300781 74.394531 84.675781 74.472656 L 84.945312 74.488281 C 84.914062 74.695312 84.882812 74.925781 84.867188 75.152344 Z M 84.40625 83.449219 " fill-opacity="1" fill-rule="evenodd"/></g></g></g><g clip-path="url(#c8b692c95c)"><g clip-path="url(#b0d4bfed33)"><g clip-path="url(#692d1d7ac4)"><path fill="#ffffff" d="M 111.71875 84.96875 L 111.488281 84.957031 L 111.949219 76.660156 C 111.964844 76.414062 111.957031 76.183594 111.949219 75.972656 L 112.21875 75.988281 C 113.632812 76.066406 114.714844 77.257812 114.636719 78.671875 L 114.417969 82.589844 C 114.339844 84.003906 113.132812 85.046875 111.71875 84.96875 Z M 111.71875 84.96875 " fill-opacity="1" fill-rule="evenodd"/></g></g></g><g fill="#ffffff" fill-opacity="1"><g transform="translate(52.4887, 211.167342)"><g><path d="M 5.234375 -21.546875 C 5.296875 -22.179688 5.609375 -22.460938 6.171875 -22.390625 L 7.875 -22.15625 C 8.457031 -22.0625 8.710938 -21.71875 8.640625 -21.125 C 8.484375 -20.332031 8.351562 -19.535156 8.25 -18.734375 C 8.195312 -18.265625 8.40625 -18.03125 8.875 -18.03125 L 13.203125 -18.03125 C 13.785156 -18.03125 14.078125 -17.738281 14.078125 -17.15625 C 13.785156 -12.53125 13.0625 -8.53125 11.90625 -5.15625 C 11.65625 -4.53125 11.800781 -3.960938 12.34375 -3.453125 C 12.9375 -2.960938 13.523438 -2.445312 14.109375 -1.90625 C 14.648438 -1.351562 14.648438 -0.773438 14.109375 -0.171875 C 13.816406 0.117188 13.550781 0.410156 13.3125 0.703125 C 12.8125 1.285156 12.273438 1.304688 11.703125 0.765625 L 10.59375 -0.34375 C 10.125 -0.800781 9.675781 -0.742188 9.25 -0.171875 C 7.882812 1.546875 6.566406 2.84375 5.296875 3.71875 C 4.578125 4.257812 3.984375 4.226562 3.515625 3.625 C 3.253906 3.3125 3.03125 3 2.84375 2.6875 C 2.425781 2.144531 2.53125 1.640625 3.15625 1.171875 C 4.625 0.0546875 5.816406 -1.171875 6.734375 -2.515625 C 7.117188 -2.960938 7.007812 -3.441406 6.40625 -3.953125 L 6.0625 -4.25 C 5.488281 -4.675781 5.125 -4.664062 4.96875 -4.21875 C 4.851562 -3.789062 4.460938 -3.644531 3.796875 -3.78125 C 3.347656 -3.894531 2.898438 -3.976562 2.453125 -4.03125 C 1.816406 -4.175781 1.582031 -4.519531 1.75 -5.0625 C 2.664062 -8.125 3.398438 -11.109375 3.953125 -14.015625 C 4.023438 -14.546875 3.847656 -14.8125 3.421875 -14.8125 L 2.40625 -14.8125 C 1.800781 -14.8125 1.5 -15.101562 1.5 -15.6875 L 1.5 -17.125 C 1.5 -17.726562 1.789062 -18.03125 2.375 -18.03125 L 3.984375 -18.03125 C 4.453125 -18.03125 4.742188 -18.320312 4.859375 -18.90625 C 4.953125 -19.78125 5.078125 -20.660156 5.234375 -21.546875 Z M 15.1875 -19.46875 C 15.1875 -20.070312 15.476562 -20.375 16.0625 -20.375 L 26.609375 -20.375 C 27.210938 -20.375 27.515625 -20.078125 27.515625 -19.484375 L 27.515625 2.6875 C 27.515625 3.289062 27.21875 3.59375 26.625 3.59375 L 24.875 3.59375 C 24.269531 3.59375 23.96875 3.289062 23.96875 2.6875 C 23.96875 2.050781 23.734375 1.734375 23.265625 1.734375 L 19.4375 1.734375 C 18.945312 1.734375 18.703125 1.960938 18.703125 2.421875 L 18.703125 2.890625 C 18.703125 3.492188 18.410156 3.796875 17.828125 3.796875 L 16.0625 3.796875 C 15.476562 3.796875 15.1875 3.503906 15.1875 2.921875 Z M 23.96875 -16.328125 C 23.96875 -16.859375 23.753906 -17.125 23.328125 -17.125 L 19.4375 -17.125 C 18.945312 -17.125 18.703125 -16.890625 18.703125 -16.421875 L 18.703125 -2.28125 C 18.703125 -1.789062 18.9375 -1.546875 19.40625 -1.546875 L 23.234375 -1.546875 C 23.722656 -1.546875 23.96875 -1.78125 23.96875 -2.25 Z M 10.6875 -14.078125 C 10.738281 -14.566406 10.53125 -14.8125 10.0625 -14.8125 L 8.21875 -14.8125 C 7.738281 -14.8125 7.4375 -14.507812 7.3125 -13.90625 L 6.265625 -9.015625 C 6.148438 -8.484375 6.351562 -8.035156 6.875 -7.671875 C 7.300781 -7.398438 7.734375 -7.097656 8.171875 -6.765625 C 8.640625 -6.429688 9 -6.554688 9.25 -7.140625 C 9.988281 -9.378906 10.46875 -11.691406 10.6875 -14.078125 Z M 10.6875 -14.078125 "/></g></g></g><g fill="#ffffff" fill-opacity="1"><g transform="translate(82.460985, 211.167342)"><g><path d="M 7.265625 -21.5625 C 7.453125 -22.1875 7.8125 -22.414062 8.34375 -22.25 L 10.046875 -21.71875 C 10.628906 -21.519531 10.820312 -21.128906 10.625 -20.546875 C 10.269531 -19.472656 9.878906 -18.398438 9.453125 -17.328125 C 9.117188 -16.679688 8.984375 -16.113281 9.046875 -15.625 L 9.046875 3.515625 C 9.046875 4.117188 8.753906 4.421875 8.171875 4.421875 L 6.53125 4.421875 C 5.925781 4.421875 5.625 4.128906 5.625 3.546875 L 5.625 -8.640625 C 5.625 -9.253906 5.425781 -9.300781 5.03125 -8.78125 L 4.421875 -7.84375 C 3.910156 -7.15625 3.472656 -7.144531 3.109375 -7.8125 L 2.28125 -9.359375 C 1.9375 -9.984375 1.9375 -10.570312 2.28125 -11.125 C 4.53125 -14.539062 6.191406 -18.019531 7.265625 -21.5625 Z M 11.03125 -20.078125 C 11.03125 -20.679688 11.320312 -20.984375 11.90625 -20.984375 L 27.6875 -20.984375 C 28.289062 -20.984375 28.59375 -20.691406 28.59375 -20.109375 L 28.59375 -18.640625 C 28.59375 -18.035156 28.300781 -17.734375 27.71875 -17.734375 L 27.34375 -17.734375 C 26.851562 -17.734375 26.609375 -17.5 26.609375 -17.03125 L 26.609375 0.703125 C 26.566406 1.367188 26.457031 1.953125 26.28125 2.453125 C 26.226562 3.023438 25.78125 3.515625 24.9375 3.921875 C 23.863281 4.390625 22.242188 4.425781 20.078125 4.03125 C 19.492188 3.863281 19.148438 3.484375 19.046875 2.890625 L 18.828125 1.40625 C 18.703125 0.78125 18.929688 0.546875 19.515625 0.703125 C 20.804688 1.035156 21.832031 1.132812 22.59375 1 C 22.988281 0.78125 23.1875 0.332031 23.1875 -0.34375 L 23.1875 -17 C 23.1875 -17.488281 22.953125 -17.734375 22.484375 -17.734375 L 11.90625 -17.734375 C 11.320312 -17.734375 11.03125 -18.023438 11.03125 -18.609375 Z M 11.15625 -14.34375 C 11.15625 -14.925781 11.445312 -15.21875 12.03125 -15.21875 L 19.90625 -15.21875 C 20.507812 -15.21875 20.8125 -14.925781 20.8125 -14.34375 L 20.8125 -3.984375 C 20.8125 -3.378906 20.519531 -3.078125 19.9375 -3.078125 L 15.21875 -3.078125 C 14.726562 -3.078125 14.484375 -2.84375 14.484375 -2.375 L 14.484375 -1.640625 C 14.484375 -1.035156 14.191406 -0.734375 13.609375 -0.734375 L 12.0625 -0.734375 C 11.457031 -0.734375 11.15625 -1.023438 11.15625 -1.609375 Z M 17.46875 -11.203125 C 17.46875 -11.710938 17.242188 -11.96875 16.796875 -11.96875 L 15.21875 -11.96875 C 14.726562 -11.96875 14.484375 -11.734375 14.484375 -11.265625 L 14.484375 -7.078125 C 14.484375 -6.585938 14.71875 -6.34375 15.1875 -6.34375 L 16.75 -6.34375 C 17.226562 -6.34375 17.46875 -6.578125 17.46875 -7.046875 Z M 17.46875 -11.203125 "/></g></g></g><g fill="#ffffff" fill-opacity="1"><g transform="translate(112.43327, 211.167342)"><g><path d="M 17.609375 -21.71875 C 17.609375 -22.238281 17.882812 -22.5 18.4375 -22.5 L 19.921875 -22.5 C 20.523438 -22.5 20.828125 -22.257812 20.828125 -21.78125 C 20.828125 -21.25 21.0625 -20.984375 21.53125 -20.984375 L 26.015625 -20.984375 C 26.617188 -20.984375 26.921875 -20.691406 26.921875 -20.109375 L 26.921875 -17.46875 C 26.921875 -16.976562 27.234375 -16.734375 27.859375 -16.734375 C 28.503906 -16.734375 28.828125 -16.441406 28.828125 -15.859375 L 28.828125 -14.65625 C 28.828125 -14.050781 28.515625 -13.75 27.890625 -13.75 C 27.242188 -13.75 26.921875 -13.515625 26.921875 -13.046875 L 26.921875 -10.421875 C 26.921875 -9.816406 26.628906 -9.515625 26.046875 -9.515625 L 21.5625 -9.515625 C 21.070312 -9.515625 20.828125 -9.367188 20.828125 -9.078125 C 20.828125 -8.742188 21.0625 -8.578125 21.53125 -8.578125 L 26.75 -8.578125 C 27.351562 -8.578125 27.65625 -8.285156 27.65625 -7.703125 L 27.65625 -6.4375 C 27.65625 -5.832031 27.363281 -5.53125 26.78125 -5.53125 L 21.5625 -5.53125 C 21.070312 -5.53125 20.828125 -5.351562 20.828125 -5 C 20.828125 -4.632812 21.0625 -4.453125 21.53125 -4.453125 L 27.53125 -4.453125 C 28.132812 -4.453125 28.4375 -4.160156 28.4375 -3.578125 L 28.4375 -2.34375 C 28.4375 -1.738281 28.144531 -1.4375 27.5625 -1.4375 L 21.5625 -1.4375 C 21.070312 -1.4375 20.828125 -1.148438 20.828125 -0.578125 C 20.828125 0.00390625 20.535156 0.296875 19.953125 0.296875 L 18.515625 0.296875 C 17.910156 0.296875 17.609375 0.0078125 17.609375 -0.5625 C 17.609375 -1.144531 17.375 -1.4375 16.90625 -1.4375 L 11.46875 -1.4375 C 10.863281 -1.4375 10.5625 -1.726562 10.5625 -2.3125 L 10.5625 -3.546875 C 10.5625 -4.148438 10.851562 -4.453125 11.4375 -4.453125 L 16.890625 -4.453125 C 17.367188 -4.453125 17.609375 -4.625 17.609375 -4.96875 C 17.609375 -5.34375 17.375 -5.53125 16.90625 -5.53125 L 12.875 -5.53125 C 12.269531 -5.53125 11.96875 -5.820312 11.96875 -6.40625 L 11.96875 -7.671875 C 11.96875 -8.273438 12.257812 -8.578125 12.84375 -8.578125 L 16.890625 -8.578125 C 17.367188 -8.578125 17.609375 -8.722656 17.609375 -9.015625 C 17.609375 -9.347656 17.375 -9.515625 16.90625 -9.515625 L 13.484375 -9.515625 C 12.878906 -9.515625 12.578125 -9.804688 12.578125 -10.390625 L 12.578125 -11.640625 C 12.578125 -12.253906 12.867188 -12.5625 13.453125 -12.5625 L 16.890625 -12.5625 C 17.367188 -12.5625 17.609375 -12.753906 17.609375 -13.140625 C 17.609375 -13.546875 17.375 -13.75 16.90625 -13.75 L 11.8125 -13.75 C 11.207031 -13.75 10.90625 -14.046875 10.90625 -14.640625 L 10.90625 -15.828125 C 10.90625 -16.429688 11.203125 -16.734375 11.796875 -16.734375 L 16.890625 -16.734375 C 17.367188 -16.734375 17.609375 -16.929688 17.609375 -17.328125 C 17.609375 -17.734375 17.375 -17.9375 16.90625 -17.9375 L 13.609375 -17.9375 C 13.003906 -17.9375 12.703125 -18.226562 12.703125 -18.8125 L 12.703125 -20.078125 C 12.703125 -20.679688 12.992188 -20.984375 13.578125 -20.984375 L 16.890625 -20.984375 C 17.367188 -20.984375 17.609375 -21.226562 17.609375 -21.71875 Z M 2.390625 -20.515625 C 2.390625 -21.140625 2.664062 -21.453125 3.21875 -21.453125 L 9.65625 -21.453125 C 10.257812 -21.453125 10.5625 -21.160156 10.5625 -20.578125 C 10.632812 -19.460938 10.554688 -18.703125 10.328125 -18.296875 C 9.566406 -16.535156 8.84375 -15.039062 8.15625 -13.8125 C 7.925781 -13.34375 8.046875 -13.109375 8.515625 -13.109375 L 10.703125 -13.109375 C 11.296875 -13.109375 11.570312 -12.816406 11.53125 -12.234375 C 11.195312 -8.546875 10.40625 -5.238281 9.15625 -2.3125 C 8.925781 -1.84375 9.0625 -1.394531 9.5625 -0.96875 C 10.769531 -0.207031 12.332031 0.28125 14.25 0.5 C 17.6875 0.925781 22.257812 0.9375 27.96875 0.53125 C 28.632812 0.46875 28.84375 0.789062 28.59375 1.5 L 28.09375 3.046875 C 27.875 3.703125 27.503906 4.03125 26.984375 4.03125 L 18.375 4.03125 C 15.78125 3.957031 13.378906 3.65625 11.171875 3.125 C 9.910156 2.851562 8.800781 2.359375 7.84375 1.640625 C 7.394531 1.285156 6.925781 1.429688 6.4375 2.078125 L 4.828125 3.859375 C 4.273438 4.367188 3.695312 4.300781 3.09375 3.65625 L 2.578125 3.078125 C 2.046875 2.484375 2.070312 1.945312 2.65625 1.46875 C 3.320312 0.863281 3.945312 0.21875 4.53125 -0.46875 C 4.925781 -0.976562 4.96875 -1.503906 4.65625 -2.046875 C 4.101562 -3.066406 3.644531 -4.117188 3.28125 -5.203125 C 3.039062 -5.960938 3.222656 -6.472656 3.828125 -6.734375 L 4.53125 -7.03125 C 5.132812 -7.28125 5.535156 -7.113281 5.734375 -6.53125 L 6.3125 -5.125 C 6.625 -4.539062 6.890625 -4.539062 7.109375 -5.125 C 7.484375 -6.289062 7.785156 -7.644531 8.015625 -9.1875 C 8.078125 -9.738281 7.898438 -10.015625 7.484375 -10.015625 L 6.515625 -10.015625 C 6.054688 -10.015625 5.671875 -9.804688 5.359375 -9.390625 C 5.023438 -8.941406 4.570312 -8.90625 4 -9.28125 C 3.75 -9.46875 3.5 -9.632812 3.25 -9.78125 C 2.695312 -10.1875 2.632812 -10.703125 3.0625 -11.328125 C 4.414062 -13.410156 5.5 -15.457031 6.3125 -17.46875 C 6.488281 -17.9375 6.34375 -18.171875 5.875 -18.171875 L 3.296875 -18.171875 C 2.691406 -18.171875 2.390625 -18.460938 2.390625 -19.046875 Z M 23.703125 -17.296875 C 23.703125 -17.722656 23.476562 -17.9375 23.03125 -17.9375 L 21.5625 -17.9375 C 21.070312 -17.9375 20.828125 -17.742188 20.828125 -17.359375 C 20.828125 -16.941406 21.0625 -16.734375 21.53125 -16.734375 L 22.96875 -16.734375 C 23.457031 -16.734375 23.703125 -16.921875 23.703125 -17.296875 Z M 23.703125 -13.109375 C 23.703125 -13.535156 23.488281 -13.75 23.0625 -13.75 L 21.5625 -13.75 C 21.070312 -13.75 20.828125 -13.554688 20.828125 -13.171875 C 20.828125 -12.765625 21.0625 -12.5625 21.53125 -12.5625 L 22.96875 -12.5625 C 23.457031 -12.5625 23.703125 -12.742188 23.703125 -13.109375 Z M 23.703125 -13.109375 "/></g></g></g><g fill="#ffffff" fill-opacity="1"><g transform="translate(142.405555, 211.167342)"><g><path d="M 12.96875 -21.5625 C 12.96875 -22.1875 13.238281 -22.5 13.78125 -22.5 L 15.78125 -22.5 C 16.382812 -22.5 16.6875 -22.207031 16.6875 -21.625 L 16.6875 -18.765625 C 16.6875 -18.273438 16.921875 -18.03125 17.390625 -18.03125 L 26.34375 -18.03125 C 26.945312 -18.03125 27.25 -17.738281 27.25 -17.15625 L 27.25 -15.71875 C 27.25 -15.113281 26.957031 -14.8125 26.375 -14.8125 L 3.6875 -14.8125 C 3.082031 -14.8125 2.78125 -15.101562 2.78125 -15.6875 L 2.78125 -17.125 C 2.78125 -17.726562 3.070312 -18.03125 3.65625 -18.03125 L 12.234375 -18.03125 C 12.722656 -18.03125 12.96875 -18.265625 12.96875 -18.734375 Z M 20.25 -13 C 20.382812 -13.78125 20.726562 -14.109375 21.28125 -13.984375 L 23.296875 -13.546875 C 23.878906 -13.390625 24.113281 -13.019531 24 -12.4375 C 23.238281 -8.375 22.085938 -4.316406 20.546875 -0.265625 C 20.367188 0.222656 20.515625 0.46875 20.984375 0.46875 L 27.515625 0.46875 C 28.117188 0.46875 28.421875 0.757812 28.421875 1.34375 L 28.421875 2.8125 C 28.421875 3.414062 28.128906 3.71875 27.546875 3.71875 L 2.40625 3.71875 C 1.800781 3.71875 1.5 3.425781 1.5 2.84375 L 1.5 1.375 C 1.5 0.769531 1.789062 0.46875 2.375 0.46875 L 15.796875 0.46875 C 16.265625 0.46875 16.617188 0.175781 16.859375 -0.40625 C 18.378906 -4.675781 19.507812 -8.875 20.25 -13 Z M 6.671875 -12.9375 L 8.484375 -13.484375 C 9.035156 -13.640625 9.414062 -13.398438 9.625 -12.765625 C 10.738281 -9.367188 11.578125 -5.929688 12.140625 -2.453125 C 12.222656 -1.867188 11.960938 -1.472656 11.359375 -1.265625 L 9.3125 -0.5625 C 8.71875 -0.382812 8.382812 -0.585938 8.3125 -1.171875 C 7.863281 -4.816406 7.140625 -8.335938 6.140625 -11.734375 C 5.953125 -12.359375 6.128906 -12.757812 6.671875 -12.9375 Z M 6.671875 -12.9375 "/></g></g></g><g fill="#ffffff" fill-opacity="1"><g transform="translate(49.794826, 252.395339)"><g><path d="M 1.5 -19.203125 C 1.5 -19.828125 1.769531 -20.140625 2.3125 -20.140625 L 4.390625 -20.140625 C 4.992188 -20.140625 5.296875 -19.84375 5.296875 -19.25 L 5.296875 -2.515625 C 5.296875 -2.023438 5.53125 -1.78125 6 -1.78125 L 14.546875 -1.78125 C 15.148438 -1.78125 15.453125 -1.488281 15.453125 -0.90625 L 15.453125 0.96875 C 15.453125 1.570312 15.160156 1.875 14.578125 1.875 L 2.40625 1.875 C 1.800781 1.875 1.5 1.582031 1.5 1 Z M 1.5 -19.203125 "/></g></g></g><g fill="#ffffff" fill-opacity="1"><g transform="translate(66.03957, 252.395339)"><g><path d="M 1.5 -19.203125 C 1.5 -19.828125 1.769531 -20.140625 2.3125 -20.140625 L 4.421875 -20.140625 C 5.023438 -20.140625 5.328125 -19.84375 5.328125 -19.25 L 5.328125 0.96875 C 5.328125 1.570312 5.035156 1.875 4.453125 1.875 L 2.40625 1.875 C 1.800781 1.875 1.5 1.582031 1.5 1 Z M 1.5 -19.203125 "/></g></g></g><g fill="#ffffff" fill-opacity="1"><g transform="translate(72.888705, 252.395339)"><g><path d="M 1.5 -19.203125 C 1.5 -19.828125 1.769531 -20.140625 2.3125 -20.140625 L 4.484375 -20.140625 C 5.066406 -20.140625 5.550781 -19.84375 5.9375 -19.25 C 8.789062 -14.769531 11.671875 -10.285156 14.578125 -5.796875 C 14.960938 -5.242188 15.15625 -5.28125 15.15625 -5.90625 L 15.15625 -19.234375 C 15.15625 -19.835938 15.445312 -20.140625 16.03125 -20.140625 L 18.109375 -20.140625 C 18.710938 -20.140625 19.015625 -19.84375 19.015625 -19.25 L 19.015625 0.96875 C 19.015625 1.570312 18.722656 1.875 18.140625 1.875 L 16.15625 1.875 C 15.570312 1.875 15.070312 1.582031 14.65625 1 C 11.8125 -3.507812 8.925781 -8.03125 6 -12.5625 C 5.59375 -13.082031 5.390625 -13.050781 5.390625 -12.46875 L 5.390625 0.96875 C 5.390625 1.570312 5.09375 1.875 4.5 1.875 L 2.40625 1.875 C 1.800781 1.875 1.5 1.582031 1.5 1 Z M 1.5 -19.203125 "/></g></g></g><g fill="#ffffff" fill-opacity="1"><g transform="translate(93.436111, 252.395339)"><g><path d="M 1.5 -19.203125 C 1.5 -19.828125 1.769531 -20.140625 2.3125 -20.140625 L 17.125 -20.140625 C 17.726562 -20.140625 18.03125 -19.84375 18.03125 -19.25 L 18.03125 -17.40625 C 18.03125 -16.800781 17.738281 -16.5 17.15625 -16.5 L 6.03125 -16.5 C 5.539062 -16.5 5.296875 -16.265625 5.296875 -15.796875 L 5.296875 -12 C 5.296875 -11.507812 5.53125 -11.265625 6 -11.265625 L 16.765625 -11.265625 C 17.367188 -11.265625 17.671875 -10.972656 17.671875 -10.390625 L 17.671875 -8.546875 C 17.671875 -7.941406 17.378906 -7.640625 16.796875 -7.640625 L 6.03125 -7.640625 C 5.539062 -7.640625 5.296875 -7.40625 5.296875 -6.9375 L 5.296875 -2.484375 C 5.296875 -1.992188 5.53125 -1.75 6 -1.75 L 17.5625 -1.75 C 18.164062 -1.75 18.46875 -1.457031 18.46875 -0.875 L 18.46875 0.96875 C 18.46875 1.570312 18.175781 1.875 17.59375 1.875 L 2.40625 1.875 C 1.800781 1.875 1.5 1.582031 1.5 1 Z M 1.5 -19.203125 "/></g></g></g><g fill="#ffffff" fill-opacity="1"><g transform="translate(112.812726, 252.395339)"><g/></g></g><g fill="#ffffff" fill-opacity="1"><g transform="translate(127.798868, 252.395339)"><g><path d="M 1.5 -19.203125 C 1.5 -19.828125 1.769531 -20.140625 2.3125 -20.140625 L 10.21875 -20.140625 C 12.007812 -20.003906 13.566406 -19.347656 14.890625 -18.171875 C 16.378906 -16.515625 16.898438 -14.738281 16.453125 -12.84375 C 16.367188 -12.1875 15.976562 -11.40625 15.28125 -10.5 C 14.769531 -10 14.75 -9.570312 15.21875 -9.21875 C 16.519531 -8.164062 17.242188 -6.800781 17.390625 -5.125 C 17.503906 -1.039062 15.25 1.289062 10.625 1.875 L 2.40625 1.875 C 1.800781 1.875 1.5 1.582031 1.5 1 Z M 9.28125 -16.5625 L 6.03125 -16.5625 C 5.539062 -16.5625 5.296875 -16.328125 5.296875 -15.859375 L 5.296875 -11.96875 C 5.296875 -11.476562 5.53125 -11.234375 6 -11.234375 L 9.421875 -11.234375 C 10.441406 -11.316406 11.222656 -11.59375 11.765625 -12.0625 C 12.171875 -12.375 12.4375 -12.867188 12.5625 -13.546875 C 12.5625 -15.535156 11.46875 -16.539062 9.28125 -16.5625 Z M 11.234375 -7.375 C 10.046875 -7.644531 8.3125 -7.753906 6.03125 -7.703125 C 5.539062 -7.703125 5.296875 -7.46875 5.296875 -7 L 5.296875 -2.421875 C 5.296875 -1.941406 5.53125 -1.703125 6 -1.703125 L 9.6875 -1.703125 C 11.03125 -1.679688 12.113281 -2.117188 12.9375 -3.015625 C 13.320312 -3.679688 13.476562 -4.382812 13.40625 -5.125 C 13.34375 -6.15625 12.617188 -6.90625 11.234375 -7.375 Z M 11.234375 -7.375 "/></g></g></g><g fill="#ffffff" fill-opacity="1"><g transform="translate(146.0925, 252.395339)"><g><path d="M 3.875 -12.265625 C 5.84375 -13.785156 8.125 -14.289062 10.71875 -13.78125 C 13.488281 -13.125 15.320312 -11.320312 16.21875 -8.375 C 16.976562 -5.539062 16.5 -2.90625 14.78125 -0.46875 C 13.570312 1.03125 12.0625 1.910156 10.25 2.171875 C 8.320312 2.484375 6.46875 2.140625 4.6875 1.140625 C 3.4375 0.265625 2.507812 -0.835938 1.90625 -2.171875 C 1.226562 -4.117188 1.0625 -5.988281 1.40625 -7.78125 C 1.71875 -9.476562 2.539062 -10.972656 3.875 -12.265625 Z M 7.9375 -10.390625 C 7.0625 -10.171875 6.347656 -9.601562 5.796875 -8.6875 C 4.941406 -7.207031 4.835938 -5.492188 5.484375 -3.546875 C 6.335938 -1.710938 7.738281 -0.957031 9.6875 -1.28125 C 10.46875 -1.382812 11.222656 -1.914062 11.953125 -2.875 C 12.890625 -4.488281 13.003906 -6.253906 12.296875 -8.171875 C 11.335938 -10.078125 9.882812 -10.816406 7.9375 -10.390625 Z M 7.9375 -10.390625 "/></g></g></g><g fill="#ffffff" fill-opacity="1"><g transform="translate(163.215338, 252.395339)"><g><path d="M 6.8125 -17.671875 C 7.457031 -17.984375 7.78125 -17.878906 7.78125 -17.359375 L 7.78125 -14.21875 C 7.78125 -13.726562 8.015625 -13.484375 8.484375 -13.484375 L 10.5 -13.484375 C 11.101562 -13.484375 11.40625 -13.191406 11.40625 -12.609375 L 11.40625 -10.890625 C 11.40625 -10.285156 11.113281 -9.984375 10.53125 -9.984375 L 8.515625 -9.984375 C 8.023438 -9.984375 7.78125 -9.75 7.78125 -9.28125 L 7.78125 -3.015625 C 7.59375 -1.960938 8.070312 -1.484375 9.21875 -1.578125 L 10.1875 -1.578125 C 10.789062 -1.578125 11.09375 -1.285156 11.09375 -0.703125 L 11.09375 0.9375 C 11.09375 1.539062 10.800781 1.84375 10.21875 1.84375 L 7.8125 1.84375 C 5.820312 1.726562 4.625 0.6875 4.21875 -1.28125 C 4.21875 -1.476562 4.1875 -1.710938 4.125 -1.984375 L 4.125 -9.25 C 4.125 -9.738281 3.890625 -9.984375 3.421875 -9.984375 L 1.671875 -9.984375 C 1.066406 -9.984375 0.765625 -10.273438 0.765625 -10.859375 L 0.765625 -12.578125 C 0.765625 -13.179688 1.054688 -13.484375 1.640625 -13.484375 L 3.390625 -13.484375 C 3.878906 -13.484375 4.125 -13.71875 4.125 -14.1875 L 4.125 -15.453125 C 4.125 -16.035156 4.414062 -16.484375 5 -16.796875 Z M 6.8125 -17.671875 "/></g></g></g></svg>