<svg xmlns="http://www.w3.org/2000/svg" xmlns:xlink="http://www.w3.org/1999/xlink" width="1920" zoomAndPan="magnify" viewBox="0 0 1440 809.999993" height="1080" preserveAspectRatio="xMidYMid meet" version="1.0"><defs><clipPath id="f66f584f8d"><path d="M 48.800781 552.261719 L 517.773438 552.261719 L 517.773438 739.269531 L 48.800781 739.269531 Z M 48.800781 552.261719 " clip-rule="nonzero"/></clipPath><clipPath id="38d64f8778"><path d="M 282.941406 552.261719 C 153.628906 552.261719 48.800781 594.125 48.800781 645.765625 C 48.800781 697.40625 153.628906 739.269531 282.941406 739.269531 C 412.25 739.269531 517.078125 697.40625 517.078125 645.765625 C 517.078125 594.125 412.25 552.261719 282.941406 552.261719 Z M 282.941406 552.261719 " clip-rule="nonzero"/></clipPath><clipPath id="69c5758db2"><path d="M 48.808594 552.261719 L 516.800781 552.261719 L 516.800781 739.011719 L 48.808594 739.011719 Z M 48.808594 552.261719 " clip-rule="nonzero"/></clipPath><clipPath id="00bc0bb80a"><path d="M 282.9375 552.261719 C 153.632812 552.261719 48.808594 594.125 48.808594 645.761719 C 48.808594 697.398438 153.632812 739.257812 282.9375 739.257812 C 412.242188 739.257812 517.066406 697.398438 517.066406 645.761719 C 517.066406 594.125 412.242188 552.261719 282.9375 552.261719 Z M 282.9375 552.261719 " clip-rule="nonzero"/></clipPath><clipPath id="d1788606e7"><path d="M 25.734375 544.214844 L 547.765625 544.214844 L 547.765625 753.027344 L 25.734375 753.027344 Z M 25.734375 544.214844 " clip-rule="nonzero"/></clipPath><clipPath id="af5df7a39b"><path d="M 286.582031 544.214844 C 142.519531 544.214844 25.734375 590.957031 25.734375 648.621094 C 25.734375 706.28125 142.519531 753.027344 286.582031 753.027344 C 430.640625 753.027344 547.425781 706.28125 547.425781 648.621094 C 547.425781 590.957031 430.640625 544.214844 286.582031 544.214844 Z M 286.582031 544.214844 " clip-rule="nonzero"/></clipPath><clipPath id="66ac746fe0"><path d="M 25.742188 544.214844 L 547.683594 544.214844 L 547.683594 752.714844 L 25.742188 752.714844 Z M 25.742188 544.214844 " clip-rule="nonzero"/></clipPath><clipPath id="a9a43a2667"><path d="M 286.578125 544.214844 C 142.523438 544.214844 25.742188 590.957031 25.742188 648.617188 C 25.742188 706.273438 142.523438 753.019531 286.578125 753.019531 C 430.632812 753.019531 547.410156 706.273438 547.410156 648.617188 C 547.410156 590.957031 430.632812 544.214844 286.578125 544.214844 Z M 286.578125 544.214844 " clip-rule="nonzero"/></clipPath></defs><rect x="-144" width="1728" fill="#ffffff" y="-80.999999" height="971.999992" fill-opacity="1"/><rect x="-144" width="1728" fill="#41624f" y="-80.999999" height="971.999992" fill-opacity="1"/><g clip-path="url(#f66f584f8d)"><g clip-path="url(#38d64f8778)"><path fill="#e8e4dd" d="M 48.800781 552.261719 L 517.042969 552.261719 L 517.042969 739.269531 L 48.800781 739.269531 Z M 48.800781 552.261719 " fill-opacity="1" fill-rule="nonzero"/></g></g><g clip-path="url(#69c5758db2)"><g clip-path="url(#00bc0bb80a)"><path fill="#41624f" d="M 262.011719 555.632812 C 256 555.847656 250.023438 556.152344 244.085938 556.550781 L 243.683594 550.566406 C 249.683594 550.164062 255.722656 549.851562 261.800781 549.636719 Z M 241.125 556.757812 C 235.113281 557.191406 229.160156 557.722656 223.261719 558.34375 L 222.628906 552.378906 C 228.59375 551.746094 234.617188 551.214844 240.691406 550.773438 Z M 220.308594 558.664062 C 214.304688 559.332031 208.382812 560.09375 202.535156 560.953125 L 201.660156 555.019531 C 207.578125 554.148438 213.574219 553.375 219.644531 552.703125 Z M 199.59375 561.394531 C 193.609375 562.3125 187.726562 563.328125 181.949219 564.4375 L 180.816406 558.546875 C 186.667969 557.421875 192.625 556.394531 198.6875 555.464844 Z M 179.035156 565.011719 C 173.074219 566.199219 167.253906 567.488281 161.566406 568.878906 L 160.140625 563.050781 C 165.910156 561.640625 171.816406 560.332031 177.859375 559.125 Z M 158.695312 569.59375 C 152.777344 571.085938 147.039062 572.6875 141.480469 574.386719 L 139.722656 568.652344 C 145.378906 566.917969 151.210938 565.292969 157.222656 563.777344 Z M 138.675781 575.261719 C 132.828125 577.109375 127.21875 579.0625 121.84375 581.125 L 119.695312 575.523438 C 125.183594 573.417969 130.90625 571.421875 136.867188 569.539062 Z M 119.148438 582.175781 C 113.410156 584.449219 107.984375 586.835938 102.875 589.332031 L 100.242188 583.941406 C 105.488281 581.375 111.054688 578.929688 116.9375 576.597656 Z M 100.15625 590.6875 C 94.59375 593.507812 89.472656 596.449219 84.789062 599.5 L 81.515625 594.472656 C 86.378906 591.304688 91.6875 588.257812 97.4375 585.335938 Z M 82.363281 601.121094 C 77.21875 604.636719 72.695312 608.261719 68.796875 611.996094 L 64.644531 607.667969 C 68.78125 603.699219 73.558594 599.867188 78.980469 596.164062 Z M 66.679688 614.101562 C 62.359375 618.558594 58.96875 623.109375 56.515625 627.75 L 51.210938 624.945312 C 53.933594 619.800781 57.652344 614.792969 62.375 609.921875 Z M 55.277344 630.277344 C 52.964844 635.386719 51.808594 640.550781 51.808594 645.761719 C 51.808594 645.984375 51.8125 646.207031 51.816406 646.433594 L 45.816406 646.546875 C 45.8125 646.285156 45.808594 646.023438 45.808594 645.761719 C 45.808594 639.6875 47.144531 633.703125 49.808594 627.804688 Z M 51.976562 649.191406 C 52.5 654.5 54.222656 659.75 57.152344 664.9375 L 51.925781 667.886719 C 48.582031 661.964844 46.609375 655.925781 46.007812 649.777344 Z M 58.59375 667.335938 C 61.460938 671.820312 65.199219 676.203125 69.8125 680.484375 L 65.734375 684.882812 C 60.742188 680.253906 56.679688 675.480469 53.539062 670.566406 Z M 71.910156 682.371094 C 76.023438 685.960938 80.71875 689.4375 85.996094 692.800781 L 82.769531 697.859375 C 77.242188 694.335938 72.304688 690.679688 67.964844 686.890625 Z M 88.546875 694.390625 C 93.347656 697.3125 98.554688 700.121094 104.167969 702.820312 L 101.574219 708.226562 C 95.777344 705.445312 90.394531 702.539062 85.425781 699.511719 Z M 106.773438 704.046875 C 111.941406 706.441406 117.40625 708.726562 123.164062 710.902344 L 121.042969 716.515625 C 115.148438 714.289062 109.550781 711.945312 104.25 709.492188 Z M 125.925781 711.925781 C 131.34375 713.90625 136.988281 715.78125 142.851562 717.550781 L 141.117188 723.296875 C 135.144531 721.496094 129.394531 719.582031 123.863281 717.5625 Z M 145.707031 718.398438 C 151.292969 720.03125 157.046875 721.558594 162.96875 722.984375 L 161.566406 728.816406 C 155.550781 727.371094 149.703125 725.816406 144.027344 724.160156 Z M 165.882812 723.671875 C 171.582031 725 177.414062 726.226562 183.367188 727.355469 L 182.253906 733.25 C 176.214844 732.109375 170.304688 730.863281 164.523438 729.515625 Z M 186.316406 727.902344 C 192.101562 728.957031 197.984375 729.914062 203.964844 730.777344 L 203.109375 736.714844 C 197.054688 735.84375 191.101562 734.875 185.242188 733.804688 Z M 206.929688 731.195312 C 212.78125 732 218.703125 732.710938 224.695312 733.328125 L 224.082031 739.296875 C 218.019531 738.671875 212.03125 737.953125 206.113281 737.136719 Z M 227.671875 733.625 C 233.570312 734.199219 239.519531 734.679688 245.519531 735.066406 L 245.136719 741.054688 C 239.066406 740.660156 233.054688 740.175781 227.089844 739.597656 Z M 248.5 735.25 C 254.433594 735.601562 260.402344 735.859375 266.410156 736.027344 L 266.242188 742.027344 C 260.171875 741.855469 254.140625 741.59375 248.144531 741.238281 Z M 269.382812 736.105469 C 273.890625 736.207031 278.40625 736.257812 282.9375 736.257812 L 287.425781 736.242188 L 287.445312 742.242188 L 282.9375 742.257812 C 278.363281 742.257812 273.796875 742.207031 269.246094 742.101562 Z M 290.417969 736.210938 C 296.398438 736.136719 302.351562 735.972656 308.273438 735.714844 L 308.535156 741.710938 C 302.546875 741.96875 296.535156 742.136719 290.492188 742.210938 Z M 311.289062 735.578125 C 317.273438 735.289062 323.21875 734.90625 329.113281 734.429688 L 329.59375 740.414062 C 323.632812 740.890625 317.628906 741.277344 311.578125 741.570312 Z M 332.109375 734.183594 C 338.109375 733.667969 344.046875 733.058594 349.921875 732.355469 L 350.632812 738.3125 C 344.691406 739.023438 338.691406 739.640625 332.625 740.160156 Z M 352.855469 731.996094 C 358.859375 731.242188 364.777344 730.390625 370.605469 729.445312 L 371.570312 735.367188 C 365.667969 736.324219 359.679688 737.1875 353.605469 737.949219 Z M 373.5 728.964844 C 379.488281 727.957031 385.363281 726.84375 391.121094 725.636719 L 392.355469 731.507812 C 386.515625 732.734375 380.5625 733.859375 374.496094 734.882812 Z M 393.984375 725.023438 C 399.9375 723.730469 405.738281 722.335938 411.390625 720.839844 L 412.929688 726.640625 C 407.1875 728.160156 401.296875 729.578125 395.257812 730.886719 Z M 414.257812 720.070312 C 420.140625 718.460938 425.828125 716.746094 431.320312 714.929688 L 433.207031 720.625 C 427.613281 722.476562 421.824219 724.21875 415.839844 725.855469 Z M 434.210938 713.957031 C 440.027344 711.964844 445.582031 709.867188 450.878906 707.660156 L 453.1875 713.199219 C 447.773438 715.457031 442.09375 717.601562 436.152344 719.632812 Z M 453.644531 706.488281 C 459.328125 704.03125 464.660156 701.46875 469.636719 698.789062 L 472.480469 704.074219 C 467.351562 706.832031 461.863281 709.472656 456.023438 711.996094 Z M 472.195312 697.386719 C 477.605469 694.359375 482.523438 691.21875 486.957031 687.964844 L 490.507812 692.800781 C 485.875 696.199219 480.75 699.472656 475.125 702.621094 Z M 489.371094 686.144531 C 494.335938 682.292969 498.574219 678.335938 502.082031 674.269531 L 506.625 678.1875 C 502.855469 682.558594 498.328125 686.789062 493.046875 690.886719 Z M 503.859375 672.121094 C 507.683594 667.289062 510.4375 662.378906 512.117188 657.390625 L 517.804688 659.304688 C 515.902344 664.953125 512.820312 670.46875 508.5625 675.847656 Z M 512.910156 654.730469 C 513.679688 651.753906 514.066406 648.765625 514.066406 645.761719 C 514.066406 643.257812 513.796875 640.761719 513.261719 638.277344 L 519.128906 637.011719 C 519.753906 639.914062 520.066406 642.832031 520.066406 645.761719 C 520.066406 649.273438 519.617188 652.765625 518.71875 656.234375 Z M 512.578125 635.589844 C 511.09375 630.535156 508.507812 625.558594 504.828125 620.65625 L 509.625 617.054688 C 513.742188 622.535156 516.644531 628.148438 518.335938 633.894531 Z M 503.074219 618.429688 C 499.679688 614.308594 495.539062 610.296875 490.652344 606.386719 L 494.398438 601.703125 C 499.609375 605.867188 504.046875 610.171875 507.703125 614.613281 Z M 488.289062 604.550781 C 483.890625 601.222656 478.984375 598.011719 473.570312 594.914062 L 476.546875 589.707031 C 482.183594 592.933594 487.304688 596.285156 491.90625 599.765625 Z M 471.046875 593.5 C 466.105469 590.785156 460.800781 588.179688 455.136719 585.6875 L 457.554688 580.195312 C 463.378906 582.757812 468.839844 585.441406 473.9375 588.242188 Z M 452.402344 584.503906 C 447.125 582.261719 441.582031 580.128906 435.773438 578.105469 L 437.75 572.441406 C 443.683594 574.507812 449.347656 576.6875 454.746094 578.980469 Z M 432.910156 577.125 C 427.429688 575.277344 421.746094 573.535156 415.863281 571.898438 L 417.472656 566.117188 C 423.457031 567.78125 429.242188 569.558594 434.824219 571.4375 Z M 412.929688 571.09375 C 407.3125 569.578125 401.539062 568.167969 395.613281 566.855469 L 396.910156 560.996094 C 402.921875 562.328125 408.785156 563.761719 414.492188 565.300781 Z M 392.691406 566.21875 C 386.957031 564.992188 381.105469 563.863281 375.136719 562.835938 L 376.15625 556.921875 C 382.203125 557.964844 388.132812 559.109375 393.945312 560.351562 Z M 372.195312 562.339844 C 366.386719 561.375 360.488281 560.507812 354.503906 559.738281 L 355.273438 553.785156 C 361.328125 554.566406 367.296875 555.445312 373.175781 556.417969 Z M 351.519531 559.359375 C 345.664062 558.640625 339.742188 558.015625 333.761719 557.484375 L 334.292969 551.507812 C 340.34375 552.046875 346.328125 552.679688 352.25 553.40625 Z M 330.746094 557.226562 C 324.855469 556.734375 318.917969 556.335938 312.933594 556.027344 L 313.242188 550.035156 C 319.289062 550.347656 325.289062 550.75 331.246094 551.246094 Z M 309.925781 555.882812 C 304 555.609375 298.042969 555.425781 292.058594 555.332031 L 292.152344 549.335938 C 298.199219 549.425781 304.214844 549.613281 310.203125 549.886719 Z M 289.074219 555.296875 L 282.921875 555.261719 C 276.921875 555.261719 270.9375 555.355469 264.972656 555.535156 L 264.789062 549.539062 C 270.816406 549.355469 276.871094 549.261719 282.953125 549.261719 L 289.105469 549.296875 Z M 289.074219 555.296875 " fill-opacity="1" fill-rule="nonzero"/></g></g><g clip-path="url(#d1788606e7)"><g clip-path="url(#af5df7a39b)"><path fill="#e8e4dd" d="M 25.734375 544.214844 L 547.765625 544.214844 L 547.765625 753.027344 L 25.734375 753.027344 Z M 25.734375 544.214844 " fill-opacity="1" fill-rule="nonzero"/></g></g><g clip-path="url(#66ac746fe0)"><g clip-path="url(#a9a43a2667)"><path fill="#41624f" d="M 265.617188 547.546875 C 259.605469 547.738281 253.628906 548.015625 247.683594 548.371094 L 247.320312 542.382812 C 253.324219 542.019531 259.359375 541.742188 265.425781 541.550781 Z M 244.703125 548.558594 C 238.707031 548.945312 232.757812 549.417969 226.851562 549.976562 L 226.289062 544.003906 C 232.25 543.441406 238.261719 542.964844 244.316406 542.570312 Z M 223.867188 550.265625 C 217.890625 550.859375 211.976562 551.535156 206.121094 552.300781 L 205.347656 546.351562 C 211.261719 545.578125 217.234375 544.894531 223.273438 544.292969 Z M 203.128906 552.699219 C 197.179688 553.503906 191.308594 554.398438 185.519531 555.378906 L 184.519531 549.464844 C 190.371094 548.472656 196.304688 547.570312 202.320312 546.753906 Z M 182.523438 555.898438 C 176.566406 556.941406 170.714844 558.074219 164.96875 559.296875 L 163.722656 553.429688 C 169.539062 552.191406 175.460938 551.042969 181.488281 549.988281 Z M 162.082031 559.921875 C 156.132812 561.226562 150.320312 562.621094 144.644531 564.109375 L 143.125 558.304688 C 148.878906 556.796875 154.769531 555.382812 160.796875 554.058594 Z M 141.828125 564.859375 C 135.921875 566.449219 130.1875 568.136719 124.625 569.917969 L 122.792969 564.207031 C 128.445312 562.394531 134.269531 560.679688 140.265625 559.066406 Z M 121.863281 570.816406 C 116.035156 572.738281 110.425781 574.753906 105.035156 576.871094 L 102.84375 571.285156 C 108.335938 569.128906 114.050781 567.074219 119.984375 565.117188 Z M 102.296875 577.960938 C 96.597656 580.265625 91.179688 582.671875 86.050781 585.179688 L 83.417969 579.789062 C 88.675781 577.21875 94.21875 574.757812 100.050781 572.398438 Z M 83.316406 586.535156 C 77.78125 589.335938 72.625 592.238281 67.855469 595.246094 L 64.65625 590.167969 C 69.585938 587.0625 74.90625 584.066406 80.609375 581.183594 Z M 65.355469 596.851562 C 60.152344 600.269531 55.476562 603.789062 51.328125 607.40625 L 47.382812 602.886719 C 51.734375 599.085938 56.628906 595.402344 62.0625 591.835938 Z M 49.21875 609.300781 C 44.640625 613.523438 40.816406 617.839844 37.75 622.246094 L 32.824219 618.816406 C 36.144531 614.050781 40.25 609.410156 45.148438 604.890625 Z M 36.179688 624.613281 C 32.957031 629.734375 30.777344 634.917969 29.648438 640.164062 L 23.78125 638.902344 C 25.0625 632.964844 27.5 627.136719 31.101562 621.417969 Z M 29.152344 642.914062 C 28.878906 644.808594 28.742188 646.710938 28.742188 648.617188 C 28.742188 652.265625 29.246094 655.898438 30.253906 659.511719 L 24.472656 661.121094 C 23.320312 656.980469 22.742188 652.8125 22.742188 648.617188 C 22.742188 646.421875 22.898438 644.234375 23.214844 642.054688 Z M 31.09375 662.1875 C 32.847656 667.226562 35.578125 672.191406 39.273438 677.085938 L 34.488281 680.703125 C 30.410156 675.308594 27.390625 669.796875 25.425781 664.164062 Z M 41.050781 679.335938 C 44.460938 683.492188 48.546875 687.546875 53.308594 691.511719 L 49.472656 696.125 C 44.417969 691.917969 40.066406 687.589844 36.414062 683.144531 Z M 55.605469 693.371094 C 59.972656 696.824219 64.828125 700.171875 70.171875 703.417969 L 67.054688 708.546875 C 61.503906 705.171875 56.445312 701.683594 51.882812 698.078125 Z M 72.730469 704.945312 C 77.609375 707.792969 82.835938 710.542969 88.414062 713.1875 L 85.839844 718.609375 C 80.109375 715.890625 74.726562 713.0625 69.703125 710.125 Z M 91.039062 714.414062 C 96.25 716.8125 101.730469 719.109375 107.472656 721.304688 L 105.328125 726.910156 C 99.460938 724.664062 93.863281 722.316406 88.53125 719.867188 Z M 110.21875 722.339844 C 115.652344 724.359375 121.292969 726.28125 127.136719 728.105469 L 125.347656 733.832031 C 119.402344 731.976562 113.664062 730.019531 108.128906 727.964844 Z M 129.957031 728.976562 C 135.542969 730.671875 141.292969 732.273438 147.199219 733.785156 L 145.714844 739.597656 C 139.722656 738.066406 133.886719 736.4375 128.214844 734.714844 Z M 150.066406 734.503906 C 155.769531 735.917969 161.601562 737.242188 167.554688 738.476562 L 166.339844 744.351562 C 160.308594 743.101562 154.402344 741.761719 148.621094 740.328125 Z M 170.445312 739.066406 C 176.238281 740.226562 182.132812 741.300781 188.121094 742.285156 L 187.148438 748.203125 C 181.089844 747.210938 175.128906 746.125 169.265625 744.949219 Z M 191.027344 742.753906 C 196.886719 743.683594 202.820312 744.523438 208.828125 745.277344 L 208.082031 751.230469 C 202.007812 750.46875 196.011719 749.617188 190.089844 748.679688 Z M 211.765625 745.636719 C 217.636719 746.34375 223.5625 746.964844 229.550781 747.503906 L 229.015625 753.480469 C 222.96875 752.9375 216.980469 752.308594 211.046875 751.59375 Z M 232.5625 747.765625 C 238.457031 748.265625 244.394531 748.679688 250.371094 749.015625 L 250.035156 755.007812 C 244 754.667969 238.007812 754.25 232.054688 753.746094 Z M 253.367188 749.175781 C 259.304688 749.480469 265.269531 749.699219 271.261719 749.839844 L 271.125 755.839844 C 265.074219 755.699219 259.054688 755.472656 253.0625 755.167969 Z M 274.21875 749.902344 L 286.605469 750.019531 L 292.320312 749.992188 L 292.347656 755.992188 L 286.550781 756.015625 L 274.164062 755.902344 Z M 295.3125 749.960938 C 301.28125 749.882812 307.226562 749.722656 313.148438 749.480469 L 313.394531 755.476562 C 307.417969 755.71875 301.417969 755.878906 295.390625 755.960938 Z M 316.171875 749.351562 C 322.175781 749.078125 328.144531 748.722656 334.074219 748.28125 L 334.519531 754.265625 C 328.53125 754.710938 322.507812 755.070312 316.445312 755.34375 Z M 337.019531 748.058594 C 343.042969 747.582031 349.011719 747.023438 354.925781 746.378906 L 355.574219 752.34375 C 349.601562 752.996094 343.574219 753.558594 337.492188 754.039062 Z M 357.871094 746.050781 C 363.875 745.367188 369.804688 744.59375 375.667969 743.738281 L 376.535156 749.675781 C 370.613281 750.539062 364.617188 751.320312 358.550781 752.011719 Z M 378.613281 743.296875 C 384.589844 742.390625 390.472656 741.394531 396.269531 740.3125 L 397.371094 746.210938 C 391.507812 747.304688 385.558594 748.3125 379.511719 749.230469 Z M 399.207031 739.753906 C 405.152344 738.605469 410.980469 737.367188 416.691406 736.042969 L 418.050781 741.886719 C 412.265625 743.230469 406.363281 744.484375 400.34375 745.644531 Z M 419.613281 735.351562 C 425.515625 733.9375 431.273438 732.433594 436.882812 730.832031 L 438.527344 736.601562 C 432.835938 738.226562 426.996094 739.753906 421.011719 741.1875 Z M 439.769531 729.996094 C 445.621094 728.28125 451.28125 726.46875 456.753906 724.5625 L 458.730469 730.230469 C 453.164062 732.167969 447.40625 734.011719 441.460938 735.753906 Z M 459.585938 723.5625 C 465.359375 721.492188 470.886719 719.324219 476.171875 717.054688 L 478.539062 722.570312 C 473.140625 724.882812 467.5 727.097656 461.613281 729.210938 Z M 478.902344 715.863281 C 484.542969 713.367188 489.867188 710.765625 494.867188 708.066406 L 497.71875 713.34375 C 492.578125 716.121094 487.117188 718.789062 481.332031 721.351562 Z M 497.429688 706.65625 C 502.832031 703.632812 507.804688 700.503906 512.34375 697.273438 L 515.824219 702.160156 C 511.109375 705.515625 505.953125 708.761719 500.359375 711.894531 Z M 514.671875 695.578125 C 519.683594 691.847656 524.085938 688.015625 527.871094 684.082031 L 532.191406 688.246094 C 528.175781 692.414062 523.53125 696.464844 518.253906 700.390625 Z M 529.832031 681.980469 C 533.976562 677.371094 537.242188 672.683594 539.632812 667.914062 L 544.996094 670.601562 C 542.363281 675.855469 538.796875 680.984375 534.292969 685.992188 Z M 540.835938 665.335938 C 543.160156 659.953125 544.351562 654.519531 544.410156 649.035156 L 550.410156 649.101562 C 550.34375 655.386719 548.988281 661.589844 546.34375 667.714844 Z M 544.339844 646.242188 C 544.015625 640.804688 542.570312 635.421875 540.011719 630.089844 L 545.421875 627.496094 C 548.320312 633.535156 549.957031 639.664062 550.332031 645.882812 Z M 538.71875 627.570312 C 536.148438 622.886719 532.730469 618.285156 528.46875 613.769531 L 532.832031 609.652344 C 537.445312 614.539062 541.160156 619.550781 543.976562 624.6875 Z M 526.445312 611.699219 C 522.566406 607.851562 518.097656 604.101562 513.039062 600.457031 L 516.546875 595.589844 C 521.863281 599.421875 526.570312 603.371094 530.671875 607.441406 Z M 510.703125 598.808594 C 506.105469 595.632812 501.085938 592.558594 495.644531 589.585938 L 498.519531 584.320312 C 504.144531 587.390625 509.339844 590.574219 514.113281 593.871094 Z M 493.039062 588.191406 C 488.003906 585.535156 482.65625 582.984375 476.996094 580.53125 L 479.382812 575.027344 C 485.183594 577.539062 490.667969 580.15625 495.835938 582.882812 Z M 474.234375 579.351562 C 468.929688 577.125 463.390625 574.996094 457.609375 572.96875 L 459.601562 567.304688 C 465.492188 569.375 471.144531 571.546875 476.558594 573.820312 Z M 454.753906 571.976562 C 449.269531 570.105469 443.605469 568.328125 437.753906 566.648438 L 439.410156 560.878906 C 445.355469 562.589844 451.117188 564.394531 456.691406 566.300781 Z M 434.84375 565.824219 C 429.230469 564.253906 423.472656 562.777344 417.574219 561.394531 L 418.941406 555.554688 C 424.925781 556.957031 430.761719 558.453125 436.457031 560.042969 Z M 414.632812 560.714844 C 408.921875 559.417969 403.09375 558.207031 397.15625 557.085938 L 398.269531 551.1875 C 404.28125 552.324219 410.179688 553.550781 415.964844 554.867188 Z M 394.203125 556.535156 C 388.410156 555.476562 382.527344 554.507812 376.554688 553.625 L 377.433594 547.6875 C 383.472656 548.582031 389.417969 549.5625 395.28125 550.632812 Z M 373.597656 553.195312 C 367.738281 552.359375 361.808594 551.613281 355.8125 550.949219 L 356.472656 544.984375 C 362.53125 545.65625 368.519531 546.410156 374.445312 547.253906 Z M 352.855469 550.628906 C 346.941406 550.007812 340.976562 549.46875 334.960938 549.015625 L 335.414062 543.03125 C 341.488281 543.488281 347.511719 544.035156 353.484375 544.664062 Z M 332.011719 548.796875 C 326.0625 548.378906 320.078125 548.042969 314.058594 547.789062 L 314.3125 541.792969 C 320.390625 542.050781 326.429688 542.390625 332.433594 542.8125 Z M 311.085938 547.671875 C 305.152344 547.449219 299.195312 547.304688 293.210938 547.246094 L 293.273438 541.246094 C 299.308594 541.308594 305.324219 541.449219 311.3125 541.675781 Z M 290.210938 547.222656 L 286.570312 547.214844 C 280.558594 547.214844 274.5625 547.292969 268.585938 547.457031 L 268.421875 541.460938 C 274.453125 541.296875 280.507812 541.214844 286.585938 541.214844 L 290.226562 541.222656 Z M 290.210938 547.222656 " fill-opacity="1" fill-rule="nonzero"/></g></g></svg>